<svg width="70" height="70" viewBox="0 0 70 70" fill="none" xmlns="http://www.w3.org/2000/svg">
<rect width="70" height="70" rx="16" fill="url(#paint0_linear_268_68275)"/>
<path d="M35.0004 57.1667C45.1121 53.7166 52.3199 45.6964 53.4503 35.4846C53.7641 31.0517 53.7375 26.6015 53.3709 22.1725C53.3225 21.4744 53.0129 20.8193 52.5026 20.335C51.9923 19.8508 51.3179 19.5722 50.6113 19.5537C46.0368 19.4143 40.7199 18.6594 36.6117 14.6537C36.1824 14.2348 35.6038 14 35.001 14C34.3981 14 33.8195 14.2348 33.3902 14.6537C29.2809 18.6594 23.964 19.4143 19.3906 19.5537C18.684 19.5722 18.0096 19.8508 17.4993 20.335C16.989 20.8193 16.6794 21.4744 16.631 22.1725C16.264 26.6015 16.2371 31.0516 16.5505 35.4846C17.6809 45.6964 24.8887 53.7166 35.0004 57.1667Z" stroke="white" stroke-width="1.5" stroke-linecap="round" stroke-linejoin="round"/>
<defs>
<linearGradient id="paint0_linear_268_68275" x1="35" y1="0" x2="35" y2="70" gradientUnits="userSpaceOnUse">
<stop stop-color="#00A6CA"/>
<stop offset="1" stop-color="#00D2FF"/>
</linearGradient>
</defs>
</svg>
