<svg width="174" height="54" viewBox="0 0 174 54" fill="none" xmlns="http://www.w3.org/2000/svg">
<path d="M15.8748 22.194C17.0018 21.0867 17.7002 19.5558 17.7002 17.8664C17.7002 15.5263 16.3636 13.4937 14.4009 12.4621C14.6947 12.2894 14.962 12.0835 15.2029 11.8469C15.947 11.1134 16.4094 10.1007 16.4094 8.98388C16.4094 5.59321 13.611 2.84375 10.1576 2.84375H0.0117188V23.9876H11.4701C13.192 23.9876 14.7477 23.3038 15.8748 22.194ZM4.20446 6.36694H9.72172C11.0727 6.36694 12.1661 7.44116 12.1661 8.76858C12.1661 9.43109 11.8915 10.0321 11.4508 10.4651C11.0077 10.9005 10.3984 11.1702 9.72172 11.1702H4.20446V6.36694ZM4.20446 20.4739V14.885H10.8608C12.431 14.885 13.7025 16.1367 13.7025 17.6795C13.7025 18.4508 13.3846 19.1488 12.8693 19.6552C12.3563 20.1615 11.6459 20.4739 10.8608 20.4739H4.20446Z" fill="url(#paint0_linear_536_83322)"/>
<path d="M15.7231 37.6221C17.1078 36.6212 18.006 35.0099 18.006 33.1927V32.9277C18.006 29.5346 15.2053 26.7852 11.7543 26.7852H0.0117188V50.9293H11.8554C15.8988 50.9293 19.1764 47.709 19.1764 43.7386V43.1541C19.1764 40.7383 17.7724 38.6466 15.7231 37.6221ZM5.92634 32.0711H10.3984C11.3569 32.0711 12.1348 32.8354 12.1348 33.7771C12.1348 34.248 11.9397 34.6763 11.6266 34.9838C11.3112 35.2938 10.8777 35.4831 10.3984 35.4831H5.92634V32.0711ZM12.72 44.6401C12.3226 45.0305 11.7735 45.2718 11.1667 45.2718H5.92634V40.9512H11.1667C12.3804 40.9512 13.3654 41.919 13.3654 43.1115C13.3654 43.7078 13.1197 44.2473 12.72 44.6401Z" fill="url(#paint1_linear_536_83322)"/>
<path d="M64.888 13.6962V13.1352C64.888 7.44968 60.1977 2.84375 54.4135 2.84375H46.3477V23.9876H54.4135C60.1977 23.9876 64.888 19.3793 64.888 13.6962ZM50.227 20.2963V6.53509H54.2071C58.0769 6.53509 61.2125 9.61591 61.2125 13.4157C61.2125 15.3156 60.428 17.0363 59.1613 18.2809C57.8946 19.5255 56.1432 20.2963 54.2071 20.2963H50.227Z" fill="url(#paint2_linear_536_83322)"/>
<path d="M31.8233 24.4856C38.0076 24.4856 43.0216 19.5593 43.0216 13.483C43.0216 7.4044 38.0076 2.48047 31.8233 2.48047C25.6389 2.48047 20.625 7.4044 20.625 13.483C20.625 19.5593 25.6389 24.4856 31.8233 24.4856ZM31.8233 6.36566C35.8234 6.36566 39.0649 9.55286 39.0649 13.483C39.0649 17.4108 35.8234 20.598 31.8233 20.598C27.8232 20.598 24.5793 17.4108 24.5793 13.483C24.5793 9.55286 27.8232 6.36566 31.8233 6.36566Z" fill="url(#paint3_linear_536_83322)"/>
<path d="M74.6673 24.2289H78.5469V15.5689L86.7494 2.84375H82.2171L76.6083 11.5417L70.9971 2.84375H66.4648L74.6673 15.5689V24.2289Z" fill="url(#paint4_linear_536_83322)"/>
<path d="M29.4724 26.5625L19.707 50.929H26.32L27.659 47.4153H35.912L37.251 50.929H44.1795L34.1998 26.5625H29.4724ZM29.7638 41.8904L31.9433 36.169L33.8072 41.8904H29.7638Z" fill="url(#paint5_linear_536_83322)"/>
<path d="M74.3264 26.5625L64.5586 50.929H71.1716L72.5106 47.4153H80.7636L82.1026 50.929H89.0311L79.0538 26.5625H74.3264ZM74.6154 41.8904L76.7972 36.169L78.6612 41.8904H74.6154Z" fill="url(#paint6_linear_536_83322)"/>
<path d="M52.5835 26.8047H46.3125V50.9298H62.7487V45.0902H52.5835V26.8047Z" fill="url(#paint7_linear_536_83322)"/>
<path d="M124.79 45.5979C120.984 45.5979 117.899 42.5663 117.899 38.8275C117.899 35.0887 120.984 32.057 124.79 32.057C127.841 32.057 130.428 34.0041 131.333 36.7036H137.416C136.39 30.7646 131.129 26.2422 124.79 26.2422C117.716 26.2422 111.98 31.8779 111.98 38.8275C111.98 45.7795 117.716 51.4128 124.79 51.4128C131.206 51.4128 136.519 46.7781 137.453 40.7291H131.403C130.569 43.5434 127.924 45.5979 124.79 45.5979Z" fill="url(#paint8_linear_536_83322)"/>
<path d="M103.742 38.8255L95.051 26.7227H90.4609V50.9282H96.5682V39.1875L104.93 50.9282H109.623V26.7227H103.742V38.8255Z" fill="url(#paint9_linear_536_83322)"/>
<path d="M140.004 50.9282H156.102V45.1881H145.805V41.6554H156.102V35.9153H145.805V32.4628H156.102V26.7227H140.004V50.9282Z" fill="url(#paint10_linear_536_83322)"/>
<path d="M169.573 36.2708V31.9219H164.489V36.2708H160.062V41.2657H164.489V45.6147H169.573V41.2657H173.999V36.2708H169.573Z" fill="url(#paint11_linear_536_83322)"/>
<path d="M135.876 11.1687C128.056 11.0717 111.839 10.8516 110.652 10.6694C110.187 10.5984 109.32 10.4659 109.32 10.4659C109.152 10.4399 108.338 10.3145 108.174 10.2885L107.972 10.2482C106.5 9.9572 105.089 9.42719 103.793 8.68422C102.975 8.17077 102.004 7.875 100.961 7.875C98.0426 7.875 95.6777 10.2009 95.6777 13.0687C95.6777 15.9364 98.0426 18.2624 100.961 18.2624C102.004 18.2624 102.975 17.9666 103.793 17.4531C105.089 16.7102 106.5 16.1801 107.972 15.8891L108.174 15.8489C108.338 15.8229 109.152 15.6975 109.32 15.6714C109.32 15.6714 110.187 15.5389 110.652 15.4679C111.839 15.2858 128.056 15.0657 135.876 14.9687V11.1687Z" fill="url(#paint12_linear_536_83322)"/>
<path d="M137.172 14.9552L138.923 14.9339V11.2049L137.172 11.1836V14.9552Z" fill="url(#paint13_linear_536_83322)"/>
<path d="M141.964 11.2439L140.211 11.2227V14.9186L141.964 14.8973V11.2439Z" fill="url(#paint14_linear_536_83322)"/>
<path d="M154.418 11.3903L143.256 11.2578V14.8827L154.418 14.7502C155.355 14.7384 156.106 13.9883 156.106 13.0703C156.106 12.1522 155.355 11.4022 154.418 11.3903Z" fill="url(#paint15_linear_536_83322)"/>
<defs>
<linearGradient id="paint0_linear_536_83322" x1="8.85596" y1="2.84375" x2="8.85596" y2="23.9876" gradientUnits="userSpaceOnUse">
<stop stop-color="#00A6CA"/>
<stop offset="1" stop-color="#00D2FF"/>
</linearGradient>
<linearGradient id="paint1_linear_536_83322" x1="9.59408" y1="26.7852" x2="9.59408" y2="50.9293" gradientUnits="userSpaceOnUse">
<stop stop-color="#00A6CA"/>
<stop offset="1" stop-color="#00D2FF"/>
</linearGradient>
<linearGradient id="paint2_linear_536_83322" x1="55.6178" y1="2.84375" x2="55.6178" y2="23.9876" gradientUnits="userSpaceOnUse">
<stop stop-color="#00A6CA"/>
<stop offset="1" stop-color="#00D2FF"/>
</linearGradient>
<linearGradient id="paint3_linear_536_83322" x1="31.8233" y1="2.48047" x2="31.8233" y2="24.4856" gradientUnits="userSpaceOnUse">
<stop stop-color="#00A6CA"/>
<stop offset="1" stop-color="#00D2FF"/>
</linearGradient>
<linearGradient id="paint4_linear_536_83322" x1="76.6071" y1="2.84375" x2="76.6071" y2="24.2289" gradientUnits="userSpaceOnUse">
<stop stop-color="#00A6CA"/>
<stop offset="1" stop-color="#00D2FF"/>
</linearGradient>
<linearGradient id="paint5_linear_536_83322" x1="31.9433" y1="26.5625" x2="31.9433" y2="50.929" gradientUnits="userSpaceOnUse">
<stop stop-color="#00A6CA"/>
<stop offset="1" stop-color="#00D2FF"/>
</linearGradient>
<linearGradient id="paint6_linear_536_83322" x1="76.7948" y1="26.5625" x2="76.7948" y2="50.929" gradientUnits="userSpaceOnUse">
<stop stop-color="#00A6CA"/>
<stop offset="1" stop-color="#00D2FF"/>
</linearGradient>
<linearGradient id="paint7_linear_536_83322" x1="54.5306" y1="26.8047" x2="54.5306" y2="50.9298" gradientUnits="userSpaceOnUse">
<stop stop-color="#00A6CA"/>
<stop offset="1" stop-color="#00D2FF"/>
</linearGradient>
<linearGradient id="paint8_linear_536_83322" x1="124.717" y1="26.2422" x2="124.717" y2="51.4128" gradientUnits="userSpaceOnUse">
<stop stop-color="#00A6CA"/>
<stop offset="1" stop-color="#00D2FF"/>
</linearGradient>
<linearGradient id="paint9_linear_536_83322" x1="100.042" y1="26.7227" x2="100.042" y2="50.9282" gradientUnits="userSpaceOnUse">
<stop stop-color="#00A6CA"/>
<stop offset="1" stop-color="#00D2FF"/>
</linearGradient>
<linearGradient id="paint10_linear_536_83322" x1="148.053" y1="26.7227" x2="148.053" y2="50.9282" gradientUnits="userSpaceOnUse">
<stop stop-color="#00A6CA"/>
<stop offset="1" stop-color="#00D2FF"/>
</linearGradient>
<linearGradient id="paint11_linear_536_83322" x1="167.031" y1="31.9219" x2="167.031" y2="45.6147" gradientUnits="userSpaceOnUse">
<stop stop-color="#00A6CA"/>
<stop offset="1" stop-color="#00D2FF"/>
</linearGradient>
<linearGradient id="paint12_linear_536_83322" x1="115.777" y1="7.875" x2="115.777" y2="18.2624" gradientUnits="userSpaceOnUse">
<stop stop-color="#00A6CA"/>
<stop offset="1" stop-color="#00D2FF"/>
</linearGradient>
<linearGradient id="paint13_linear_536_83322" x1="138.047" y1="11.1836" x2="138.047" y2="14.9552" gradientUnits="userSpaceOnUse">
<stop stop-color="#00A6CA"/>
<stop offset="1" stop-color="#00D2FF"/>
</linearGradient>
<linearGradient id="paint14_linear_536_83322" x1="141.088" y1="11.2227" x2="141.088" y2="14.9186" gradientUnits="userSpaceOnUse">
<stop stop-color="#00A6CA"/>
<stop offset="1" stop-color="#00D2FF"/>
</linearGradient>
<linearGradient id="paint15_linear_536_83322" x1="149.681" y1="11.2578" x2="149.681" y2="14.8827" gradientUnits="userSpaceOnUse">
<stop stop-color="#00A6CA"/>
<stop offset="1" stop-color="#00D2FF"/>
</linearGradient>
</defs>
</svg>
