<svg width="20" height="20" viewBox="0 0 20 20" fill="none" xmlns="http://www.w3.org/2000/svg">
<g clip-path="url(#clip0_1070_46235)">
<path d="M19.4753 15.4289L15.4272 12.7293C14.9135 12.3895 14.2249 12.5013 13.8451 12.9863L12.6659 14.5024C12.5144 14.7022 12.2389 14.7601 12.0197 14.6384L11.7954 14.5147C11.0518 14.1094 10.1267 13.6048 8.2626 11.7401C6.39854 9.8754 5.89295 8.94952 5.48766 8.20733L5.36467 7.98303C5.24121 7.76384 5.29808 7.4872 5.49797 7.33445L7.01306 6.15564C7.49783 5.77582 7.6098 5.0874 7.27036 4.57353L4.57076 0.525462C4.22288 0.00218074 3.52494 -0.154905 2.98639 0.168836L1.29363 1.18568C0.761757 1.49836 0.371542 2.00477 0.204809 2.59879C-0.404749 4.81979 0.053815 8.65289 5.70032 14.3001C10.192 18.7914 13.5358 19.9992 15.8342 19.9992C16.3631 20.0015 16.89 19.9327 17.4006 19.7946C17.9947 19.6281 18.5012 19.2378 18.8137 18.7058L19.8316 17.014C20.1558 16.4754 19.9988 15.777 19.4753 15.4289ZM19.2573 16.672L18.2418 18.3648C18.0174 18.7488 17.6531 19.0312 17.2253 19.1527C15.1749 19.7156 11.5928 19.2494 6.17189 13.8285C0.751017 8.40761 0.284797 4.8258 0.847721 2.77513C0.969422 2.34675 1.25211 1.982 1.63659 1.75727L3.32934 0.741758C3.56302 0.601154 3.86594 0.669308 4.0169 0.896384L5.48336 3.09805L6.71419 4.9441C6.86159 5.167 6.81316 5.46574 6.60288 5.63068L5.08744 6.80949C4.62626 7.16213 4.49456 7.8002 4.7785 8.30661L4.89884 8.52525C5.32479 9.30646 5.85436 10.2783 7.78775 12.2114C9.72113 14.1444 10.6927 14.674 11.4735 15.0999L11.6925 15.2206C12.1988 15.5045 12.837 15.3728 13.1896 14.9116L14.3684 13.3962C14.5334 13.186 14.832 13.1377 15.055 13.2849L19.1027 15.9845C19.3299 16.1353 19.3981 16.4384 19.2573 16.672Z" fill="#00A6CA"/>
<path d="M11.3328 3.33505C14.4605 3.33852 16.9951 5.87319 16.9986 9.00089C16.9986 9.18496 17.1478 9.33416 17.3319 9.33416C17.516 9.33416 17.6652 9.18496 17.6652 9.00089C17.6613 5.50519 14.8285 2.67233 11.3328 2.6685C11.1487 2.6685 10.9995 2.8177 10.9995 3.00177C10.9995 3.18585 11.1487 3.33505 11.3328 3.33505Z" fill="#00A6CA"/>
<path d="M11.3328 5.33475C13.3566 5.33713 14.9966 6.97712 14.9989 9.00088C14.9989 9.18496 15.1482 9.33415 15.3322 9.33415C15.5163 9.33415 15.6655 9.18496 15.6655 9.00088C15.6627 6.60913 13.7245 4.67094 11.3328 4.66821C11.1487 4.66821 10.9995 4.8174 10.9995 5.00148C10.9995 5.18555 11.1487 5.33475 11.3328 5.33475Z" fill="#00A6CA"/>
<path d="M11.3328 7.33445C12.2527 7.33554 12.9981 8.08098 12.9992 9.00088C12.9992 9.18496 13.1485 9.33415 13.3325 9.33415C13.5165 9.33415 13.6658 9.18496 13.6658 9.00088C13.6643 7.71303 12.6207 6.66935 11.3328 6.66791C11.1487 6.66791 10.9995 6.8171 10.9995 7.00118C10.9995 7.18525 11.1487 7.33445 11.3328 7.33445Z" fill="#00A6CA"/>
</g>
<defs>
<clipPath id="clip0_1070_46235">
<rect width="20" height="20" fill="white"/>
</clipPath>
</defs>
</svg>
