<svg width="8" height="8" viewBox="0 0 8 8" fill="none" xmlns="http://www.w3.org/2000/svg">
<g clip-path="url(#clip0_1287_97610)">
<path d="M4.44196 4.00099L7.90847 0.534464C8.03052 0.412417 8.03052 0.214543 7.90847 0.0925115C7.78643 -0.0295195 7.58855 -0.0295351 7.46652 0.0925115L4 3.55904L0.533487 0.0925115C0.411441 -0.0295351 0.213566 -0.0295351 0.091535 0.0925115C-0.030496 0.214558 -0.0305117 0.412433 0.091535 0.534464L3.55804 4.00097L0.091535 7.4675C-0.0305117 7.58954 -0.0305117 7.78742 0.091535 7.90945C0.15255 7.97047 0.232535 8.00097 0.312519 8.00097C0.392503 8.00097 0.472472 7.97047 0.533503 7.90945L4 4.44294L7.46651 7.90945C7.52752 7.97047 7.6075 8.00097 7.68749 8.00097C7.76747 8.00097 7.84744 7.97047 7.90847 7.90945C8.03052 7.7874 8.03052 7.58953 7.90847 7.4675L4.44196 4.00099Z" fill="black"/>
</g>
<defs>
<clipPath id="clip0_1287_97610">
<rect width="8" height="8" fill="white"/>
</clipPath>
</defs>
</svg>
