<svg width="43" height="43" viewBox="0 0 43 43" fill="none" xmlns="http://www.w3.org/2000/svg">
<path d="M21.4999 17.7266C19.4038 17.7266 17.667 19.4633 17.667 21.5594C17.667 23.6555 19.4038 25.3923 21.4999 25.3923C23.596 25.3923 25.3327 23.6555 25.3327 21.5594C25.3327 19.4633 23.6558 17.7266 21.4999 17.7266Z" fill="url(#paint0_linear_1151_106569)"/>
<path d="M27.9082 11.4395H15.092C13.0558 11.4395 11.3789 13.1163 11.3789 15.1525V27.9687C11.3789 30.0049 13.0558 31.6818 15.092 31.6818H27.9082C29.9444 31.6818 31.6212 30.0049 31.6212 27.9687V15.1525C31.6212 13.1163 29.9444 11.4395 27.9082 11.4395ZM28.1477 21.5606C28.1477 25.2138 25.1533 28.2083 21.5001 28.2083C17.8469 28.2083 14.8524 25.2138 14.8524 21.5606C14.8524 17.9074 17.8469 14.913 21.5001 14.913C25.1533 14.913 28.1477 17.9074 28.1477 21.5606ZM29.9444 14.7333C29.9444 15.6317 29.2257 16.2904 28.3873 16.2904C27.4889 16.2904 26.8302 15.5718 26.8302 14.7333C26.8302 13.8949 27.5488 13.1762 28.3873 13.1762C29.2257 13.1163 29.9444 13.835 29.9444 14.7333C29.9444 14.7333 29.9444 14.6734 29.9444 14.7333Z" fill="url(#paint1_linear_1151_106569)"/>
<path d="M21.5 0C9.64206 0 0 9.64206 0 21.5C0 33.3579 9.64206 43 21.5 43C33.3579 43 43 33.3579 43 21.5C43 9.64206 33.3579 0 21.5 0ZM34.4359 27.968C34.4359 31.5613 31.5014 34.4958 27.9081 34.4958H15.0919C11.4986 34.4958 8.56407 31.5613 8.56407 27.968V15.1518C8.56407 11.5585 11.4986 8.62395 15.0919 8.62395H27.9081C31.5014 8.62395 34.4359 11.5585 34.4359 15.1518V27.968Z" fill="url(#paint2_linear_1151_106569)"/>
<defs>
<linearGradient id="paint0_linear_1151_106569" x1="18.1817" y1="24.8929" x2="25.2845" y2="18.7443" gradientUnits="userSpaceOnUse">
<stop stop-color="#FFDD55"/>
<stop offset="0.5" stop-color="#FF543E"/>
<stop offset="1" stop-color="#C837AB"/>
</linearGradient>
<linearGradient id="paint1_linear_1151_106569" x1="12.738" y1="30.363" x2="31.4939" y2="14.1268" gradientUnits="userSpaceOnUse">
<stop stop-color="#FFDD55"/>
<stop offset="0.5" stop-color="#FF543E"/>
<stop offset="1" stop-color="#C837AB"/>
</linearGradient>
<linearGradient id="paint2_linear_1151_106569" x1="2.88709" y1="40.1986" x2="42.7295" y2="5.70863" gradientUnits="userSpaceOnUse">
<stop stop-color="#FFDD55"/>
<stop offset="0.5" stop-color="#FF543E"/>
<stop offset="1" stop-color="#C837AB"/>
</linearGradient>
</defs>
</svg>
