<svg width="107" height="35" viewBox="0 0 107 35" fill="none" xmlns="http://www.w3.org/2000/svg">
<path d="M9.76268 14.4821C10.4557 13.789 10.8852 12.8308 10.8852 11.7735C10.8852 10.3088 10.0633 9.03671 8.85634 8.39103C9.03702 8.28293 9.2014 8.15408 9.34949 8.00599C9.8071 7.5469 10.0914 6.91307 10.0914 6.21407C10.0914 4.0919 8.3706 2.37106 6.24695 2.37106H0.0078125V15.6046H7.05406C8.11292 15.6046 9.0696 15.1766 9.76268 14.4821ZM2.5861 4.57616H5.97891C6.80971 4.57616 7.48205 5.2485 7.48205 6.07931C7.48205 6.49396 7.31322 6.87012 7.04221 7.14113C6.76972 7.41362 6.39504 7.58245 5.97891 7.58245H2.5861V4.57616ZM2.5861 13.4054V9.9075H6.67939C7.64495 9.9075 8.42688 10.6909 8.42688 11.6565C8.42688 12.1393 8.23139 12.5761 7.91447 12.8931C7.59904 13.21 7.16216 13.4054 6.67939 13.4054H2.5861Z" fill="#FCFCFC"/>
<path d="M9.66938 24.1392C10.5209 23.5128 11.0733 22.5043 11.0733 21.3669V21.2011C11.0733 19.0774 9.35097 17.3566 7.22881 17.3566H0.0078125V32.4679H7.29101C9.77748 32.4679 11.793 30.4524 11.793 27.9674V27.6016C11.793 26.0896 10.9296 24.7804 9.66938 24.1392ZM3.64496 20.665H6.39504C6.98446 20.665 7.46279 21.1433 7.46279 21.7327C7.46279 22.0274 7.34284 22.2955 7.15032 22.488C6.95632 22.682 6.68976 22.8004 6.39504 22.8004H3.64496V20.665ZM7.82266 28.5316C7.57831 28.776 7.24066 28.927 6.86746 28.927H3.64496V26.2229H6.86746C7.61385 26.2229 8.21954 26.8286 8.21954 27.575C8.21954 27.9482 8.06849 28.2858 7.82266 28.5316Z" fill="#FCFCFC"/>
<path d="M39.903 9.16341V8.81229C39.903 5.25383 37.0188 2.37106 33.4618 2.37106H28.5018V15.6046H33.4618C37.0188 15.6046 39.903 12.7204 39.903 9.16341ZM30.8874 13.2943V4.68141H33.3349C35.7146 4.68141 37.6428 6.60964 37.6428 8.98785C37.6428 10.1769 37.1604 11.2539 36.3814 12.0329C35.6025 12.8119 34.5255 13.2943 33.3349 13.2943H30.8874Z" fill="#FCFCFC"/>
<path d="M19.5699 15.9171C23.3729 15.9171 26.4562 12.8338 26.4562 9.03081C26.4562 5.22631 23.3729 2.1445 19.5699 2.1445C15.7669 2.1445 12.6836 5.22631 12.6836 9.03081C12.6836 12.8338 15.7669 15.9171 19.5699 15.9171ZM19.5699 4.57618C22.0297 4.57618 24.023 6.57099 24.023 9.03081C24.023 11.4891 22.0297 13.484 19.5699 13.484C17.1101 13.484 15.1153 11.4891 15.1153 9.03081C15.1153 6.57099 17.1101 4.57618 19.5699 4.57618Z" fill="#FCFCFC"/>
<path d="M45.9171 15.7557H48.3028V10.3355L53.3469 2.37106H50.5598L47.1107 7.81495L43.6601 2.37106H40.873L45.9171 10.3355V15.7557Z" fill="#FCFCFC"/>
<path d="M18.1262 17.2174L12.1211 32.4679H16.1877L17.0111 30.2688H22.0862L22.9096 32.4679H27.1703L21.0333 17.2174H18.1262ZM18.3054 26.8108L19.6457 23.2299L20.7919 26.8108H18.3054Z" fill="#FCFCFC"/>
<path d="M45.7059 17.2174L39.6992 32.4679H43.7658L44.5892 30.2688H49.6644L50.4878 32.4679H54.7484L48.6129 17.2174H45.7059ZM45.8836 26.8108L47.2253 23.2299L48.3715 26.8108H45.8836Z" fill="#FCFCFC"/>
<path d="M32.3368 17.3684H28.4805V32.4679H38.5878V28.813H32.3368V17.3684Z" fill="#FCFCFC"/>
<path d="M76.7402 29.1305C74.4002 29.1305 72.5027 27.2331 72.5027 24.893C72.5027 22.553 74.4002 20.6555 76.7402 20.6555C78.6167 20.6555 80.2077 21.8741 80.7639 23.5637H84.505C83.874 19.8466 80.6383 17.0161 76.7402 17.0161C72.3905 17.0161 68.8633 20.5434 68.8633 24.893C68.8633 29.2441 72.3905 32.7699 76.7402 32.7699C80.6861 32.7699 83.9532 29.8692 84.5274 26.0832H80.8072C80.2944 27.8446 78.6676 29.1305 76.7402 29.1305Z" fill="#FCFCFC"/>
<path d="M63.7962 24.893L58.4515 17.3181H55.6289V32.468H59.3845V25.1196L64.5263 32.468H67.4126V17.3181H63.7962V24.893Z" fill="#FCFCFC"/>
<path d="M86.0938 32.468H95.9934V28.8753H89.6613V26.6642H95.9934V23.0716H89.6613V20.9107H95.9934V17.3181H86.0938V32.468Z" fill="#FCFCFC"/>
<path d="M104.278 23.2921V20.5702H101.152V23.2921H98.4297V26.4183H101.152V29.1403H104.278V26.4183H107V23.2921H104.278Z" fill="#FCFCFC"/>
<path d="M83.5575 7.58242C78.7489 7.5217 68.7764 7.38397 68.0463 7.26994C67.7605 7.22551 67.2273 7.14258 67.2273 7.14258C67.1237 7.1263 66.6231 7.0478 66.5224 7.03151L66.398 7.00634C65.4932 6.82418 64.6254 6.49245 63.8286 6.02744C63.3251 5.70608 62.7283 5.52097 62.087 5.52097C60.2922 5.52097 58.8379 6.97672 58.8379 8.7716C58.8379 10.5665 60.2922 12.0222 62.087 12.0222C62.7283 12.0222 63.3251 11.8371 63.8286 11.5158C64.6254 11.0507 65.4932 10.719 66.398 10.5369L66.5224 10.5117C66.6231 10.4954 67.1237 10.4169 67.2273 10.4006C67.2273 10.4006 67.7605 10.3177 68.0463 10.2733C68.7764 10.1592 78.7489 10.0215 83.5575 9.96078V7.58242Z" fill="#FCFCFC"/>
<path d="M84.3516 9.952L85.4282 9.93867V7.60473L84.3516 7.5914V9.952Z" fill="#FCFCFC"/>
<path d="M87.301 7.62837L86.2229 7.61505V9.92825L87.301 9.91493V7.62837Z" fill="#FCFCFC"/>
<path d="M94.9598 7.72023L88.0957 7.6373V9.90608L94.9598 9.82315C95.5359 9.81574 95.9979 9.34629 95.9979 8.77169C95.9979 8.19709 95.5359 7.72765 94.9598 7.72023Z" fill="#FCFCFC"/>
</svg>
