<svg width="18" height="19" viewBox="0 0 18 19" fill="none" xmlns="http://www.w3.org/2000/svg">
<path d="M15.9628 6.70645L11.4997 6.05782L9.5046 2.01309C9.45011 1.90235 9.36046 1.8127 9.24972 1.75821C8.97198 1.6211 8.63448 1.73536 8.49562 2.01309L6.5005 6.05782L2.03741 6.70645C1.91437 6.72403 1.80187 6.78204 1.71573 6.86993C1.6116 6.97696 1.55422 7.12094 1.5562 7.27026C1.55818 7.41957 1.61935 7.56199 1.72628 7.66622L4.95538 10.8145L4.19249 15.26C4.1746 15.3634 4.18605 15.4697 4.22552 15.567C4.265 15.6642 4.33094 15.7484 4.41585 15.8101C4.50077 15.8718 4.60127 15.9084 4.70595 15.9159C4.81063 15.9234 4.91531 15.9014 5.00812 15.8524L9.00011 13.7535L12.9921 15.8524C13.1011 15.9104 13.2276 15.9297 13.3489 15.9086C13.6548 15.8559 13.8605 15.5658 13.8077 15.26L13.0448 10.8145L16.2739 7.66622C16.3618 7.58008 16.4198 7.46758 16.4374 7.34454C16.4849 7.03692 16.2704 6.75216 15.9628 6.70645Z" fill="#FFCF00"/>
</svg>
