<svg width="19" height="19" viewBox="0 0 19 19" fill="none" xmlns="http://www.w3.org/2000/svg">
<path d="M16.8584 7.40469L12.1474 6.75606L10.0414 2.71133C9.98388 2.60059 9.88925 2.51094 9.77235 2.45645C9.47919 2.31934 9.12294 2.4336 8.97636 2.71133L6.8704 6.75606L2.15937 7.40469C2.02948 7.42227 1.91073 7.48028 1.81981 7.56817C1.7099 7.6752 1.64933 7.81919 1.65142 7.9685C1.65351 8.11781 1.71808 8.26023 1.83095 8.36446L5.23944 11.5127L4.43417 15.9582C4.41529 16.0616 4.42737 16.168 4.46904 16.2652C4.51071 16.3625 4.58031 16.4467 4.66994 16.5084C4.75957 16.57 4.86565 16.6067 4.97615 16.6141C5.08665 16.6216 5.19714 16.5996 5.29511 16.5506L9.50888 14.4518L13.7226 16.5506C13.8377 16.6086 13.9713 16.6279 14.0993 16.6068C14.4222 16.5541 14.6392 16.2641 14.5836 15.9582L13.7783 11.5127L17.1868 8.36446C17.2796 8.27833 17.3408 8.16583 17.3594 8.04278C17.4095 7.73516 17.1831 7.4504 16.8584 7.40469ZM12.344 11.0697L13.0139 14.7664L9.50888 13.0227L6.0039 14.7682L6.67372 11.0715L3.83856 8.45235L7.75731 7.9127L9.50888 4.55001L11.2604 7.9127L15.1792 8.45235L12.344 11.0697Z" fill="#FFCF00"/>
</svg>
