<svg width="26" height="26" viewBox="0 0 26 26" fill="none" xmlns="http://www.w3.org/2000/svg">
<g clip-path="url(#clip0_1287_101514)">
<path d="M13 26C20.1797 26 26 20.1797 26 13C26 5.8203 20.1797 0 13 0C5.8203 0 0 5.8203 0 13C0 20.1797 5.8203 26 13 26Z" fill="#7B59E9"/>
<path d="M18.6411 7.13222C15.4768 6.36796 12.3069 5.47401 9.06189 6.60978C6.96087 7.39765 6.96087 9.67377 7.04841 11.5997C7.04841 12.1249 6.43564 12.8253 6.69823 13.4381C7.22346 15.1889 7.66119 16.9398 9.49957 17.8152C9.76222 17.9903 9.49957 18.3404 9.67467 18.603C9.58712 18.603 9.41203 18.6906 9.41203 18.7781C9.41203 19.1977 9.60032 19.8396 9.47525 20.2533L15.0615 25.8372C20.8043 24.9227 25.2928 20.2478 25.9243 14.4155L18.6411 7.13222Z" fill="#7B59E9"/>
<path d="M19.877 9.13641L19.8727 9.11925C19.5254 7.71499 17.9594 6.20821 16.5213 5.89474L16.5051 5.89139C14.179 5.44766 11.8204 5.44766 9.49486 5.89139L9.47816 5.89474C8.04054 6.20821 6.4745 7.7151 6.1267 9.11925L6.12284 9.13641C5.69343 11.0974 5.69343 13.0862 6.12284 15.0472L6.1267 15.0644C6.45972 16.4087 7.90907 17.8463 9.29352 18.2416V19.8092C9.29352 20.3765 9.9849 20.6552 10.3781 20.2457L11.9662 18.5949C12.3107 18.6141 12.6554 18.6249 12.9999 18.6249C14.1708 18.6249 15.3422 18.5141 16.505 18.2923L16.5212 18.289C17.9593 17.9755 19.5253 16.4686 19.8727 15.0645L19.8769 15.0473C20.3063 13.0862 20.3063 11.0975 19.877 9.13641ZM18.6201 14.7629C18.3882 15.6791 17.1992 16.818 16.2545 17.0284C15.0177 17.2636 13.7711 17.3641 12.5257 17.3297C12.5009 17.329 12.4771 17.3386 12.4599 17.3564C12.2831 17.5378 11.3003 18.5468 11.3003 18.5468L10.0669 19.8127C9.97673 19.9067 9.81829 19.8427 9.81829 19.7129V17.1162C9.81829 17.0733 9.78767 17.0369 9.74552 17.0285C9.74527 17.0284 9.74506 17.0284 9.74481 17.0284C8.80007 16.8179 7.61149 15.679 7.37916 14.7629C6.99267 12.9903 6.99267 11.1934 7.37916 9.42079C7.61149 8.50464 8.80007 7.36572 9.74481 7.15528C11.9048 6.74446 14.0949 6.74446 16.2545 7.15528C17.1997 7.36572 18.3882 8.50464 18.6202 9.42079C19.0071 11.1934 19.0071 12.9904 18.6201 14.7629Z" fill="white"/>
<path d="M15.0533 15.9617C14.908 15.9175 14.7697 15.8879 14.641 15.8347C13.309 15.282 12.0831 14.569 11.1121 13.4762C10.56 12.8547 10.1278 12.1531 9.76243 11.4105C9.58917 11.0584 9.44317 10.6925 9.29433 10.329C9.15864 9.99745 9.35852 9.65498 9.56896 9.40514C9.76644 9.17068 10.0206 8.99132 10.2958 8.85904C10.5106 8.75585 10.7225 8.81537 10.8794 8.99742C11.2185 9.39107 11.5301 9.80484 11.7823 10.2612C11.9374 10.5418 11.8949 10.8849 11.6137 11.0759C11.5454 11.1223 11.4831 11.1768 11.4195 11.2293C11.3636 11.2752 11.3111 11.3216 11.2728 11.3838C11.2029 11.4976 11.1995 11.6319 11.2445 11.7557C11.5912 12.7084 12.1756 13.4493 13.1346 13.8484C13.288 13.9122 13.4421 13.9865 13.6189 13.966C13.915 13.9314 14.0108 13.6066 14.2183 13.4369C14.4211 13.2711 14.6803 13.2689 14.8987 13.4072C15.1172 13.5455 15.329 13.6939 15.5395 13.8439C15.7462 13.9912 15.9519 14.1352 16.1425 14.3031C16.3258 14.4645 16.3889 14.6763 16.2857 14.8953C16.0968 15.2965 15.8218 15.6302 15.4253 15.8433C15.3133 15.9033 15.1795 15.9228 15.0533 15.9617C15.1795 15.9228 14.908 15.9175 15.0533 15.9617Z" fill="white"/>
<path d="M13.0054 8.4001C14.7477 8.44895 16.1787 9.60519 16.4854 11.3277C16.5376 11.6212 16.5562 11.9212 16.5795 12.2192C16.5893 12.3444 16.5183 12.4635 16.3831 12.4651C16.2435 12.4668 16.1807 12.3499 16.1715 12.2247C16.1536 11.9768 16.1411 11.7277 16.107 11.482C15.9266 10.184 14.8917 9.11028 13.5998 8.87988C13.4054 8.8452 13.2065 8.83611 13.0096 8.81544C12.8851 8.80239 12.7221 8.79488 12.6945 8.64009C12.6714 8.51035 12.7809 8.40706 12.9044 8.40041C12.9379 8.39843 12.9717 8.4 13.0054 8.4001C14.7478 8.44895 12.9717 8.4 13.0054 8.4001Z" fill="white"/>
<path d="M15.6497 11.8329C15.6468 11.8546 15.6453 11.9058 15.6325 11.9539C15.5863 12.1288 15.321 12.1507 15.26 11.9742C15.2419 11.9219 15.2392 11.8623 15.2391 11.8059C15.2385 11.4369 15.1583 11.0682 14.9722 10.7472C14.7809 10.4171 14.4886 10.1398 14.1459 9.97188C13.9386 9.87041 13.7145 9.80729 13.4873 9.76977C13.388 9.75331 13.2877 9.74341 13.1879 9.7295C13.067 9.71269 13.0024 9.63565 13.0082 9.51652C13.0135 9.4049 13.0951 9.32452 13.2168 9.33147C13.6166 9.35412 14.0028 9.44065 14.3583 9.62885C15.0812 10.0117 15.4941 10.6159 15.6147 11.4227C15.6201 11.4594 15.6288 11.4955 15.6316 11.5322C15.6384 11.6227 15.6428 11.7133 15.6497 11.8329C15.6468 11.8545 15.6428 11.7133 15.6497 11.8329Z" fill="white"/>
<path d="M14.5669 11.7904C14.4212 11.793 14.3432 11.7123 14.3281 11.5787C14.3177 11.4856 14.3094 11.3911 14.2871 11.3004C14.2433 11.1218 14.1484 10.9564 13.9982 10.8469C13.9273 10.7953 13.8469 10.7577 13.7628 10.7333C13.6559 10.7024 13.5448 10.7109 13.4382 10.6848C13.3224 10.6564 13.2583 10.5626 13.2765 10.4539C13.2931 10.355 13.3892 10.2778 13.4974 10.2857C14.1728 10.3345 14.6556 10.6837 14.7245 11.4789C14.7295 11.535 14.7352 11.5943 14.7227 11.6481C14.7013 11.7398 14.6332 11.7859 14.5669 11.7904C14.6332 11.7859 14.4211 11.7929 14.5669 11.7904Z" fill="white"/>
<path d="M19.8772 9.13667L19.8729 9.1195C19.6782 8.33234 19.1005 7.51304 18.377 6.88965L17.399 7.75638C17.9806 8.21976 18.4788 8.86169 18.6204 9.42099C19.0074 11.1936 19.0074 12.9905 18.6204 14.7632C18.3885 15.6793 17.1995 16.8182 16.2548 17.0287C15.018 17.2639 13.7714 17.3644 12.526 17.3299C12.5012 17.3292 12.4774 17.3389 12.4602 17.3566C12.2834 17.538 11.3006 18.547 11.3006 18.547L10.0672 19.8129C9.97705 19.907 9.81861 19.843 9.81861 19.7132V17.1164C9.81861 17.0735 9.78799 17.0371 9.74584 17.0288C9.74559 17.0288 9.74539 17.0287 9.74513 17.0287C9.20822 16.9091 8.5928 16.4895 8.11871 15.9815L7.15234 16.8378C7.75588 17.4944 8.5343 18.0252 9.29369 18.242V19.8095C9.29369 20.3769 9.98507 20.6555 10.3782 20.2461L11.9664 18.5952C12.3109 18.6145 12.6555 18.6252 13.0001 18.6252C14.171 18.6252 15.3424 18.5145 16.5052 18.2927L16.5214 18.2894C17.9595 17.9759 19.5255 16.4691 19.8728 15.0649L19.8771 15.0477C20.3066 13.0865 20.3066 11.0978 19.8772 9.13667Z" fill="white"/>
<path d="M15.0557 15.9618C14.9105 15.9177 15.182 15.9229 15.0557 15.9618V15.9618Z" fill="white"/>
<path d="M16.146 14.3034C15.9555 14.1356 15.7496 13.9915 15.5431 13.8442C15.3325 13.6942 15.1208 13.5458 14.9023 13.4075C14.6838 13.2692 14.4247 13.2714 14.2219 13.4372C14.0144 13.6069 13.9186 13.9317 13.6225 13.9663C13.4457 13.9868 13.2916 13.9125 13.1381 13.8487C12.5481 13.6032 12.1004 13.2278 11.762 12.7539L11.043 13.3912C11.0674 13.4195 11.0907 13.4485 11.1155 13.4765C12.0866 14.5693 13.3125 15.2823 14.6444 15.835C14.773 15.8883 14.9114 15.9179 15.0567 15.962C14.9114 15.9178 15.183 15.9231 15.0567 15.962C15.183 15.9231 15.3167 15.9036 15.4288 15.8435C15.8254 15.6305 16.1003 15.2967 16.2892 14.8956C16.3925 14.6766 16.3294 14.4648 16.146 14.3034Z" fill="white"/>
<path d="M13.0039 8.40039C13.0054 8.40039 13.0068 8.40054 13.0083 8.40054C13.105 8.404 14.6776 8.44731 13.0039 8.40039Z" fill="white"/>
<path d="M15.5019 9.4375L15.1953 9.70923C15.6771 10.1779 16.0093 10.7991 16.1042 11.4828C16.1384 11.7286 16.1509 11.9776 16.1688 12.2255C16.1779 12.3508 16.2407 12.4677 16.3804 12.466C16.5157 12.4644 16.5866 12.3454 16.5768 12.2201C16.5535 11.9222 16.535 11.6221 16.4827 11.3286C16.3485 10.5746 15.9988 9.92911 15.5019 9.4375Z" fill="white"/>
<path d="M15.6168 11.4235C15.529 10.8355 15.2851 10.3558 14.8799 9.99023L14.5742 10.2612C14.7323 10.4015 14.8691 10.5662 14.9744 10.748C15.1605 11.0691 15.2407 11.4378 15.2413 11.8067C15.2414 11.8631 15.2441 11.9227 15.2622 11.9752C15.3233 12.1517 15.5885 12.1299 15.6347 11.9549C15.6475 11.9066 15.649 11.8555 15.6518 11.8338C15.6448 11.7143 15.649 11.8556 15.6518 11.8338C15.6448 11.7143 15.6406 11.6236 15.6337 11.533C15.631 11.4962 15.6222 11.46 15.6168 11.4235Z" fill="white"/>
<path d="M15.6523 11.8328C15.6454 11.7133 15.6494 11.8545 15.6523 11.8328V11.8328Z" fill="white"/>
<path d="M14.5694 11.7906C14.5717 11.7905 14.5739 11.7893 14.5761 11.7891C14.5699 11.7891 14.5605 11.7892 14.5508 11.7896C14.5571 11.7897 14.5628 11.7907 14.5694 11.7906Z" fill="white"/>
<path d="M14.568 11.7901C14.5614 11.7902 14.5556 11.7893 14.5493 11.7891C14.5178 11.7899 14.4852 11.7916 14.568 11.7901Z" fill="white"/>
<path d="M14.5731 11.7891C14.5708 11.7893 14.5686 11.7905 14.5664 11.7906C14.5835 11.7895 14.582 11.7891 14.5731 11.7891Z" fill="white"/>
<path d="M14.2604 10.5381L13.9492 10.8139C13.9664 10.8243 13.9832 10.8352 13.9995 10.847C14.1497 10.9565 14.2446 11.1219 14.2884 11.3005C14.3106 11.3912 14.3189 11.4856 14.3294 11.5788C14.3437 11.7064 14.4162 11.7849 14.5496 11.7894C14.5593 11.7892 14.5688 11.789 14.5749 11.7889C14.639 11.7818 14.7034 11.7368 14.724 11.6481C14.7364 11.5944 14.7307 11.535 14.7258 11.4789C14.6871 11.0343 14.519 10.7293 14.2604 10.5381Z" fill="white"/>
</g>
<defs>
<clipPath id="clip0_1287_101514">
<rect width="26" height="26" fill="white"/>
</clipPath>
</defs>
</svg>
