<svg width="20" height="20" viewBox="0 0 20 20" fill="none" xmlns="http://www.w3.org/2000/svg">
<g clip-path="url(#clip0_1070_46200)">
<path d="M10 0C8.89542 0 8 0.895417 8 2C8 3.10458 8.89542 4 10 4C11.1041 3.99892 11.9989 3.10413 12 2C12 0.895417 11.1046 0 10 0ZM10 3.33333C9.26363 3.33333 8.66667 2.73638 8.66667 2C8.66667 1.26363 9.26363 0.666667 10 0.666667C10.7364 0.666667 11.3333 1.26363 11.3333 2C11.3333 2.73638 10.7364 3.33333 10 3.33333Z" fill="#00A6CA"/>
<path d="M11.3333 4.33334H11.2547L11.1843 4.36834C10.4385 4.73971 9.56154 4.73971 8.81567 4.36834L8.74533 4.33334H8.66667C7.74667 4.33442 7.00108 5.08 7 6V8C7 8.55229 7.44771 9 8 9H12C12.5523 9 13 8.55229 13 8V6C12.9989 5.08 12.2533 4.33442 11.3333 4.33334ZM12.3333 8C12.3333 8.18409 12.1841 8.33334 12 8.33334H8C7.81592 8.33334 7.66667 8.18409 7.66667 8V6C7.66675 5.47534 8.07229 5.03992 8.59567 5.00267C9.48629 5.416 10.5138 5.416 11.4043 5.00267C11.9277 5.03992 12.3333 5.47534 12.3333 6V8Z" fill="#00A6CA"/>
<path d="M17 11C15.8954 11 15 11.8954 15 13C15 14.1046 15.8954 15 17 15C18.1046 15 19 14.1046 19 13C18.9989 11.8959 18.1041 11.0011 17 11ZM17 14.3333C16.2636 14.3333 15.6667 13.7364 15.6667 13C15.6667 12.2636 16.2636 11.6667 17 11.6667C17.7364 11.6667 18.3333 12.2636 18.3333 13C18.3333 13.7364 17.7364 14.3333 17 14.3333Z" fill="#00A6CA"/>
<path d="M18.3333 15.3333H18.2547L18.1843 15.3667C17.4385 15.738 16.5615 15.738 15.8157 15.3667L15.7453 15.3333H15.6667C14.7467 15.3344 14.0011 16.08 14 17V19C14 19.5523 14.4477 20 15 20H19C19.5523 20 20 19.5523 20 19V17C19.9989 16.08 19.2533 15.3344 18.3333 15.3333ZM19.3333 19C19.3333 19.1841 19.1841 19.3333 19 19.3333H15C14.8159 19.3333 14.6667 19.1841 14.6667 19V17C14.6668 16.4753 15.0723 16.0399 15.5957 16.0027C16.4863 16.416 17.5137 16.416 18.4043 16.0027C18.9277 16.0399 19.3333 16.4753 19.3333 17V19Z" fill="#00A6CA"/>
<path d="M3 11C1.89542 11 1 11.8954 1 13C1 14.1046 1.89542 15 3 15C4.10458 15 5 14.1046 5 13C4.99892 11.8959 4.10413 11.0011 3 11ZM3 14.3333C2.26363 14.3333 1.66667 13.7364 1.66667 13C1.66667 12.2636 2.26363 11.6667 3 11.6667C3.73638 11.6667 4.33333 12.2636 4.33333 13C4.33333 13.7364 3.73638 14.3333 3 14.3333Z" fill="#00A6CA"/>
<path d="M4.33333 15.3333H4.25467L4.18433 15.3667C3.43846 15.738 2.56154 15.738 1.81567 15.3667L1.74533 15.3333H1.66667C0.746667 15.3344 0.00108333 16.08 0 17V19C0 19.5523 0.447708 20 1 20H5C5.55229 20 6 19.5523 6 19V17C5.99892 16.08 5.25333 15.3344 4.33333 15.3333ZM5.33333 19C5.33333 19.1841 5.18408 19.3333 5 19.3333H1C0.815917 19.3333 0.666667 19.1841 0.666667 19V17C0.66675 16.4753 1.07229 16.0399 1.59567 16.0027C2.48629 16.416 3.51371 16.416 4.40433 16.0027C4.92771 16.0399 5.33325 16.4753 5.33333 17V19Z" fill="#00A6CA"/>
<path d="M13.3072 16.9282C13.307 16.9278 13.3069 16.9274 13.3067 16.927C13.2345 16.7576 13.0388 16.6788 12.8694 16.751C11.3642 17.3818 9.69254 17.4969 8.11509 17.0783L8.42709 16.9867C8.60384 16.9349 8.70517 16.7498 8.65342 16.573C8.60167 16.3963 8.4165 16.2949 8.23975 16.3467L6.90642 16.7377C6.90142 16.7377 6.89775 16.7433 6.89309 16.745C6.86221 16.7565 6.83321 16.7726 6.80709 16.7927C6.7955 16.7989 6.78438 16.8059 6.77375 16.8137C6.73859 16.845 6.71071 16.8837 6.69209 16.927C6.674 16.9706 6.66538 17.0175 6.66675 17.0647C6.67488 17.1098 6.686 17.1543 6.70009 17.198C6.70209 17.2027 6.70009 17.208 6.70375 17.2127L7.37042 18.4883C7.45567 18.6516 7.65713 18.7149 7.82042 18.6297C7.98371 18.5444 8.047 18.343 7.96175 18.1797L7.69042 17.661C9.48267 18.1998 11.4069 18.095 13.1301 17.365C13.2996 17.2933 13.3789 17.0977 13.3072 16.9282Z" fill="#00A6CA"/>
<path d="M18.9023 8.76434C18.7721 8.63421 18.5611 8.63421 18.431 8.76434L17.9593 9.236C17.6833 6.31642 15.8297 3.78284 13.1306 2.636C12.9613 2.56384 12.7655 2.64263 12.6933 2.812C12.6211 2.98138 12.6999 3.17717 12.8693 3.24934C15.2906 4.27838 16.9736 6.52721 17.2783 9.14034L16.9023 8.76434C16.7699 8.63642 16.5589 8.64009 16.431 8.7725C16.3062 8.90167 16.3062 9.10646 16.431 9.23567L17.431 10.2357C17.561 10.366 17.7721 10.3663 17.9024 10.2363C17.9026 10.236 17.9028 10.2358 17.903 10.2357L18.903 9.23567C19.0329 9.10534 19.0326 8.89434 18.9023 8.76434Z" fill="#00A6CA"/>
<path d="M7.32363 2.88633C7.32255 2.86687 7.31967 2.84758 7.31496 2.82866C7.31496 2.82566 7.3113 2.82366 7.30996 2.82033C7.30863 2.817 7.30996 2.81466 7.30996 2.812C7.30088 2.79579 7.29038 2.78037 7.27863 2.766C7.26784 2.74646 7.25509 2.72804 7.24063 2.711C7.22092 2.69354 7.19909 2.67866 7.17563 2.66666C7.16392 2.65671 7.15142 2.64766 7.1383 2.63966L5.80496 2.03066C5.63467 1.96075 5.43992 2.04212 5.37001 2.21241C5.30388 2.37346 5.37284 2.55829 5.5283 2.63666L6.21863 2.95233C3.61976 4.34321 1.99809 7.05233 1.99996 10C1.99996 10.1841 2.14921 10.3333 2.3333 10.3333C2.51738 10.3333 2.66663 10.1841 2.66663 10C2.66496 7.40446 4.03751 5.002 6.2743 3.68533L6.0333 4.189C5.95384 4.35471 6.02346 4.55346 6.18896 4.63333C6.23392 4.65529 6.28326 4.66671 6.3333 4.66666C6.4613 4.6665 6.57788 4.59304 6.6333 4.47766L7.29996 3.08666C7.29996 3.08333 7.29996 3.07966 7.30263 3.07633C7.3113 3.05354 7.31734 3.02983 7.32063 3.00566C7.32634 2.98771 7.33059 2.96933 7.3333 2.95066C7.33217 2.92896 7.32896 2.90741 7.32363 2.88633Z" fill="#00A6CA"/>
</g>
<defs>
<clipPath id="clip0_1070_46200">
<rect width="20" height="20" fill="white"/>
</clipPath>
</defs>
</svg>
