<svg width="16" height="16" viewBox="0 0 16 16" fill="none" xmlns="http://www.w3.org/2000/svg">
<g clip-path="url(#clip0_1263_128359)">
<path d="M11.4286 2.85742H1.71428C0.767511 2.85742 0 3.62493 0 4.57171V14.286C0 15.2327 0.767511 16.0003 1.71428 16.0003H11.4286C12.3753 16.0003 13.1428 15.2327 13.1428 14.286V4.57171C13.1428 3.62493 12.3753 2.85742 11.4286 2.85742ZM12 14.286C12 14.6016 11.7442 14.8574 11.4286 14.8574H1.71428C1.39868 14.8574 1.14285 14.6016 1.14285 14.286V4.57171C1.14285 4.2561 1.39868 4.00027 1.71428 4.00027H11.4286C11.7442 4.00027 12 4.2561 12 4.57171V14.286Z" fill="black"/>
<path d="M14.286 0H4.0003C3.05352 0 2.28601 0.767511 2.28601 1.71428C2.28601 2.02989 2.54185 2.28572 2.85745 2.28572C3.17305 2.28572 3.42886 2.02989 3.42886 1.71428C3.42886 1.39868 3.68469 1.14285 4.0003 1.14285H14.286C14.6016 1.14285 14.8574 1.39868 14.8574 1.71428V12C14.8574 12.3156 14.6016 12.5714 14.286 12.5714C13.9704 12.5714 13.7146 12.8273 13.7146 13.1429C13.7146 13.4585 13.9704 13.7143 14.286 13.7143C15.2328 13.7143 16.0003 12.9468 16.0003 12V1.71428C16.0003 0.767511 15.2328 0 14.286 0Z" fill="black"/>
</g>
<defs>
<clipPath id="clip0_1263_128359">
<rect width="16" height="16" fill="white"/>
</clipPath>
</defs>
</svg>
