<svg width="30" height="30" viewBox="0 0 30 30" fill="none" xmlns="http://www.w3.org/2000/svg">
<circle cx="15" cy="15" r="15" fill="#CA2400"/>
<path d="M19.4722 21.7713H10.802C10.0056 21.7713 9.35693 21.1233 9.35693 20.3263V13.5827C9.35693 12.7857 10.0056 12.1377 10.802 12.1377H19.4722C20.2686 12.1377 20.9173 12.7857 20.9173 13.5827V20.3263C20.9173 21.1233 20.2686 21.7713 19.4722 21.7713ZM10.802 13.1011C10.5367 13.1011 10.3203 13.3169 10.3203 13.5827V20.3263C10.3203 20.5922 10.5367 20.808 10.802 20.808H19.4722C19.7375 20.808 19.9539 20.5922 19.9539 20.3263V13.5827C19.9539 13.3169 19.7375 13.1011 19.4722 13.1011H10.802Z" fill="white"/>
<path d="M18.5089 13.101C18.243 13.101 18.0272 12.8852 18.0272 12.6193V10.2109C18.0272 8.61742 16.7306 7.32078 15.1371 7.32078C13.5437 7.32078 12.2471 8.61742 12.2471 10.2109V12.6193C12.2471 12.8852 12.0313 13.101 11.7654 13.101C11.4995 13.101 11.2837 12.8852 11.2837 12.6193V10.2109C11.2837 8.08564 13.0119 6.35742 15.1371 6.35742C17.2624 6.35742 18.9906 8.08564 18.9906 10.2109V12.6193C18.9906 12.8852 18.7748 13.101 18.5089 13.101Z" fill="white"/>
</svg>
