<svg width="510" height="203" viewBox="0 0 510 203" fill="none" xmlns="http://www.w3.org/2000/svg">
<g clip-path="url(#clip0_290_76303)">
<path d="M125.109 14.6875L131.139 21.6475H94.1589L88.1289 14.6875H125.109Z" fill="#8F282F"/>
<path d="M88.1316 14.6875L94.1616 21.6475L93.1416 81.4175L87.1016 74.4575L88.1316 14.6875Z" fill="#A83038"/>
<path d="M87.1003 74.457L93.1403 81.417H80.8503L74.8203 74.457H87.1003Z" fill="#8F282F"/>
<path d="M136.378 74.457L142.408 81.417H130.118L124.078 74.457H136.378Z" fill="#8F282F"/>
<path d="M137.599 3.07031L143.629 10.0303L142.409 81.4203L136.379 74.4603L137.599 3.07031Z" fill="#A83038"/>
<path d="M167.46 32.2383L173.5 39.1983L173.35 47.4583L167.32 40.4983L167.46 32.2383Z" fill="#8F282F"/>
<path d="M186.161 32.2383L192.191 39.1983H173.501L167.461 32.2383H186.161Z" fill="#8F282F"/>
<path d="M167.318 40.5L173.318 47.5C172.868 73.86 164.718 81.97 152.928 81.97C152.138 81.97 151.318 81.97 150.488 81.86L144.488 74.86C145.318 74.94 146.128 74.97 146.928 74.97C158.708 75 166.868 66.86 167.318 40.5Z" fill="#A83038"/>
<path d="M167.32 40.4983L173.32 47.4983C173.32 48.3883 173.32 49.2583 173.25 50.0983L167.25 43.0983C167.25 42.2483 167.31 41.3783 167.32 40.4883" fill="#A83038"/>
<path d="M167.249 43.1094L173.249 50.1094C173.13 54.3425 172.672 58.5594 171.879 62.7194L165.879 55.7194C166.666 51.5619 167.124 47.3489 167.249 43.1194" fill="#A83038"/>
<path d="M165.877 55.707L171.877 62.707C171.486 64.7422 170.951 66.7472 170.277 68.707L164.277 61.707C164.955 59.7475 165.493 57.7425 165.887 55.707" fill="#A83038"/>
<path d="M164.269 61.668L170.269 68.668C169.824 69.9298 169.3 71.1623 168.699 72.358L162.699 65.358C163.306 64.1651 163.83 62.9322 164.269 61.668Z" fill="#A83038"/>
<path d="M162.7 65.3573L168.7 72.3573C168.227 73.2747 167.689 74.157 167.09 74.9973L161.09 67.9973C161.699 67.1299 162.247 66.2211 162.73 65.2773" fill="#A83038"/>
<path d="M161.059 68.0781L167.059 75.0781C166.482 75.8951 165.836 76.6612 165.129 77.3681L159.129 70.3681C159.834 69.6587 160.479 68.8928 161.059 68.0781Z" fill="#A83038"/>
<path d="M159.128 70.3672L165.128 77.3672C161.828 80.6572 157.678 81.9672 152.928 81.9672C152.138 81.9672 151.318 81.9672 150.488 81.8572L144.488 74.8572C145.318 74.9372 146.128 74.9672 146.928 74.9672C151.668 74.9672 155.828 73.6572 159.128 70.3672Z" fill="#A83038"/>
<path d="M197.011 74.457L203.051 81.417H191.471L185.441 74.457H197.011Z" fill="#8F282F"/>
<path d="M197.922 21.4297L203.962 28.3797L203.052 81.4197L197.012 74.4597L197.922 21.4297Z" fill="#A83038"/>
<path d="M238.209 34.0979L244.209 41.0979C242.449 39.0979 239.599 37.9979 235.339 37.9979C229.549 37.9979 225.249 39.7379 220.109 43.6179L214.109 36.6179C219.249 32.7379 223.539 31.0079 229.329 31.0079C233.609 30.9979 236.459 32.0779 238.209 34.0979Z" fill="#8F282F"/>
<path d="M238.209 34.0978L244.209 41.0978C242.449 39.0978 239.599 37.9978 235.339 37.9978C229.549 37.9978 225.249 39.7378 220.109 43.6178L214.109 36.6178C219.249 32.7378 223.539 31.0078 229.329 31.0078C233.599 31.0078 236.449 32.0778 238.199 34.0978" fill="#8F282F"/>
<path d="M247.398 26.5703L253.398 33.5703C256.598 37.2603 258.228 42.4903 258.118 49.0203L252.118 42.0203C252.218 35.4903 250.598 30.2703 247.398 26.5703Z" fill="#A83038"/>
<path d="M247.398 26.5703L253.398 33.5703C253.79 34.0203 254.157 34.491 254.498 34.9803L248.498 28.0303C248.16 27.5384 247.796 27.0644 247.408 26.6103" fill="#A83038"/>
<path d="M248.488 28L254.488 35C256.028 37.2914 257.08 39.8749 257.578 42.59L251.578 35.59C251.092 32.8714 250.039 30.2854 248.488 28Z" fill="#A83038"/>
<path d="M251.578 35.5703L257.578 42.5703C257.982 44.6956 258.16 46.8576 258.108 49.0203L252.108 42.0203C252.16 39.8576 251.982 37.6956 251.578 35.5703Z" fill="#A83038"/>
<path d="M224.082 69.0493L218.082 62.0493C217.162 60.9818 216.676 59.6077 216.722 58.1993C216.812 52.8993 222.432 51.1993 230.722 51.1993C233.986 51.1931 237.232 51.6786 240.352 52.6393L246.352 59.6393C243.232 58.6786 239.986 58.1931 236.722 58.1993C228.392 58.1993 222.782 59.9393 222.722 65.1993C222.67 66.6086 223.156 67.9849 224.082 69.0493Z" fill="#8F282F"/>
<path d="M240.35 52.6393L246.35 59.6393C243.231 58.6786 239.984 58.1931 236.72 58.1993C231 58.1993 226.57 59.0193 224.32 61.1993L218.32 54.1993C220.57 51.9693 225.01 51.1993 230.72 51.1993C233.984 51.1931 237.231 51.6786 240.35 52.6393Z" fill="#8F282F"/>
<path d="M218.323 54.25L224.323 61.25C224.095 61.4742 223.887 61.7186 223.703 61.98L217.703 54.98C217.89 54.724 218.098 54.4832 218.323 54.26" fill="#8F282F"/>
<path d="M217.702 55L223.702 62C223.554 62.2013 223.423 62.4155 223.312 62.64L217.312 55.64C217.432 55.42 217.562 55.21 217.702 55Z" fill="#8F282F"/>
<path d="M217.31 55.6094L223.31 62.6094C223.197 62.8253 223.1 63.0493 223.02 63.2794L217.02 56.2794C217.098 56.0502 217.192 55.8264 217.3 55.6094" fill="#8F282F"/>
<path d="M217.003 56.2773L223.003 63.2773C222.911 63.5274 222.84 63.7851 222.793 64.0473L216.793 57.0473C216.842 56.7853 216.912 56.5278 217.003 56.2773Z" fill="#8F282F"/>
<path d="M216.823 57.05L222.823 64.05C222.754 64.3792 222.714 64.7138 222.703 65.05L216.703 58.05C216.711 57.6971 216.751 57.3456 216.823 57" fill="#8F282F"/>
<path d="M216.701 58.0977L222.701 65.0977V65.2377C222.691 65.677 222.728 66.1162 222.811 66.5477L216.811 59.5477C216.72 59.1173 216.679 58.6775 216.691 58.2377C216.686 58.1911 216.686 58.1442 216.691 58.0977" fill="#8F282F"/>
<path d="M216.812 59.5508L222.812 66.5508C222.958 67.29 223.254 67.9912 223.682 68.6108L217.682 61.6108C217.25 60.9934 216.954 60.2912 216.812 59.5508Z" fill="#8F282F"/>
<path d="M217.68 61.6094L223.68 68.6094C223.8 68.7794 223.92 68.9294 224.05 69.0894L218.05 62.0894C217.915 61.9381 217.792 61.7777 217.68 61.6094Z" fill="#8F282F"/>
<path d="M214.391 76.0877L208.391 69.0877C211.661 72.8677 216.981 75.0277 223.641 75.0277C231.471 75.0277 236.901 72.0277 240.111 68.5977L246.111 75.5977C242.901 79.0677 237.471 81.9977 229.651 81.9977C223.001 81.9977 217.671 79.8677 214.391 76.0877Z" fill="#8F282F"/>
<path d="M240.083 68.6367L246.083 75.6367C245.933 75.8067 245.773 75.9667 245.613 76.1267L239.613 69.1267C239.773 68.9667 239.933 68.8067 240.083 68.6367Z" fill="#8F282F"/>
<path d="M239.612 69.125L245.612 76.125C242.352 79.375 237.072 82.065 229.612 82.065C222.942 82.065 217.612 79.905 214.352 76.125L208.352 69.125C211.622 72.905 216.942 75.065 223.602 75.065C231.062 75.065 236.332 72.385 239.602 69.125" fill="#8F282F"/>
<path d="M251.56 74.457L257.59 81.417H246.01L239.98 74.457H251.56Z" fill="#8F282F"/>
<path d="M252.109 42.0195L258.149 48.9795L257.589 81.4195L251.559 74.4595L252.109 42.0195Z" fill="#A83038"/>
<path d="M276.762 32.2383L282.792 39.1983H263.702L257.672 32.2383H276.762Z" fill="#8F282F"/>
<path d="M307.44 32.2383L313.48 39.1983H294.38L288.34 32.2383H307.44Z" fill="#8F282F"/>
<path d="M307.631 21.4297L313.661 28.3797L313.481 39.1997L307.441 32.2397L307.631 21.4297Z" fill="#A83038"/>
<path d="M287.621 74.457L293.651 81.417H282.071L276.031 74.457H287.621Z" fill="#8F282F"/>
<path d="M288.341 32.2383L294.381 39.1983L293.651 81.4183L287.621 74.4583L288.341 32.2383Z" fill="#A83038"/>
<path d="M345.659 34.6992L351.659 41.6992C349.369 39.0492 345.829 37.6992 341.399 37.6992C333.579 37.6992 328.399 41.9892 326.789 48.8192L320.789 41.8192C322.429 34.9892 327.589 30.6992 335.409 30.6992C339.829 30.6992 343.359 32.0492 345.659 34.6992Z" fill="#8F282F"/>
<path d="M345.659 34.6976L351.659 41.6976C349.369 39.0476 345.829 37.6976 341.399 37.6976C339.425 37.6129 337.454 37.9231 335.601 38.6099C333.748 39.2968 332.051 40.3465 330.609 41.6976L324.609 34.6976C326.051 33.3456 327.748 32.2952 329.601 31.6083C331.454 30.9214 333.425 30.6118 335.399 30.6976C339.829 30.6976 343.399 32.0476 345.659 34.6976Z" fill="#8F282F"/>
<path d="M324.612 34.7188L330.612 41.7188C330.087 42.246 329.606 42.8145 329.172 43.4187L323.172 36.4187C323.603 35.8121 324.084 35.2434 324.612 34.7188Z" fill="#8F282F"/>
<path d="M323.172 36.418L329.172 43.418C328.798 43.9669 328.464 44.5416 328.172 45.138L322.172 38.138C322.466 37.5429 322.8 36.9683 323.172 36.418Z" fill="#8F282F"/>
<path d="M322.131 38.1389L328.131 45.1389C327.814 45.7676 327.537 46.4156 327.301 47.0789L321.301 40.1289C321.534 39.4434 321.814 38.7751 322.141 38.1289" fill="#8F282F"/>
<path d="M321.291 40.0869L327.291 47.0369C327.088 47.6067 326.918 48.1877 326.781 48.7769L320.781 41.7769C320.931 41.1769 321.101 40.5969 321.291 40.0469" fill="#8F282F"/>
<path d="M329.621 66.4472L323.621 59.4472C321.811 57.3136 320.729 54.6582 320.531 51.8672L326.531 58.8672C326.73 61.6579 327.812 64.3129 329.621 66.4472Z" fill="#A83038"/>
<path d="M320.498 51.9102L326.498 58.9102C326.548 59.4537 326.624 59.9944 326.728 60.5302L320.728 53.5302C320.616 52.9954 320.536 52.4545 320.488 51.9102" fill="#A83038"/>
<path d="M320.738 53.5312L326.738 60.5312C327.075 62.303 327.776 63.9853 328.798 65.4713L322.798 58.4713C321.78 56.9845 321.082 55.3022 320.748 53.5312" fill="#A83038"/>
<path d="M322.787 58.4688L328.787 65.4688C329.037 65.8187 329.297 66.1588 329.577 66.4688L323.577 59.4688C323.297 59.1387 323.027 58.8088 322.777 58.4688" fill="#A83038"/>
<path d="M354.93 28.1367L360.93 35.1367C364.75 39.7012 366.723 45.5304 366.46 51.4767L360.46 44.4767C360.73 38.5293 358.757 32.6973 354.93 28.1367Z" fill="#A83038"/>
<path d="M354.93 28.1367L360.93 35.1367C361.43 35.7157 361.901 36.3198 362.34 36.9467L356.34 29.9467C355.91 29.319 355.442 28.7179 354.94 28.1467" fill="#A83038"/>
<path d="M356.328 29.9384L362.328 36.9384C364.132 39.5355 365.382 42.4768 365.998 45.5784L359.998 38.5784C359.412 35.4637 358.179 32.5066 356.378 29.8984" fill="#A83038"/>
<path d="M360 38.6172L366 45.6172C366.369 47.5446 366.536 49.5051 366.5 51.4672L360.5 44.4672C360.546 42.5048 360.379 40.5432 360 38.6172Z" fill="#A83038"/>
<path d="M359.72 51.9102L365.75 58.8702H326.54L320.5 51.9102H359.72Z" fill="#8F282F"/>
<path d="M360.451 44.4688L366.451 51.4688C366.351 53.9612 366.104 56.4455 365.711 58.9087L359.711 51.9087C360.1 49.445 360.347 46.9609 360.451 44.4688Z" fill="#A83038"/>
<path d="M360.449 44.4688L366.449 51.4688C366.449 51.6487 366.449 51.8287 366.449 52.0287L360.449 45.0287C360.449 44.8287 360.449 44.6488 360.449 44.4688Z" fill="#A83038"/>
<path d="M360.439 45L366.439 52C366.315 54.304 366.075 56.6003 365.719 58.88L359.719 51.88C360.129 49.05 360.369 46.71 360.439 45Z" fill="#A83038"/>
<path d="M320.699 73.4803L314.699 66.4803C319.589 72.1203 327.129 75.3403 336.389 75.3403C340.591 75.4114 344.749 74.4699 348.51 72.5953C352.271 70.7207 355.526 67.9682 357.999 64.5703L363.999 71.5703C361.528 74.9757 358.274 77.736 354.51 79.6176C350.747 81.4992 346.586 82.4468 342.379 82.3803C333.139 82.3403 325.599 79.1203 320.699 73.4803Z" fill="#8F282F"/>
<path d="M358 64.5703L364 71.5703C363.155 72.6804 362.236 73.7327 361.25 74.7203L355.25 67.7203C356.239 66.7356 357.158 65.683 358 64.5703Z" fill="#8F282F"/>
<path d="M355.232 67.7195L361.232 74.7195C358.764 77.2005 355.821 79.1577 352.578 80.474C349.336 81.7902 345.861 82.4383 342.362 82.3795C333.112 82.3795 325.572 79.1595 320.672 73.5195L314.672 66.5195C319.562 72.1595 327.102 75.3795 336.362 75.3795C339.861 75.4383 343.336 74.7902 346.578 73.474C349.821 72.1577 352.764 70.2005 355.232 67.7195Z" fill="#8F282F"/>
<path d="M326.109 17L320.109 10C320.723 10.6866 321.478 11.2331 322.321 11.6023C323.165 11.9715 324.079 12.1549 324.999 12.14L330.999 19.14C330.078 19.1556 329.165 18.9725 328.321 18.6032C327.477 18.2339 326.723 17.6871 326.109 17Z" fill="#8F282F"/>
<path d="M324.999 12.14L330.999 19.14C330.078 19.1556 329.165 18.9725 328.321 18.6032C327.477 18.2339 326.723 17.6871 326.109 17L320.109 10C320.723 10.6866 321.478 11.2331 322.321 11.6023C323.165 11.9715 324.079 12.1549 324.999 12.14Z" fill="#8F282F"/>
<path d="M330.21 2.29688L336.21 9.29688C337.097 10.2922 337.579 11.5838 337.56 12.9169C337.48 14.596 336.751 16.1785 335.528 17.3312C334.304 18.484 332.681 19.1169 331 19.0969L325 12.0969C326.695 12.1296 328.336 11.4967 329.569 10.3339C330.803 9.17106 331.532 7.57098 331.6 5.87688C331.598 4.55228 331.102 3.27603 330.21 2.29688Z" fill="#8F282F"/>
<path d="M330.211 2.29688L336.211 9.29688C336.349 9.45669 336.48 9.62358 336.601 9.79688L330.601 2.79688C330.481 2.62687 330.351 2.45687 330.221 2.29688" fill="#8F282F"/>
<path d="M330.588 2.79688L336.588 9.79688C337.008 10.3982 337.3 11.0787 337.448 11.7969L331.448 4.79688C331.299 4.07737 331.003 3.39645 330.578 2.79688" fill="#8F282F"/>
<path d="M331.461 4.80859L337.461 11.8086C337.536 12.1737 337.569 12.546 337.561 12.9186V12.9986L331.561 6.04859V5.91859C331.572 5.5464 331.542 5.17409 331.471 4.80859" fill="#8F282F"/>
<path d="M331.55 6.05859L337.55 13.0586C337.53 13.3941 337.49 13.7281 337.43 14.0586L331.43 7.05859C331.5 6.72956 331.54 6.39486 331.55 6.05859Z" fill="#8F282F"/>
<path d="M331.429 7.06641L337.429 14.0664C337.369 14.3408 337.292 14.6113 337.199 14.8764L331.199 7.87641C331.294 7.61257 331.367 7.34174 331.419 7.06641" fill="#8F282F"/>
<path d="M331.211 7.875L337.211 14.875C337.12 15.1284 337.013 15.3756 336.891 15.615L330.891 8.615C331.015 8.37649 331.122 8.12916 331.211 7.875Z" fill="#8F282F"/>
<path d="M330.889 8.61719L336.889 15.6172C336.76 15.8708 336.613 16.1148 336.449 16.3472L330.449 9.34719C330.62 9.11739 330.771 8.87313 330.899 8.61719" fill="#8F282F"/>
<path d="M330.438 9.34766L336.438 16.3477C336.233 16.6321 336.006 16.8997 335.758 17.1477L329.758 10.1477C330.002 9.89952 330.226 9.63198 330.428 9.34766" fill="#8F282F"/>
<path d="M329.769 10.1484L335.769 17.1484C334.484 18.4168 332.755 19.1342 330.949 19.1484L324.949 12.1484C326.754 12.128 328.48 11.4115 329.769 10.1484Z" fill="#8F282F"/>
<path d="M348.121 16.8867L342.121 9.88672C342.781 10.606 343.588 11.1755 344.486 11.5567C345.385 11.938 346.355 12.1221 347.331 12.0967L353.331 19.0967C352.355 19.1208 351.386 18.9361 350.487 18.5549C349.589 18.1738 348.782 17.605 348.121 16.8867Z" fill="#8F282F"/>
<path d="M347.3 12.1397L353.3 19.1397C352.324 19.1638 351.354 18.979 350.456 18.5979C349.557 18.2167 348.751 17.648 348.09 16.9297L342.09 9.92969C342.75 10.649 343.556 11.2185 344.455 11.5997C345.354 11.9809 346.324 12.1651 347.3 12.1397Z" fill="#8F282F"/>
<path d="M352.561 2.26953L358.561 9.26953C359.45 10.2756 359.931 11.5772 359.911 12.9195C359.9 13.7664 359.718 14.6024 359.377 15.3777C359.036 16.153 358.542 16.8516 357.926 17.432C357.309 18.0125 356.581 18.4628 355.787 18.7561C354.992 19.0495 354.147 19.1799 353.301 19.1395L347.301 12.1395C348.146 12.1799 348.991 12.0495 349.785 11.756C350.579 11.4625 351.306 11.0121 351.922 10.4315C352.538 9.85094 353.031 9.15218 353.371 8.37697C353.711 7.60175 353.891 6.76597 353.901 5.91953C353.929 4.5777 353.45 3.27457 352.561 2.26953Z" fill="#8F282F"/>
<path d="M352.562 2.26953L358.562 9.26953C358.693 9.41953 358.823 9.57953 358.943 9.74953L352.943 2.74953C352.828 2.58295 352.704 2.42271 352.573 2.26953" fill="#8F282F"/>
<path d="M352.93 2.75L358.93 9.75C359.354 10.3499 359.65 11.0307 359.8 11.75L353.8 4.75C353.654 4.02933 353.358 3.34767 352.93 2.75Z" fill="#8F282F"/>
<path d="M353.801 4.78125L359.801 11.7812C359.875 12.1565 359.909 12.5387 359.901 12.9212C359.906 12.9711 359.906 13.0214 359.901 13.0712L353.901 6.07125V5.92125C353.914 5.5386 353.88 5.15576 353.801 4.78125Z" fill="#8F282F"/>
<path d="M353.901 6.07031L359.901 13.0703C359.893 13.4331 359.852 13.7945 359.781 14.1503L353.781 7.20031C353.856 6.8414 353.899 6.47671 353.911 6.11031" fill="#8F282F"/>
<path d="M353.771 7.16016L359.771 14.1602C359.714 14.4494 359.634 14.7336 359.531 15.0102L353.531 8.01016C353.629 7.73635 353.706 7.45555 353.761 7.17016" fill="#8F282F"/>
<path d="M353.543 8L359.543 15C359.457 15.2583 359.35 15.5091 359.223 15.75L353.223 8.75C353.346 8.50722 353.452 8.25669 353.543 8Z" fill="#8F282F"/>
<path d="M353.219 8.75L359.219 15.75C359.091 15.999 358.948 16.2395 358.789 16.47L352.789 9.47C352.951 9.23965 353.098 8.99915 353.229 8.75" fill="#8F282F"/>
<path d="M352.781 9.46875L358.781 16.4687C358.58 16.7413 358.36 16.9987 358.121 17.2387L352.121 10.2387C352.362 10.0033 352.579 9.74548 352.771 9.46875" fill="#8F282F"/>
<path d="M352.131 10.2383L358.131 17.2383C356.833 18.4816 355.098 19.1641 353.301 19.1383L347.301 12.1383C349.098 12.1641 350.833 11.4816 352.131 10.2383Z" fill="#8F282F"/>
<path d="M382.679 45.5997L388.709 52.5497L367.389 28.3797L361.359 21.4297L382.679 45.5997Z" fill="#404040"/>
<path d="M405.838 21.4297L411.878 28.3797L411.518 49.1897L405.488 42.2297L405.838 21.4297Z" fill="#A83038"/>
<path d="M393.699 54.4702L399.729 61.4302L397.339 58.8702L391.309 51.9102L393.699 54.4702Z" fill="#404040"/>
<path d="M374.048 74.457L380.088 81.417H366.278L360.238 74.457H374.048Z" fill="#8F282F"/>
<path d="M391.311 51.9102L397.341 58.8702L380.091 81.4202L374.051 74.4602L391.311 51.9102Z" fill="#A83038"/>
<path d="M407.551 52.0195L413.591 58.9795L411.311 61.3195L405.281 54.3695L407.551 52.0195Z" fill="#8F282F"/>
<path d="M438.748 21.4297L444.788 28.3797L422.438 52.4497L416.398 45.4897L438.748 21.4297Z" fill="#8F282F"/>
<path d="M404.939 74.457L410.969 81.417H399.389L393.359 74.457H404.939Z" fill="#8F282F"/>
<path d="M405.281 54.3672L411.311 61.3172L410.971 81.4172L404.941 74.4572L405.281 54.3672Z" fill="#A83038"/>
<path d="M416.398 45.4883L422.438 52.4483L444.388 81.4183L438.348 74.4583L416.398 45.4883Z" fill="#A83038"/>
<path d="M438.348 74.457L444.388 81.417H430.268L424.238 74.457H438.348Z" fill="#8F282F"/>
<path d="M12.4789 122.43L18.5189 129.39L18.1589 150.2L12.1289 143.24L12.4789 122.43Z" fill="#A83038"/>
<path d="M11.9481 153.938L17.9781 160.897L17.6081 182.427L11.5781 175.467L11.9481 153.938Z" fill="#A83038"/>
<path d="M11.58 175.469L17.61 182.429H6.03L0 175.469H11.58Z" fill="#8F282F"/>
<path d="M37.3392 153.938L43.3792 160.897H17.9792L11.9492 153.938H37.3392Z" fill="#8F282F"/>
<path d="M48.5588 175.469L54.5887 182.429H43.0087L36.9688 175.469H48.5588Z" fill="#8F282F"/>
<path d="M49.4686 122.43L55.4986 129.39L54.5886 182.43L48.5586 175.47L49.4686 122.43Z" fill="#A83038"/>
<path d="M94.6083 135.699L100.608 142.699C98.3183 140.049 94.7783 138.699 90.3583 138.699C82.5283 138.699 77.3583 142.979 75.7383 149.819L69.7383 142.819C71.3683 135.979 76.5283 131.699 84.3483 131.699C88.7783 131.709 92.3083 133.049 94.6083 135.699Z" fill="#8F282F"/>
<path d="M94.6064 135.699L100.606 142.699C98.3164 140.049 94.7764 138.699 90.3564 138.699C85.9364 138.699 82.1464 140.149 79.5664 142.699L73.5664 135.699C76.1364 133.129 79.7964 131.699 84.3464 131.699C88.8964 131.699 92.3464 133.039 94.6064 135.699Z" fill="#8F282F"/>
<path d="M73.5689 135.73L79.5689 142.73C79.0384 143.256 78.5565 143.828 78.1289 144.44L72.1289 137.44C72.5566 136.832 73.0386 136.263 73.5689 135.74" fill="#8F282F"/>
<path d="M72.1289 137.43L78.1289 144.43C77.7553 144.975 77.4211 145.547 77.1289 146.14L71.1289 139.14C71.4199 138.546 71.7541 137.974 72.1289 137.43Z" fill="#8F282F"/>
<path d="M71.0783 139.141L77.0783 146.141C76.7519 146.787 76.4712 147.455 76.2383 148.141L70.2383 141.141C70.4722 140.457 70.7494 139.789 71.0683 139.141" fill="#8F282F"/>
<path d="M70.2483 141.09L76.2483 148.09C76.0454 148.66 75.8751 149.241 75.7383 149.83L69.7383 142.83C69.8751 142.241 70.0454 141.66 70.2483 141.09Z" fill="#8F282F"/>
<path d="M78.5683 167.447L72.5683 160.447C70.7565 158.323 69.6766 155.672 69.4883 152.887L75.4883 159.887C75.689 162.669 76.7674 165.316 78.5683 167.447Z" fill="#A83038"/>
<path d="M69.4609 152.928L75.4609 159.928C75.5102 160.465 75.587 160.999 75.6909 161.528L69.6909 154.528C69.5828 153.996 69.506 153.459 69.4609 152.918" fill="#A83038"/>
<path d="M69.6914 154.539L75.6914 161.539C76.0231 163.312 76.7251 164.996 77.7514 166.479L71.7514 159.479C70.7507 157.988 70.0698 156.306 69.7514 154.539" fill="#A83038"/>
<path d="M71.7405 159.477L77.7405 166.477C77.9851 166.824 78.2489 167.158 78.5305 167.477L72.5305 160.477C72.2447 160.159 71.9776 159.825 71.7305 159.477" fill="#A83038"/>
<path d="M103.891 129.148L109.891 136.148C113.705 140.712 115.674 146.537 115.411 152.478L109.411 145.478C109.674 139.537 107.705 133.712 103.891 129.148Z" fill="#A83038"/>
<path d="M103.891 129.148L109.891 136.148C110.39 136.722 110.858 137.323 111.291 137.948L105.291 130.948C104.854 130.325 104.387 129.725 103.891 129.148Z" fill="#A83038"/>
<path d="M105.289 131L111.289 138C113.079 140.61 114.312 143.562 114.909 146.67L108.909 139.67C108.32 136.561 107.091 133.608 105.299 131" fill="#A83038"/>
<path d="M108.901 139.617L114.901 146.617C115.274 148.547 115.442 150.512 115.401 152.477L109.401 145.477C109.439 143.511 109.268 141.547 108.891 139.617" fill="#A83038"/>
<path d="M108.669 152.93L114.699 159.89H75.4892L69.4492 152.93H108.669Z" fill="#8F282F"/>
<path d="M109.41 145.477L115.41 152.477C115.308 154.972 115.064 157.459 114.68 159.927L108.68 152.927C109.069 150.46 109.312 147.972 109.41 145.477Z" fill="#A83038"/>
<path d="M109.41 145.477L115.41 152.477C115.41 152.647 115.41 152.837 115.41 153.027L109.41 146.027C109.41 145.837 109.41 145.647 109.41 145.477Z" fill="#A83038"/>
<path d="M109.39 145.996L115.39 152.996C115.33 154.706 115.08 156.996 114.68 159.896L108.68 152.896C109.09 150.056 109.33 147.706 109.4 145.996" fill="#A83038"/>
<path d="M69.6602 174.477L63.6602 167.477C68.5602 173.127 76.1002 176.347 85.3502 176.347C89.5575 176.41 93.7182 175.46 97.4811 173.577C101.244 171.694 104.499 168.933 106.97 165.527L112.97 172.527C110.5 175.931 107.246 178.69 103.485 180.571C99.724 182.453 95.5652 183.401 91.3602 183.337C82.0902 183.337 74.5502 180.127 69.6602 174.477Z" fill="#8F282F"/>
<path d="M106.931 165.57L112.931 172.57C112.089 173.68 111.174 174.733 110.191 175.72L104.191 168.72C105.18 167.735 106.099 166.683 106.941 165.57" fill="#8F282F"/>
<path d="M104.181 168.72L110.181 175.72C107.713 178.201 104.77 180.158 101.527 181.474C98.2848 182.79 94.81 183.438 91.3111 183.38C82.0511 183.38 74.5111 180.17 69.6211 174.52L63.6211 167.52C68.5211 173.17 76.0611 176.39 85.3111 176.39C88.8112 176.45 92.2874 175.802 95.5304 174.484C98.7734 173.166 101.716 171.205 104.181 168.72Z" fill="#8F282F"/>
<path d="M178.278 133.238L184.318 140.198H159.528L153.488 133.238H178.278Z" fill="#8F282F"/>
<path d="M153.49 133.238L159.53 140.198L158.81 182.428L152.77 175.468L153.49 133.238Z" fill="#A83038"/>
<path d="M152.771 175.469L158.811 182.429H147.231L141.191 175.469H152.771Z" fill="#8F282F"/>
<path d="M189.139 175.469L195.169 182.429H183.589L177.559 175.469H189.139Z" fill="#8F282F"/>
<path d="M190.041 122.43L196.081 129.39L195.171 182.43L189.141 175.47L190.041 122.43Z" fill="#A83038"/>
<path d="M212.49 122.43L218.53 129.39L218.44 134.18L212.41 127.22L212.49 122.43Z" fill="#535353"/>
<path d="M236.512 136.48L242.512 143.48C239.992 140.58 236.312 139.02 231.732 139.02C228.879 139.012 226.085 139.824 223.68 141.359C221.276 142.895 219.364 145.089 218.172 147.68L212.172 140.68C213.361 138.083 215.273 135.883 217.68 134.343C220.086 132.804 222.885 131.991 225.742 132C230.312 132 234.002 133.58 236.512 136.48Z" fill="#8F282F"/>
<path d="M236.513 136.477L242.513 143.477C239.993 140.577 236.313 139.017 231.733 139.017C229.796 138.995 227.874 139.361 226.08 140.094C224.287 140.828 222.659 141.913 221.293 143.287L215.293 136.287C216.658 134.908 218.287 133.817 220.082 133.08C221.877 132.343 223.802 131.975 225.743 131.997C230.313 131.997 234.003 133.557 236.513 136.457" fill="#8F282F"/>
<path d="M215.302 136.285L221.302 143.285C220.674 143.903 220.098 144.572 219.582 145.285L213.582 138.285C214.102 137.571 214.681 136.902 215.312 136.285" fill="#8F282F"/>
<path d="M213.573 138.328L219.573 145.328C219.121 145.964 218.717 146.632 218.363 147.328L212.363 140.328C212.72 139.634 213.125 138.966 213.573 138.328Z" fill="#8F282F"/>
<path d="M212.362 140.316L218.362 147.316C218.292 147.436 218.232 147.556 218.172 147.676L212.172 140.676L212.352 140.316" fill="#8F282F"/>
<path d="M212.181 140.68L218.221 147.64L217.901 166L211.871 159.04L212.181 140.68Z" fill="#A83038"/>
<path d="M211.871 159L217.871 166C218.051 166.31 218.241 166.61 218.441 166.89L212.441 159.89C212.237 159.605 212.05 159.307 211.881 159" fill="#545454"/>
<path d="M212.432 159.93L218.432 166.93C218.67 167.28 218.93 167.614 219.212 167.93L213.212 160.93C212.93 160.611 212.666 160.278 212.422 159.93" fill="#525252"/>
<path d="M211.238 195.867L217.268 202.827H205.678L199.648 195.867H211.238Z" fill="#8F282F"/>
<path d="M211.638 172L217.678 178.96L217.268 202.83L211.238 195.87L211.638 172Z" fill="#A83038"/>
<path d="M246.139 129.168L252.139 136.168C256.219 140.878 258.399 147.408 258.269 155.018C257.999 171.248 247.219 183.378 231.369 183.378C225.609 183.378 220.159 181.918 217.789 179.178L211.789 172.178C214.159 174.918 219.609 176.388 225.369 176.388C241.219 176.388 251.989 164.248 252.269 148.028C252.409 140.408 250.229 133.878 246.139 129.168Z" fill="#8F282F"/>
<path d="M246.139 129.168L252.139 136.168C252.672 136.779 253.169 137.42 253.629 138.088L247.629 131.088C247.162 130.422 246.662 129.782 246.129 129.168" fill="#8F282F"/>
<path d="M247.641 131.09L253.641 138.09C255.634 141.054 256.996 144.397 257.641 147.91L251.641 140.91C250.996 137.397 249.634 134.054 247.641 131.09Z" fill="#8F282F"/>
<path d="M251.68 140.906L257.68 147.906C258.133 150.248 258.334 152.632 258.28 155.016C258.28 155.276 258.28 155.536 258.28 155.796L252.28 148.796C252.28 148.546 252.28 148.286 252.28 148.026C252.33 145.638 252.128 143.252 251.68 140.906Z" fill="#8F282F"/>
<path d="M252.259 148.797L258.259 155.797C258.194 157.658 257.976 159.511 257.609 161.337L251.609 154.337C251.976 152.511 252.194 150.658 252.259 148.797Z" fill="#8F282F"/>
<path d="M251.611 154.34L257.611 161.34C257.323 162.796 256.932 164.229 256.441 165.63L250.441 158.63C250.937 157.23 251.331 155.796 251.621 154.34" fill="#8F282F"/>
<path d="M250.432 158.629L256.432 165.629C255.989 166.883 255.461 168.106 254.852 169.289L248.852 162.289C249.458 161.106 249.982 159.883 250.422 158.629" fill="#8F282F"/>
<path d="M248.859 162.289L254.859 169.289C254.271 170.454 253.603 171.576 252.859 172.649L246.859 165.649C247.603 164.576 248.271 163.454 248.859 162.289Z" fill="#8F282F"/>
<path d="M246.82 165.647L252.82 172.647C251.972 173.838 251.029 174.958 250 175.997L244 168.997C245.045 167.961 245.999 166.837 246.85 165.637" fill="#8F282F"/>
<path d="M244 168.996L250 175.996C247.546 178.4 244.637 180.29 241.443 181.555C238.249 182.821 234.835 183.436 231.4 183.366C225.64 183.366 220.19 181.906 217.82 179.166L211.82 172.166C214.19 174.906 219.64 176.376 225.4 176.376C228.836 176.445 232.25 175.828 235.444 174.56C238.638 173.293 241.547 171.402 244 168.996Z" fill="#8F282F"/>
<path d="M298.879 137.286L304.879 144.286C303.349 142.576 301.466 141.219 299.359 140.309C297.253 139.399 294.973 138.958 292.679 139.016C283.449 139.016 276.319 145.436 276.139 155.836C275.975 160.031 277.367 164.138 280.049 167.366L274.049 160.366C271.36 157.145 269.966 153.039 270.139 148.847C270.319 138.447 277.439 132.016 286.679 132.016C288.973 131.96 291.252 132.402 293.358 133.312C295.464 134.222 297.348 135.578 298.879 137.286Z" fill="#8F282F"/>
<path d="M298.88 137.287L304.88 144.287C303.35 142.577 301.466 141.22 299.36 140.31C297.253 139.4 294.974 138.959 292.68 139.017C290.53 138.968 288.392 139.344 286.387 140.123C284.383 140.902 282.552 142.069 281 143.557L275 136.557C276.551 135.065 278.381 133.895 280.385 133.112C282.39 132.33 284.529 131.951 286.68 131.997C288.974 131.941 291.252 132.383 293.359 133.293C295.465 134.202 297.349 135.558 298.88 137.267" fill="#8F282F"/>
<path d="M274.941 136.597L280.941 143.597C280.335 144.2 279.78 144.852 279.281 145.547L273.281 138.547C273.774 137.835 274.326 137.166 274.931 136.547" fill="#8F282F"/>
<path d="M273.293 138.545L279.293 145.545C278.86 146.156 278.473 146.798 278.133 147.465L272.133 140.465C272.478 139.795 272.869 139.151 273.303 138.535" fill="#8F282F"/>
<path d="M272.121 140.477L278.121 147.477C277.769 148.155 277.465 148.856 277.211 149.577L271.211 142.577C271.464 141.861 271.765 141.162 272.111 140.487" fill="#8F282F"/>
<path d="M271.223 142.566L277.223 149.566C276.944 150.381 276.717 151.213 276.543 152.056L270.543 145.056C270.708 144.211 270.935 143.379 271.223 142.566Z" fill="#8F282F"/>
<path d="M270.54 145.059L276.54 152.059C276.324 153.15 276.196 154.257 276.16 155.369L270.16 148.369C270.205 147.257 270.335 146.15 270.55 145.059" fill="#8F282F"/>
<path d="M270.151 148.367L276.151 155.367C276.151 155.527 276.151 155.687 276.151 155.837C276.128 157.199 276.245 158.559 276.501 159.897L270.501 152.897C270.246 151.563 270.128 150.206 270.151 148.847C270.151 148.687 270.151 148.527 270.151 148.367Z" fill="#8F282F"/>
<path d="M270.492 152.898L276.492 159.898C276.917 162.124 277.795 164.238 279.072 166.108L273.072 159.108C271.787 157.242 270.908 155.126 270.492 152.898Z" fill="#8F282F"/>
<path d="M273.07 159.105L279.07 166.105C279.381 166.543 279.715 166.963 280.07 167.365L274.07 160.365C273.712 159.966 273.378 159.545 273.07 159.105Z" fill="#8F282F"/>
<path d="M308.372 130.328L314.372 137.328C318.717 142.494 320.984 149.092 320.732 155.838C320.462 171.748 308.572 183.378 291.912 183.378C282.962 183.378 275.452 179.938 270.512 174.238L264.512 167.238C269.462 172.938 276.972 176.388 285.922 176.388C302.582 176.388 314.462 164.748 314.732 148.848C314.995 142.098 312.727 135.493 308.372 130.328Z" fill="#8F282F"/>
<path d="M308.369 130.328L314.369 137.328C314.944 137.991 315.482 138.685 315.979 139.408L309.979 132.408C309.476 131.687 308.935 130.993 308.359 130.328" fill="#8F282F"/>
<path d="M310 132.406L316 139.406C318.078 142.412 319.505 145.818 320.19 149.406L314.19 142.406C313.501 138.819 312.074 135.414 310 132.406Z" fill="#8F282F"/>
<path d="M314.18 142.398L320.18 149.398C320.592 151.519 320.78 153.678 320.74 155.838C320.74 156.068 320.74 156.288 320.74 156.518L314.74 149.518C314.74 149.288 314.74 149.068 314.74 148.848C314.783 146.685 314.599 144.523 314.19 142.398" fill="#8F282F"/>
<path d="M314.718 149.518L320.718 156.518C320.658 158.15 320.468 159.776 320.148 161.378L314.148 154.378C314.471 152.772 314.665 151.144 314.728 149.508" fill="#8F282F"/>
<path d="M314.14 154.387L320.14 161.387C319.875 162.703 319.517 164 319.07 165.267L313.07 158.267C313.517 157.004 313.871 155.711 314.13 154.397" fill="#8F282F"/>
<path d="M313.081 158.258L319.081 165.258C318.675 166.424 318.187 167.56 317.621 168.658L311.621 161.658C312.186 160.558 312.677 159.422 313.091 158.258" fill="#8F282F"/>
<path d="M311.609 161.658L317.609 168.658C317.025 169.787 316.357 170.87 315.609 171.898L309.609 164.898C310.355 163.866 311.023 162.779 311.609 161.648" fill="#8F282F"/>
<path d="M309.64 164.906L315.64 171.906C314.782 173.113 313.822 174.244 312.77 175.286L306.77 168.286C307.816 167.245 308.773 166.118 309.63 164.916" fill="#8F282F"/>
<path d="M306.78 168.278L312.78 175.278C307.68 180.358 300.42 183.378 291.92 183.378C282.97 183.378 275.46 179.938 270.52 174.238L264.52 167.238C269.47 172.938 276.98 176.388 285.93 176.388C294.43 176.388 301.68 173.388 306.79 168.278" fill="#8F282F"/>
<path d="M335.101 122.43L341.131 129.39L340.411 171.62L334.371 164.66L335.101 122.43Z" fill="#A83038"/>
<path d="M361.911 122.43L367.951 129.39L367.231 171.62L361.191 164.66L361.911 122.43Z" fill="#A83038"/>
<path d="M387.822 175.469L393.862 182.429H328.642L322.602 175.469H387.822Z" fill="#8F282F"/>
<path d="M388.73 122.43L394.76 129.39L393.86 182.43L387.82 175.47L388.73 122.43Z" fill="#A83038"/>
<path d="M433.771 135.707L439.771 142.707C437.471 140.047 433.931 138.707 429.501 138.707C421.681 138.707 416.501 142.987 414.891 149.827L408.891 142.827C410.541 135.987 415.681 131.707 423.511 131.707C427.941 131.707 431.471 133.057 433.771 135.707Z" fill="#8F282F"/>
<path d="M433.769 135.707L439.769 142.707C437.469 140.047 433.929 138.707 429.499 138.707C427.526 138.622 425.556 138.932 423.705 139.619C421.854 140.306 420.159 141.356 418.719 142.707L412.719 135.707C415.289 133.147 418.939 131.707 423.499 131.707C428.059 131.707 431.499 133.057 433.759 135.707" fill="#8F282F"/>
<path d="M412.729 135.719L418.729 142.719C418.201 143.247 417.72 143.819 417.289 144.429L411.289 137.429C411.726 136.821 412.211 136.249 412.739 135.719" fill="#8F282F"/>
<path d="M411.277 137.426L417.277 144.426C416.886 144.973 416.535 145.548 416.227 146.146L410.227 139.146C410.519 138.549 410.853 137.975 411.227 137.426" fill="#8F282F"/>
<path d="M410.238 139.148L416.238 146.148C415.918 146.78 415.638 147.432 415.398 148.098L409.398 141.098C409.633 140.43 409.914 139.778 410.238 139.148Z" fill="#8F282F"/>
<path d="M409.398 141.098L415.398 148.098C415.208 148.658 415.038 149.228 414.898 149.828L408.898 142.828C409.037 142.242 409.207 141.665 409.408 141.098" fill="#8F282F"/>
<path d="M417.728 167.447L411.728 160.447C409.917 158.323 408.837 155.672 408.648 152.887L414.648 159.887C414.849 162.669 415.928 165.316 417.728 167.447Z" fill="#A83038"/>
<path d="M408.621 152.93L414.621 159.93C414.674 160.473 414.754 161.014 414.861 161.55L408.861 154.55C408.757 154.014 408.68 153.473 408.631 152.93" fill="#A83038"/>
<path d="M408.85 154.551L414.85 161.551C415.182 163.319 415.88 164.998 416.9 166.481L410.9 159.481C409.879 157.998 409.178 156.319 408.84 154.551" fill="#A83038"/>
<path d="M410.91 159.48L416.91 166.48C417.16 166.83 417.42 167.17 417.7 167.48L411.7 160.48C411.418 160.163 411.154 159.829 410.91 159.48Z" fill="#A83038"/>
<path d="M443.051 129.148L449.051 136.148C452.874 140.707 454.844 146.535 454.571 152.478L448.571 145.478C448.839 139.536 446.869 133.709 443.051 129.148Z" fill="#A83038"/>
<path d="M443.051 129.148L449.051 136.148C449.554 136.722 450.024 137.323 450.461 137.948L444.461 130.948C444.031 130.321 443.563 129.72 443.061 129.148" fill="#A83038"/>
<path d="M444.451 131L450.451 138C452.243 140.608 453.472 143.561 454.061 146.67L448.061 139.67C447.473 136.559 446.24 133.606 444.441 131" fill="#A83038"/>
<path d="M448.07 139.617L454.07 146.617C454.449 148.547 454.617 150.512 454.57 152.477L448.57 145.477C448.612 143.512 448.444 141.547 448.07 139.617Z" fill="#A83038"/>
<path d="M447.831 152.93L453.861 159.89H414.651L408.621 152.93H447.831Z" fill="#8F282F"/>
<path d="M448.568 145.477L454.568 152.477C454.477 154.973 454.23 157.461 453.828 159.927L447.828 152.927C448.22 150.46 448.467 147.972 448.568 145.477Z" fill="#A83038"/>
<path d="M448.57 145.477L454.57 152.477C454.57 152.647 454.57 152.837 454.57 153.027L448.57 146.027C448.57 145.837 448.57 145.647 448.57 145.477Z" fill="#A83038"/>
<path d="M448.55 145.996L454.55 152.996C454.422 155.307 454.179 157.61 453.82 159.896L447.82 152.896C448.177 150.61 448.417 148.307 448.54 145.996" fill="#A83038"/>
<path d="M408.82 174.487L402.82 167.487C407.71 173.127 415.24 176.347 424.5 176.347C428.708 176.412 432.869 175.462 436.632 173.579C440.396 171.696 443.65 168.934 446.12 165.527L452.12 172.527C449.647 175.933 446.391 178.693 442.626 180.575C438.861 182.456 434.699 183.404 430.49 183.337C421.25 183.337 413.71 180.127 408.82 174.487Z" fill="#8F282F"/>
<path d="M446.09 165.57L452.09 172.57C451.244 173.68 450.326 174.733 449.34 175.72L443.34 168.72C444.325 167.735 445.241 166.683 446.08 165.57" fill="#8F282F"/>
<path d="M443.349 168.721L449.349 175.721C446.882 178.206 443.937 180.166 440.693 181.483C437.448 182.799 433.97 183.445 430.469 183.381C421.219 183.381 413.679 180.171 408.789 174.531L402.789 167.531C407.679 173.171 415.209 176.391 424.469 176.391C427.97 176.45 431.447 175.801 434.692 174.483C437.936 173.165 440.881 171.205 443.349 168.721Z" fill="#8F282F"/>
<path d="M472.538 133.238L478.578 140.198L478.438 148.458L472.398 141.498L472.538 133.238Z" fill="#8F282F"/>
<path d="M491.239 133.238L497.269 140.198H478.579L472.539 133.238H491.239Z" fill="#8F282F"/>
<path d="M472.4 141.5L478.4 148.5C477.95 174.87 469.8 182.98 458.01 182.98C457.22 182.98 456.4 182.98 455.57 182.88L449.57 175.88C450.4 175.95 451.21 175.99 452.01 175.99C463.79 176 472 167.87 472.4 141.5Z" fill="#A83038"/>
<path d="M472.402 141.5L478.402 148.5C478.402 149.39 478.402 150.26 478.332 151.11L472.332 144.11C472.332 143.26 472.392 142.39 472.402 141.5Z" fill="#A83038"/>
<path d="M472.33 144.109L478.33 151.109C478.222 155.327 477.777 159.531 477 163.679L471 156.679C471.782 152.514 472.24 148.294 472.37 144.059" fill="#A83038"/>
<path d="M470.998 156.73L476.998 163.73C476.607 165.766 476.072 167.771 475.398 169.73L469.398 162.73C470.075 160.771 470.613 158.766 471.008 156.73" fill="#A83038"/>
<path d="M469.351 162.68L475.351 169.68C474.908 170.942 474.384 172.175 473.781 173.37L467.781 166.37C468.39 165.178 468.914 163.945 469.351 162.68Z" fill="#A83038"/>
<path d="M467.779 166.371L473.779 173.371C473.293 174.315 472.742 175.224 472.129 176.091L466.129 169.091C466.74 168.225 467.288 167.316 467.769 166.371" fill="#A83038"/>
<path d="M466.141 169.09L472.141 176.09C471.561 176.904 470.916 177.67 470.211 178.38L464.211 171.38C464.918 170.673 465.564 169.906 466.141 169.09Z" fill="#A83038"/>
<path d="M464.21 171.379L470.21 178.379C466.91 181.669 462.76 182.979 458.01 182.979C457.22 182.979 456.4 182.979 455.57 182.879L449.57 175.879C450.4 175.949 451.21 175.989 452.01 175.989C456.75 175.989 460.91 174.669 464.21 171.379Z" fill="#A83038"/>
<path d="M502.092 175.469L508.132 182.429H496.552L490.512 175.469H502.092Z" fill="#8F282F"/>
<path d="M503 122.43L509.04 129.39L508.13 182.43L502.09 175.47L503 122.43Z" fill="#A83038"/>
<path fill-rule="evenodd" clip-rule="evenodd" d="M322.562 11.7496C323.339 12.0468 324.169 12.1792 325 12.1384C326.686 12.158 328.314 11.5192 329.537 10.3577C330.76 9.19628 331.482 7.60372 331.55 5.9184C331.61 2.4484 328.31 -0.00159708 325.15 -0.00159708C323.517 -0.045855 321.932 0.547539 320.73 1.65273C319.527 2.75793 318.803 4.28799 318.71 5.9184C318.678 6.74966 318.82 7.57838 319.126 8.35195C319.432 9.12552 319.895 9.82703 320.487 10.4119C321.078 10.9968 321.785 11.4524 322.562 11.7496ZM136.38 74.4584L137.6 3.06836H76.0401L74.8201 74.4584H87.1001L88.1301 14.6884H125.11L124.08 74.4584H136.38ZM197.01 74.4282L197.92 21.4282L156.31 21.4082L156.05 36.4882C155.65 59.6582 150.07 64.0782 144.76 64.0782H143.76L144.49 74.8882C145.32 74.9982 146.13 74.9982 146.93 74.9982C158.71 74.9982 166.87 66.8582 167.32 40.4682L167.46 32.2082H186.16L185.44 74.4282H197.01ZM230.85 20.1982C244.77 20.1982 252.35 28.1982 252.11 42.0182L251.56 74.4582H240L240.1 68.6382C236.89 72.1082 231.46 75.0682 223.63 75.0682C212.06 75.0682 204.55 68.5482 204.72 58.3382C204.93 46.5082 215.72 41.5082 229.72 41.5082C233.385 41.4951 237.034 41.9761 240.57 42.9382C240.8 35.2882 237.92 31.0082 229.39 31.0082C223.6 31.0082 219.31 32.7382 214.17 36.6182L208.62 28.0582C213.63 23.1482 222.21 20.1982 230.85 20.1982ZM240.27 57.7282L240.35 52.6382C237.231 51.6775 233.984 51.1921 230.72 51.1982C222.4 51.1982 216.78 52.9382 216.72 58.1982C216.65 62.3782 220.47 64.9282 226.35 64.9282C229.105 64.998 231.832 64.371 234.279 63.1053C236.727 61.8396 238.815 59.9763 240.35 57.6882L240.27 57.7282ZM307.44 32.2382L307.63 21.4282H257.85L257.67 32.2382H276.76L276.03 74.4582H287.62L288.34 32.2382H307.44ZM360.45 44.4682C360.349 46.9602 360.105 49.4443 359.72 51.9082H320.5C321.28 60.2782 328.01 64.5682 336.75 64.5682C339.5 64.5708 342.213 63.9408 344.681 62.727C347.148 61.5132 349.304 59.7481 350.98 57.5682L357.98 64.5682C355.511 67.9735 352.258 70.7338 348.497 72.6155C344.735 74.4971 340.575 75.4448 336.37 75.3782C319.37 75.3782 308.21 64.5682 308.5 47.8382C308.76 32.3282 318.42 20.1982 336.09 20.1982C350.3 20.1982 360.71 29.7882 360.45 44.4682ZM320.78 41.8182H348.51C347.73 34.4782 342.81 30.6982 335.4 30.6982C327.58 30.6982 322.4 34.9882 320.78 41.8182ZM347.3 12.1385C343.74 12.1385 340.63 9.78854 340.69 5.91854C340.75 2.44854 344 -0.00146484 347.5 -0.00146484C350.75 -0.00146484 353.96 2.44854 353.9 5.91854C353.89 6.76497 353.71 7.60075 353.37 8.37597C353.03 9.15119 352.537 9.84994 351.921 10.4305C351.305 11.0111 350.579 11.4615 349.785 11.755C348.991 12.0485 348.146 12.1789 347.3 12.1385ZM416.4 45.4882L438.75 21.4282H424.74L405.49 42.2282L405.84 21.4282H394.27L393.91 42.1282L375.77 21.4282H361.36L382.68 45.5982L360.24 74.4582H374.05L391.31 51.9082L393.7 54.4682L393.36 74.4582H404.94L405.28 54.3682L407.55 52.0182L424.24 74.4582H438.35L416.4 45.4882ZM49.47 122.428L48.56 175.468H36.97L37.34 153.938H11.95L11.58 175.468H0L0.91 122.428H12.48L12.13 143.238H37.52L37.88 122.428H49.47ZM108.67 152.928C109.062 150.462 109.309 147.974 109.41 145.478C109.66 130.788 99.2501 121.208 85.0401 121.208C67.3701 121.208 57.7101 133.349 57.4501 148.849C57.1601 165.568 68.3201 176.389 85.3201 176.388C89.5274 176.451 93.6881 175.501 97.451 173.618C101.214 171.735 104.469 168.974 106.94 165.569L99.9401 158.569C98.2591 160.746 96.1016 162.509 93.633 163.722C91.1645 164.936 88.4507 165.567 85.7001 165.569C76.9701 165.569 70.2301 161.288 69.4601 152.928H108.67ZM97.4601 142.828H69.7401C71.3501 135.988 76.5301 131.708 84.3501 131.708C91.7701 131.708 96.6801 135.488 97.4601 142.828ZM190.04 122.428L189.14 175.468H177.56L178.28 133.238H153.49L152.77 175.468H141.19L142.1 122.428H190.04ZM252.28 148.029C252.55 132.318 242.98 121.208 227.14 121.208C221.86 121.208 215.83 122.998 212.41 127.218L212.49 122.428H200.91L199.65 195.868H211.24L211.64 171.999C213.93 174.848 219.49 176.388 225.38 176.388C241.23 176.388 252 164.248 252.28 148.029ZM240.24 148.939C240.11 158.848 233.69 165.569 224.24 165.569V165.529C219.07 165.529 214.33 163.288 211.87 158.999L212.14 140.678C213.331 138.086 215.243 135.892 217.647 134.356C220.052 132.821 222.847 132.009 225.7 132.018C234.84 132.018 240.42 138.238 240.24 148.939ZM286.86 121.208C303.52 121.208 315.01 132.829 314.73 148.849C314.45 164.868 302.58 176.388 285.92 176.388C269.46 176.388 257.92 164.749 258.15 148.849C258.38 132.949 270.1 121.208 286.86 121.208ZM286.1 165.569C295.76 165.569 302.57 159.038 302.75 148.849C302.93 138.659 295.83 131.999 286.68 131.999C277.53 131.999 270.32 138.428 270.14 148.828C269.98 158.419 276.46 165.548 286.14 165.548L286.1 165.569ZM387.82 175.468L388.73 122.428H377.14L376.42 164.658H361.19L361.91 122.428H350.33L349.61 164.658H334.37L335.1 122.428H323.51L322.6 175.468H387.82ZM448.57 145.478C448.469 147.974 448.222 150.462 447.83 152.928H408.62C409.39 161.288 416.12 165.569 424.86 165.569C427.611 165.567 430.324 164.936 432.793 163.722C435.261 162.509 437.419 160.746 439.1 158.569L446.1 165.569C443.629 168.975 440.375 171.737 436.612 173.62C432.849 175.503 428.688 176.453 424.48 176.388C407.48 176.389 396.33 165.568 396.61 148.849C396.88 133.349 406.53 121.208 424.21 121.208C438.42 121.208 448.82 130.788 448.57 145.478ZM408.89 142.828H436.63C435.83 135.488 430.92 131.708 423.51 131.708C415.68 131.708 410.51 135.988 408.89 142.828ZM502.09 175.428L503 122.428L461.39 122.398L461.13 137.498C460.73 160.678 455.14 165.078 449.83 165.078H448.83L449.56 175.888C450.39 175.998 451.2 175.998 452 175.998C463.79 175.998 472 167.868 472.4 141.458L472.54 133.198H491.24L490.52 175.428H502.09Z" fill="url(#paint0_linear_290_76303)"/>
</g>
<defs>
<linearGradient id="paint0_linear_290_76303" x1="338" y1="-26.0015" x2="205" y2="247.999" gradientUnits="userSpaceOnUse">
<stop offset="0.178761" stop-color="#D43C46"/>
<stop offset="1" stop-color="#F37078"/>
</linearGradient>
<clipPath id="clip0_290_76303">
<rect width="509.03" height="202.83" fill="white"/>
</clipPath>
</defs>
</svg>
