<svg width="833" height="86" viewBox="0 0 833 86" fill="none" xmlns="http://www.w3.org/2000/svg">
<path d="M26.6139 10.7734L32.2529 17.2822L32.1874 21.481L26.5391 14.9817L26.6139 10.7734Z" fill="#005D72"/>
<path d="M51.2174 10.7734L56.8564 17.2822H32.2523L26.6133 10.7734H51.2174Z" fill="#004651"/>
<path d="M26.5402 14.9609L32.1512 21.5071C31.7958 42.1742 29.4392 54.6679 25.1188 62.4952L19.5078 55.9491C23.7909 48.1592 26.1849 35.6748 26.5402 14.9609Z" fill="#005D72"/>
<path d="M26.5418 14.9648L32.1528 21.511C32.1528 23.5122 32.0592 25.4293 31.9938 27.2809L26.3828 20.7348C26.4576 18.8645 26.5106 16.9443 26.5418 14.9742" fill="#005D72"/>
<path d="M26.3803 20.7422L31.9913 27.2883C31.7953 34.5057 31.0386 41.6969 29.7282 48.7971L24.1172 42.2509C25.437 35.1522 26.1937 27.9602 26.3803 20.7422Z" fill="#005D72"/>
<path d="M24.118 42.2906L29.7289 48.8367C29.1902 51.5903 28.459 54.3027 27.5407 56.9539L21.9297 50.4078C22.8477 47.754 23.5758 45.0383 24.1086 42.2812" fill="#005D72"/>
<path d="M21.9387 50.4156L27.5497 56.9617C26.9912 58.5919 26.3226 60.1822 25.5485 61.7217L19.9375 55.1756C20.7164 53.6314 21.3943 52.0383 21.9668 50.4062" fill="#005D72"/>
<path d="M19.9106 55.1758L25.5216 61.7219L25.0914 62.5262L19.4805 55.98C19.6301 55.7182 19.7704 55.447 19.92 55.1758" fill="#005D72"/>
<path d="M11.1097 78.5078L16.7488 85.0165H5.63903L0 78.5078H11.1097Z" fill="#004651"/>
<path d="M11.3151 66.7695L16.9541 73.2783L16.7484 85.0145L11.1094 78.5058L11.3151 66.7695Z" fill="#005D72"/>
<path d="M62.9007 0L68.5397 6.50873L67.5765 62.4969L61.9375 55.9882L62.9007 0Z" fill="#005D72"/>
<path d="M58.7104 66.7695L64.3495 73.2783H16.9554L11.3164 66.7695H58.7104Z" fill="#004651"/>
<path d="M70.0162 55.9883L75.6553 62.497L75.2718 85.0157L69.6328 78.507L70.0162 55.9883Z" fill="#005D72"/>
<path d="M69.6308 78.5078L75.2698 85.0165H64.1507L58.5117 78.5078H69.6308Z" fill="#004651"/>
<path d="M104.272 29.0358L109.883 35.582C108.237 33.7116 105.572 32.6923 101.588 32.6923C96.1733 32.6923 92.1521 34.3102 87.3453 37.9292L81.7344 31.4299C86.5505 27.7547 90.5717 26.1836 95.9769 26.1836C99.97 26.1836 102.635 27.1188 104.272 29.0358Z" fill="#004651"/>
<path d="M104.272 29.0397L109.883 35.5859C108.237 33.7156 105.572 32.6962 101.588 32.6962C96.1733 32.6962 92.1521 34.3141 87.3453 37.9331L81.7344 31.4338C86.5505 27.7586 90.5717 26.1875 95.9769 26.1875C99.97 26.1875 102.635 27.1881 104.272 29.0865" fill="#004651"/>
<path d="M112.863 21.9883L118.474 28.5344C121.467 31.9852 122.991 36.8761 122.888 42.9827L117.277 36.4365C117.371 30.3299 115.856 25.4484 112.863 21.9883Z" fill="#005D72"/>
<path d="M112.863 21.9844L118.474 28.5305C118.841 28.9513 119.184 29.3915 119.503 29.8491L113.892 23.3497C113.578 22.8875 113.238 22.4441 112.873 22.0218" fill="#005D72"/>
<path d="M113.883 23.3125L119.494 29.8586C120.933 32.0014 121.917 34.4174 122.383 36.9565L116.772 30.4104C116.316 27.8713 115.332 25.4563 113.883 23.3219" fill="#005D72"/>
<path d="M116.773 30.4L122.384 36.9461C122.762 38.9336 122.928 40.9554 122.88 42.9779L117.269 36.4318C117.317 34.4062 117.151 32.3812 116.773 30.3906" fill="#005D72"/>
<path d="M91.067 61.7193L85.456 55.1731C84.5955 54.1849 84.1353 52.9108 84.1655 51.6008C84.2496 46.6351 89.5052 45.0547 97.2577 45.0547C100.309 45.0558 103.343 45.5064 106.263 46.392L111.874 52.9381C108.954 52.0525 105.92 51.6019 102.869 51.6008C95.0788 51.6008 89.8325 53.2187 89.7764 58.147C89.737 59.4585 90.1984 60.7358 91.067 61.7193Z" fill="#004651"/>
<path d="M106.273 46.3568L111.884 52.9029C108.965 52.0173 105.93 51.5668 102.879 51.5657C97.5297 51.5657 93.3776 52.3325 91.2828 54.3712L85.6719 47.825C87.776 45.7396 91.9281 45.0195 97.2679 45.0195C100.319 45.0206 103.354 45.4712 106.273 46.3568Z" fill="#004651"/>
<path d="M85.6696 47.8711L91.2806 54.4172C91.0673 54.6269 90.8732 54.8554 90.7008 55.0999L85.0898 48.5538C85.2628 48.3126 85.4568 48.0872 85.6696 47.8804" fill="#004651"/>
<path d="M85.0991 48.543L90.7101 55.0891C90.5689 55.276 90.4467 55.4765 90.3453 55.6876L84.7344 49.1415C84.8449 48.9354 84.9666 48.7356 85.0991 48.543Z" fill="#004651"/>
<path d="M84.7282 49.1445L90.3392 55.6907C90.2337 55.8894 90.1431 56.0957 90.068 56.3079L84.457 49.7617C84.5289 49.5498 84.6165 49.3435 84.7189 49.1445" fill="#004651"/>
<path d="M84.4659 49.7617L90.0769 56.3079C89.9919 56.5453 89.9262 56.7892 89.8805 57.0373L84.2695 50.4911C84.3152 50.2431 84.3809 49.9992 84.4659 49.7617Z" fill="#004651"/>
<path d="M84.2669 50.5L89.8779 57.0461C89.8161 57.3542 89.7817 57.6672 89.775 57.9813L84.1641 51.4352C84.1743 51.1208 84.2119 50.8079 84.2763 50.5" fill="#004651"/>
<path d="M84.1652 51.4336L89.7761 57.9797V58.12C89.7673 58.5308 89.8018 58.9415 89.879 59.3451L84.268 52.7989C84.1876 52.4052 84.1531 52.0036 84.1652 51.6019C84.1585 51.546 84.1585 51.4895 84.1652 51.4336Z" fill="#004651"/>
<path d="M84.2578 52.8265L89.8688 59.3726C90.018 60.0529 90.3044 60.6957 90.7104 61.2616L85.0995 54.7155C84.6951 54.1381 84.4178 53.4815 84.2859 52.7891" fill="#004651"/>
<path d="M85.1016 54.7539L90.7125 61.3C90.8205 61.4577 90.9393 61.6076 91.0679 61.7489L85.4569 55.2028C85.3313 55.0613 85.2157 54.9114 85.1109 54.7539" fill="#004651"/>
<path d="M81.9938 68.2631L76.3828 61.717C79.4221 65.3174 84.3878 67.328 90.616 67.328C97.9383 67.328 103.016 64.5225 106.018 61.3242L111.629 67.8704C108.655 71.0686 103.577 73.8741 96.2644 73.8741C90.0268 73.8741 85.0985 71.8261 81.9938 68.2631Z" fill="#004651"/>
<path d="M106.018 61.3398L111.629 67.886L111.189 68.3442L105.578 61.7981L106.018 61.3398Z" fill="#004651"/>
<path d="M105.579 61.7975L111.19 68.3436C108.141 71.3829 103.203 73.8891 96.227 73.8891C90.0268 73.8798 85.0985 71.8318 81.9938 68.2688L76.3828 61.7227C79.4221 65.323 84.3878 67.3336 90.616 67.3336C97.5923 67.3336 102.521 64.8274 105.579 61.7881" fill="#004651"/>
<path d="M116.755 66.7695L122.394 73.2783H111.565L105.926 66.7695H116.755Z" fill="#004651"/>
<path d="M117.268 36.4414L122.917 42.9408L122.393 73.2774L116.754 66.7687L117.268 36.4414Z" fill="#005D72"/>
<path d="M138.216 17.168L143.864 23.6767L143.527 43.1374L137.879 36.6287L138.216 17.168Z" fill="#005D72"/>
<path d="M137.713 46.6367L143.362 53.1455L143.016 73.2795L137.367 66.7708L137.713 46.6367Z" fill="#005D72"/>
<path d="M137.364 66.7695L143.013 73.2783H132.174L126.535 66.7695H137.364Z" fill="#004651"/>
<path d="M161.455 46.6367L167.094 53.1455H143.359L137.711 46.6367H161.455Z" fill="#004651"/>
<path d="M171.948 66.7695L177.587 73.2783H166.748L161.109 66.7695H171.948Z" fill="#004651"/>
<path d="M172.8 17.168L178.439 23.6767L177.588 73.2777L171.949 66.769L172.8 17.168Z" fill="#005D72"/>
<path d="M193.786 17.168L199.425 23.6767L199.088 43.1374L193.449 36.6287L193.786 17.168Z" fill="#005D72"/>
<path d="M193.28 46.6367L198.919 53.1455L198.573 73.2795L192.934 66.7708L193.28 46.6367Z" fill="#005D72"/>
<path d="M192.935 66.7695L198.574 73.2783H187.744L182.105 66.7695H192.935Z" fill="#004651"/>
<path d="M217.021 46.6367L222.66 53.1455H198.916L193.277 46.6367H217.021Z" fill="#004651"/>
<path d="M227.514 66.7695L233.153 73.2783H222.324L216.676 66.7695H227.514Z" fill="#004651"/>
<path d="M228.367 17.168L234.006 23.6767L233.155 73.2777L227.516 66.769L228.367 17.168Z" fill="#005D72"/>
<path d="M249.35 17.168L254.989 23.6767L254.746 38.0782L249.098 31.5695L249.35 17.168Z" fill="#005D72"/>
<path d="M256.626 41.6797L262.274 48.1884H254.569L248.93 41.6797H256.626Z" fill="#004651"/>
<path d="M248.93 41.6797L254.569 48.1884L254.316 63.1697L248.668 56.661L248.93 41.6797Z" fill="#005D72"/>
<path d="M265.588 44.3917L271.199 50.9378C269.656 49.1516 266.785 48.2258 262.24 48.2258L256.629 41.6797C261.183 41.6797 264.045 42.6055 265.588 44.3917Z" fill="#004651"/>
<path d="M265.588 44.3956L271.199 50.9417C269.656 49.1555 266.785 48.2297 262.24 48.2297L256.629 41.6836C261.183 41.6836 264.045 42.6188 265.597 44.3956" fill="#004651"/>
<path d="M256.291 66.7695L261.939 73.2783H243.32L237.672 66.7695H256.291Z" fill="#004651"/>
<path d="M274.621 37.4609L280.232 44.0071C282.944 47.1305 283.972 51.2172 283.869 55.575C283.72 64.7303 277.968 73.3431 261.912 73.3431L256.301 66.797C272.358 66.797 278.109 58.2122 278.268 49.0289C278.333 44.671 277.333 40.5844 274.621 37.4609Z" fill="#004651"/>
<path d="M274.617 37.4609L280.228 44.0071C280.545 44.3704 280.842 44.7513 281.117 45.148L275.506 38.6018C275.225 38.2091 274.935 37.8257 274.617 37.4609Z" fill="#004651"/>
<path d="M275.508 38.6016L281.119 45.1477C282.301 46.8852 283.107 48.8505 283.485 50.9177L277.874 44.3715C277.491 42.3056 276.686 40.3412 275.508 38.6016Z" fill="#004651"/>
<path d="M277.871 44.3711L283.482 50.9172C283.778 52.4575 283.906 54.0252 283.865 55.593C283.865 55.7427 283.865 55.9016 283.865 56.0513L278.254 49.5051C278.254 49.3555 278.254 49.2059 278.254 49.0469C278.29 47.4792 278.162 45.912 277.871 44.3711Z" fill="#004651"/>
<path d="M278.245 49.4883L283.856 56.0344C283.816 57.1242 283.691 58.2092 283.482 59.2794L277.871 52.7333C278.084 51.6635 278.213 50.5784 278.254 49.4883" fill="#004651"/>
<path d="M277.863 52.7305L283.474 59.2766C283.306 60.0975 283.084 60.9066 282.81 61.6987L277.199 55.1993C277.48 54.4064 277.702 53.5937 277.863 52.7679" fill="#004651"/>
<path d="M277.201 55.1702L282.812 61.6696C282.562 62.3746 282.265 63.0619 281.923 63.727L276.312 57.1808C276.655 56.5206 276.949 55.8361 277.192 55.1328" fill="#004651"/>
<path d="M276.322 57.2109L281.933 63.7571C281.597 64.4086 281.213 65.0338 280.783 65.6274L275.172 59.0813C275.599 58.4855 275.983 57.8605 276.322 57.2109Z" fill="#004651"/>
<path d="M275.17 59.1016L280.781 65.6477C280.281 66.3552 279.721 67.0184 279.107 67.6302L273.496 61.0841C274.115 60.4745 274.678 59.811 275.179 59.1016" fill="#004651"/>
<path d="M273.487 61.0859L279.098 67.6321C275.647 71.0641 270.12 73.3179 261.9 73.3179L256.289 66.7717C264.518 66.7717 270.036 64.518 273.487 61.0859Z" fill="#004651"/>
<path d="M294.566 17.168L300.205 23.6767L299.363 73.2777L293.715 66.769L294.566 17.168Z" fill="#005D72"/>
<path d="M293.716 66.7695L299.364 73.2783H288.535L282.887 66.7695H293.716Z" fill="#004651"/>
<path d="M336.659 29.5883L342.27 36.1344C340.119 33.6563 336.809 32.3938 332.666 32.3938C325.353 32.3938 320.509 36.3869 318.994 42.7834L313.383 36.2373C314.916 29.8408 319.733 25.8477 327.055 25.8477C331.244 25.857 334.546 27.1195 336.659 29.5883Z" fill="#004651"/>
<path d="M336.659 29.5922L342.27 36.1383C340.119 33.6602 336.809 32.3977 332.666 32.3977C328.523 32.3977 324.989 33.7537 322.576 36.1383L316.965 29.5922C319.378 27.1982 322.791 25.8516 327.055 25.8516C331.32 25.8516 334.537 27.1047 336.65 29.5922" fill="#004651"/>
<path d="M317.022 29.6094L322.633 36.1555C322.143 36.6486 321.692 37.1802 321.287 37.7453L315.676 31.1992C316.081 30.634 316.532 30.1024 317.022 29.6094Z" fill="#004651"/>
<path d="M315.666 31.1992L321.277 37.7454C320.929 38.26 320.617 38.7973 320.341 39.3538L314.73 32.8077C315.006 32.2512 315.318 31.7138 315.666 31.1992Z" fill="#004651"/>
<path d="M314.692 32.8086L320.303 39.3547C319.997 39.959 319.735 40.584 319.517 41.2251L313.906 34.6789C314.123 34.0373 314.385 33.4123 314.692 32.8086Z" fill="#004651"/>
<path d="M313.907 34.6055L319.518 41.1516C319.34 41.6753 319.181 42.2083 319.041 42.7694L313.43 36.2233C313.558 35.6784 313.717 35.1414 313.907 34.6148" fill="#004651"/>
<path d="M321.697 59.2722L316.086 52.7261C314.399 50.7359 313.393 48.2587 313.215 45.6562L318.826 52.2024C319.011 54.8034 320.016 57.2786 321.697 59.2722Z" fill="#005D72"/>
<path d="M313.176 45.6914L318.787 52.2375C318.831 52.7465 318.906 53.2524 319.011 53.7525L313.4 47.2064C313.303 46.7053 313.231 46.1997 313.185 45.6914" fill="#005D72"/>
<path d="M313.392 47.207L319.003 53.7532C319.3 55.4031 319.937 56.9733 320.873 58.3635L315.262 51.8174C314.304 50.4326 313.648 48.8618 313.336 47.207" fill="#005D72"/>
<path d="M315.316 51.8164L320.927 58.3625C321.161 58.6898 321.404 59.0078 321.666 59.2977L316.055 52.7516C315.794 52.4543 315.551 52.1421 315.326 51.8164" fill="#005D72"/>
<path d="M345.363 23.4453L350.974 29.9914C354.547 34.2591 356.389 39.7118 356.136 45.272L350.525 38.7726C350.779 33.1981 348.938 27.7304 345.363 23.4453Z" fill="#005D72"/>
<path d="M345.363 23.4453L350.974 29.9914C351.442 30.5306 351.879 31.0957 352.283 31.6841L346.673 25.138C346.261 24.5488 345.822 23.9877 345.363 23.4453Z" fill="#005D72"/>
<path d="M346.672 25.1367L352.283 31.6829C353.967 34.1219 355.12 36.8873 355.668 39.8001L350.057 33.2539C349.5 30.3439 348.347 27.5804 346.672 25.1367Z" fill="#005D72"/>
<path d="M350.059 33.2539L355.67 39.8C356.024 41.6012 356.181 43.4356 356.137 45.2707L350.526 38.7714C350.565 36.9333 350.408 35.0962 350.059 33.2913" fill="#005D72"/>
<path d="M349.843 45.6914L355.483 52.2001H318.815L313.176 45.6914H349.843Z" fill="#004651"/>
<path d="M350.526 38.7344L356.137 45.2338C356.047 47.5675 355.819 49.8938 355.455 52.2007L349.844 45.6546C350.206 43.3632 350.434 41.0525 350.526 38.7344Z" fill="#005D72"/>
<path d="M350.527 38.7327L356.138 45.2321C356.138 45.4098 356.138 45.5875 356.138 45.7745L350.527 39.2284C350.527 39.0413 350.527 38.8636 350.527 38.6953" fill="#005D72"/>
<path d="M350.509 39.2773L356.12 45.8235C356.005 47.975 355.78 50.1193 355.447 52.248L349.836 45.7019C350.167 43.5731 350.388 41.4288 350.5 39.2773" fill="#005D72"/>
<path d="M313.365 65.8534L307.754 59.3072C312.327 64.5815 319.369 67.5928 328.028 67.5928C331.954 67.6545 335.837 66.7707 339.349 65.0161C342.862 63.2616 345.901 60.6877 348.209 57.5117L353.82 64.0579C351.51 67.2436 348.467 69.8257 344.947 71.5855C341.428 73.3452 337.536 74.2307 333.602 74.167C324.989 74.1295 317.957 71.1277 313.365 65.8534Z" fill="#004651"/>
<path d="M348.21 57.5117L353.821 64.0579C353.027 65.1021 352.165 66.0924 351.24 67.0223L345.629 60.4762C346.551 59.5461 347.41 58.5558 348.201 57.5117" fill="#004651"/>
<path d="M345.638 60.4753L351.249 67.0214C348.943 69.3401 346.192 71.1683 343.161 72.3961C340.13 73.624 336.882 74.226 333.612 74.1661C324.962 74.1661 317.91 71.1642 313.338 65.8899L307.727 59.3438C312.3 64.6181 319.341 67.6293 328.001 67.6293C331.271 67.6875 334.519 67.0837 337.55 65.8543C340.581 64.6249 343.332 62.7952 345.638 60.4753Z" fill="#004651"/>
<path d="M414.94 27.2812L420.579 33.79H397.397L391.758 27.2812H414.94Z" fill="#004651"/>
<path d="M391.757 27.2812L397.396 33.79L396.723 73.2819L391.074 66.7732L391.757 27.2812Z" fill="#005D72"/>
<path d="M391.074 66.7695L396.722 73.2783H385.893L380.254 66.7695H391.074Z" fill="#004651"/>
<path d="M425.087 66.7695L430.735 73.2783H419.906L414.258 66.7695H425.087Z" fill="#004651"/>
<path d="M425.937 17.168L431.576 23.6767L430.734 73.2777L425.086 66.769L425.937 17.168Z" fill="#005D72"/>
<path d="M471.481 31.0664L477.092 37.6125C475.668 36.0101 473.913 34.7361 471.948 33.8787C469.983 33.0213 467.855 32.601 465.711 32.6468C457.061 32.6468 450.412 38.6505 450.244 48.3762C450.081 52.2998 451.384 56.1436 453.9 59.1586L448.289 52.6125C445.781 49.5972 444.482 45.7582 444.642 41.8394C444.782 32.1512 451.431 26.1848 460.1 26.1848C462.237 26.1285 464.361 26.5357 466.326 27.3784C468.29 28.221 470.049 29.4792 471.481 31.0664Z" fill="#004651"/>
<path d="M471.481 31.0679L477.092 37.614C475.668 36.0116 473.912 34.7376 471.947 33.8802C469.982 33.0229 467.854 32.6025 465.711 32.6483C463.688 32.5999 461.677 32.9536 459.792 33.6889C457.907 34.4241 456.187 35.5262 454.732 36.9314L449.121 30.3852C450.583 28.9952 452.306 27.9086 454.191 27.1879C456.075 26.4672 458.083 26.1268 460.1 26.1863C462.245 26.1318 464.377 26.5443 466.347 27.3953C468.317 28.2462 470.078 29.5153 471.509 31.1146" fill="#004651"/>
<path d="M449.102 30.4258L454.713 36.9719C454.149 37.5362 453.633 38.1461 453.17 38.7955L447.559 32.2493C448.022 31.6 448.538 30.99 449.102 30.4258Z" fill="#004651"/>
<path d="M447.559 32.2461L453.17 38.7922C452.762 39.3632 452.396 39.9633 452.076 40.5877L446.465 34.0416C446.785 33.4172 447.151 32.817 447.559 32.2461Z" fill="#004651"/>
<path d="M446.463 34.0391L452.074 40.5852C451.748 41.2197 451.467 41.8758 451.232 42.549L445.621 36.0029C445.86 35.3311 446.141 34.6751 446.463 34.0391Z" fill="#004651"/>
<path d="M445.62 36.0078L451.231 42.5539C450.963 43.3106 450.751 44.0857 450.595 44.8731L444.984 38.327C445.14 37.5396 445.352 36.7644 445.62 36.0078Z" fill="#004651"/>
<path d="M444.986 38.3438L450.597 44.8899C450.396 45.9139 450.274 46.9519 450.232 47.9946L444.621 41.4485C444.659 40.4054 444.781 39.3671 444.986 38.3438Z" fill="#004651"/>
<path d="M444.621 41.4297L450.232 47.9758C450.232 48.1254 450.232 48.2751 450.232 48.4153C450.21 49.6888 450.32 50.9611 450.56 52.2121L444.949 45.666C444.704 44.4347 444.594 43.1804 444.621 41.9253C444.621 41.7757 444.621 41.6261 444.621 41.4764" fill="#004651"/>
<path d="M444.941 45.6663L450.552 52.2124C450.954 54.2851 451.786 56.2506 452.993 57.9824L447.382 51.4363C446.18 49.6909 445.358 47.7124 444.969 45.6289" fill="#004651"/>
<path d="M447.352 51.4375L452.963 57.9836C453.253 58.3927 453.565 58.786 453.898 59.1619L448.287 52.6158C447.954 52.24 447.642 51.8467 447.352 51.4375Z" fill="#004651"/>
<path d="M480.364 24.5586L485.975 31.1047C490.046 35.9314 492.167 42.1049 491.923 48.4146C491.67 63.3024 480.56 74.1689 464.98 74.1689C456.611 74.1689 449.588 70.952 444.959 65.6216L439.348 59.0754C443.967 64.4059 450.99 67.6322 459.36 67.6322C474.94 67.6322 486.059 56.7562 486.312 41.8778C486.558 35.5651 484.437 29.3881 480.364 24.5586Z" fill="#004651"/>
<path d="M480.363 24.5586L485.974 31.1047C486.513 31.723 487.019 32.3691 487.489 33.0405L481.878 26.5411C481.411 25.8668 480.908 25.2176 480.373 24.596" fill="#004651"/>
<path d="M481.871 26.5039L487.482 33.05C489.418 35.864 490.752 39.0478 491.4 42.4017L485.789 35.8555C485.153 32.4982 483.818 29.3122 481.871 26.5039Z" fill="#004651"/>
<path d="M485.787 35.8477L491.398 42.3938C491.78 44.3776 491.953 46.3962 491.912 48.4162C491.912 48.6313 491.912 48.8371 491.912 49.0521L486.301 42.506C486.301 42.3003 486.301 42.0852 486.301 41.8794C486.344 39.8559 486.168 37.8336 485.777 35.8477" fill="#004651"/>
<path d="M486.285 42.5039L491.896 49.05C491.836 50.5801 491.654 52.103 491.353 53.6043L485.742 47.0581C486.045 45.5573 486.223 44.0341 486.275 42.5039" fill="#004651"/>
<path d="M485.761 47.0586L491.372 53.6047C491.131 54.8338 490.799 56.0435 490.381 57.2238L484.77 50.6777C485.185 49.4964 485.517 48.2869 485.761 47.0586Z" fill="#004651"/>
<path d="M484.767 50.678L490.378 57.2242C490.021 58.303 489.589 59.356 489.088 60.3757L483.477 53.8295C484.005 52.7981 484.464 51.7328 484.851 50.6406" fill="#004651"/>
<path d="M483.394 53.8672L489.005 60.4133C488.451 61.4646 487.826 62.4769 487.134 63.4432L481.523 56.8971C482.218 55.933 482.843 54.9205 483.394 53.8672Z" fill="#004651"/>
<path d="M481.553 56.8945L487.164 63.4407C486.363 64.5645 485.468 65.6187 484.49 66.5922L478.879 60.046C479.855 59.0701 480.749 58.0161 481.553 56.8945Z" fill="#004651"/>
<path d="M478.877 60.0468L484.488 66.5929C479.719 71.3435 472.929 74.1677 464.98 74.1677C456.611 74.1677 449.588 70.9508 444.959 65.6204L439.348 59.0742C443.967 64.4046 450.99 67.631 459.36 67.631C467.318 67.631 474.098 64.8255 478.877 60.0468Z" fill="#004651"/>
<path d="M552.316 31.0657L557.927 37.6118C556.497 36.0137 554.737 34.7453 552.769 33.8944C550.801 33.0435 548.671 32.6303 546.527 32.6835C537.887 32.6835 531.219 38.6872 531.06 48.4129C530.892 52.3328 532.193 56.1743 534.707 59.186L529.096 52.6399C526.58 49.6323 525.276 45.7942 525.44 41.8761C525.608 32.1505 532.266 26.1374 540.916 26.1374C543.06 26.0842 545.19 26.4973 547.158 27.3483C549.126 28.1992 550.886 29.4676 552.316 31.0657Z" fill="#004651"/>
<path d="M552.316 31.0703L557.927 37.6165C556.497 36.0184 554.737 34.75 552.769 33.8991C550.801 33.0481 548.671 32.635 546.527 32.6881C544.505 32.6398 542.493 32.9935 540.608 33.7287C538.724 34.4639 537.004 35.5661 535.548 36.9712L529.938 30.4251C531.398 29.0301 533.12 27.9376 535.004 27.2106C536.888 26.4835 538.897 26.1363 540.916 26.1888C543.06 26.1356 545.19 26.5487 547.158 27.3997C549.126 28.2506 550.886 29.519 552.316 31.1171" fill="#004651"/>
<path d="M529.926 30.4258L535.537 36.9719C534.97 37.5338 534.454 38.1439 533.994 38.7955L528.383 32.2493C528.846 31.6 529.362 30.99 529.926 30.4258Z" fill="#004651"/>
<path d="M528.364 32.2461L533.975 38.7922C533.569 39.3677 533.203 39.9708 532.881 40.5971L527.27 34.051C527.592 33.4247 527.958 32.8216 528.364 32.2461Z" fill="#004651"/>
<path d="M527.291 34.0508L532.902 40.5969C532.57 41.2253 532.289 41.8788 532.06 42.5514L526.449 36.0053C526.686 35.3358 526.967 34.6828 527.291 34.0508Z" fill="#004651"/>
<path d="M526.495 36.0078L532.106 42.5539C531.837 43.3134 531.625 44.0917 531.47 44.8825L525.859 38.3364C526.014 37.5456 526.226 36.7673 526.495 36.0078Z" fill="#004651"/>
<path d="M525.81 38.3438L531.421 44.8899C531.211 45.9093 531.089 46.9449 531.056 47.9853L525.445 41.4391C525.479 40.3994 525.598 39.3641 525.801 38.3438" fill="#004651"/>
<path d="M525.457 41.4297L531.068 47.9758C531.068 48.1254 531.068 48.2751 531.068 48.4153C531.038 49.6886 531.145 50.9614 531.385 52.2121L525.775 45.666C525.539 44.4334 525.429 43.1801 525.447 41.9253C525.447 41.7757 525.447 41.6261 525.447 41.4764" fill="#004651"/>
<path d="M525.766 45.6702L531.377 52.2164C531.786 54.2883 532.62 56.253 533.827 57.9863L528.216 51.4402C527.017 49.6927 526.196 47.715 525.803 45.6328" fill="#004651"/>
<path d="M528.18 51.4375L533.791 57.9836C534.078 58.3921 534.39 58.7825 534.726 59.1526L529.115 52.6065C528.78 52.2356 528.468 51.8453 528.18 51.4375Z" fill="#004651"/>
<path d="M561.19 24.5586L566.801 31.1047C570.871 35.9323 572.992 42.1052 572.749 48.4146C572.497 63.3024 561.387 74.1689 545.807 74.1689C537.391 74.1689 530.414 70.952 525.795 65.6216L520.184 59.0754C524.803 64.4059 531.836 67.6322 540.205 67.6322C555.785 67.6322 566.886 56.7562 567.147 41.8778C567.387 35.5644 565.263 29.3886 561.19 24.5586Z" fill="#004651"/>
<path d="M561.189 24.5586L566.8 31.1047C567.335 31.7231 567.838 32.3693 568.306 33.0405L562.695 26.4944C562.224 25.823 561.718 25.1768 561.18 24.5586" fill="#004651"/>
<path d="M562.707 26.4961L568.318 33.0422C570.264 35.8512 571.598 39.037 572.236 42.3939L566.625 35.8477C565.977 32.4939 564.643 29.3101 562.707 26.4961Z" fill="#004651"/>
<path d="M566.625 35.8477L572.236 42.3938C572.627 44.3766 572.803 46.3958 572.76 48.4162C572.76 48.6313 572.76 48.8371 572.76 49.0521L567.149 42.506C567.149 42.3003 567.149 42.0852 567.149 41.8794C567.182 39.8562 567.007 37.8349 566.625 35.8477Z" fill="#004651"/>
<path d="M567.127 42.5039L572.738 49.05C572.682 50.5799 572.503 52.1028 572.205 53.6043L566.594 47.0581C566.896 45.5569 567.077 44.034 567.136 42.5039" fill="#004651"/>
<path d="M566.585 47.0586L572.196 53.6047C571.946 54.8348 571.615 56.047 571.205 57.2332L565.594 50.687C566.013 49.5035 566.344 48.2908 566.585 47.0586Z" fill="#004651"/>
<path d="M565.593 50.6875L571.204 57.2336C570.817 58.3228 570.358 59.385 569.83 60.4132L564.219 53.867C564.755 52.8425 565.214 51.7798 565.593 50.6875Z" fill="#004651"/>
<path d="M564.222 53.8672L569.833 60.4133C569.285 61.4678 568.659 62.4805 567.963 63.4432L562.352 56.8971C563.051 55.9358 563.676 54.9229 564.222 53.8672Z" fill="#004651"/>
<path d="M562.378 56.8945L567.989 63.4407C567.187 64.5641 566.292 65.6183 565.314 66.5922L559.703 60.046C560.686 59.077 561.581 58.0224 562.378 56.8945Z" fill="#004651"/>
<path d="M559.704 60.0468L565.315 66.5929C560.536 71.3435 553.756 74.1677 545.807 74.1677C537.391 74.1677 530.414 70.9508 525.795 65.6204L520.184 59.0742C524.803 64.4046 531.836 67.631 540.205 67.631C548.154 67.631 554.934 64.8255 559.704 60.0468Z" fill="#004651"/>
<path d="M609.181 27.2812L614.83 33.79H591.656L586.008 27.2812H609.181Z" fill="#004651"/>
<path d="M586.009 27.2812L591.658 33.79L590.984 73.2819L585.336 66.7732L586.009 27.2812Z" fill="#005D72"/>
<path d="M585.337 66.7695L590.985 73.2783H580.156L574.508 66.7695H585.337Z" fill="#004651"/>
<path d="M619.35 66.7695L624.989 73.2783H614.16L608.512 66.7695H619.35Z" fill="#004651"/>
<path d="M620.199 17.168L625.838 23.6767L624.987 73.2777L619.348 66.769L620.199 17.168Z" fill="#005D72"/>
<path d="M646.908 27.2812L652.547 33.79L652.416 41.5144L646.777 35.0057L646.908 27.2812Z" fill="#004651"/>
<path d="M664.375 27.2812L670.023 33.79H652.545L646.906 27.2812H664.375Z" fill="#004651"/>
<path d="M646.765 35.0039L652.376 41.55C651.955 66.2103 644.315 73.7944 633.299 73.7944C632.551 73.7944 631.793 73.7944 631.017 73.7009L625.406 67.1548C626.182 67.2202 626.949 67.2576 627.697 67.2576C638.714 67.2576 646.344 59.6641 646.765 35.0039Z" fill="#005D72"/>
<path d="M646.769 35L652.38 41.5461C652.38 42.3784 652.38 43.192 652.314 43.9869L646.703 37.4408C646.703 36.6459 646.759 35.8323 646.769 35Z" fill="#005D72"/>
<path d="M646.701 37.4023L652.312 43.9485C652.192 47.9071 651.76 51.8501 651.021 55.7409L645.41 49.1947C646.154 45.3046 646.585 41.3612 646.701 37.4023Z" fill="#005D72"/>
<path d="M645.422 49.2305L651.033 55.7766C650.669 57.6803 650.169 59.5554 649.537 61.3876L643.926 54.8414C644.554 53.0079 645.053 51.1331 645.422 49.2305Z" fill="#005D72"/>
<path d="M643.925 54.8069L649.536 61.3531C649.124 62.5196 648.634 63.6569 648.068 64.7571L642.457 58.2109C643.02 57.0968 643.511 55.9472 643.925 54.7695" fill="#005D72"/>
<path d="M642.456 58.2461L648.067 64.7922C647.625 65.6727 647.118 66.5197 646.552 67.3265L640.941 60.7804C641.503 59.9706 642.009 59.1239 642.456 58.2461Z" fill="#005D72"/>
<path d="M640.914 60.7812L646.525 67.3274C645.986 68.0914 645.382 68.8078 644.72 69.4689L639.109 62.9228C639.768 62.2593 640.372 61.5431 640.914 60.7812Z" fill="#005D72"/>
<path d="M639.109 62.9414L644.72 69.4875C641.634 72.5642 637.743 73.7893 633.311 73.7893C632.563 73.7893 631.805 73.7893 631.029 73.6958L625.418 67.1496C626.194 67.2151 626.961 67.2525 627.709 67.2525C632.142 67.2525 636.032 66.0181 639.118 62.9414" fill="#005D72"/>
<path d="M674.532 66.7695L680.171 73.2783H669.342L663.703 66.7695H674.532Z" fill="#004651"/>
<path d="M675.382 17.168L681.021 23.6767L680.17 73.2777L674.531 66.769L675.382 17.168Z" fill="#005D72"/>
<path d="M713.061 28.989L718.672 35.5351C717.035 33.6648 714.37 32.6454 710.386 32.6454C704.962 32.6454 700.95 34.2633 696.134 37.8824L690.523 31.383C695.34 27.7545 699.351 26.1367 704.775 26.1367C708.759 26.1835 711.424 27.1186 713.061 28.989Z" fill="#004651"/>
<path d="M713.061 28.989L718.672 35.5351C717.035 33.6648 714.37 32.6454 710.386 32.6454C704.962 32.6454 700.95 34.2633 696.134 37.8824L690.523 31.383C695.34 27.7545 699.351 26.1367 704.775 26.1367C708.759 26.1367 711.424 27.1373 713.061 29.0264" fill="#004651"/>
<path d="M721.645 21.9883L727.256 28.5344C730.248 31.9852 731.763 36.8761 731.66 42.9827L726.049 36.4365C726.161 30.3299 724.646 25.4484 721.645 21.9883Z" fill="#005D72"/>
<path d="M721.646 21.9844L727.257 28.5305C727.62 28.9514 727.961 29.3916 728.276 29.8491L722.665 23.3497C722.349 22.8874 722.005 22.444 721.637 22.0218" fill="#005D72"/>
<path d="M722.676 23.3125L728.287 29.8586C729.734 31.9973 730.718 34.415 731.176 36.9565L725.565 30.4104C725.105 27.8725 724.121 25.4584 722.676 23.3219" fill="#005D72"/>
<path d="M725.566 30.4L731.177 36.9461C731.555 38.9336 731.721 40.9554 731.673 42.9779L726.062 36.4318C726.11 34.4062 725.944 32.3812 725.566 30.3906" fill="#005D72"/>
<path d="M699.848 61.7193L694.237 55.1731C693.372 54.1882 692.914 52.9111 692.956 51.6008C693.04 46.6351 698.296 45.0547 706.048 45.0547C709.096 45.0556 712.128 45.5062 715.044 46.392L720.655 52.9381C717.739 52.0523 714.707 51.6017 711.659 51.6008C703.869 51.6008 698.614 53.2187 698.567 58.147C698.534 59.4557 698.991 60.7296 699.848 61.7193Z" fill="#004651"/>
<path d="M715.063 46.3568L720.674 52.9029C717.757 52.0172 714.726 51.5666 711.677 51.5657C706.328 51.5657 702.176 52.3325 700.072 54.3712L694.461 47.825C696.565 45.7396 700.717 45.0195 706.066 45.0195C709.115 45.0204 712.146 45.4711 715.063 46.3568Z" fill="#004651"/>
<path d="M694.463 47.8711L700.074 54.4172C699.858 54.6216 699.664 54.8471 699.494 55.0905L693.883 48.5444C694.055 48.3029 694.249 48.0775 694.463 47.8711Z" fill="#004651"/>
<path d="M693.892 48.543L699.503 55.0891C699.371 55.2818 699.249 55.4816 699.138 55.6876L693.527 49.1415C693.633 48.9327 693.755 48.7326 693.892 48.543Z" fill="#004651"/>
<path d="M693.516 49.1422L699.127 55.6883C699.024 55.8873 698.937 56.0936 698.865 56.3055L693.254 49.7594C693.327 49.5435 693.418 49.334 693.525 49.1328" fill="#004651"/>
<path d="M693.247 49.7695L698.858 56.3157C698.773 56.5531 698.707 56.7971 698.662 57.0451L693.051 50.499C693.095 50.2537 693.161 50.0127 693.247 49.7789" fill="#004651"/>
<path d="M693.05 50.5L698.661 57.0461C698.596 57.354 698.559 57.6669 698.548 57.9813L692.938 51.4352C692.956 51.1215 692.994 50.8092 693.05 50.5Z" fill="#004651"/>
<path d="M692.957 51.4336L698.568 57.9797C698.563 58.0264 698.563 58.0734 698.568 58.12C698.558 58.5313 698.595 58.9425 698.68 59.3451L693.069 52.7989C692.991 52.3954 692.957 51.9847 692.966 51.5739V51.4336" fill="#004651"/>
<path d="M693.039 52.8281L698.65 59.3743C698.782 60.0667 699.059 60.7233 699.464 61.3007L693.853 54.7546C693.452 54.1752 693.175 53.5194 693.039 52.8281Z" fill="#004651"/>
<path d="M693.892 54.7539L699.503 61.3C699.608 61.4575 699.724 61.6075 699.849 61.7489L694.238 55.2028C694.11 55.0615 693.991 54.9115 693.883 54.7539" fill="#004651"/>
<path d="M690.787 68.2645L685.176 61.7184C688.243 65.2533 693.218 67.2733 699.446 67.2733C706.759 67.2733 711.847 64.4678 714.839 61.2695L720.45 67.8157C717.448 71.07 712.37 73.8755 705.048 73.8755C698.82 73.8755 693.891 71.8275 690.787 68.2645Z" fill="#004651"/>
<path d="M714.802 61.3398L720.413 67.886L719.955 68.3536L714.344 61.8074C714.503 61.6484 714.652 61.4988 714.793 61.3398" fill="#004651"/>
<path d="M714.353 61.8078L719.964 68.3539C716.924 71.3838 711.987 73.8901 705.001 73.8901C698.773 73.8901 693.779 71.8701 690.74 68.3352L685.129 61.7891C688.196 65.324 693.171 67.3439 699.399 67.3439C706.357 67.3439 711.295 64.847 714.362 61.8078" fill="#004651"/>
<path d="M725.536 66.7695L731.185 73.2783H720.355L714.707 66.7695H725.536Z" fill="#004651"/>
<path d="M726.059 36.4414L731.698 42.9408L731.184 73.2774L725.535 66.7687L726.059 36.4414Z" fill="#005D72"/>
<path d="M749.112 27.2812L754.76 33.79H736.898L731.25 27.2812H749.112Z" fill="#004651"/>
<path d="M777.803 27.2812L783.442 33.79H765.58L759.941 27.2812H777.803Z" fill="#004651"/>
<path d="M777.973 17.168L783.621 23.6767L783.444 33.7858L777.805 27.2771L777.973 17.168Z" fill="#2D655C"/>
<path d="M759.257 66.7695L764.906 73.2783H754.076L748.438 66.7695H759.257Z" fill="#004651"/>
<path d="M759.94 27.2812L765.579 33.79L764.906 73.2819L759.258 66.7732L759.94 27.2812Z" fill="#005D72"/>
<path d="M813.591 29.5883L819.202 36.1344C817.051 33.6563 813.75 32.3938 809.607 32.3938C802.285 32.3938 797.45 36.3869 795.935 42.7834L790.324 36.2373C791.858 29.8408 796.674 25.8477 803.996 25.8477C808.083 25.857 811.393 27.1195 813.591 29.5883Z" fill="#004651"/>
<path d="M813.591 29.5922L819.202 36.1383C817.052 33.6602 813.75 32.3977 809.608 32.3977C805.465 32.3977 801.93 33.7537 799.517 36.1383L793.906 29.5922C796.319 27.1982 799.732 25.8516 803.997 25.8516C808.261 25.8516 811.478 27.1047 813.591 29.5922Z" fill="#004651"/>
<path d="M793.858 29.6094L799.469 36.1555C798.979 36.6486 798.528 37.1802 798.123 37.7453L792.512 31.1992C792.912 30.6297 793.362 30.0976 793.858 29.6094Z" fill="#004651"/>
<path d="M792.513 31.1992L798.124 37.7454C797.777 38.26 797.464 38.7973 797.189 39.3538L791.578 32.8077C791.869 32.25 792.197 31.7126 792.56 31.1992" fill="#004651"/>
<path d="M791.532 32.8086L797.143 39.3547C796.837 39.959 796.575 40.584 796.357 41.2251L790.746 34.6789C790.964 34.0391 791.223 33.4143 791.522 32.8086" fill="#004651"/>
<path d="M790.754 34.6055L796.365 41.1516C796.188 41.6753 796.029 42.2083 795.888 42.7694L790.277 36.2233C790.405 35.6784 790.565 35.1414 790.754 34.6148" fill="#004651"/>
<path d="M798.544 59.2722L792.933 52.7261C791.247 50.7359 790.241 48.2587 790.062 45.6562L795.673 52.2024C795.854 54.8044 796.86 57.281 798.544 59.2722Z" fill="#005D72"/>
<path d="M790.027 45.6914L795.638 52.2375C795.684 52.7458 795.756 53.2515 795.853 53.7525L790.242 47.2064C790.145 46.7053 790.073 46.1997 790.027 45.6914Z" fill="#005D72"/>
<path d="M790.215 47.207L795.826 53.7532C796.144 55.4061 796.8 56.9757 797.752 58.3635L792.141 51.8174C791.187 50.4306 790.531 48.8606 790.215 47.207Z" fill="#005D72"/>
<path d="M792.16 51.8164L797.771 58.3625C797.999 58.6883 798.246 59.0005 798.51 59.2977L792.899 52.7516C792.637 52.4523 792.394 52.1344 792.16 51.8164Z" fill="#005D72"/>
<path d="M822.203 23.4453L827.814 29.9914C831.387 34.2591 833.229 39.7118 832.976 45.272L827.365 38.7726C827.623 33.1976 825.781 27.7286 822.203 23.4453Z" fill="#005D72"/>
<path d="M822.205 23.4453L827.816 29.9914C828.281 30.533 828.718 31.0979 829.125 31.6841L823.514 25.138C823.103 24.5517 822.663 23.9867 822.195 23.4453" fill="#005D72"/>
<path d="M823.523 25.1367L829.134 31.6829C830.818 34.1219 831.972 36.8873 832.52 39.8001L826.909 33.2539C826.351 30.3439 825.199 27.5804 823.523 25.1367Z" fill="#005D72"/>
<path d="M826.91 33.2539L832.521 39.8C832.871 41.6019 833.027 43.4357 832.989 45.2707L827.378 38.7714C827.412 36.9334 827.255 35.0969 826.91 33.2913" fill="#005D72"/>
<path d="M826.682 45.6914L832.33 52.2001H795.662L790.023 45.6914H826.682Z" fill="#004651"/>
<path d="M827.374 38.7344L832.985 45.2338C832.894 47.5675 832.667 49.8938 832.302 52.2007L826.691 45.6546C827.058 43.3636 827.286 41.0527 827.374 38.7344Z" fill="#005D72"/>
<path d="M827.375 38.7327L832.986 45.2321C832.986 45.4098 832.986 45.5875 832.986 45.7745L827.375 39.2284C827.375 39.0413 827.375 38.8636 827.375 38.6953" fill="#005D72"/>
<path d="M827.357 39.2773L832.968 45.8235C832.902 47.4133 832.678 49.5641 832.295 52.248L826.684 45.7019C827.021 43.5738 827.246 41.4293 827.357 39.2773Z" fill="#005D72"/>
<path d="M790.213 65.8534L784.602 59.3072C789.184 64.5815 796.226 67.5928 804.876 67.5928C808.803 67.6536 812.687 66.7696 816.201 65.0151C819.714 63.2607 822.755 60.6872 825.066 57.5117L830.677 64.0579C828.367 67.2436 825.324 69.8257 821.804 71.5855C818.285 73.3452 814.393 74.2307 810.459 74.167C801.827 74.1295 794.785 71.1277 790.213 65.8534Z" fill="#004651"/>
<path d="M825.068 57.5117L830.679 64.0579C829.893 65.1031 829.034 66.0907 828.107 67.013L822.496 60.4668C823.42 59.5421 824.28 58.5547 825.068 57.5117Z" fill="#004651"/>
<path d="M822.495 60.4659L828.106 67.0121C825.797 69.3305 823.044 71.1591 820.012 72.3884C816.98 73.6176 813.731 74.2223 810.46 74.1661C801.8 74.1661 794.758 71.1642 790.185 65.8899L784.574 59.3438C789.157 64.6181 796.198 67.6293 804.849 67.6293C808.122 67.6855 811.373 67.0801 814.407 65.8491C817.441 64.6182 820.195 62.7872 822.504 60.4659" fill="#004651"/>
<path fill-rule="evenodd" clip-rule="evenodd" d="M62.9358 55.9882H71.0156L70.6322 78.5536H59.5131L59.7095 66.8173H12.3155L12.1097 78.5536H1L1.38342 55.9882H8.4813C12.9607 49.442 16.1683 39.3984 16.6733 9.73504L16.8978 0H63.899L62.9358 55.9882ZM51.4426 55.9882L52.2188 10.7731H27.6147L27.5399 14.9626C27.1845 35.6764 24.7905 48.1609 20.4701 55.9882H51.4426ZM98.388 16.0291C111.405 16.0291 118.494 23.5104 118.27 36.4437L117.755 66.771H106.926L107.02 61.3377C104.018 64.5734 98.9398 67.3321 91.6174 67.3321C80.7976 67.3321 73.7745 61.2349 73.9429 51.6962C74.1393 40.6333 84.2297 35.9668 97.3219 35.9668C100.749 35.9465 104.162 36.3933 107.468 37.2947C107.609 30.1501 104.953 26.185 96.9759 26.185C91.5707 26.185 87.5495 27.8028 82.7428 31.4313L77.5526 23.3795C82.2845 18.7972 90.3082 16.0291 98.388 16.0291ZM107.197 51.1258L107.272 46.3564C104.349 45.4699 101.311 45.0193 98.2571 45.0192C90.4765 45.0192 85.2209 46.637 85.1648 51.5653C85.0994 55.4836 88.6717 57.8589 94.1704 57.8589C96.7463 57.9242 99.2969 57.3378 101.586 56.1542C103.874 54.9706 105.827 53.2281 107.263 51.0884L107.197 51.1258ZM172.949 66.7699L173.8 17.1689H162.961L162.625 36.6296H138.881L139.217 17.1689H128.388L127.537 66.7699H138.366L138.712 46.6358H162.456L162.11 66.7699H172.949ZM229.367 17.1689L228.516 66.7699H217.678L218.024 46.6358H194.28L193.934 66.7699H183.105L183.956 17.1689H194.785L194.448 36.6296H218.192L218.529 17.1689H229.367ZM279.23 49.0301C279.417 39.6785 274.61 31.5707 258.656 31.5707L250.1 31.6361L250.352 17.2346H239.523L238.672 66.7982H257.263C273.32 66.7982 279.071 58.1854 279.23 49.0301ZM268.008 49.1236C267.924 53.9865 265.118 56.6611 257.235 56.6611V56.6049H249.632L249.894 41.6424H257.59C265.202 41.6424 268.092 44.2608 268.008 49.1236ZM284.738 17.1689H295.567L294.716 66.7699H283.887L284.738 17.1689ZM350.844 45.6925C351.208 43.3887 351.436 41.0655 351.527 38.7349C351.761 24.9973 342.044 16.0291 328.756 16.0291C312.222 16.0291 303.198 27.382 302.945 41.877C302.683 57.5129 313.111 67.6314 329.008 67.6314C332.942 67.6934 336.833 66.806 340.351 65.0446C343.869 63.2832 346.91 60.6997 349.217 57.5129L342.671 50.9668C341.103 53.0053 339.088 54.656 336.78 55.7911C334.473 56.9262 331.935 57.5153 329.364 57.5129C321.19 57.5129 314.897 53.5104 314.177 45.6925H350.844ZM340.37 36.2473H314.429C315.944 29.8508 320.779 25.8577 328.101 25.8577C335.031 25.8577 339.622 29.3833 340.37 36.2473ZM426.938 17.1689L426.087 66.7699H415.258L415.941 27.278H392.758L392.076 66.7699H381.256L382.107 17.1689H426.938ZM487.312 41.877C487.565 26.8957 476.829 16.0291 461.249 16.0291C445.576 16.0291 434.625 26.9986 434.401 41.877C434.176 56.7554 444.978 67.6314 460.361 67.6314C475.941 67.6314 487.06 56.8583 487.312 41.877ZM476.1 41.877C475.941 51.4157 469.563 57.5129 460.539 57.5129L460.604 57.5597C451.542 57.5597 445.483 50.892 445.642 41.9238C445.81 32.1981 452.571 26.185 461.1 26.185C469.628 26.185 476.259 32.3384 476.1 41.877ZM542.085 16.0291C557.665 16.0291 568.4 26.8957 568.148 41.877C567.895 56.8583 556.786 67.6314 541.206 67.6314C525.813 67.6314 515.021 56.7554 515.236 41.877C515.452 26.9986 526.412 16.0291 542.085 16.0291ZM541.374 57.5129C550.399 57.5129 556.767 51.4157 556.935 41.877C557.104 32.3384 550.464 26.185 541.917 26.185C533.369 26.185 526.608 32.1981 526.44 41.9238C526.29 50.892 532.35 57.5597 541.402 57.5597L541.374 57.5129ZM620.348 66.7699L621.199 17.1689H576.358L575.507 66.7699H586.337L587.01 27.278H610.183L609.51 66.7699H620.348ZM676.383 17.1697L675.532 66.7333H664.703L665.376 27.2414H647.908L647.767 34.9659C647.346 59.6261 639.716 67.2196 628.699 67.2196C627.951 67.2196 627.184 67.2196 626.408 67.1168L625.735 57.0451H626.67C631.636 57.0451 636.863 52.9303 637.228 31.2533L637.471 17.1323L676.383 17.1697ZM727.06 36.4437C727.284 23.5104 720.186 16.0291 707.178 16.0291C699.107 16.0291 691.084 18.7972 686.342 23.3795L691.523 31.4313C696.339 27.8028 700.351 26.185 705.775 26.185C713.752 26.185 716.399 30.1501 716.24 37.2947C712.937 36.3933 709.526 35.9466 706.102 35.9668C693.01 35.9668 682.91 40.6333 682.723 51.6962C682.555 61.2349 689.578 67.3415 700.407 67.3415C707.72 67.3415 712.808 64.5734 715.8 61.3377L715.716 66.771H726.536L727.06 36.4437ZM715.978 51.116L716.062 46.3564C713.139 45.4689 710.101 45.0182 707.047 45.0192C699.257 45.0192 694.001 46.637 693.955 51.5653C693.889 55.4836 697.452 57.8589 702.97 57.8589C705.535 57.9157 708.073 57.3251 710.35 56.1418C712.617 54.9636 714.552 53.2355 715.978 51.116ZM778.971 17.1689L778.803 27.278H760.941L760.258 66.7699H749.439L750.112 27.278H732.25L732.428 17.1689H778.971ZM827.683 45.6925C828.054 43.3894 828.285 41.0659 828.375 38.7349C828.618 24.9973 818.893 16.0291 805.595 16.0291C789.07 16.0291 780.046 27.382 779.793 41.877C779.522 57.5129 789.949 67.6314 805.847 67.6314C809.784 67.694 813.677 66.8071 817.198 65.0458C820.719 63.2845 823.764 60.7006 826.075 57.5129L819.529 50.9668C817.957 53.0029 815.939 54.6516 813.63 55.7864C811.322 56.9212 808.784 57.5118 806.212 57.5129C798.038 57.5129 791.745 53.5104 791.025 45.6925H827.683ZM817.209 36.2473H791.277C792.792 29.8508 797.627 25.8577 804.949 25.8577C811.879 25.8577 816.471 29.3833 817.209 36.2473Z" fill="url(#paint0_linear_294_77151)"/>
<defs>
<linearGradient id="paint0_linear_294_77151" x1="499.441" y1="-8.49546e-07" x2="489.084" y2="115.332" gradientUnits="userSpaceOnUse">
<stop offset="0.161458" stop-color="#1BD9F9"/>
<stop offset="0.375" stop-color="#30E9DE"/>
<stop offset="0.729167" stop-color="#16D5FF"/>
</linearGradient>
</defs>
</svg>
