<svg width="699" height="172" viewBox="0 0 699 172" fill="none" xmlns="http://www.w3.org/2000/svg">
<path d="M47.1561 17.0878L52.151 22.9152C50.2742 20.7525 47.9545 19.0185 45.349 17.8307C42.7435 16.6428 39.9131 16.0289 37.0497 16.0305C25.9942 16.0305 16.3956 24.5053 16.1709 37.3755C15.9684 42.6735 17.7495 47.8564 21.1658 51.9108L16.1709 46.0834C12.7531 42.0298 10.9718 36.8463 11.1759 31.5481C11.3924 18.6779 20.9993 10.2031 32.0464 10.2031C34.9113 10.2003 37.7433 10.8137 40.3503 12.0015C42.9573 13.1894 45.2784 14.9241 47.1561 17.0878Z" fill="#004651"/>
<path d="M47.1578 17.0841L52.1527 22.9116C50.276 20.7489 47.9563 19.0149 45.3508 17.827C42.7453 16.6392 39.9149 16.0253 37.0514 16.0269C31.5773 15.9987 26.3161 18.1457 22.4246 21.9958L17.4297 16.1684C21.3217 12.3191 26.5826 10.1722 32.0565 10.1995C34.923 10.1889 37.7583 10.7953 40.3697 11.9775C42.9811 13.1597 45.3076 14.89 47.1911 17.0508" fill="#004651"/>
<path d="M17.3951 16.2031L22.3901 22.0305C21.574 22.8434 20.8277 23.7234 20.159 24.6612L15.1641 18.8338C15.8299 17.8961 16.5735 17.0162 17.3868 16.2031" fill="#004651"/>
<path d="M15.1734 18.8359L20.1684 24.6634C19.5912 25.4739 19.0737 26.3253 18.6199 27.2108L13.625 21.3833C14.0757 20.4961 14.5933 19.6445 15.1734 18.8359Z" fill="#004651"/>
<path d="M13.6244 21.3771L18.6193 27.2045C18.1832 28.0635 17.805 28.9507 17.4871 29.8601L12.4922 24.0327C12.8131 23.1099 13.1998 22.2112 13.6493 21.3438" fill="#004651"/>
<path d="M12.4926 24.0703L17.4876 29.8977C17.1417 30.8991 16.8636 31.9226 16.6551 32.9613L11.6602 27.1422C11.8647 26.0998 12.1429 25.0733 12.4926 24.0703Z" fill="#004651"/>
<path d="M11.6571 27.1406L16.652 32.9264C16.3948 34.2135 16.2417 35.5191 16.1941 36.8308L11.1992 31.0034C11.2486 29.7056 11.4017 28.4139 11.6571 27.1406Z" fill="#004651"/>
<path d="M11.168 31.0391L16.1629 36.8665C16.1629 37.0413 16.1629 37.2244 16.1629 37.4076C16.1355 39.0834 16.2833 40.7575 16.6041 42.4025L11.6092 36.5751C11.2872 34.9303 11.1421 33.2558 11.1763 31.5802C11.1763 31.397 11.1763 31.2222 11.1763 31.0391" fill="#004651"/>
<path d="M11.5859 36.6289L16.5809 42.4563C17.1305 45.2821 18.2647 47.9617 19.9108 50.3233L14.9159 44.4959C13.2717 42.1332 12.1377 39.454 11.5859 36.6289Z" fill="#004651"/>
<path d="M14.8872 44.4805L19.8822 50.3079C20.2723 50.8862 20.6948 51.4421 21.1475 51.9729L16.1526 46.1454C15.6977 45.6143 15.2725 45.0585 14.8789 44.4805" fill="#004651"/>
<path d="M55.9221 10.4727L60.917 16.3001C65.9197 22.17 68.5528 29.6951 68.3012 37.4036C68.0181 55.5435 53.7326 68.9466 36.1422 68.9466C31.6667 69.0093 27.2304 68.1045 23.1369 66.2942C19.0435 64.4838 15.3894 61.8105 12.4246 58.4572L7.42969 52.6298C10.3953 55.9842 14.0508 58.6581 18.1458 60.4685C22.2408 62.2789 26.6787 63.1831 31.1556 63.1192C48.7377 63.1192 63.0315 49.7161 63.3396 31.5429C63.5776 23.8408 60.9325 16.3271 55.9221 10.4727Z" fill="#004651"/>
<path d="M55.9224 10.4727L60.9173 16.3001C61.5976 17.0995 62.2366 17.9331 62.832 18.7975L57.8371 12.9701C57.2416 12.1035 56.5997 11.2698 55.9141 10.4727" fill="#004651"/>
<path d="M57.8438 12.9336L62.8387 18.761C65.229 22.2152 66.8786 26.1266 67.6838 30.2493L62.6888 24.4219C61.8904 20.2986 60.2432 16.3864 57.8521 12.9336" fill="#004651"/>
<path d="M62.6836 24.4219L67.6785 30.2493C68.1389 32.6042 68.3482 35.0013 68.3029 37.4004V38.1329L63.308 32.3055C63.308 32.0641 63.308 31.8144 63.308 31.5729C63.3529 29.1739 63.1436 26.7768 62.6836 24.4219Z" fill="#004651"/>
<path d="M63.2733 32.3086L68.2682 38.136C68.2037 39.9428 67.9921 41.7414 67.6356 43.5139L62.6406 37.6865C62.993 35.9133 63.2045 34.1151 63.2733 32.3086Z" fill="#004651"/>
<path d="M62.6563 37.6875L67.6513 43.5149C67.354 45.0042 66.9506 46.4704 66.4441 47.9021L61.4492 42.0747C61.9518 40.6418 62.3552 39.1759 62.6563 37.6875Z" fill="#004651"/>
<path d="M61.4501 42.0742L66.4451 47.9016C65.9788 49.2527 65.4226 50.5709 64.7801 51.8476L59.7852 46.0202C60.429 44.7442 60.9853 43.4258 61.4501 42.0742Z" fill="#004651"/>
<path d="M59.7411 46.0161L64.736 51.8435C64.0504 53.1734 63.2714 54.4531 62.4051 55.673L57.4102 49.8456C58.2777 48.6236 59.0567 47.341 59.7411 46.0078" fill="#004651"/>
<path d="M57.4444 49.8594L62.4394 55.6868C61.4155 57.1198 60.2738 58.4647 59.0262 59.7077L54.0312 53.8803C55.2795 52.6379 56.4213 51.2929 57.4444 49.8594Z" fill="#004651"/>
<path d="M53.999 53.8776L58.994 59.705C52.9018 65.6911 44.6829 69.0146 36.1422 68.9457C31.6667 69.0084 27.2304 68.1036 23.1369 66.2932C19.0435 64.4829 15.3894 61.8096 12.4246 58.4563L7.42969 52.6289C10.3953 55.9832 14.0508 58.6572 18.1458 60.4676C22.2408 62.278 26.6787 63.1822 31.1556 63.1182C39.6932 63.1841 47.9084 59.8609 53.999 53.8776Z" fill="#004651"/>
<path d="M102.66 25.9336L107.679 31.7277H86.1181L81.0898 25.9336H102.66Z" fill="#004651"/>
<path d="M81.0892 25.9336L86.1174 31.7277L85.4931 68.2406L80.4648 62.4548L81.0892 25.9336Z" fill="#005D72"/>
<path d="M80.4642 62.4531L85.4925 68.2389H75.4027L70.3828 62.4531H80.4642Z" fill="#004651"/>
<path d="M112.117 62.4531L117.136 68.2389H107.055L102.035 62.4531H112.117Z" fill="#004651"/>
<path d="M112.9 16.5859L117.928 22.38L117.137 68.2418L112.117 62.456L112.9 16.5859Z" fill="#005D72"/>
<path d="M137.758 25.9336L142.778 31.7277L142.661 38.8704L137.633 33.0763L137.758 25.9336Z" fill="#004651"/>
<path d="M154.033 25.9336L159.053 31.7277H142.778L137.758 25.9336H154.033Z" fill="#004651"/>
<path d="M137.633 33.0742L142.628 38.9016C142.237 61.7035 135.136 68.7213 124.888 68.7213C124.189 68.7213 123.481 68.7213 122.757 68.6298L117.762 62.8024C118.489 62.869 119.196 62.9022 119.885 62.9022C130.149 62.9022 137.242 55.8844 137.633 33.0742Z" fill="#005D72"/>
<path d="M137.633 33.0742L142.628 38.9016C142.628 39.6675 142.628 40.4168 142.561 41.141L137.566 35.3136C137.566 34.5893 137.616 33.8401 137.625 33.0742" fill="#005D72"/>
<path d="M137.573 35.3125L142.568 41.1399C142.464 44.7897 142.068 48.4254 141.386 52.0122L136.391 46.1848C137.07 42.5974 137.465 38.962 137.573 35.3125Z" fill="#005D72"/>
<path d="M136.394 46.1836L141.389 52.011C141.048 53.7587 140.587 55.4806 140.007 57.1641L135.012 51.3367C135.596 49.6538 136.06 47.9318 136.402 46.1836" fill="#005D72"/>
<path d="M135.002 51.3398L139.997 57.1673C139.612 58.2615 139.156 59.3294 138.632 60.364L133.637 54.5366C134.16 53.5025 134.613 52.4345 134.994 51.3398" fill="#005D72"/>
<path d="M133.646 54.5391L138.641 60.3665C138.223 61.1871 137.747 61.9772 137.218 62.7307L132.223 56.9033C132.752 56.148 133.23 55.3582 133.655 54.5391" fill="#005D72"/>
<path d="M132.212 56.8984L137.207 62.7259C136.706 63.433 136.15 64.0983 135.542 64.7155L130.547 58.8881C131.159 58.2752 131.717 57.6094 132.212 56.8984Z" fill="#005D72"/>
<path d="M130.532 58.8906L135.527 64.718C132.647 67.5818 129.025 68.7223 124.888 68.7223C124.189 68.7223 123.481 68.7223 122.757 68.6307L117.762 62.8033C118.489 62.8699 119.196 62.9032 119.885 62.9032C124.047 62.9032 127.652 61.7544 130.524 58.8906" fill="#005D72"/>
<path d="M163.48 62.4531L168.5 68.2389H158.427L153.398 62.4531H163.48Z" fill="#004651"/>
<path d="M164.263 16.5859L169.291 22.38L168.5 68.2418L163.48 62.456L164.263 16.5859Z" fill="#005D72"/>
<path d="M199.351 27.5762L204.346 33.4036C202.814 31.6387 200.325 30.7063 196.604 30.7063C191.609 30.7063 187.829 32.2048 183.35 35.5597L178.355 29.7323C182.834 26.4024 186.572 24.8789 191.609 24.8789C195.338 24.8789 197.827 25.8113 199.351 27.5762Z" fill="#004651"/>
<path d="M199.351 27.5762L204.346 33.4036C202.814 31.6387 200.325 30.7063 196.604 30.7063C191.609 30.7063 187.829 32.2048 183.35 35.5597L178.355 29.7323C182.834 26.4024 186.572 24.8789 191.609 24.8789C195.33 24.8789 197.819 25.8113 199.342 27.5762" fill="#004651"/>
<path d="M207.359 21.0703L212.354 26.8977C215.126 30.0945 216.517 34.5982 216.433 40.2175L211.439 34.3901C211.53 28.7708 210.123 24.2671 207.359 21.0703Z" fill="#005D72"/>
<path d="M207.363 21.0742L212.358 26.9016C212.698 27.2909 213.015 27.6995 213.307 28.1254L208.312 22.298C208.013 21.8706 207.696 21.4627 207.363 21.0742Z" fill="#005D72"/>
<path d="M208.312 22.2969L213.307 28.1243C214.644 30.1017 215.554 32.3358 215.98 34.6843L210.985 28.8569C210.555 26.5095 209.646 24.2762 208.312 22.2969Z" fill="#005D72"/>
<path d="M210.984 28.8555L215.979 34.6829C216.326 36.5126 216.479 38.3738 216.437 40.2356L211.442 34.4082C211.487 32.5466 211.336 30.6856 210.993 28.8555" fill="#005D72"/>
<path d="M186.808 57.5358L181.813 51.7084C181.019 50.7843 180.6 49.5962 180.639 48.3785C180.722 43.7914 185.634 42.293 192.86 42.293C195.697 42.2926 198.518 42.7077 201.235 43.5251L206.23 49.3525C203.514 48.5344 200.692 48.1193 197.855 48.1204C190.612 48.1204 185.717 49.6189 185.642 54.2059C185.591 55.424 186.008 56.6156 186.808 57.5358Z" fill="#004651"/>
<path d="M201.201 43.5719L206.196 49.3993C203.48 48.5813 200.658 48.1662 197.821 48.1673C192.826 48.1673 188.964 48.8749 186.999 50.8146L182.004 44.9872C183.96 43.0558 187.831 42.3398 192.826 42.3398C195.663 42.3395 198.485 42.7546 201.201 43.5719Z" fill="#004651"/>
<path d="M182.014 44.957L187.009 50.7844C186.809 50.9746 186.627 51.1837 186.468 51.4088L181.473 45.5814C181.634 45.3598 181.812 45.1511 182.005 44.957" fill="#004651"/>
<path d="M181.489 45.6133L186.484 51.4407C186.36 51.6158 186.249 51.7994 186.151 51.9901L181.156 46.1627C181.251 45.9703 181.363 45.7865 181.489 45.6133Z" fill="#004651"/>
<path d="M181.148 46.1641L186.143 51.9915C186.05 52.1784 185.967 52.3702 185.893 52.5659L180.898 46.7385C180.964 46.54 181.048 46.3477 181.148 46.1641Z" fill="#004651"/>
<path d="M180.897 46.7344L185.892 52.5618C185.817 52.7788 185.758 53.0015 185.718 53.2278L180.723 47.4004C180.771 47.1751 180.832 46.9527 180.906 46.7344" fill="#004651"/>
<path d="M180.715 47.4034L185.709 53.2308C185.668 53.5231 185.649 53.818 185.651 54.1132L180.656 48.2858C180.663 47.9838 180.697 47.683 180.756 47.3867" fill="#004651"/>
<path d="M180.656 48.2852L185.651 54.1126V54.2374C185.642 54.6146 185.675 54.9917 185.751 55.3613L180.756 49.5339C180.688 49.1631 180.655 48.7869 180.656 48.41C180.656 48.3684 180.656 48.3268 180.656 48.2852Z" fill="#004651"/>
<path d="M180.708 49.5508L185.702 55.3782C185.825 56.018 186.08 56.625 186.452 57.1597L181.457 51.3323C181.082 50.798 180.824 50.1911 180.699 49.5508" fill="#004651"/>
<path d="M181.488 51.3325L186.483 57.16C186.584 57.3015 186.693 57.4376 186.808 57.5679L181.813 51.7405C181.7 51.6073 181.595 51.4684 181.497 51.3242" fill="#004651"/>
<path d="M178.346 63.6054L173.352 57.778C176.199 61.1079 180.844 62.9477 186.671 62.9477C193.481 62.9477 198.21 60.3837 201.007 57.3867L206.002 63.2141C203.205 66.2111 198.509 68.7751 191.675 68.7751C185.839 68.7835 181.202 66.9021 178.346 63.6054Z" fill="#004651"/>
<path d="M200.969 57.4453L205.964 63.2727C205.839 63.4059 205.714 63.5391 205.581 63.664L200.586 57.8366C200.719 57.7117 200.844 57.5785 200.969 57.4453Z" fill="#004651"/>
<path d="M200.584 57.8208L205.579 63.6482C202.749 66.4787 198.137 68.818 191.635 68.818C185.808 68.818 181.179 66.9366 178.315 63.6399L173.32 57.8125C176.167 61.1425 180.813 62.9822 186.64 62.9822C193.15 62.9822 197.754 60.643 200.593 57.8125" fill="#004651"/>
<path d="M210.956 62.4531L215.976 68.2389H205.903L200.875 62.4531H210.956Z" fill="#004651"/>
<path d="M211.432 34.4102L216.46 40.2043L215.977 68.2425L210.957 62.4567L211.432 34.4102Z" fill="#005D72"/>
<path d="M232.894 25.9336L237.914 31.7277H221.298L216.27 25.9336H232.894Z" fill="#004651"/>
<path d="M259.59 25.9336L264.61 31.7277H247.993L242.965 25.9336H259.59Z" fill="#004651"/>
<path d="M259.748 16.5859L264.776 22.3801L264.61 31.7289L259.59 25.9348L259.748 16.5859Z" fill="#005D72"/>
<path d="M242.343 62.4531L247.371 68.2389H237.289L232.27 62.4531H242.343Z" fill="#004651"/>
<path d="M242.968 25.9336L247.996 31.7277L247.372 68.2406L242.344 62.4548L242.968 25.9336Z" fill="#005D72"/>
<path d="M290.417 27.5678L295.412 33.3953C293.888 31.6387 291.399 30.7063 287.678 30.7063C282.683 30.7063 278.903 32.2048 274.425 35.5597L269.43 29.7323C273.9 26.4024 277.638 24.8789 282.683 24.8789C286.379 24.8789 288.877 25.8113 290.417 27.5678Z" fill="#004651"/>
<path d="M290.417 27.5678L295.412 33.3953C293.888 31.6387 291.399 30.7063 287.678 30.7063C282.683 30.7063 278.903 32.2048 274.425 35.5597L269.43 29.7323C273.9 26.4024 277.638 24.8789 282.683 24.8789C286.404 24.8789 288.885 25.8113 290.417 27.5678Z" fill="#004651"/>
<path d="M298.426 21.082L303.421 26.9094C306.193 30.0979 307.583 34.6016 307.5 40.2292L302.505 34.4018C302.597 28.7742 301.198 24.2705 298.426 21.082Z" fill="#005D72"/>
<path d="M298.426 21.0859L303.421 26.9134C303.764 27.2993 304.081 27.7082 304.37 28.1371L299.375 22.3097C299.081 21.8846 298.764 21.4761 298.426 21.0859Z" fill="#005D72"/>
<path d="M299.375 22.3086L304.37 28.136C305.71 30.1086 306.62 32.3407 307.042 34.6877L302.047 28.9019C301.619 26.554 300.71 24.3204 299.375 22.3419" fill="#005D72"/>
<path d="M302.047 28.8692L307.042 34.655C307.392 36.4843 307.546 38.3458 307.5 40.2077L302.505 34.3803C302.547 32.5212 302.394 30.6629 302.047 28.8359" fill="#005D72"/>
<path d="M277.864 57.5358L272.869 51.7084C272.066 50.7894 271.646 49.5977 271.695 48.3785C271.77 43.7915 276.69 42.293 283.908 42.293C286.745 42.2912 289.567 42.7063 292.283 43.5251L297.278 49.3525C294.553 48.5369 291.722 48.1274 288.878 48.137C281.627 48.137 276.74 49.6355 276.657 54.2225C276.621 55.4406 277.053 56.6261 277.864 57.5358Z" fill="#004651"/>
<path d="M292.26 43.574L297.255 49.4014C294.54 48.5714 291.718 48.145 288.88 48.136C283.885 48.136 280.022 48.8436 278.057 50.7833L273.062 44.9559C275.019 43.0245 278.89 42.3086 283.885 42.3086C286.722 42.3068 289.543 42.7219 292.26 43.5407" fill="#004651"/>
<path d="M273.064 44.957L278.059 50.7844C277.862 50.9748 277.683 51.1839 277.526 51.4088L272.531 45.5814C272.695 45.3618 272.873 45.1532 273.064 44.957Z" fill="#004651"/>
<path d="M272.537 45.6133L277.532 51.4407C277.405 51.6157 277.291 51.7993 277.19 51.9901L272.195 46.1627C272.293 45.972 272.405 45.7884 272.528 45.6133" fill="#004651"/>
<path d="M272.23 46.1641L277.225 51.9915C277.131 52.177 277.05 52.3689 276.983 52.5659L271.988 46.7385C272.061 46.5428 272.145 46.351 272.238 46.1641" fill="#004651"/>
<path d="M271.957 46.7344L276.952 52.5618C276.873 52.7786 276.812 53.0013 276.768 53.2278L271.773 47.4004C271.822 47.1751 271.883 46.9527 271.957 46.7344Z" fill="#004651"/>
<path d="M271.772 47.4023L276.767 53.2298C276.707 53.5259 276.674 53.8268 276.667 54.1288L271.672 48.3014C271.687 48 271.721 47.6998 271.772 47.4023Z" fill="#004651"/>
<path d="M271.672 48.2852L276.667 54.1126C276.663 54.1541 276.663 54.1959 276.667 54.2374C276.658 54.6146 276.691 54.9917 276.767 55.3613L271.772 49.5339C271.703 49.1634 271.672 48.7868 271.68 48.41V48.2852" fill="#004651"/>
<path d="M271.762 49.5508L276.757 55.3782C276.879 56.018 277.135 56.625 277.506 57.1597L272.511 51.3323C272.14 50.7961 271.883 50.19 271.754 49.5508" fill="#004651"/>
<path d="M272.52 51.332L277.514 57.1594C277.616 57.301 277.724 57.4371 277.839 57.5674L272.844 51.74C272.729 51.6097 272.621 51.4736 272.52 51.332Z" fill="#004651"/>
<path d="M269.425 63.6093L264.43 57.7819C267.277 61.1118 271.922 62.9516 277.749 62.9516C284.559 62.9516 289.288 60.3876 292.077 57.3906L297.072 63.218C294.283 66.215 289.579 68.7791 282.744 68.7791C276.909 68.7791 272.272 66.8976 269.425 63.6093Z" fill="#004651"/>
<path d="M292.024 57.4453L297.018 63.2727L296.636 63.6806L291.641 57.8532L292.032 57.4453" fill="#004651"/>
<path d="M291.631 57.837L296.626 63.6644C293.796 66.4782 289.184 68.8175 282.682 68.8175C276.855 68.8175 272.234 66.9361 269.362 63.6477L264.367 57.8203C267.214 61.1503 271.86 62.9901 277.687 62.9901C284.189 62.9901 288.792 60.6508 291.623 57.837" fill="#004651"/>
<path d="M302.023 62.4531L307.043 68.2389H296.961L291.941 62.4531H302.023Z" fill="#004651"/>
<path d="M302.506 34.4102L307.526 40.2043L307.043 68.2425L302.023 62.4567L302.506 34.4102Z" fill="#005D72"/>
<path d="M338.621 16.5859L343.641 22.3801L358.934 53.3403L353.914 47.5462L338.621 16.5859Z" fill="#005D72"/>
<path d="M377.431 16.5859L382.451 22.38L363.645 66.9265L358.625 61.1323L377.431 16.5859Z" fill="#004651"/>
<path d="M358.623 61.1289L363.618 66.9563C357.175 82.1242 352.413 86.7113 344.987 86.7113C342.799 86.7716 340.627 86.3213 338.643 85.3959L333.648 79.5685C335.632 80.4947 337.804 80.9451 339.992 80.8838C347.409 80.8838 352.146 76.3052 358.623 61.1289Z" fill="#004651"/>
<path d="M358.622 61.1328L363.617 66.9602C362.493 69.6075 361.419 71.9551 360.37 73.9698L355.375 68.1424C356.424 66.1028 357.498 63.7801 358.622 61.1328Z" fill="#004651"/>
<path d="M355.376 68.1445L360.371 73.9719C359.364 75.9934 358.215 77.9408 356.932 79.7994L351.938 73.9719C353.221 72.1138 354.37 70.1663 355.376 68.1445Z" fill="#004651"/>
<path d="M351.938 73.9297L356.933 79.7571C356.172 80.8487 355.32 81.8736 354.386 82.8207L349.391 76.9932C350.323 76.044 351.175 75.0193 351.938 73.9297Z" fill="#004651"/>
<path d="M349.391 76.9883L354.386 82.8157C353.18 84.0884 351.72 85.0931 350.101 85.7643C348.482 86.4356 346.739 86.7584 344.987 86.7117C342.799 86.7721 340.627 86.3218 338.643 85.3964L333.648 79.569C335.632 80.4952 337.804 80.9456 339.992 80.8843C341.744 80.931 343.487 80.6082 345.106 79.9369C346.726 79.2657 348.185 78.261 349.391 76.9883Z" fill="#004651"/>
<path d="M412.343 29.5159L417.338 35.3433C414.566 32.1465 411.361 30.7063 406.766 30.7063C398.441 30.7063 392.43 36.617 392.28 45.2582C392.151 48.764 393.339 52.1911 395.61 54.8651L390.615 49.0377C388.354 46.3585 387.167 42.935 387.285 39.4308C387.435 30.7896 393.454 24.8789 401.771 24.8789C406.374 24.8789 409.588 26.3191 412.343 29.5159Z" fill="#004651"/>
<path d="M412.344 29.5118L417.339 35.3392C414.566 32.1424 411.361 30.7022 406.766 30.7022C404.867 30.6565 402.977 30.9893 401.208 31.681C399.438 32.3728 397.824 33.4097 396.46 34.7315L391.465 28.904C392.829 27.5845 394.442 26.5488 396.21 25.8572C397.978 25.1655 399.865 24.8316 401.763 24.8748C406.366 24.8748 409.571 26.315 412.335 29.5118" fill="#004651"/>
<path d="M391.472 28.9062L396.467 34.7337C395.938 35.2673 395.453 35.8437 395.018 36.4569L390.023 30.6295C390.461 30.0161 390.948 29.4398 391.48 28.9062" fill="#004651"/>
<path d="M390.017 30.625L395.012 36.4524C394.628 36.9822 394.283 37.5386 393.979 38.1174L388.984 32.29C389.289 31.7131 389.631 31.1569 390.008 30.625" fill="#004651"/>
<path d="M388.993 32.3086L393.988 38.136C393.686 38.7277 393.424 39.3397 393.206 39.9675L388.211 34.1401C388.429 33.5123 388.691 32.9003 388.993 32.3086Z" fill="#004651"/>
<path d="M388.212 34.1333L393.207 39.9607C392.963 40.6537 392.768 41.3631 392.624 42.0836L387.629 36.2562C387.768 35.5318 387.963 34.8193 388.212 34.125" fill="#004651"/>
<path d="M387.625 36.2695L392.62 42.0969C392.439 43.0109 392.33 43.9379 392.296 44.8691L387.301 39.0417C387.331 38.1129 387.439 37.1883 387.625 36.2779" fill="#004651"/>
<path d="M387.303 39.0352L392.298 44.8626C392.298 44.9958 392.298 45.1206 392.298 45.2538C392.273 46.3711 392.37 47.4878 392.589 48.5838L387.594 42.7564C387.383 41.6593 387.285 40.5435 387.303 39.4264C387.303 39.2932 387.303 39.1684 387.303 39.0352Z" fill="#004651"/>
<path d="M387.578 42.7812L392.573 48.6087C392.923 50.4648 393.661 52.2263 394.738 53.7784L389.743 47.951C388.673 46.3953 387.936 44.6352 387.578 42.7812Z" fill="#004651"/>
<path d="M389.742 47.9492L394.737 53.7766C394.995 54.1517 395.273 54.513 395.57 54.8589L390.575 49.0315C390.279 48.6851 390.001 48.3239 389.742 47.9492Z" fill="#004651"/>
<path d="M421.026 25.9336L426.055 31.7277L418.446 36.6644L413.426 30.8786L421.026 25.9336Z" fill="#005D72"/>
<path d="M418.746 22.4805L423.741 28.3079C424.655 29.3611 425.425 30.5313 426.03 31.7877L421.035 25.9603C420.436 24.7007 419.665 23.5298 418.746 22.4805Z" fill="#B3B3B3"/>
<path d="M418.746 22.4805L423.741 28.3079C424.114 28.7387 424.464 29.1889 424.79 29.6565L419.795 23.8291C419.472 23.3594 419.122 22.9091 418.746 22.4805Z" fill="#B3B3B3"/>
<path d="M419.785 23.8047L424.78 29.6321C425.249 30.3087 425.664 31.0213 426.02 31.7633L421.026 25.9359C420.672 25.1922 420.257 24.4793 419.785 23.8047Z" fill="#B3B3B3"/>
<path d="M387.221 61.279L382.227 55.4516C386.506 60.3883 393.124 63.2104 401.232 63.2104C409.191 63.2104 417.216 59.331 421.137 51.9219L426.132 57.7493C422.203 65.1584 414.177 69.0378 406.219 69.0378C398.127 69.0378 391.5 66.2157 387.221 61.279Z" fill="#004651"/>
<path d="M421.109 51.9528L426.104 57.7802C425.702 58.524 425.258 59.244 424.772 59.9364L419.777 54.1089C420.284 53.4036 420.74 52.6637 421.143 51.8945" fill="#004651"/>
<path d="M419.744 54.1641L424.739 59.9915C424.082 60.9106 423.349 61.7738 422.55 62.5722L417.555 56.7448C418.359 55.9508 419.092 55.0872 419.744 54.1641Z" fill="#004651"/>
<path d="M417.555 56.744L422.55 62.5714C418.17 66.7666 412.324 69.0847 406.258 69.0315C398.158 69.0315 391.532 66.2094 387.253 61.2727L382.258 55.4453C386.537 60.382 393.155 63.2041 401.263 63.2041C407.354 63.2672 413.226 60.9353 417.614 56.7107" fill="#004651"/>
<path d="M458.43 25.9336L463.45 31.7277H441.88L436.852 25.9336H458.43Z" fill="#004651"/>
<path d="M436.851 25.9336L441.879 31.7277L441.246 68.2406L436.227 62.4548L436.851 25.9336Z" fill="#005D72"/>
<path d="M436.229 62.4531L441.249 68.2389H431.176L426.156 62.4531H436.229Z" fill="#004651"/>
<path d="M467.878 62.4531L472.898 68.2389H462.825L457.805 62.4531H467.878Z" fill="#004651"/>
<path d="M468.661 16.5859L473.69 22.38L472.899 68.2418L467.879 62.456L468.661 16.5859Z" fill="#005D72"/>
<path d="M507.982 28.0892L512.977 33.9166C510.971 31.6106 507.891 30.4368 504.028 30.4368C497.21 30.4368 492.731 34.1497 491.307 40.052L486.312 34.2246C487.744 28.3223 492.223 24.6094 499.033 24.6094C502.896 24.6094 505.984 25.8082 507.982 28.0892Z" fill="#004651"/>
<path d="M507.982 28.0949L512.977 33.9223C510.97 31.6164 507.89 30.4426 504.028 30.4426C500.165 30.4426 496.86 31.7079 494.612 33.939L489.617 28.1532C491.857 25.9138 495.045 24.6484 499.024 24.6484C503.004 24.6484 505.976 25.8222 507.974 28.1282" fill="#004651"/>
<path d="M489.624 28.1197L494.619 33.9055C494.167 34.3657 493.75 34.8582 493.37 35.379L488.375 29.5516C488.746 29.0236 489.164 28.5304 489.624 28.0781" fill="#004651"/>
<path d="M488.376 29.5938L493.371 35.4212C493.036 35.8959 492.735 36.3938 492.471 36.9113L487.477 31.0839C487.744 30.5696 488.048 30.0745 488.384 29.6021" fill="#004651"/>
<path d="M487.47 31.0742L492.465 36.9016C492.188 37.4401 491.946 37.9963 491.741 38.5666L486.746 32.7392C486.948 32.1691 487.187 31.6129 487.462 31.0742" fill="#004651"/>
<path d="M486.753 32.7539L491.748 38.5813C491.582 39.0558 491.44 39.547 491.315 40.0548L486.32 34.2274C486.445 33.7196 486.595 33.2284 486.762 32.7539" fill="#004651"/>
<path d="M493.752 55.2677L488.757 49.4403C487.196 47.6082 486.265 45.3231 486.102 42.9219L491.096 48.7493C491.27 51.1484 492.199 53.4307 493.752 55.2677Z" fill="#005D72"/>
<path d="M486.078 42.957L491.073 48.7844C491.115 49.259 491.19 49.7252 491.273 50.1664L486.278 44.3806C486.185 43.9214 486.118 43.4572 486.078 42.9903" fill="#005D72"/>
<path d="M486.277 44.3458L491.272 50.1316C491.563 51.6595 492.167 53.1107 493.045 54.3939L488.051 48.5665C487.165 47.29 486.561 45.84 486.277 44.3125" fill="#005D72"/>
<path d="M488.051 48.6016L493.046 54.429C493.258 54.7183 493.486 54.9962 493.728 55.2615L488.733 49.4341C488.491 49.1687 488.264 48.8909 488.051 48.6016Z" fill="#005D72"/>
<path d="M516.07 22.4805L521.065 28.3079C524.361 32.2411 526.063 37.267 525.835 42.3936L520.841 36.5662C521.063 31.4404 519.361 26.4165 516.07 22.4805Z" fill="#005D72"/>
<path d="M516.07 22.4805L521.065 28.3079C521.501 28.8105 521.909 29.3357 522.289 29.8813L517.294 24.0539C516.917 23.5062 516.508 22.9808 516.07 22.4805Z" fill="#005D72"/>
<path d="M517.286 24.0117L522.281 29.8391C523.829 32.0926 524.889 34.6446 525.394 37.3315L520.399 31.5041C519.891 28.8166 518.828 26.2648 517.277 24.0117" fill="#005D72"/>
<path d="M520.406 31.4883L525.401 37.3157C525.724 38.9604 525.869 40.6349 525.834 42.3106L520.839 36.4832C520.866 34.8078 520.721 33.1341 520.406 31.4883Z" fill="#005D72"/>
<path d="M520.202 42.9609L525.222 48.7551H491.098L486.078 42.9609H520.202Z" fill="#004651"/>
<path d="M520.844 36.5234L525.839 42.3509C525.753 44.5067 525.539 46.6555 525.198 48.786L520.203 42.9586C520.544 40.8281 520.758 38.6793 520.844 36.5234Z" fill="#005D72"/>
<path d="M520.84 36.5195L525.835 42.3469C525.835 42.4968 525.835 42.655 525.835 42.8215L520.84 36.994C520.84 36.8276 520.84 36.6694 520.84 36.5195Z" fill="#005D72"/>
<path d="M520.824 36.9961L525.819 42.8235C525.761 44.297 525.544 46.32 525.186 48.7841L520.191 42.9567C520.549 40.4592 520.757 38.4696 520.816 36.9961" fill="#005D72"/>
<path d="M485.979 61.3346L480.984 55.5072C485.238 60.4105 491.807 63.216 499.898 63.216C503.553 63.2748 507.169 62.4566 510.443 60.83C513.716 59.2034 516.552 56.8157 518.713 53.8672L523.708 59.6946C521.548 62.6442 518.712 65.0326 515.439 66.6593C512.165 68.286 508.549 69.1036 504.893 69.0434C496.81 69.0434 490.233 66.238 485.979 61.3346Z" fill="#004651"/>
<path d="M518.686 53.8984L523.681 59.7259C522.964 60.6639 522.185 61.5539 521.35 62.3898L516.355 56.5624C517.195 55.7285 517.976 54.8384 518.695 53.8984" fill="#004651"/>
<path d="M516.347 56.5607L521.342 62.3881C519.185 64.5516 516.613 66.2568 513.78 67.4013C510.947 68.5458 507.913 69.1059 504.858 69.048C496.775 69.048 490.198 66.2425 485.944 61.3391L480.949 55.5117C485.203 60.4151 491.772 63.2206 499.863 63.2206C502.917 63.2797 505.951 62.7202 508.782 61.5756C511.613 60.431 514.184 58.7251 516.338 56.5607" fill="#004651"/>
<path d="M538.507 16.5859L543.527 22.3801L542.903 58.9013L537.883 53.1072L538.507 16.5859Z" fill="#005D72"/>
<path d="M561.851 16.5859L566.879 22.3801L566.246 58.9013L561.227 53.1072L561.851 16.5859Z" fill="#005D72"/>
<path d="M584.404 62.4531L589.423 68.2389H532.673L527.645 62.4531H584.404Z" fill="#004651"/>
<path d="M585.185 16.5859L590.213 22.38L589.422 68.2418L584.402 62.456L585.185 16.5859Z" fill="#005D72"/>
<path d="M604.64 16.5859L609.668 22.38L609.36 40.3784L604.332 34.5843L604.64 16.5859Z" fill="#005D72"/>
<path d="M604.172 43.8398L609.192 49.634L608.875 68.2401L603.855 62.4543L604.172 43.8398Z" fill="#005D72"/>
<path d="M603.859 62.4531L608.879 68.2389H598.806L593.777 62.4531H603.859Z" fill="#004651"/>
<path d="M626.278 43.8398L631.298 49.634H609.196L604.176 43.8398H626.278Z" fill="#004651"/>
<path d="M636.034 62.4531L641.054 68.2389H630.981L625.961 62.4531H636.034Z" fill="#004651"/>
<path d="M636.818 16.5859L641.846 22.38L641.055 68.2418L636.035 62.456L636.818 16.5859Z" fill="#005D72"/>
<path d="M679.239 29.4717L684.234 35.2991C682.898 33.8106 681.255 32.6296 679.418 31.8376C677.582 31.0457 675.595 30.6617 673.595 30.7121C665.545 30.7121 659.351 36.2732 659.201 45.264C659.043 48.8727 660.23 52.4116 662.531 55.1956L657.537 49.3682C655.214 46.5931 654.009 43.0522 654.157 39.4366C654.315 30.4457 660.508 24.8847 668.55 24.8847C670.558 24.8264 672.555 25.2066 674.401 25.9988C676.247 26.791 677.898 27.9762 679.239 29.4717Z" fill="#004651"/>
<path d="M679.239 29.4709L684.234 35.2984C682.897 33.8098 681.254 32.6288 679.418 31.8368C677.581 31.0449 675.594 30.6609 673.594 30.7113C671.708 30.6665 669.831 30.9958 668.072 31.6802C666.313 32.3647 664.707 33.3906 663.346 34.699L658.352 28.8715C659.709 27.5612 661.313 26.5333 663.071 25.8474C664.829 25.1615 666.705 24.8312 668.591 24.8756C670.593 24.8244 672.582 25.2089 674.42 26.0023C676.259 26.7958 677.903 27.9793 679.239 29.4709Z" fill="#004651"/>
<path d="M658.35 28.875L663.345 34.7024C662.823 35.2174 662.344 35.7742 661.913 36.3674L656.918 30.54C657.346 29.9447 657.825 29.3876 658.35 28.875Z" fill="#004651"/>
<path d="M656.917 30.5625L661.912 36.3899C661.538 36.9203 661.201 37.4767 660.905 38.0549L655.91 32.2275C656.209 31.6492 656.548 31.0928 656.926 30.5625" fill="#004651"/>
<path d="M655.904 32.2188L660.899 38.0462C660.596 38.6293 660.334 39.233 660.116 39.8527L655.121 34.0669C655.34 33.446 655.599 32.8399 655.895 32.2521" fill="#004651"/>
<path d="M655.173 34.0333L660.168 39.8191C659.926 40.5214 659.732 41.2389 659.585 41.9669L654.59 36.1395C654.732 35.4131 654.926 34.698 655.173 34" fill="#004651"/>
<path d="M654.548 36.1758L659.543 42.0032C659.356 42.9419 659.245 43.8939 659.21 44.8503L654.215 39.0229C654.246 38.0662 654.358 37.1139 654.548 36.1758Z" fill="#004651"/>
<path d="M654.214 39.0195L659.209 44.8469C659.209 44.9801 659.209 45.1133 659.209 45.2549C659.184 46.4249 659.284 47.5943 659.508 48.743L654.513 42.9156C654.293 41.7663 654.193 40.5974 654.214 39.4275C654.214 39.2943 654.214 39.1527 654.214 39.0195Z" fill="#004651"/>
<path d="M654.496 42.9141L659.491 48.7415C659.861 50.6702 660.633 52.4997 661.755 54.111L656.76 48.2836C655.652 46.6709 654.893 44.845 654.529 42.9224" fill="#004651"/>
<path d="M656.727 48.2852L661.721 54.1126C661.978 54.4891 662.256 54.8505 662.554 55.1948L657.559 49.3674C657.263 49.0209 656.986 48.6597 656.727 48.2852Z" fill="#004651"/>
<path d="M687.523 23.4766L692.518 29.304C696.272 33.7541 698.231 39.4447 698.012 45.2628C697.779 59.0238 687.44 69.0802 672.938 69.0802C665.112 69.0802 658.561 66.0833 654.257 61.1217L649.262 55.2942C653.557 60.2892 660.084 63.2528 667.934 63.2528C682.436 63.2528 692.776 53.1964 693.017 39.4353C693.236 33.6172 691.277 27.9267 687.523 23.4766Z" fill="#004651"/>
<path d="M687.523 23.4727L692.518 29.3001C693.017 29.8783 693.487 30.4812 693.925 31.1066L688.93 25.2792C688.497 24.6547 688.03 24.0544 687.532 23.481" fill="#004651"/>
<path d="M688.922 25.2734L693.917 31.1009C695.7 33.6905 696.928 36.6214 697.522 39.7088L692.527 33.8814C691.933 30.7923 690.703 27.8608 688.914 25.2734" fill="#004651"/>
<path d="M692.535 33.875L697.53 39.7024C697.887 41.5281 698.049 43.3868 698.013 45.2468C698.013 45.4383 698.013 45.6297 698.013 45.8212L693.018 39.9938C693.018 39.8023 693.018 39.6108 693.018 39.4194C693.05 37.5595 692.888 35.7013 692.535 33.875Z" fill="#004651"/>
<path d="M693.003 39.9961L697.998 45.8235C697.94 47.2215 697.776 48.613 697.507 49.9859L692.512 44.1585C692.782 42.7857 692.946 41.3941 693.003 39.9961Z" fill="#004651"/>
<path d="M692.509 44.1953L697.504 50.0227C697.275 51.1522 696.969 52.2647 696.589 53.3527L691.594 47.5253C691.974 46.4373 692.28 45.3247 692.509 44.1953Z" fill="#004651"/>
<path d="M691.594 47.5273L696.588 53.3548C696.233 54.3617 695.811 55.3435 695.323 56.2934L690.328 50.466C690.812 49.5145 691.235 48.5329 691.594 47.5273Z" fill="#004651"/>
<path d="M690.329 50.4648L695.324 56.2923C694.838 57.2641 694.282 58.199 693.659 59.0894L688.664 53.262C689.3 52.3721 689.87 51.4373 690.371 50.4648" fill="#004651"/>
<path d="M688.622 53.2773L693.617 59.1048C692.87 60.1483 692.034 61.1259 691.12 62.0268L686.125 56.1994C687.041 55.3004 687.877 54.3226 688.622 53.2773Z" fill="#004651"/>
<path d="M686.141 56.1803L691.136 62.0077C686.691 66.4283 680.314 69.0672 672.93 69.0672C665.104 69.0672 658.553 66.0703 654.249 61.1087L649.254 55.2812C653.55 60.2762 660.076 63.2398 667.927 63.2398C675.352 63.2398 681.688 60.6008 686.133 56.1803" fill="#004651"/>
<path d="M230.53 111.672L235.558 117.466H213.989L208.969 111.672H230.53Z" fill="#004651"/>
<path d="M208.968 111.672L213.988 117.466L213.364 153.987L208.344 148.193L208.968 111.672Z" fill="#005D72"/>
<path d="M208.344 148.195L213.364 153.989H203.282L198.254 148.195H208.344Z" fill="#004651"/>
<path d="M239.988 148.195L245.016 153.989H234.934L229.906 148.195H239.988Z" fill="#004651"/>
<path d="M240.775 102.32L245.795 108.114L245.013 153.984L239.984 148.19L240.775 102.32Z" fill="#005D72"/>
<path d="M260.313 102.32L265.333 108.114L265.258 112.26L260.238 106.466L260.313 102.32Z" fill="#B3B3B3"/>
<path d="M281.243 114.497L286.237 120.325C284.048 117.827 280.835 116.437 276.839 116.437C274.361 116.427 271.932 117.127 269.839 118.455C267.747 119.783 266.08 121.683 265.034 123.929L260.039 118.102C261.084 115.855 262.751 113.954 264.844 112.626C266.936 111.298 269.366 110.598 271.844 110.61C275.84 110.618 279.053 111.975 281.243 114.497Z" fill="#004651"/>
<path d="M281.245 114.494L286.24 120.322C284.05 117.824 280.837 116.434 276.841 116.434C275.15 116.415 273.471 116.736 271.906 117.376C270.34 118.017 268.919 118.964 267.725 120.164L262.73 114.336C263.928 113.132 265.357 112.182 266.93 111.542C268.503 110.903 270.19 110.588 271.888 110.615C275.884 110.615 279.097 111.972 281.287 114.494" fill="#004651"/>
<path d="M262.729 114.336L267.724 120.163C267.177 120.71 266.676 121.3 266.225 121.928L261.23 116.142C261.679 115.51 262.18 114.917 262.729 114.369" fill="#004651"/>
<path d="M261.228 116.111L266.223 121.897C265.836 122.446 265.488 123.022 265.182 123.62L260.188 117.793C260.491 117.196 260.839 116.623 261.228 116.078" fill="#004651"/>
<path d="M260.189 117.824L265.184 123.652L265.034 123.943L260.039 118.116L260.189 117.824Z" fill="#004651"/>
<path d="M260.04 118.117L265.06 123.911L264.794 139.787L259.766 133.993L260.04 118.117Z" fill="#004651"/>
<path d="M265.944 141.387L260.949 135.559C260.501 135.086 260.097 134.573 259.742 134.027L264.737 139.855C265.092 140.401 265.496 140.914 265.944 141.387Z" fill="#B3B3B3"/>
<path d="M259.742 134.027L264.737 139.855C264.879 140.105 265.037 140.346 265.203 140.587L260.208 134.76C260.05 134.519 259.892 134.277 259.742 134.027Z" fill="#B3B3B3"/>
<path d="M260.234 134.723L265.229 140.55C265.44 140.854 265.668 141.146 265.912 141.424L260.917 135.597C260.675 135.331 260.447 135.054 260.234 134.764" fill="#B3B3B3"/>
<path d="M259.226 165.824L264.246 171.618H254.173L249.145 165.824H259.226Z" fill="#004651"/>
<path d="M259.576 145.195L264.604 150.989L264.246 171.618L259.227 165.824L259.576 145.195Z" fill="#005D72"/>
<path d="M289.644 108.227L294.639 114.054C298.169 118.125 300.059 123.761 299.942 130.321C299.701 144.348 290.327 154.846 276.533 154.846C271.538 154.846 266.751 153.564 264.686 151.191L259.691 145.364C261.756 147.736 266.509 149.018 271.538 149.018C285.332 149.018 294.706 138.521 294.947 124.502C295.055 117.9 293.174 112.264 289.644 108.227Z" fill="#004651"/>
<path d="M289.645 108.223L294.639 114.05C295.102 114.58 295.532 115.135 295.93 115.715L290.935 109.888C290.535 109.31 290.104 108.754 289.645 108.223Z" fill="#004651"/>
<path d="M290.934 109.887L295.929 115.714C297.667 118.27 298.857 121.159 299.425 124.197L294.43 118.37C293.866 115.33 292.675 112.441 290.934 109.887Z" fill="#004651"/>
<path d="M294.422 118.336L299.417 124.163C299.801 126.18 299.974 128.23 299.933 130.282C299.933 130.507 299.933 130.732 299.933 130.956L294.939 125.129V124.463C294.98 122.408 294.805 120.354 294.414 118.336" fill="#004651"/>
<path d="M294.921 125.129L299.916 130.956C299.856 132.553 299.67 134.143 299.358 135.71L294.363 129.924C294.678 128.355 294.865 126.762 294.921 125.162" fill="#004651"/>
<path d="M294.363 129.869L299.358 135.655C299.106 136.909 298.767 138.144 298.343 139.351L293.348 133.524C293.772 132.32 294.109 131.088 294.355 129.836" fill="#004651"/>
<path d="M293.357 133.578L298.352 139.406C297.973 140.49 297.519 141.547 296.995 142.569L292 136.742C292.527 135.72 292.984 134.663 293.365 133.578" fill="#004651"/>
<path d="M291.991 136.746L296.986 142.574C296.467 143.582 295.877 144.553 295.221 145.479L290.227 139.651C290.885 138.727 291.475 137.756 291.991 136.746Z" fill="#004651"/>
<path d="M290.228 139.652L295.223 145.48C294.475 146.518 293.64 147.49 292.725 148.385L287.73 142.558C288.628 141.659 289.45 140.687 290.186 139.652" fill="#004651"/>
<path d="M287.771 142.551L292.766 148.378C290.623 150.474 288.083 152.122 285.296 153.225C282.509 154.328 279.53 154.866 276.533 154.805C271.538 154.805 266.751 153.523 264.686 151.15L259.691 145.323C261.756 147.696 266.509 148.978 271.538 148.978C274.535 149.038 277.514 148.501 280.301 147.398C283.088 146.294 285.628 144.646 287.771 142.551Z" fill="#004651"/>
<path d="M335.497 115.204L340.492 121.031C339.158 119.539 337.516 118.356 335.679 117.562C333.842 116.769 331.854 116.384 329.853 116.436C321.811 116.436 315.618 121.997 315.459 130.996C315.313 134.61 316.515 138.15 318.831 140.928L313.836 135.1C311.535 132.316 310.348 128.777 310.506 125.169C310.656 116.17 316.85 110.617 324.9 110.617C326.893 110.571 328.872 110.958 330.701 111.75C332.53 112.541 334.167 113.72 335.497 115.204Z" fill="#004651"/>
<path d="M335.496 115.197L340.491 121.024C339.157 119.532 337.514 118.349 335.677 117.555C333.84 116.762 331.852 116.377 329.852 116.429C327.965 116.384 326.089 116.715 324.331 117.401C322.574 118.087 320.97 119.115 319.612 120.425L314.617 114.597C315.976 113.288 317.582 112.261 319.341 111.576C321.1 110.892 322.978 110.563 324.865 110.61C326.863 110.56 328.849 110.944 330.684 111.736C332.52 112.528 334.162 113.708 335.496 115.197Z" fill="#004651"/>
<path d="M314.682 114.598L319.677 120.425C319.152 120.938 318.673 121.495 318.245 122.09L313.25 116.263C313.681 115.669 314.16 115.112 314.682 114.598Z" fill="#004651"/>
<path d="M313.211 116.285L318.206 122.113C317.828 122.643 317.489 123.199 317.19 123.778L312.195 117.992C312.492 117.414 312.828 116.857 313.203 116.327" fill="#004651"/>
<path d="M312.184 117.951L317.179 123.737C316.883 124.325 316.624 124.931 316.405 125.552L311.41 119.724C311.624 119.104 311.883 118.501 312.184 117.918" fill="#004651"/>
<path d="M311.426 119.758L316.421 125.585C316.172 126.282 315.978 126.998 315.839 127.725L310.844 121.897C310.99 121.171 311.188 120.456 311.435 119.758" fill="#004651"/>
<path d="M310.837 121.898L315.832 127.726C315.642 128.667 315.53 129.622 315.499 130.581L310.504 124.754C310.54 123.795 310.651 122.84 310.837 121.898Z" fill="#004651"/>
<path d="M310.519 124.754L315.514 130.581C315.514 130.715 315.514 130.856 315.514 130.989C315.493 132.159 315.594 133.328 315.814 134.477L310.819 128.692C310.595 127.54 310.495 126.368 310.519 125.195C310.519 125.062 310.519 124.92 310.519 124.787" fill="#004651"/>
<path d="M310.797 128.654L315.792 134.44C316.155 136.363 316.915 138.189 318.023 139.801L313.028 133.974C311.918 132.365 311.158 130.542 310.797 128.621" fill="#004651"/>
<path d="M313.016 134.027L318.011 139.855C318.277 140.229 318.56 140.596 318.843 140.937L313.848 135.11C313.548 134.767 313.27 134.405 313.016 134.027Z" fill="#004651"/>
<path d="M343.824 109.211L348.819 115.038C352.579 119.485 354.539 125.178 354.313 130.997C354.08 144.758 343.74 154.815 329.238 154.815C321.421 154.815 314.861 151.818 310.557 146.856L305.562 141.029C309.866 146.024 316.385 148.987 324.244 148.987C338.745 148.987 349.085 138.931 349.318 125.17C349.539 119.351 347.579 113.66 343.824 109.211Z" fill="#004651"/>
<path d="M343.824 109.208L348.819 115.035C349.318 115.61 349.788 116.21 350.226 116.833L345.231 111.006C344.8 110.377 344.333 109.774 343.833 109.199" fill="#004651"/>
<path d="M345.215 111.016L350.21 116.843C351.994 119.436 353.224 122.369 353.823 125.459L348.828 119.632C348.234 116.543 347.004 113.611 345.215 111.024" fill="#004651"/>
<path d="M348.821 119.625L353.816 125.452C354.166 127.279 354.325 129.137 354.29 130.997C354.29 131.188 354.29 131.38 354.29 131.58L349.295 125.752C349.295 125.561 349.295 125.361 349.295 125.169C349.332 123.309 349.17 121.451 348.812 119.625" fill="#004651"/>
<path d="M349.292 125.75L354.287 131.577C354.238 132.976 354.074 134.368 353.796 135.74L348.801 129.912C349.071 128.54 349.235 127.148 349.292 125.75Z" fill="#004651"/>
<path d="M348.818 129.938L353.813 135.765C353.592 136.896 353.286 138.01 352.897 139.095L347.902 133.309C348.282 132.221 348.588 131.108 348.818 129.979" fill="#004651"/>
<path d="M347.886 133.275L352.881 139.061C352.529 140.068 352.109 141.05 351.624 142L346.629 136.173C347.116 135.226 347.539 134.246 347.894 133.242" fill="#004651"/>
<path d="M346.622 136.204L351.617 142.031C351.13 143.002 350.573 143.937 349.952 144.828L344.957 139.001C345.594 138.109 346.164 137.171 346.664 136.195" fill="#004651"/>
<path d="M344.915 139.027L349.91 144.855C349.163 145.898 348.327 146.876 347.413 147.777L342.418 141.991C343.328 141.086 344.164 140.109 344.915 139.069" fill="#004651"/>
<path d="M342.442 141.933L347.437 147.719C342.992 152.139 336.656 154.778 329.231 154.778C321.414 154.778 314.854 151.781 310.55 146.82L305.555 140.992C309.859 145.987 316.377 148.951 324.236 148.951C331.662 148.951 337.997 146.32 342.442 141.9" fill="#004651"/>
<path d="M367.023 102.32L372.051 108.114L371.427 144.636L366.398 138.842L367.023 102.32Z" fill="#005D72"/>
<path d="M390.367 102.32L395.395 108.114L394.77 144.636L389.742 138.842L390.367 102.32Z" fill="#005D72"/>
<path d="M412.919 148.195L417.947 153.989H361.188L356.16 148.195H412.919Z" fill="#004651"/>
<path d="M413.701 102.32L418.729 108.114L417.946 153.984L412.918 148.19L413.701 102.32Z" fill="#005D72"/>
<path d="M438.484 111.672L443.504 117.466L443.379 124.609L438.359 118.815L438.484 111.672Z" fill="#004651"/>
<path d="M454.743 111.672L459.763 117.466H443.504L438.484 111.672H454.743Z" fill="#004651"/>
<path d="M438.36 118.812L443.355 124.64C442.963 147.442 435.862 154.46 425.606 154.46C424.915 154.46 424.207 154.46 423.483 154.368L418.488 148.541C419.213 148.599 419.92 148.632 420.619 148.632C430.867 148.632 437.968 141.614 438.36 118.812Z" fill="#005D72"/>
<path d="M438.363 118.816L443.358 124.644C443.358 125.41 443.358 126.159 443.3 126.883L438.305 121.056C438.305 120.332 438.355 119.582 438.371 118.816" fill="#005D72"/>
<path d="M438.295 121.055L443.29 126.883C443.176 130.515 442.781 134.133 442.108 137.705L437.113 131.919C437.796 128.332 438.191 124.697 438.295 121.047" fill="#005D72"/>
<path d="M437.113 131.928L442.108 137.714C441.766 139.462 441.301 141.184 440.718 142.867L435.723 137.039C436.303 135.359 436.764 133.64 437.105 131.895" fill="#005D72"/>
<path d="M435.732 137.07L440.727 142.898C440.346 143.992 439.893 145.06 439.37 146.094L434.375 140.267C434.904 139.235 435.361 138.167 435.74 137.07" fill="#005D72"/>
<path d="M434.365 140.27L439.36 146.097C438.936 146.916 438.458 147.706 437.929 148.461L432.934 142.634C433.465 141.881 433.941 141.091 434.357 140.27" fill="#005D72"/>
<path d="M432.942 142.637L437.937 148.464C437.439 149.173 436.882 149.839 436.272 150.454L431.277 144.626C431.885 144.009 432.442 143.344 432.942 142.637Z" fill="#005D72"/>
<path d="M431.235 144.621L436.23 150.449C433.358 153.312 429.728 154.461 425.583 154.461C424.892 154.461 424.184 154.461 423.46 154.37L418.465 148.542C419.189 148.6 419.897 148.634 420.596 148.634C424.758 148.634 428.363 147.485 431.244 144.621" fill="#005D72"/>
<path d="M464.199 148.195L469.227 153.989H459.137L454.117 148.195H464.199Z" fill="#004651"/>
<path d="M464.99 102.32L470.01 108.114L469.227 153.984L464.199 148.19L464.99 102.32Z" fill="#005D72"/>
<path d="M500.073 113.307L505.068 119.134C503.544 117.369 501.064 116.437 497.334 116.437C492.339 116.437 488.56 117.944 484.081 121.29L479.086 115.463C483.565 112.133 487.294 110.609 492.339 110.609C496.06 110.618 498.541 111.558 500.073 113.307Z" fill="#004651"/>
<path d="M500.069 113.303L505.064 119.13C503.541 117.365 501.06 116.433 497.33 116.433C492.335 116.433 488.556 117.94 484.077 121.286L479.082 115.459C483.561 112.129 487.29 110.605 492.335 110.605C496.056 110.605 498.537 111.53 500.069 113.294" fill="#004651"/>
<path d="M508.082 106.812L513.077 112.64C515.849 115.837 517.239 120.34 517.156 125.96L512.161 120.132C512.253 114.513 510.854 110.009 508.082 106.812Z" fill="#005D72"/>
<path d="M508.082 106.809L513.077 112.636C513.417 113.025 513.734 113.434 514.026 113.86L509.031 108.032C508.731 107.605 508.415 107.197 508.082 106.809Z" fill="#005D72"/>
<path d="M509.031 108.031L514.026 113.859C515.365 115.836 516.278 118.07 516.707 120.419L511.712 114.591C511.286 112.243 510.376 110.009 509.04 108.031" fill="#005D72"/>
<path d="M511.704 114.59L516.699 120.417C517.042 122.245 517.193 124.103 517.148 125.962L512.153 120.134C512.194 118.275 512.041 116.417 511.695 114.59" fill="#005D72"/>
<path d="M487.516 143.274L482.521 137.447C481.724 136.525 481.307 135.334 481.355 134.117C481.43 129.53 486.35 128.031 493.576 128.031C496.413 128.03 499.235 128.445 501.951 129.263L506.946 135.091C504.231 134.265 501.409 133.847 498.571 133.85C491.32 133.85 486.433 135.357 486.35 139.944C486.303 141.162 486.72 142.352 487.516 143.274Z" fill="#004651"/>
<path d="M501.916 129.314L506.911 135.142C504.196 134.315 501.374 133.897 498.536 133.901C493.541 133.901 489.678 134.617 487.714 136.548L482.719 130.721C484.675 128.79 488.546 128.082 493.541 128.082C496.378 128.081 499.2 128.496 501.916 129.314Z" fill="#004651"/>
<path d="M482.728 130.703L487.723 136.531C487.532 136.727 487.354 136.935 487.19 137.155L482.195 131.369C482.354 131.143 482.533 130.931 482.728 130.736" fill="#004651"/>
<path d="M482.196 131.358L487.191 137.143C487.069 137.322 486.958 137.509 486.858 137.701L481.863 131.874C481.964 131.683 482.078 131.499 482.205 131.324" fill="#004651"/>
<path d="M481.855 131.906L486.85 137.734C486.75 137.917 486.666 138.11 486.6 138.308L481.605 132.481C481.672 132.284 481.753 132.092 481.847 131.906" fill="#004651"/>
<path d="M481.613 132.477L486.608 138.304C486.532 138.522 486.471 138.744 486.425 138.97L481.43 133.143C481.469 132.915 481.53 132.692 481.613 132.477Z" fill="#004651"/>
<path d="M481.432 133.145L486.427 138.972C486.367 139.268 486.334 139.569 486.327 139.871L481.332 134.044C481.346 133.742 481.382 133.441 481.44 133.145" fill="#004651"/>
<path d="M481.322 134.031L486.317 139.859C486.317 139.9 486.317 139.942 486.317 139.984C486.308 140.361 486.341 140.738 486.417 141.107L481.422 135.322C481.346 134.949 481.312 134.569 481.322 134.189V134.031Z" fill="#004651"/>
<path d="M481.422 135.297L486.417 141.083C486.541 141.719 486.796 142.323 487.166 142.856L482.171 137.07C481.801 136.538 481.546 135.934 481.422 135.297Z" fill="#004651"/>
<path d="M482.172 137.072L487.167 142.858C487.266 143.004 487.374 143.143 487.491 143.274L482.497 137.447C482.388 137.314 482.28 137.181 482.18 137.039" fill="#004651"/>
<path d="M479.077 149.343L474.082 143.516C476.937 146.804 481.574 148.686 487.402 148.686C494.212 148.686 498.94 146.13 501.729 143.133L506.724 148.919C503.935 151.916 499.232 154.48 492.388 154.48C486.561 154.513 481.924 152.632 479.077 149.343Z" fill="#004651"/>
<path d="M501.68 143.19L506.675 148.975L506.284 149.383L501.289 143.556L501.68 143.156" fill="#004651"/>
<path d="M501.287 143.564L506.282 149.391C503.452 152.213 498.848 154.544 492.338 154.544C486.511 154.544 481.89 152.663 479.018 149.374L474.023 143.547C476.879 146.835 481.516 148.717 487.343 148.717C493.845 148.717 498.449 146.386 501.279 143.564" fill="#004651"/>
<path d="M511.675 148.195L516.695 153.989H506.614L501.594 148.195H511.675Z" fill="#004651"/>
<path d="M512.159 120.137L517.179 125.931L516.696 153.986L511.676 148.192L512.159 120.137Z" fill="#005D72"/>
<path fill-rule="evenodd" clip-rule="evenodd" d="M32.1973 0.00202446C49.7878 0.00202446 63.6237 13.2386 63.2741 31.5783C62.9994 49.7515 48.7056 63.1545 31.1234 63.1545C13.5413 63.1545 -0.302979 49.9513 0.00504148 31.5783C0.0387357 27.3892 0.898907 23.248 2.53624 19.392C4.17358 15.536 6.55588 12.0411 9.54657 9.10766C12.5373 6.17419 16.0775 3.85986 19.9644 2.29732C23.8513 0.734787 28.0084 -0.0452177 32.1973 0.00202446ZM31.2983 52.9233C42.7866 52.9233 51.9523 44.3736 52.1687 31.5783C52.3852 18.7829 42.8116 10.2333 32.0225 10.2333C20.9754 10.2333 11.3685 18.708 11.1521 31.5783C10.9356 44.4485 20.3094 52.9233 31.2983 52.9233ZM112.898 16.5877L112.116 62.4578H102.034L102.659 25.9366H81.0891L80.4647 62.4578H70.3833L71.1658 16.5877H112.898ZM163.48 62.4411L164.263 16.5877H128.016L127.792 29.6494C127.45 49.6957 122.589 53.5002 117.968 53.5002C117.826 53.5002 117.685 53.4897 117.546 53.4792C117.409 53.4688 117.272 53.4586 117.136 53.4586L117.769 62.8074C118.496 62.874 119.203 62.9073 119.891 62.9073C130.139 62.9073 137.24 55.8895 137.632 33.0793L137.757 25.9366H154.015L153.399 62.4411H163.48ZM192.926 15.5288C205.047 15.5288 211.64 22.4135 211.432 34.4096L210.957 62.4395H200.876L200.967 57.4446C198.17 60.4415 193.475 63.0056 186.632 63.0056C176.559 63.0056 169.982 57.3613 170.174 48.5369C170.349 38.3057 179.706 33.9767 191.91 33.9767C195.096 33.9622 198.269 34.3794 201.342 35.2171C201.55 28.5572 199.044 24.8943 191.619 24.8943C186.624 24.8943 182.844 26.3928 178.365 29.7477L173.537 22.3386C177.941 18.0846 185.417 15.5288 192.926 15.5288ZM201.126 47.9958L201.201 43.5753C198.484 42.758 195.663 42.3429 192.826 42.3432C185.575 42.3432 180.688 43.8417 180.605 48.4287C180.547 52.0417 183.868 54.2561 188.996 54.2561C191.38 54.3099 193.74 53.7651 195.859 52.6714C197.978 51.5778 199.788 49.9702 201.126 47.9958ZM259.592 25.9366L259.75 16.5877H216.436L216.269 25.9366H232.894L232.269 62.4578H242.343L242.967 25.9366H259.592ZM283.991 15.5288C296.104 15.5288 302.705 22.4135 302.506 34.4096L302.023 62.4395H291.941L292.025 57.4446C289.236 60.4415 284.532 63.0056 277.697 63.0056C267.616 63.0056 261.089 57.3613 261.239 48.5369C261.406 38.2973 270.771 33.9601 282.967 33.9601C286.155 33.9456 289.331 34.3629 292.408 35.2005C292.607 28.5406 290.11 24.8776 282.684 24.8776C277.639 24.8776 273.901 26.3761 269.431 29.7311L264.602 22.3219C269.006 18.0845 276.474 15.5288 283.991 15.5288ZM292.183 47.9958L292.258 43.5753C289.542 42.7566 286.72 42.3414 283.883 42.3432C276.632 42.3432 271.745 43.8417 271.67 48.4287C271.604 52.0417 274.934 54.2561 280.062 54.2561C282.449 54.3143 284.812 53.7715 286.934 52.6775C289.057 51.5836 290.87 49.9737 292.208 47.9958H292.183ZM358.624 61.1326L377.43 16.5862H366.632L353.945 47.5215L338.644 16.5612H326.989L348.884 59.7008L347.219 63.8632C344.829 69.5075 342.399 71.5387 339.835 71.5387C339.124 71.5545 338.423 71.3699 337.812 71.0059L333.649 79.5722C335.632 80.4985 337.805 80.9489 339.993 80.8876C347.41 80.8876 352.147 76.3089 358.624 61.1326ZM401.497 15.5288C410.954 15.5288 418.147 19.8494 421.027 25.9349L413.427 30.8716C410.405 26.7091 406.983 24.8776 401.772 24.8776C393.447 24.8776 387.437 30.7883 387.287 39.4295C387.145 47.7544 393.048 53.8982 402.338 53.8982C407.549 53.8982 411.396 51.2509 413.993 47.3715L421.077 51.9585C417.19 59.3676 409.164 63.272 401.206 63.272C386.446 63.272 376.606 53.9231 376.856 39.4545C377.122 25.8517 386.995 15.5288 401.497 15.5288ZM467.88 62.4578L468.662 16.5877H426.938L426.156 62.4578H436.229L436.853 25.9366H458.431L457.807 62.4578H467.88ZM520.843 36.5242C520.757 38.68 520.543 40.8288 520.202 42.9593H486.07C486.736 50.1936 492.597 53.8982 500.222 53.8982C502.615 53.8963 504.975 53.3469 507.122 52.2921C509.269 51.2373 511.146 49.705 512.61 47.8127L518.695 53.8982C516.536 56.8525 513.7 59.2457 510.425 60.8768C507.15 62.5079 503.531 63.3293 499.873 63.272C485.104 63.272 475.356 53.8982 475.614 39.4295C475.847 26.0265 484.247 15.5288 499.623 15.5288C511.985 15.5288 521.059 23.8204 520.843 36.5242ZM486.32 34.2265H510.454C509.771 27.8746 505.459 24.6113 499.04 24.6113C492.23 24.6113 487.752 28.3241 486.32 34.2265ZM584.403 62.4578L585.186 16.5877H575.113L574.488 53.1089H561.227L561.851 16.5877H551.77L551.145 53.1089H537.884L538.508 16.5877H528.435L527.644 62.4578H584.403ZM636.816 16.5877L636.034 62.4578H625.961L626.277 43.8434H604.174L603.858 62.4578H593.777L594.567 16.5877H604.641L604.332 34.5861H626.435L626.743 16.5877H636.816ZM693.018 39.4295C693.251 25.5853 683.261 15.5288 668.759 15.5288C654.174 15.5288 644.051 25.6935 643.793 39.4545C643.535 53.2155 653.616 63.272 667.935 63.272C682.437 63.272 692.785 53.2738 693.018 39.4295ZM682.578 39.4295C682.428 48.2539 676.493 53.8982 668.101 53.8982C659.702 53.8982 654.057 47.7544 654.199 39.4295C654.34 30.4387 660.634 24.8776 668.593 24.8776C676.551 24.8776 682.728 30.6052 682.578 39.4295ZM240.777 102.322L239.986 148.192H229.905L230.529 111.671H208.968L208.344 148.192H198.254L199.045 102.322H240.777ZM294.947 124.47C295.18 110.883 286.855 101.268 273.061 101.268C268.466 101.268 263.229 102.85 260.241 106.521L260.316 102.359H250.234L249.152 165.861H259.225L259.575 145.232C261.548 147.696 266.418 149.02 271.538 149.02C285.332 149.02 294.706 138.489 294.947 124.47ZM284.508 125.26C284.358 133.81 278.78 139.638 270.564 139.638V139.679C266.01 139.679 261.897 137.739 259.741 134.035L260.049 118.109C261.094 115.862 262.762 113.962 264.854 112.634C266.946 111.306 269.376 110.606 271.854 110.617C279.812 110.617 284.666 116.003 284.508 125.26ZM325.05 101.268C339.552 101.268 349.541 111.325 349.308 125.169C349.075 139.013 338.736 149.02 324.234 149.02C309.907 149.02 299.825 138.963 300.092 125.202C300.358 111.441 310.456 101.268 325.05 101.268ZM324.392 139.638C332.792 139.638 338.719 133.993 338.877 125.169C339.035 116.345 332.85 110.617 324.891 110.617C316.933 110.617 310.648 116.17 310.498 125.169C310.356 133.494 315.992 139.638 324.392 139.638ZM412.919 148.192L413.702 102.322H403.628L403.004 138.843H389.743L390.367 102.322H380.286L379.661 138.843H366.4L367.024 102.322H356.951L356.16 148.192H412.919ZM464.991 102.321L464.2 148.183H454.119L454.743 111.662H438.476L438.36 118.804C437.968 141.606 430.867 148.624 420.611 148.624C419.912 148.624 419.204 148.624 418.48 148.532L417.847 139.184H418.68C423.308 139.184 428.162 135.371 428.503 115.333L428.728 102.279L464.991 102.321ZM512.176 120.141C512.376 108.153 505.774 101.268 493.67 101.268C486.177 101.268 478.685 103.824 474.256 108.095L479.084 115.504C483.563 112.157 487.293 110.65 492.338 110.65C499.763 110.65 502.261 114.355 502.061 120.965C498.983 120.134 495.808 119.72 492.621 119.733C480.425 119.733 471.068 124.053 470.893 134.285C470.743 143.109 477.27 148.753 487.351 148.753C494.186 148.753 498.889 146.198 501.678 143.201L501.595 148.196H511.693L512.176 120.141ZM501.936 129.323L501.861 133.735V133.744C500.526 135.72 498.715 137.328 496.596 138.422C494.476 139.516 492.116 140.06 489.732 140.004C484.604 140.004 481.274 137.789 481.34 134.176C481.415 129.589 486.31 128.091 493.561 128.091C496.398 128.09 499.22 128.505 501.936 129.323Z" fill="#00C0EA"/>
</svg>
