<svg width="20" height="20" viewBox="0 0 20 20" fill="none" xmlns="http://www.w3.org/2000/svg">
<path d="M9.99935 18.3346C5.39698 18.3346 1.66602 14.6037 1.66602 10.0013C1.66602 5.39893 5.39698 1.66797 9.99935 1.66797C14.6017 1.66797 18.3327 5.39893 18.3327 10.0013C18.3276 14.6016 14.5996 18.3296 9.99935 18.3346ZM9.16602 14.168V15.8346H10.8327V14.168H9.16602ZM9.99935 5.83464C10.9198 5.83464 11.666 6.58083 11.666 7.5013C11.6689 7.94358 11.4914 8.36792 11.1743 8.6763L10.141 9.7263C9.51721 10.3527 9.16669 11.2006 9.16602 12.0846V12.5013H10.8327C10.7679 11.6055 11.1292 10.7315 11.8077 10.143L12.5577 9.3763C13.0561 8.8799 13.3351 8.20473 13.3327 7.5013C13.3327 5.66035 11.8403 4.16797 9.99935 4.16797C8.1584 4.16797 6.66602 5.66035 6.66602 7.5013H8.33268C8.33268 6.58083 9.07887 5.83464 9.99935 5.83464Z" fill="white"/>
</svg>
