<svg width="14" height="14" viewBox="0 0 14 14" fill="none" xmlns="http://www.w3.org/2000/svg">
<g clip-path="url(#clip0_1134_92826)">
<path d="M12.8466 0.685547H1.01528C0.45544 0.685547 0 1.12886 0 1.6738V9.97513C0 10.5201 0.45544 10.9634 1.01528 10.9634H5.14561L4.90122 11.796C4.80307 12.1303 4.41835 12.4128 4.06111 12.4128H2.73448C2.62234 12.4128 2.53142 12.5013 2.53142 12.6105C2.53142 12.7196 2.62234 12.8081 2.73448 12.8081H11.1274C11.2396 12.8081 11.3305 12.7196 11.3305 12.6105C11.3305 12.5013 11.2396 12.4128 11.1274 12.4128H9.80081C9.44357 12.4128 9.05884 12.1303 8.9607 11.796L8.7163 10.9634H12.8466C13.4065 10.9634 13.8619 10.5201 13.8619 9.97513V1.6738C13.8619 1.12886 13.4065 0.685547 12.8466 0.685547ZM8.57021 11.9046C8.62593 12.0944 8.73669 12.2689 8.88189 12.4128H4.98003C5.12523 12.2689 5.23599 12.0944 5.29171 11.9046L5.56797 10.9634H8.29392L8.57021 11.9046ZM13.4558 9.97513C13.4558 10.3021 13.1825 10.5681 12.8466 10.5681H1.01528C0.679369 10.5681 0.406111 10.3021 0.406111 9.97513V1.6738C0.406111 1.34683 0.679369 1.08085 1.01528 1.08085H12.8466C13.1825 1.08085 13.4558 1.34683 13.4558 1.6738V9.97513Z" fill="black"/>
<path d="M13.05 9.18445V1.67372C13.05 1.56457 12.9591 1.47607 12.8469 1.47607H1.01556C0.903415 1.47607 0.8125 1.56457 0.8125 1.67372L0.8125 5.86036C0.8125 5.96951 0.903415 6.05801 1.01556 6.05801C1.1277 6.05801 1.21861 5.96951 1.21861 5.86036V1.87138H12.6439V8.9868H1.21861V5.82439C1.21861 5.71523 1.1277 5.62674 1.01556 5.62674C0.903415 5.62674 0.8125 5.71523 0.8125 5.82439V9.18445C0.8125 9.29361 0.903415 9.3821 1.01556 9.3821H12.8469C12.9591 9.3821 13.05 9.29361 13.05 9.18445Z" fill="black"/>
</g>
<defs>
<clipPath id="clip0_1134_92826">
<rect width="13.8619" height="13.493" fill="white"/>
</clipPath>
</defs>
</svg>
