<svg width="14" height="14" viewBox="0 0 14 14" fill="none" xmlns="http://www.w3.org/2000/svg">
<g clip-path="url(#clip0_1134_91172)">
<path d="M7 14C10.866 14 14 10.866 14 7C14 3.13401 10.866 0 7 0C3.13401 0 0 3.13401 0 7C0 10.866 3.13401 14 7 14Z" fill="#1DA2F8"/>
<path d="M7.0004 1.03598C6.95326 1.03598 6.91504 0.99775 6.91504 0.950609V0.559977C6.91504 0.512836 6.95326 0.474609 7.0004 0.474609C7.04754 0.474609 7.08577 0.512836 7.08577 0.559977V0.950609C7.08577 0.99775 7.04754 1.03598 7.0004 1.03598Z" fill="#F2F2F2"/>
<path d="M7.0004 13.5252C6.95326 13.5252 6.91504 13.487 6.91504 13.4399V13.0492C6.91504 13.0021 6.95326 12.9639 7.0004 12.9639C7.04754 12.9639 7.08577 13.0021 7.08577 13.0492V13.4399C7.08577 13.487 7.04754 13.5252 7.0004 13.5252Z" fill="#F2F2F2"/>
<path d="M5.94905 1.1277C5.90836 1.1277 5.87235 1.09855 5.86505 1.05713L5.79721 0.672427C5.78903 0.625998 5.82004 0.581701 5.86644 0.573552C5.91301 0.565459 5.95719 0.596384 5.96534 0.642814L6.03318 1.02751C6.04136 1.07394 6.01035 1.11824 5.96395 1.12639C5.95892 1.12724 5.95397 1.1277 5.94905 1.1277Z" fill="#F2F2F2"/>
<path d="M8.11799 13.4275C8.07731 13.4275 8.04129 13.3984 8.03399 13.357L7.96615 12.9723C7.95798 12.9258 7.98898 12.8815 8.03539 12.8734C8.08195 12.8652 8.12614 12.8962 8.13429 12.9426L8.20213 13.3273C8.21031 13.3737 8.1793 13.418 8.1329 13.4262C8.12786 13.4271 8.12292 13.4275 8.11799 13.4275Z" fill="#F2F2F2"/>
<path d="M4.93089 1.40062C4.89603 1.40062 4.8633 1.37907 4.85069 1.34443L4.71706 0.977367C4.70098 0.933042 4.72382 0.88407 4.76811 0.867937C4.81227 0.851886 4.86141 0.874636 4.87749 0.91896L5.01109 1.28602C5.02722 1.33035 5.00436 1.37932 4.96007 1.39545C4.95044 1.39895 4.9406 1.40062 4.93089 1.40062Z" fill="#F2F2F2"/>
<path d="M9.20237 13.137C9.16751 13.137 9.13478 13.1154 9.12217 13.0808L8.98857 12.7137C8.97244 12.6694 8.9953 12.6204 9.03959 12.6043C9.08375 12.5882 9.13289 12.611 9.14897 12.6553L9.28259 13.0224C9.29867 13.0667 9.27584 13.1157 9.23154 13.1318C9.22192 13.1353 9.21208 13.137 9.20237 13.137Z" fill="#F2F2F2"/>
<path d="M3.97511 1.84651C3.94561 1.84651 3.91693 1.83119 3.90109 1.80379L3.70578 1.4655C3.68223 1.42467 3.69618 1.37247 3.73703 1.3489C3.7778 1.32522 3.83005 1.33931 3.85365 1.38013L4.04897 1.71843C4.07251 1.75925 4.05857 1.81145 4.01772 1.83502C4.00432 1.84281 3.98961 1.84651 3.97511 1.84651Z" fill="#F2F2F2"/>
<path d="M10.2202 12.6624C10.1907 12.6624 10.162 12.6471 10.1462 12.6197L9.95089 12.2814C9.92735 12.2406 9.9413 12.1884 9.98215 12.1648C10.0229 12.1411 10.0751 12.1552 10.0988 12.196L10.2941 12.5343C10.3176 12.5752 10.3037 12.6274 10.2628 12.6509C10.2494 12.6587 10.2347 12.6624 10.2202 12.6624Z" fill="#F2F2F2"/>
<path d="M3.1119 2.4514C3.08756 2.4514 3.06334 2.44104 3.04647 2.42091L2.79537 2.12169C2.76505 2.08557 2.76978 2.03173 2.80592 2.0014C2.84199 1.97113 2.89586 1.97581 2.92618 2.01193L3.17728 2.31115C3.2076 2.34727 3.20287 2.40111 3.16672 2.43144C3.15076 2.44486 3.13129 2.4514 3.1119 2.4514Z" fill="#F2F2F2"/>
<path d="M11.1392 12.0188C11.1149 12.0188 11.0907 12.0084 11.0738 11.9883L10.8227 11.689C10.7924 11.6529 10.7971 11.5991 10.8333 11.5688C10.8693 11.5385 10.9232 11.5432 10.9535 11.5793L11.2046 11.8785C11.2349 11.9146 11.2302 11.9685 11.194 11.9988C11.1781 12.0122 11.1586 12.0188 11.1392 12.0188Z" fill="#F2F2F2"/>
<path d="M2.36599 3.19674C2.34663 3.19674 2.32713 3.19021 2.31119 3.17678L2.01197 2.92568C1.97582 2.89536 1.97112 2.84155 2.00141 2.8054C2.03174 2.76925 2.0856 2.7646 2.12167 2.79487L2.42089 3.04597C2.45704 3.07629 2.46175 3.1301 2.43145 3.16625C2.41455 3.18635 2.39032 3.19674 2.36599 3.19674Z" fill="#F2F2F2"/>
<path d="M11.9334 11.2246C11.914 11.2246 11.8945 11.218 11.8785 11.2046L11.5793 10.9535C11.5432 10.9232 11.5385 10.8694 11.5688 10.8332C11.5991 10.7971 11.6529 10.7924 11.6891 10.8227L11.9883 11.0738C12.0243 11.1041 12.0291 11.1579 11.9988 11.1941C11.9819 11.2142 11.9577 11.2246 11.9334 11.2246Z" fill="#F2F2F2"/>
<path d="M1.76051 4.06042C1.74604 4.06042 1.73136 4.05672 1.7179 4.04896L1.37961 3.85364C1.33876 3.83007 1.32481 3.77787 1.34835 3.73705C1.37195 3.69625 1.42401 3.68217 1.46498 3.70582L1.80327 3.90114C1.84412 3.92471 1.85807 3.97691 1.83453 4.01773C1.81872 4.0451 1.79004 4.06042 1.76051 4.06042Z" fill="#F2F2F2"/>
<path d="M12.5769 10.3051C12.5624 10.3051 12.5477 10.3014 12.5343 10.2936L12.196 10.0983C12.1552 10.0747 12.1412 10.0225 12.1648 9.98171C12.1883 9.94088 12.2405 9.92677 12.2814 9.95048L12.6196 10.1458C12.6605 10.1694 12.6744 10.2216 12.6509 10.2624C12.635 10.2898 12.6064 10.3051 12.5769 10.3051Z" fill="#F2F2F2"/>
<path d="M1.31575 5.01628C1.30604 5.01628 1.2962 5.01461 1.28657 5.01111L0.919481 4.87751C0.875157 4.86138 0.852325 4.81241 0.868458 4.76808C0.884536 4.72376 0.933645 4.70101 0.977833 4.71706L1.34492 4.85066C1.38925 4.86679 1.41208 4.91577 1.39595 4.96009C1.38334 4.99474 1.35061 5.01628 1.31575 5.01628Z" fill="#F2F2F2"/>
<path d="M13.0511 9.28776C13.0414 9.28776 13.0315 9.28609 13.0218 9.28259L12.6548 9.14899C12.6105 9.13285 12.5877 9.08388 12.6038 9.03955C12.6199 8.99523 12.6689 8.97251 12.7132 8.98853L13.0803 9.12213C13.1246 9.13827 13.1474 9.18724 13.1313 9.23156C13.1187 9.26626 13.0859 9.28776 13.0511 9.28776Z" fill="#F2F2F2"/>
<path d="M1.04241 6.03497C1.03749 6.03497 1.03251 6.03453 1.02751 6.03366L0.642809 5.96582C0.596379 5.95761 0.565399 5.91334 0.573574 5.86694C0.58175 5.82054 0.625828 5.78956 0.672476 5.79768L1.05718 5.86552C1.1036 5.87372 1.13459 5.91799 1.12641 5.96439C1.11911 6.00582 1.0831 6.03497 1.04241 6.03497Z" fill="#F2F2F2"/>
<path d="M13.3422 8.20343C13.3373 8.20343 13.3323 8.20299 13.3273 8.20212L12.9426 8.13428C12.8962 8.12607 12.8652 8.0818 12.8734 8.0354C12.8816 7.989 12.9256 7.95802 12.9723 7.96614L13.357 8.03398C13.4034 8.04218 13.4344 8.08645 13.4262 8.13285C13.4189 8.17428 13.3829 8.20343 13.3422 8.20343Z" fill="#F2F2F2"/>
<path d="M0.950582 7.08528H0.559977C0.512836 7.08528 0.474609 7.04705 0.474609 6.99992C0.474609 6.95278 0.512836 6.91455 0.559977 6.91455H0.950582C0.997723 6.91455 1.03595 6.95278 1.03595 6.99992C1.03595 7.04705 0.997723 7.08528 0.950582 7.08528Z" fill="#F2F2F2"/>
<path d="M13.4399 7.08528H13.0492C13.0021 7.08528 12.9639 7.04705 12.9639 6.99992C12.9639 6.95278 13.0021 6.91455 13.0492 6.91455H13.4399C13.487 6.91455 13.5253 6.95278 13.5253 6.99992C13.5253 7.04705 13.487 7.08528 13.4399 7.08528Z" fill="#F2F2F2"/>
<path d="M0.657574 8.20343C0.616887 8.20343 0.580875 8.17428 0.573574 8.13286C0.565399 8.08645 0.596379 8.04213 0.642809 8.03398L1.02751 7.96614C1.0741 7.95802 1.11826 7.98894 1.12641 8.0354C1.13459 8.0818 1.1036 8.12613 1.05718 8.13428L0.672476 8.20212C0.667445 8.20299 0.662469 8.20343 0.657574 8.20343Z" fill="#F2F2F2"/>
<path d="M12.9574 6.03497C12.9167 6.03497 12.8807 6.00582 12.8734 5.9644C12.8652 5.91799 12.8962 5.87367 12.9426 5.86552L13.3273 5.79768C13.3738 5.78956 13.4181 5.82049 13.4262 5.86694C13.4344 5.91334 13.4034 5.95767 13.357 5.96582L12.9723 6.03366C12.9673 6.03453 12.9623 6.03497 12.9574 6.03497Z" fill="#F2F2F2"/>
<path d="M0.948654 9.28776C0.913791 9.28776 0.88106 9.26621 0.868455 9.23157C0.852322 9.18724 0.875181 9.13827 0.919478 9.12214L1.28657 8.98854C1.33073 8.97249 1.37986 8.99527 1.39594 9.03956C1.41208 9.08389 1.38922 9.13286 1.34492 9.14899L0.97783 9.28259C0.968232 9.28612 0.958388 9.28776 0.948654 9.28776Z" fill="#F2F2F2"/>
<path d="M12.684 5.01628C12.6491 5.01628 12.6164 4.99473 12.6038 4.96009C12.5877 4.91576 12.6105 4.86679 12.6548 4.85066L13.0218 4.71705C13.0662 4.701 13.1152 4.72378 13.1313 4.76808C13.1474 4.8124 13.1245 4.86138 13.0803 4.87751L12.7132 5.01111C12.7035 5.01461 12.6937 5.01628 12.684 5.01628Z" fill="#F2F2F2"/>
<path d="M1.42237 10.3051C1.39287 10.3051 1.36419 10.2898 1.34835 10.2624C1.32481 10.2216 1.33876 10.1694 1.37961 10.1458L1.7179 9.95047C1.75878 9.92679 1.8109 9.94087 1.83453 9.98169C1.85807 10.0225 1.84412 10.0747 1.80327 10.0983L1.46498 10.2936C1.45152 10.3014 1.43687 10.3051 1.42237 10.3051Z" fill="#F2F2F2"/>
<path d="M12.2388 4.06044C12.2093 4.06044 12.1806 4.04513 12.1648 4.01773C12.1412 3.97691 12.1552 3.92471 12.196 3.90114L12.5343 3.70582C12.5751 3.68217 12.6273 3.69625 12.6509 3.73705C12.6744 3.77787 12.6605 3.83007 12.6197 3.85364L12.2814 4.04896C12.268 4.05675 12.2532 4.06044 12.2388 4.06044Z" fill="#F2F2F2"/>
<path d="M2.06686 11.2246C2.04252 11.2246 2.0183 11.2142 2.00142 11.1941C1.9711 11.158 1.97583 11.1041 2.01198 11.0738L2.3112 10.8227C2.34727 10.7924 2.40114 10.7971 2.43146 10.8332C2.46178 10.8693 2.45705 10.9232 2.42091 10.9535L2.12168 11.2046C2.10571 11.218 2.08624 11.2246 2.06686 11.2246Z" fill="#F2F2F2"/>
<path d="M11.6342 3.19673C11.6099 3.19673 11.5857 3.18637 11.5688 3.16624C11.5385 3.13012 11.5432 3.07631 11.5793 3.04596L11.8785 2.79486C11.9147 2.76459 11.9685 2.76927 11.9988 2.80539C12.0291 2.84151 12.0244 2.89532 11.9883 2.92567L11.6891 3.17677C11.6731 3.19017 11.6536 3.19673 11.6342 3.19673Z" fill="#F2F2F2"/>
<path d="M2.85973 12.0188C2.84037 12.0188 2.82088 12.0122 2.80494 11.9988C2.76879 11.9685 2.76408 11.9147 2.79438 11.8785L3.04548 11.5793C3.07583 11.5432 3.1297 11.5385 3.16574 11.5688C3.20188 11.5991 3.20659 11.6529 3.17629 11.6891L2.92519 11.9883C2.9083 12.0084 2.88407 12.0188 2.85973 12.0188Z" fill="#F2F2F2"/>
<path d="M10.8881 2.4514C10.8687 2.4514 10.8492 2.44486 10.8333 2.43144C10.7971 2.40111 10.7924 2.3473 10.8227 2.31115L11.0738 2.01193C11.1041 1.97581 11.158 1.97113 11.194 2.0014C11.2302 2.03173 11.2349 2.08557 11.2046 2.12169L10.9535 2.42091C10.9366 2.44104 10.9124 2.4514 10.8881 2.4514Z" fill="#F2F2F2"/>
<path d="M3.77963 12.6624C3.76517 12.6624 3.75048 12.6587 3.73703 12.6509C3.69618 12.6274 3.68223 12.5752 3.70578 12.5343L3.90109 12.196C3.92469 12.1552 3.97675 12.1411 4.01772 12.1648C4.05857 12.1884 4.07251 12.2406 4.04897 12.2814L3.85365 12.6197C3.83782 12.6471 3.80914 12.6624 3.77963 12.6624Z" fill="#F2F2F2"/>
<path d="M10.0247 1.84649C10.0103 1.84649 9.9956 1.8428 9.98215 1.83503C9.9413 1.81146 9.92735 1.75926 9.95089 1.71844L10.1462 1.38014C10.1698 1.33932 10.2219 1.32521 10.2628 1.34892C10.3037 1.37249 10.3176 1.42469 10.2941 1.46551L10.0988 1.80381C10.0829 1.83118 10.0543 1.84649 10.0247 1.84649Z" fill="#F2F2F2"/>
<path d="M4.7973 13.137C4.7876 13.137 4.77775 13.1353 4.76813 13.1318C4.7238 13.1157 4.70097 13.0667 4.71708 13.0224L4.8507 12.6553C4.86684 12.611 4.91584 12.5882 4.96008 12.6043C5.0044 12.6204 5.02723 12.6694 5.0111 12.7137L4.8775 13.0808C4.8649 13.1155 4.83214 13.137 4.7973 13.137Z" fill="#F2F2F2"/>
<path d="M9.06877 1.40062C9.05907 1.40062 9.04922 1.39896 9.0396 1.39546C8.99527 1.37932 8.97244 1.33035 8.98858 1.28603L9.12218 0.918963C9.13825 0.874612 9.18736 0.851889 9.23155 0.86794C9.27587 0.884073 9.29871 0.933045 9.2826 0.977369L9.14897 1.34443C9.13642 1.3791 9.10364 1.40062 9.06877 1.40062Z" fill="#F2F2F2"/>
<path d="M5.88232 13.4275C5.8774 13.4275 5.87242 13.4271 5.86742 13.4262C5.82101 13.418 5.79001 13.3737 5.79818 13.3273L5.86602 12.9426C5.8742 12.8962 5.91828 12.8652 5.96492 12.8734C6.01133 12.8816 6.04233 12.9258 6.03416 12.9723L5.96632 13.357C5.95899 13.3983 5.92301 13.4275 5.88232 13.4275Z" fill="#F2F2F2"/>
<path d="M8.05029 1.12769C8.04537 1.12769 8.04039 1.12725 8.03539 1.12637C7.98898 1.11817 7.95798 1.07393 7.96615 1.0275L8.03399 0.642799C8.04217 0.596397 8.08625 0.565498 8.1329 0.573537C8.1793 0.581741 8.21031 0.625983 8.20213 0.672412L8.13429 1.05711C8.12696 1.09851 8.09098 1.12769 8.05029 1.12769Z" fill="#F2F2F2"/>
<path d="M6.52805 1.69026C6.48425 1.69026 6.44698 1.65676 6.44312 1.61235L6.35384 0.591857C6.34974 0.54488 6.38447 0.503482 6.43145 0.49938C6.47848 0.495087 6.51982 0.530033 6.52389 0.576982L6.61317 1.59748C6.61727 1.64445 6.58255 1.68585 6.53557 1.68995C6.53306 1.69015 6.53051 1.69026 6.52805 1.69026Z" fill="#F2F2F2"/>
<path d="M7.56126 13.5008C7.51745 13.5008 7.48018 13.4673 7.47633 13.4229L7.38705 12.4024C7.38295 12.3554 7.41767 12.314 7.46465 12.3099C7.51196 12.3056 7.55297 12.3406 7.5571 12.3875L7.64638 13.408C7.65048 13.455 7.61575 13.4964 7.56878 13.5005C7.56626 13.5007 7.56372 13.5008 7.56126 13.5008Z" fill="#F2F2F2"/>
<path d="M5.59852 1.85416C5.56081 1.85416 5.52633 1.829 5.51613 1.79088L5.25098 0.801395C5.23878 0.75584 5.26577 0.709055 5.31132 0.69686C5.35685 0.684418 5.40369 0.71168 5.41586 0.757208L5.68101 1.7467C5.69321 1.79225 5.66622 1.83904 5.62066 1.85123C5.61328 1.85323 5.60582 1.85416 5.59852 1.85416Z" fill="#F2F2F2"/>
<path d="M8.66684 13.3058C8.62914 13.3058 8.59466 13.2806 8.58446 13.2425L8.31934 12.253C8.30714 12.2075 8.33413 12.1607 8.37968 12.1485C8.42537 12.1361 8.47199 12.1633 8.48422 12.2088L8.74934 13.1983C8.76154 13.2439 8.73455 13.2907 8.68899 13.3029C8.68153 13.3049 8.67415 13.3058 8.66684 13.3058Z" fill="#F2F2F2"/>
<path d="M4.71172 2.17729C4.67956 2.17729 4.64877 2.15903 4.63431 2.12799L4.20137 1.19956C4.18147 1.15685 4.19992 1.10604 4.24263 1.08614C4.28532 1.06623 4.3362 1.08469 4.35608 1.12743L4.78902 2.05586C4.80892 2.09857 4.79047 2.14937 4.74776 2.16928C4.73611 2.17472 4.7238 2.17729 4.71172 2.17729Z" fill="#F2F2F2"/>
<path d="M9.72145 12.9219C9.68929 12.9219 9.6585 12.9037 9.64404 12.8726L9.21114 11.9442C9.19123 11.9015 9.20969 11.8507 9.2524 11.8308C9.29511 11.8109 9.34597 11.8293 9.36585 11.8721L9.79875 12.8005C9.81866 12.8432 9.8002 12.894 9.75749 12.9139C9.74581 12.9193 9.73354 12.9219 9.72145 12.9219Z" fill="#F2F2F2"/>
<path d="M3.89374 2.64905C3.86683 2.64905 3.84033 2.63637 3.82371 2.61266L3.23612 1.77351C3.20913 1.73487 3.21848 1.68166 3.25709 1.65462C3.29587 1.62752 3.34899 1.63701 3.37601 1.67559L3.9636 2.51474C3.99059 2.55338 3.98124 2.60659 3.94263 2.63363C3.9277 2.64405 3.91061 2.64905 3.89374 2.64905Z" fill="#F2F2F2"/>
<path d="M10.6935 12.3605C10.6666 12.3605 10.6401 12.3478 10.6235 12.3241L10.0359 11.4849C10.0089 11.4463 10.0183 11.3931 10.0569 11.366C10.0957 11.3389 10.1488 11.3484 10.1758 11.387L10.7633 12.2262C10.7903 12.2648 10.781 12.318 10.7424 12.3451C10.7275 12.3555 10.7104 12.3605 10.6935 12.3605Z" fill="#F2F2F2"/>
<path d="M3.17104 3.25594C3.14922 3.25594 3.12734 3.2476 3.11069 3.23095L2.38633 2.50656C2.353 2.47326 2.353 2.41917 2.38633 2.38584C2.41966 2.35251 2.47369 2.35251 2.50705 2.38584L3.23141 3.1102C3.26475 3.14351 3.26475 3.19759 3.23141 3.23092C3.21473 3.24758 3.19291 3.25594 3.17104 3.25594Z" fill="#F2F2F2"/>
<path d="M11.5539 11.6392C11.532 11.6392 11.5102 11.6309 11.4935 11.6142L10.7691 10.8899C10.7358 10.8566 10.7358 10.8025 10.7691 10.7691C10.8025 10.7358 10.8565 10.7358 10.8899 10.7691L11.6142 11.4935C11.6476 11.5268 11.6476 11.5809 11.6142 11.6142C11.5975 11.6309 11.5757 11.6392 11.5539 11.6392Z" fill="#F2F2F2"/>
<path d="M2.56405 3.97902C2.54715 3.97902 2.53009 3.97402 2.51516 3.96357L1.67604 3.37601C1.63743 3.349 1.62808 3.29576 1.65506 3.25712C1.68216 3.21849 1.73529 3.20911 1.77398 3.23615L2.61311 3.82368C2.65172 3.8507 2.66107 3.90394 2.63408 3.94257C2.61745 3.96631 2.59096 3.97902 2.56405 3.97902Z" fill="#F2F2F2"/>
<path d="M12.275 10.7793C12.2581 10.7793 12.2411 10.7743 12.2261 10.7638L11.387 10.1763C11.3484 10.1493 11.339 10.096 11.366 10.0574C11.3931 10.0188 11.4462 10.0094 11.4849 10.0364L12.3241 10.624C12.3627 10.651 12.372 10.7042 12.345 10.7429C12.3284 10.7666 12.3019 10.7793 12.275 10.7793Z" fill="#F2F2F2"/>
<path d="M2.09089 4.79652C2.07881 4.79652 2.06656 4.79395 2.05488 4.78848L1.12648 4.35558C1.08371 4.33567 1.06525 4.28487 1.08516 4.24216C1.10507 4.19945 1.1559 4.18099 1.19858 4.20087L2.12701 4.63377C2.16978 4.65368 2.18824 4.70448 2.16833 4.7472C2.15384 4.77826 2.12305 4.79652 2.09089 4.79652Z" fill="#F2F2F2"/>
<path d="M12.836 9.80679C12.8239 9.80679 12.8117 9.80422 12.8 9.79875L11.8716 9.36585C11.8288 9.34594 11.8104 9.29513 11.8303 9.25242C11.8502 9.20971 11.9011 9.19123 11.9437 9.21113L12.8721 9.64404C12.9149 9.66395 12.9333 9.71475 12.9134 9.75746C12.899 9.78853 12.8681 9.80679 12.836 9.80679Z" fill="#F2F2F2"/>
<path d="M1.76929 5.6835C1.76202 5.6835 1.75458 5.68257 1.74714 5.68054L0.757624 5.41542C0.712042 5.40322 0.685054 5.35641 0.697277 5.31088C0.709445 5.26535 0.756175 5.2382 0.801812 5.25053L1.79133 5.51566C1.83691 5.52786 1.8639 5.57467 1.85168 5.6202C1.84145 5.65831 1.80694 5.6835 1.76929 5.6835Z" fill="#F2F2F2"/>
<path d="M13.2205 8.75186C13.2132 8.75186 13.2058 8.75093 13.1983 8.74891L12.2088 8.48376C12.1632 8.47156 12.1362 8.42475 12.1484 8.37922C12.1606 8.33369 12.2073 8.3066 12.253 8.31887L13.2425 8.58403C13.2881 8.59622 13.3151 8.64304 13.3028 8.68856C13.2927 8.72673 13.2581 8.75186 13.2205 8.75186Z" fill="#F2F2F2"/>
<path d="M1.60497 6.61309C1.60245 6.61309 1.59997 6.61298 1.59742 6.61273L0.576927 6.52346C0.529977 6.51935 0.495251 6.47798 0.499352 6.43098C0.503427 6.384 0.544962 6.34914 0.591829 6.35338L1.61233 6.44265C1.65927 6.44676 1.694 6.48813 1.6899 6.53513C1.68607 6.57959 1.6488 6.61309 1.60497 6.61309Z" fill="#F2F2F2"/>
<path d="M13.4155 7.64676C13.4131 7.64676 13.4105 7.64665 13.408 7.6464L12.3875 7.55713C12.3405 7.55303 12.3058 7.51166 12.3099 7.46465C12.314 7.4177 12.355 7.38292 12.4024 7.38705L13.4229 7.47633C13.4699 7.48043 13.5046 7.5218 13.5005 7.5688C13.4966 7.61329 13.4593 7.64676 13.4155 7.64676Z" fill="#F2F2F2"/>
<path d="M0.584282 7.6467C0.540477 7.6467 0.503208 7.61321 0.499352 7.5688C0.495251 7.52182 0.529977 7.48043 0.576927 7.47632L1.59742 7.38705C1.64514 7.38295 1.68583 7.41773 1.6899 7.46465C1.694 7.51162 1.65927 7.55302 1.61233 7.55712L0.591829 7.6464C0.589286 7.64659 0.586743 7.6467 0.584282 7.6467Z" fill="#F2F2F2"/>
<path d="M12.3948 6.61306C12.351 6.61306 12.3138 6.57956 12.3099 6.53516C12.3058 6.48818 12.3405 6.44678 12.3875 6.44268L13.408 6.3534C13.4553 6.34897 13.4964 6.38408 13.5005 6.43101C13.5046 6.47798 13.4699 6.51938 13.4229 6.52348L12.4023 6.61276C12.3998 6.61295 12.3973 6.61306 12.3948 6.61306Z" fill="#F2F2F2"/>
<path d="M0.779652 8.75187C0.741945 8.75187 0.707465 8.72675 0.697266 8.6886C0.68507 8.64305 0.712058 8.59626 0.757613 8.58406L1.74713 8.31891C1.79255 8.30652 1.83944 8.33373 1.85166 8.37926C1.86386 8.42481 1.83687 8.4716 1.79132 8.48379L0.801801 8.74895C0.794418 8.75094 0.786926 8.75187 0.779652 8.75187Z" fill="#F2F2F2"/>
<path d="M12.2308 5.68347C12.1931 5.68347 12.1586 5.65831 12.1484 5.62019C12.1362 5.57464 12.1632 5.52785 12.2088 5.51566L13.1983 5.25053C13.2438 5.2382 13.2906 5.26535 13.3028 5.31088C13.315 5.35644 13.288 5.40322 13.2425 5.41542L12.253 5.68054C12.2456 5.68251 12.2381 5.68347 12.2308 5.68347Z" fill="#F2F2F2"/>
<path d="M1.16257 9.80679C1.13041 9.80679 1.09962 9.78853 1.08516 9.75746C1.06525 9.71475 1.08371 9.66395 1.12648 9.64404L2.0549 9.21113C2.09742 9.19123 2.14839 9.20971 2.16833 9.25242C2.18826 9.29513 2.16978 9.34594 2.12701 9.36585L1.19858 9.79875C1.18696 9.8042 1.17466 9.80679 1.16257 9.80679Z" fill="#F2F2F2"/>
<path d="M11.9077 4.7965C11.8755 4.7965 11.8447 4.77823 11.8303 4.7472C11.8104 4.70449 11.8288 4.65368 11.8715 4.63377L12.7999 4.20087C12.8426 4.18099 12.8935 4.19945 12.9134 4.24216C12.9333 4.28487 12.9148 4.33567 12.8721 4.35558L11.9437 4.78849C11.9321 4.79393 11.9198 4.7965 11.9077 4.7965Z" fill="#F2F2F2"/>
<path d="M1.72509 10.7793C1.69819 10.7793 1.67169 10.7666 1.65506 10.7429C1.62808 10.7043 1.63743 10.6511 1.67604 10.624L2.51516 10.0365C2.55393 10.0094 2.60706 10.0188 2.63408 10.0574C2.66107 10.0961 2.65172 10.1493 2.61311 10.1763L1.77398 10.7638C1.75908 10.7743 1.74199 10.7793 1.72509 10.7793Z" fill="#F2F2F2"/>
<path d="M11.436 3.97898C11.4091 3.97898 11.3826 3.96629 11.366 3.94258C11.339 3.90395 11.3484 3.85074 11.387 3.82369L12.2261 3.23616C12.2649 3.20906 12.318 3.21855 12.345 3.25713C12.372 3.29577 12.3627 3.34898 12.3241 3.37602L11.4849 3.96356C11.47 3.97395 11.4529 3.97898 11.436 3.97898Z" fill="#F2F2F2"/>
<path d="M2.44667 11.6392C2.42485 11.6392 2.40298 11.6309 2.38633 11.6142C2.353 11.5809 2.353 11.5268 2.38633 11.4935L3.11069 10.7691C3.14402 10.7358 3.19805 10.7358 3.23141 10.7691C3.26475 10.8024 3.26475 10.8565 3.23141 10.8899L2.50705 11.6142C2.49037 11.6309 2.46849 11.6392 2.44667 11.6392Z" fill="#F2F2F2"/>
<path d="M10.8295 3.25592C10.8077 3.25592 10.7858 3.24758 10.7691 3.23092C10.7358 3.19762 10.7358 3.14353 10.7691 3.1102L11.4935 2.38584C11.5268 2.35251 11.5809 2.35251 11.6142 2.38584C11.6476 2.41914 11.6476 2.47323 11.6142 2.50656L10.8899 3.23092C10.8731 3.24755 10.8513 3.25592 10.8295 3.25592Z" fill="#F2F2F2"/>
<path d="M3.30598 12.3605C3.28908 12.3605 3.27202 12.3555 3.25709 12.345C3.21848 12.318 3.20913 12.2648 3.23612 12.2261L3.82371 11.387C3.85081 11.3484 3.90394 11.339 3.94263 11.366C3.98124 11.393 3.99059 11.4463 3.9636 11.4849L3.37601 12.3241C3.35936 12.3478 3.33292 12.3605 3.30598 12.3605Z" fill="#F2F2F2"/>
<path d="M10.1058 2.64907C10.0889 2.64907 10.0718 2.64407 10.0569 2.63362C10.0183 2.60661 10.0089 2.55337 10.0359 2.51473L10.6235 1.67558C10.6506 1.63694 10.7038 1.62756 10.7424 1.65461C10.781 1.68162 10.7904 1.73486 10.7634 1.7735L10.1758 2.61265C10.1592 2.63639 10.1327 2.64907 10.1058 2.64907Z" fill="#F2F2F2"/>
<path d="M4.27774 12.9219C4.26565 12.9219 4.25337 12.9194 4.24167 12.9139C4.19896 12.894 4.18047 12.8432 4.20041 12.8005L4.63334 11.8721C4.65322 11.8293 4.70411 11.8109 4.74679 11.8308C4.7895 11.8507 4.80798 11.9015 4.78805 11.9442L4.35512 12.8726C4.34068 12.9037 4.30989 12.9219 4.27774 12.9219Z" fill="#F2F2F2"/>
<path d="M9.28848 2.17732C9.27639 2.17732 9.26411 2.17475 9.25241 2.16928C9.2097 2.14937 9.19122 2.09857 9.21115 2.05586L9.64405 1.12743C9.66393 1.08469 9.71482 1.06623 9.7575 1.08614C9.80021 1.10604 9.8187 1.15685 9.79877 1.19956L9.36586 2.12799C9.35137 2.15908 9.32058 2.17732 9.28848 2.17732Z" fill="#F2F2F2"/>
<path d="M5.33251 13.3058C5.32523 13.3058 5.31777 13.3049 5.31036 13.3029C5.26478 13.2907 5.23779 13.2438 5.25001 13.1983L5.51516 12.2088C5.52736 12.1634 5.57422 12.1361 5.6197 12.1485C5.66528 12.1607 5.69227 12.2075 5.68004 12.253L5.41489 13.2425C5.40469 13.2807 5.37019 13.3058 5.33251 13.3058Z" fill="#F2F2F2"/>
<path d="M8.40184 1.85418C8.39457 1.85418 8.38713 1.85325 8.3797 1.85122C8.33411 1.83903 8.30712 1.79222 8.31935 1.74669L8.58447 0.757198C8.59667 0.711671 8.64329 0.684436 8.68901 0.69685C8.73459 0.709046 8.76158 0.755858 8.74936 0.801386L8.48423 1.79088C8.47403 1.82899 8.43952 1.85418 8.40184 1.85418Z" fill="#F2F2F2"/>
<path d="M6.43897 13.5009C6.43651 13.5009 6.43397 13.5007 6.43145 13.5005C6.38447 13.4964 6.34972 13.455 6.35385 13.408L6.44313 12.3875C6.4472 12.3406 6.4886 12.3056 6.53557 12.3099C6.58255 12.314 6.6173 12.3554 6.61318 12.4024L6.5239 13.4229C6.52002 13.4674 6.48277 13.5009 6.43897 13.5009Z" fill="#F2F2F2"/>
<path d="M7.4712 1.69031C7.46873 1.69031 7.46619 1.6902 7.46368 1.68996C7.4167 1.68586 7.38195 1.64449 7.38608 1.59748L7.47535 0.576986C7.47943 0.530037 7.52039 0.495064 7.5678 0.499384C7.61478 0.503486 7.64953 0.544857 7.6454 0.591861L7.55612 1.61236C7.55227 1.65685 7.51503 1.69031 7.4712 1.69031Z" fill="#F2F2F2"/>
<path d="M7.84623 7.84574L11.6183 2.38232L6.15486 6.15437L2.38281 11.6178L7.84623 7.84574Z" fill="#F2F2F2"/>
<path d="M7.84623 7.84574L11.6183 2.38232L2.38281 11.6178L7.84623 7.84574Z" fill="#CCCCCC"/>
<path d="M7.84567 7.84575L11.6177 2.38232L6.1543 6.15437L7.84567 7.84575Z" fill="#FF525D"/>
<path d="M7.84569 7.84575L11.6177 2.38232L7 7.00006L7.84569 7.84575Z" fill="#EF4152"/>
</g>
<defs>
<clipPath id="clip0_1134_91172">
<rect width="14" height="14" fill="white"/>
</clipPath>
</defs>
</svg>
