<svg width="17" height="16" viewBox="0 0 17 16" fill="none" xmlns="http://www.w3.org/2000/svg">
<g clip-path="url(#clip0_1134_92689)">
<path d="M9.6633 15.0693C9.78963 15.0693 9.89203 14.9651 9.89203 14.8367C9.89203 14.7082 9.78963 14.604 9.6633 14.604C9.53698 14.604 9.43457 14.7082 9.43457 14.8367C9.43457 14.9651 9.53698 15.0693 9.6633 15.0693Z" fill="black"/>
<path d="M10.5764 15.0693C10.7027 15.0693 10.8051 14.9651 10.8051 14.8367C10.8051 14.7082 10.7027 14.604 10.5764 14.604C10.4501 14.604 10.3477 14.7082 10.3477 14.8367C10.3477 14.9651 10.4501 15.0693 10.5764 15.0693Z" fill="black"/>
<path d="M8.7493 14.604H6.9218C6.79564 14.604 6.69336 14.7081 6.69336 14.8367C6.69336 14.9652 6.79564 15.0693 6.9218 15.0693H8.7493C8.87545 15.0693 8.97773 14.9652 8.97773 14.8367C8.97773 14.7081 8.87545 14.604 8.7493 14.604Z" fill="black"/>
<path d="M13.7745 0.117676H3.72324C3.09342 0.117676 2.58105 0.639498 2.58105 1.28093V14.8368C2.58105 15.4782 3.09342 16 3.72324 16H13.7745C14.4043 16 14.9167 15.4782 14.9167 14.8368V1.28093C14.9167 0.639498 14.4043 0.117676 13.7745 0.117676ZM14.4598 14.8368C14.4598 15.2216 14.1524 15.5347 13.7745 15.5347H3.72324C3.34535 15.5347 3.03793 15.2216 3.03793 14.8368V1.28093C3.03793 0.896097 3.34535 0.582979 3.72324 0.582979H13.7745C14.1524 0.582979 14.4598 0.896097 14.4598 1.28093V14.8368Z" fill="black"/>
<path d="M8.74879 2.44425C9.12668 2.44425 9.4341 2.13113 9.4341 1.74629C9.4341 1.36146 9.12668 1.04834 8.74879 1.04834C8.37089 1.04834 8.06348 1.36146 8.06348 1.74629C8.06348 2.13113 8.37089 2.44425 8.74879 2.44425ZM8.74879 1.51364C8.87476 1.51364 8.97723 1.618 8.97723 1.74629C8.97723 1.87459 8.87476 1.97895 8.74879 1.97895C8.62281 1.97895 8.52035 1.87459 8.52035 1.74629C8.52035 1.618 8.62281 1.51364 8.74879 1.51364Z" fill="black"/>
<path d="M13.7748 1.979H10.2305C10.1699 1.979 10.1118 2.00351 10.069 2.04709C9.74866 2.37315 9.55596 2.56879 9.55596 2.56879C9.33998 2.7886 9.05345 2.90961 8.74918 2.90961C8.44511 2.90961 8.15813 2.78848 7.94151 2.56888L7.4292 2.04716C7.38638 2.00351 7.3283 1.979 7.26768 1.979H3.72355C3.5974 1.979 3.49512 2.08314 3.49512 2.21166V7.59366C3.49512 7.72218 3.5974 7.82632 3.72355 7.82632C3.84971 7.82632 3.95199 7.72218 3.95199 7.59366V2.44431H7.17308L7.61884 2.89829C7.92205 3.20564 8.32346 3.37491 8.74918 3.37491C9.17541 3.37491 9.57664 3.20554 9.87887 2.89798C9.89182 2.88498 10.325 2.44431 10.325 2.44431H13.5464V13.6736H3.95199V7.17661C3.95199 7.0481 3.84971 7.17661 3.72355 7.17661C3.5974 7.17661 3.49512 7.0481 3.49512 7.17661C3.49512 7.30513 3.49512 13.9063 3.49512 13.9063C3.49512 14.0348 3.5974 14.1389 3.72355 14.1389H13.7748C13.901 14.1389 14.0032 14.0348 14.0032 13.9063V2.21166C14.0032 2.08314 13.901 1.979 13.7748 1.979Z" fill="black"/>
</g>
<defs>
<clipPath id="clip0_1134_92689">
<rect width="15.5947" height="15.8824" fill="white" transform="translate(0.951172 0.117676)"/>
</clipPath>
</defs>
</svg>
