<svg width="19" height="19" viewBox="0 0 19 19" fill="none" xmlns="http://www.w3.org/2000/svg">
<g clip-path="url(#clip0_1134_91368)">
<path d="M6.78033 11.0392C6.78033 11.6833 7.05154 12.2258 7.35665 12.8021C7.69565 13.4123 8.17029 13.8869 8.7805 14.2599C9.39072 14.6328 10.0349 14.8023 10.7807 14.8023C11.4926 14.8023 12.1706 14.6328 12.7809 14.2599C13.3911 13.8869 13.8318 13.3445 14.2047 12.7343H18.9509C18.3407 14.4633 17.2898 15.9549 15.7642 17.0398C14.2386 18.1247 12.5435 18.701 10.6789 18.701C9.28897 18.701 7.93289 18.3959 6.71243 17.7856C3.9325 19.1417 1.93228 19.2095 0.711853 17.989C0.203392 17.5822 0 16.9042 0 15.9888C0 15.0735 0.1695 14.0225 0.542429 12.9038C0.915358 11.7512 1.49168 10.5307 2.33922 9.14072C2.98336 8.05586 3.45797 7.20833 5.28865 5.44543C5.96668 4.7674 6.27179 4.4284 6.44129 4.25886C4.814 5.03861 2.71211 6.49636 1.01704 7.98804C2.03407 5.47933 3.45797 4.19104 5.18693 3.10622C7.05154 1.98747 8.57711 1.24161 10.6112 1.24161C10.8146 1.24161 11.018 1.24161 11.2553 1.2755C12.747 0.597465 14.1031 0.258466 15.3235 0.156751C16.544 0.088966 17.3915 0.292358 17.9001 0.766965C18.9171 1.784 18.9849 3.41129 18.1713 5.6149C18.951 6.97097 18.9849 8.49654 18.9849 10.056C18.9849 10.4289 19.0188 10.7679 18.9849 11.073H14.5777H6.78033V11.0392Z" fill="#00C8F6"/>
<path d="M5.42407 16.802C3.66117 15.7171 3.05096 14.8357 2.33903 12.9033C1.15245 15.2086 0.813453 16.2596 1.69488 17.141C2.47464 17.9208 3.38999 17.7173 5.42407 16.802Z" fill="white"/>
<path d="M14.2379 8.66557C14.1701 7.71632 13.8311 6.86879 13.1192 6.22464C12.4072 5.54661 11.5597 5.27539 10.6104 5.27539C9.6273 5.27539 8.81366 5.54661 8.10173 6.22464C7.3898 6.90268 6.88126 7.71632 6.81348 8.66557H14.2379Z" fill="white"/>
<path d="M13.832 1.85148C15.4593 2.66512 15.7305 2.80073 16.951 4.25848C17.3578 3.13973 17.4256 2.83462 17.2561 2.49558C17.0866 2.08876 16.7476 1.78365 16.3747 1.58022C15.7644 1.24126 15.3576 1.24126 13.832 1.85148Z" fill="white"/>
</g>
<defs>
<clipPath id="clip0_1134_91368">
<rect width="19" height="19" fill="white"/>
</clipPath>
</defs>
</svg>
