<svg width="19" height="19" viewBox="0 0 19 19" fill="none" xmlns="http://www.w3.org/2000/svg">
<g clip-path="url(#clip0_1134_91342)">
<path d="M18.3028 5.93802H9.49987C7.53246 5.93609 5.93597 7.52942 5.93401 9.49683C5.93341 10.1079 6.09001 10.7089 6.38876 11.2419L1.9873 3.68977C5.19315 -0.459428 11.1556 -1.22414 15.3048 1.9817C16.6373 3.01126 17.672 4.37671 18.3028 5.93802Z" fill="#F44336"/>
<path d="M18.9996 9.50034C18.9952 14.745 14.7446 18.9956 9.49995 18.9999C9.10275 19.0014 8.70595 18.975 8.3125 18.9208L12.5873 11.2815C13.5671 9.57589 12.983 7.39911 11.2811 6.41297C10.7423 6.10101 10.1305 5.9371 9.50785 5.93799H18.3029C18.7652 7.06867 19.0019 8.27883 18.9996 9.50034Z" fill="#FFC107"/>
<path d="M12.5877 11.2817L8.31288 18.9209H8.30498C3.10292 18.2637 -0.581355 13.5138 0.0758968 8.31171C0.288635 6.62794 0.948819 5.03198 1.98776 3.68994L6.38922 11.2421L6.41297 11.2817C7.3945 12.9868 9.57243 13.5734 11.2775 12.5919C11.8222 12.2783 12.2742 11.8263 12.5877 11.2817Z" fill="#4CAF50"/>
<path d="M12.5875 11.2815C11.6059 12.9866 9.428 13.5732 7.7229 12.5917C7.17827 12.2782 6.72626 11.8262 6.41273 11.2815L6.38898 11.2419C5.42711 9.52567 6.03872 7.35461 7.75499 6.39275C8.28809 6.09399 8.88905 5.9374 9.5001 5.93799H9.508C10.1306 5.9371 10.7424 6.10101 11.2813 6.41297C12.9832 7.39914 13.5672 9.57591 12.5875 11.2815Z" fill="#F44336"/>
<path d="M12.5875 11.2815C11.6059 12.9866 9.428 13.5732 7.7229 12.5917C7.17827 12.2782 6.72626 11.8262 6.41273 11.2815L6.38898 11.2419C5.42711 9.52567 6.03872 7.35461 7.75499 6.39275C8.28809 6.09399 8.88905 5.9374 9.5001 5.93799H9.508C10.1306 5.9371 10.7424 6.10101 11.2813 6.41297C12.9832 7.39914 13.5672 9.57591 12.5875 11.2815Z" fill="#2196F3"/>
<path d="M9.48768 13.4583C8.79755 13.4582 8.11959 13.2764 7.52205 12.9311C6.91953 12.5826 6.41913 12.0819 6.07099 11.4792C4.97798 9.58607 5.62662 7.16531 7.51978 6.0723C8.12215 5.72453 8.80557 5.54162 9.50115 5.54199C11.6872 5.54029 13.4607 7.31107 13.4624 9.49708C13.4629 10.1929 13.28 10.8766 12.9321 11.4792C12.2187 12.7056 10.9065 13.4596 9.48768 13.4583ZM9.50824 6.33361C8.37226 6.32756 7.32055 6.93216 6.75414 7.91689C5.87973 9.43311 6.40002 11.3711 7.91624 12.2455C9.43246 13.1199 11.3705 12.5997 12.2449 11.0834C13.1193 9.56892 12.6004 7.63231 11.0859 6.75786C10.6064 6.48104 10.0627 6.33476 9.50902 6.33365H9.50824V6.33361Z" fill="#FAFAFA"/>
</g>
<defs>
<clipPath id="clip0_1134_91342">
<rect width="19" height="19" fill="white"/>
</clipPath>
</defs>
</svg>
