<svg width="28" height="28" viewBox="0 0 28 28" fill="none" xmlns="http://www.w3.org/2000/svg">
<circle cx="14" cy="14" r="14" fill="#00A6CA"/>
<path d="M13.8893 16.7976C10.8576 16.8592 9.09523 19.3363 8.9227 21.1356C12.3118 21.1356 15.7009 21.1356 19.09 21.1356C18.8681 19.1638 16.9579 16.736 13.8893 16.7976Z" fill="white"/>
<path d="M14 0C6.27289 0 0 6.27289 0 14C0 21.7271 6.27289 28 14 28C21.7271 28 28 21.7271 28 14C28 6.27289 21.7394 0 14 0ZM14 5.21303C16.2923 5.21303 18.1532 7.07394 18.1408 9.3662C18.1408 11.6461 16.2676 13.4947 14 13.4947C11.7201 13.4947 9.87148 11.6338 9.87148 9.35387C9.87148 7.07394 11.7201 5.21303 14 5.21303ZM20.8275 22.7993C16.2799 22.7993 11.7447 22.7993 7.19718 22.7993C7.03697 20.125 7.93662 17.919 10.1549 16.3539C11.4613 15.4173 12.9401 15.0352 14.5423 15.1708C17.6109 15.4296 20.0757 17.6109 20.6919 20.618C20.8521 21.3327 20.8521 22.0722 20.8275 22.7993Z" fill="white"/>
<path d="M13.9873 11.831C15.3553 11.8433 16.4891 10.7218 16.4891 9.35385C16.4891 7.99821 15.3676 6.86441 14.012 6.86441C12.644 6.86441 11.5225 7.97357 11.5225 9.34153C11.5102 10.6972 12.6317 11.8186 13.9873 11.831Z" fill="white"/>
</svg>
