<svg width="19" height="19" viewBox="0 0 19 19" fill="none" xmlns="http://www.w3.org/2000/svg">
<g clip-path="url(#clip0_1134_91374)">
<path d="M9.48905 0.278809C14.4111 0.278809 18.3844 4.25204 18.3844 9.17411C18.3844 14.0962 14.4111 18.0694 9.48905 18.0694C4.56705 18.0694 0.59375 14.0962 0.59375 9.17411C0.59375 4.25204 4.56698 0.278809 9.48905 0.278809Z" fill="#2394BC"/>
<path d="M11.0301 18.5437C15.5371 17.7728 18.9766 13.9182 18.9766 9.17402L18.9173 9.29264C19.036 8.40308 19.036 7.57287 18.8581 6.92055C18.7988 7.45425 18.7394 7.75076 18.6208 7.86938C18.6208 7.81011 18.6208 7.27635 18.4429 6.56475C18.3836 6.03106 18.265 5.4973 18.0871 5.02288C18.1464 5.26006 18.1464 5.43802 18.1464 5.61592C17.4348 3.77753 15.7743 1.46479 11.5639 1.52407C11.5639 1.52407 13.0464 1.70196 13.6987 2.71008C13.6987 2.71008 12.9872 2.53218 12.4534 2.8287C13.1057 3.06587 13.6987 3.36239 14.1732 3.65891H14.2324C14.3511 3.71819 14.4696 3.83681 14.5882 3.89609C15.4778 4.5484 16.308 5.43796 16.2487 6.56469C16.0115 6.20889 15.7743 5.97165 15.4185 5.91237C15.8336 7.51352 15.8336 8.81815 15.5371 9.82633C15.2999 9.11474 15.1219 8.75888 14.944 8.58098C15.1812 10.7158 14.8848 12.2577 13.9359 13.2658C14.1138 12.6728 14.1731 12.1391 14.1731 11.7239C13.0464 13.3844 11.801 14.2739 10.3778 14.3332C9.84407 14.3332 9.31031 14.2739 8.77662 14.096C8.06502 13.8588 7.41264 13.4437 6.81967 12.8507C7.70923 12.9099 8.59872 12.7914 9.31038 12.3762L10.4964 11.6053C10.6743 11.546 10.7929 11.546 10.9708 11.6053C11.2673 11.546 11.3859 11.4274 11.2673 11.1309C11.1487 10.953 10.9115 10.7751 10.615 10.5972C10.022 10.3007 9.36965 10.36 8.71734 10.7751C8.06502 11.1309 7.47199 11.1309 6.87895 10.7158C6.52315 10.4786 6.10801 10.1228 5.75222 9.64837L5.6336 9.41119C5.57432 9.94489 5.6336 10.5379 5.87077 11.3681C5.6336 10.5972 5.57425 9.94489 5.6336 9.41119C5.6336 8.99605 5.81149 8.6996 6.16729 8.6996H6.04867H6.22657C6.64171 8.75888 7.05678 8.81822 7.59054 8.99612C7.64982 8.5217 7.59054 7.98801 7.23475 7.45425C7.70916 6.97983 8.1243 6.68331 8.4801 6.50541C8.658 6.44613 8.71727 6.26824 8.77662 6.09027C8.89524 5.8531 8.83589 5.73448 8.71734 5.61586C8.36154 5.61586 8.06502 5.61586 7.70923 5.55658C7.59061 5.4973 7.41271 5.37868 7.17553 5.20078L6.64184 4.66709L6.46394 4.54847L6.40466 4.48919L6.46394 4.42991C6.52322 4.01477 6.64184 3.65897 6.81974 3.36246L6.87901 3.30318C7.05691 3.00666 7.41271 2.71014 7.88713 2.35434C6.93829 2.47296 6.10808 2.88804 5.33714 3.5997C4.7441 3.4218 3.97317 3.48108 3.14296 3.83687L3.02433 3.89615L3.14296 3.83687C2.60926 3.5997 2.2534 2.88804 2.0755 1.70203C1.36397 2.35434 1.06745 3.5997 1.06745 5.31947L0.889556 5.61599L0.830279 5.67526C0.711658 5.85316 0.593103 6.0904 0.415139 6.38686C0.177963 6.86127 0.0593428 7.21707 0.0593428 7.57287V7.69149C0.0593428 7.75076 0.0593428 7.86938 0.0593428 7.92866L0.593037 7.51352C0.415139 8.04722 0.237241 8.58098 0.177898 9.11467V9.35185L0 9.17408C0 11.1904 0.652315 13.088 1.71977 14.6298L1.77905 14.6891L1.83833 14.7484C2.60926 15.8159 3.61737 16.7053 4.80345 17.417C5.63366 17.8914 6.52322 18.2472 7.47205 18.4845L7.64995 18.5437C7.82785 18.603 8.06509 18.603 8.24299 18.6624C8.42089 18.6624 8.53951 18.7216 8.7174 18.7216H8.8953H9.19182H9.48834H9.72551H10.1407C10.3778 18.7216 10.6151 18.6624 10.8522 18.6624C10.8522 18.5437 11.0301 18.5437 11.0301 18.5437ZM17.0197 6.97989V7.03917V6.97989Z" fill="#EC8840"/>
</g>
<defs>
<clipPath id="clip0_1134_91374">
<rect width="19" height="19" fill="white"/>
</clipPath>
</defs>
</svg>
