<svg width="11" height="19" viewBox="0 0 11 19" fill="none" xmlns="http://www.w3.org/2000/svg">
<path d="M8.60938 0H1.48438C1.09083 0.000441993 0.71353 0.156973 0.435251 0.435252C0.156973 0.71353 0.000441993 1.09083 0 1.48438V16.9219C0.000441993 17.3154 0.156973 17.6927 0.435251 17.971C0.71353 18.2493 1.09083 18.4058 1.48438 18.4062H8.60938C9.00292 18.4058 9.38022 18.2493 9.6585 17.971C9.93678 17.6927 10.0933 17.3154 10.0938 16.9219V1.48438C10.0933 1.09083 9.93678 0.71353 9.6585 0.435252C9.38022 0.156973 9.00292 0.000441993 8.60938 0ZM7.05976 0.59375L6.88164 1.48438H3.21215L3.03403 0.59375H7.05976ZM9.5 16.9219C9.49973 17.158 9.40582 17.3844 9.23885 17.5513C9.07188 17.7183 8.8455 17.8122 8.60938 17.8125H1.48438C1.24825 17.8122 1.02187 17.7183 0.854901 17.5513C0.687934 17.3844 0.594015 17.158 0.59375 16.9219V1.48438C0.594015 1.24825 0.687934 1.02187 0.854901 0.854901C1.02187 0.687934 1.24825 0.594015 1.48438 0.59375H2.42847L2.67763 1.83947C2.69109 1.90677 2.72745 1.96733 2.78053 2.01084C2.8336 2.05435 2.90012 2.07813 2.96875 2.07812H7.125C7.19363 2.07813 7.26015 2.05435 7.31322 2.01084C7.3663 1.96733 7.40266 1.90677 7.41612 1.83947L7.66528 0.59375H8.60938C8.8455 0.594015 9.07188 0.687934 9.23885 0.854901C9.40582 1.02187 9.49973 1.24825 9.5 1.48438V16.9219Z" fill="black"/>
<path d="M4.26562 16.625H2.48438C2.40564 16.625 2.33013 16.6563 2.27445 16.712C2.21878 16.7676 2.1875 16.8431 2.1875 16.9219C2.1875 17.0006 2.21878 17.0761 2.27445 17.1318C2.33013 17.1875 2.40564 17.2188 2.48438 17.2188H4.26562C4.34436 17.2188 4.41987 17.1875 4.47555 17.1318C4.53122 17.0761 4.5625 17.0006 4.5625 16.9219C4.5625 16.8431 4.53122 16.7676 4.47555 16.712C4.41987 16.6563 4.34436 16.625 4.26562 16.625Z" fill="black"/>
<path d="M5.45312 16.625H5.15625C5.07751 16.625 5.002 16.6563 4.94633 16.712C4.89065 16.7676 4.85938 16.8431 4.85938 16.9219C4.85938 17.0006 4.89065 17.0761 4.94633 17.1318C5.002 17.1875 5.07751 17.2188 5.15625 17.2188H5.45312C5.53186 17.2188 5.60737 17.1875 5.66305 17.1318C5.71872 17.0761 5.75 17.0006 5.75 16.9219C5.75 16.8431 5.71872 16.7676 5.66305 16.712C5.60737 16.6563 5.53186 16.625 5.45312 16.625Z" fill="black"/>
</svg>
