<svg width="40" height="40" viewBox="0 0 40 40" fill="none" xmlns="http://www.w3.org/2000/svg">
<path d="M1.42793 8.21486C1.56839 7.80947 1.71206 7.40726 2.03051 7.09372C2.48085 6.65033 3.02125 6.42969 3.65815 6.42969C5.97844 6.43074 8.2998 6.42969 10.6201 6.42969C15.1159 6.42969 19.6117 6.42969 24.1086 6.42969C25.6355 6.42969 26.5211 7.29852 26.5222 8.79443C26.5222 10.2703 26.5297 11.7461 26.5158 13.2209C26.5136 13.4944 26.578 13.5788 26.8696 13.5767C28.7063 13.563 30.5441 13.5809 32.3808 13.5651C33.4391 13.5567 34.1661 14.0106 34.6325 14.9396C35.8162 17.2927 37.0118 19.6406 38.2148 21.9842C38.455 22.4519 38.5815 22.9196 38.5686 23.4516C38.5408 24.6414 38.559 25.8312 38.5601 27.022C38.5611 27.9531 38.1569 28.6446 37.3088 29.0679C37.179 29.1323 37.1061 29.1935 37.1029 29.354C37.0836 30.378 36.7223 31.2806 36.0607 32.0671C36.1304 32.1854 36.2376 32.1326 36.3234 32.1336C36.8188 32.14 37.3152 32.1284 37.8095 32.14C38.247 32.1495 38.5579 32.4567 38.5558 32.8536C38.5536 33.2495 38.2427 33.543 37.8031 33.5641C37.7312 33.5673 37.6583 33.5652 37.5854 33.5652C25.8607 33.5652 14.137 33.563 2.41223 33.5725C1.96725 33.5725 1.63915 33.4533 1.42578 33.0658V32.6372C1.63808 32.2487 1.96404 32.122 2.41115 32.1294C3.75143 32.1516 5.09278 32.1368 6.43306 32.1368H6.88125C6.19074 31.3144 5.82404 30.4403 5.78329 29.448C5.77471 29.2284 5.62139 29.2833 5.50237 29.2822C4.86225 29.278 4.22214 29.2864 3.58202 29.278C2.94512 29.2696 2.41437 29.0215 1.98012 28.5633C1.69169 28.2582 1.55981 27.8771 1.42578 27.4949V8.21486H1.42793ZM14.0137 7.85804C10.6308 7.85804 7.24688 7.85804 3.86401 7.85804C3.10166 7.85804 2.87864 8.07973 2.87864 8.84194C2.87864 11.6976 2.87864 14.5522 2.87864 17.4078C2.87864 18.871 2.88722 20.3342 2.87114 21.7974C2.86792 22.0845 2.95477 22.1563 3.23355 22.1458C3.80075 22.1246 4.36903 22.1363 4.93731 22.1405C5.50666 22.1447 5.77686 22.4118 5.779 22.9776C5.78329 23.8465 5.78329 24.7142 5.779 25.5831C5.77686 26.1489 5.50559 26.4192 4.93945 26.4234C4.34759 26.4276 3.75465 26.4329 3.16385 26.4202C2.94941 26.416 2.84326 26.4635 2.87757 26.6937C2.89151 26.7866 2.87971 26.8837 2.87971 26.9787C2.884 27.591 3.14241 27.8496 3.75894 27.8518C4.39905 27.8549 5.04024 27.8423 5.68036 27.857C5.92697 27.8623 6.04492 27.7937 6.15964 27.5572C6.94773 25.9283 8.26978 25.0225 10.1043 25.0109C11.9561 24.9993 13.2931 25.903 14.0952 27.5414C14.2163 27.7874 14.3364 27.8591 14.6002 27.8581C17.9594 27.8486 21.3187 27.8486 24.678 27.8581C24.9825 27.8581 25.0812 27.8064 25.0812 27.477C25.0694 21.2547 25.0726 15.0325 25.0726 8.81133C25.0726 8.08395 24.8388 7.85804 24.0926 7.85804C20.7333 7.85804 17.374 7.85804 14.0147 7.85804H14.0137ZM33.7554 16.4271C33.5871 16.0903 33.4402 15.819 33.3126 15.5382C33.14 15.1571 32.8601 14.9913 32.4291 14.9934C30.5795 15.0051 28.7299 15.0072 26.8814 14.9903C26.5619 14.9871 26.5147 15.0916 26.5158 15.3724C26.5265 17.8596 26.5222 20.3469 26.5222 22.8341C26.5222 24.3933 26.5308 25.9526 26.5147 27.5108C26.5115 27.8021 26.6037 27.8697 26.8793 27.857C27.3618 27.8359 27.8464 27.838 28.3289 27.857C28.5691 27.8665 28.6752 27.7905 28.7803 27.5688C29.5319 25.9874 30.8047 25.0858 32.5749 25.013C34.3945 24.9381 35.7444 25.771 36.6354 27.3334C36.6976 27.4422 36.6847 27.6691 36.8713 27.6258C37.0214 27.5899 37.0675 27.3968 37.0975 27.2437C37.1158 27.1518 37.1093 27.0537 37.1093 26.9586C37.1093 25.9473 37.0965 24.9349 37.1179 23.9235C37.1244 23.6142 37.0246 23.5583 36.733 23.5604C34.1704 23.572 31.6078 23.5667 29.0452 23.5667C28.167 23.5667 27.9719 23.3777 27.9719 22.5279C27.9719 20.8378 27.9719 19.1476 27.9719 17.4585C27.9719 16.6224 28.1702 16.426 29.0162 16.426C30.5741 16.426 32.1332 16.426 33.7544 16.426L33.7554 16.4271ZM13.4046 32.1041H29.488C28.8522 31.3619 28.4951 30.5512 28.4286 29.6369C28.4072 29.3413 28.3278 29.2738 28.0341 29.2738C23.6347 29.2843 19.2354 29.2812 14.8361 29.2812C14.776 29.2812 14.7149 29.2854 14.6549 29.2812C14.5369 29.2738 14.4812 29.3149 14.4758 29.4406C14.4318 30.435 14.0716 31.3113 13.4036 32.1041H13.4046ZM36.6494 22.1405C36.5743 21.9832 36.5314 21.8871 36.4832 21.7932C35.842 20.5284 35.1986 19.2648 34.5628 17.9979C34.4845 17.8417 34.3634 17.8565 34.2315 17.8565C32.7336 17.8565 31.2357 17.8628 29.7378 17.8512C29.4826 17.8491 29.4151 17.9188 29.4183 18.1679C29.4312 19.3809 29.4354 20.5949 29.4161 21.8079C29.4108 22.1099 29.5234 22.15 29.7871 22.1479C31.1639 22.1363 32.5417 22.1426 33.9184 22.1426C34.8116 22.1426 35.7047 22.1426 36.6504 22.1426L36.6494 22.1405ZM13.0304 29.3012C13.0401 27.7251 11.7406 26.4297 10.1429 26.4255C8.55606 26.4202 7.24795 27.686 7.23079 29.2421C7.21364 30.8204 8.50566 32.1231 10.1001 32.1368C11.702 32.1495 13.0208 30.8742 13.0304 29.3023V29.3012ZM29.859 29.2685C29.8536 30.8446 31.1574 32.1347 32.7561 32.1347C34.3398 32.1347 35.6458 30.8636 35.6586 29.3076C35.6726 27.7314 34.3752 26.4319 32.7786 26.4234C31.1757 26.415 29.8643 27.6924 29.859 29.2674V29.2685ZM4.32936 24.2751C4.32936 23.8035 4.09454 23.5678 3.62491 23.5678H3.58845C3.11525 23.5678 2.87864 23.8021 2.87864 24.2709C2.87864 24.7544 3.11954 24.9961 3.60132 24.9961C4.08311 24.9961 4.32579 24.7558 4.32936 24.2751Z" fill="#00A6CA"/>
<path d="M16.8722 12.1426C15.4 12.1426 13.9268 12.1405 12.4546 12.1447C12.2037 12.1447 11.971 12.111 11.793 11.922C11.5968 11.7151 11.5271 11.4723 11.6279 11.1988C11.733 10.9149 11.9442 10.7502 12.2466 10.7227C12.4621 10.7027 12.6808 10.7143 12.8974 10.7143C15.637 10.7143 18.3776 10.7143 21.1171 10.7143C21.2254 10.7143 21.3348 10.7101 21.4431 10.7164C21.8601 10.7417 22.1614 11.0331 22.1689 11.4142C22.1765 11.809 21.8677 12.131 21.4355 12.1374C20.6271 12.149 19.8186 12.1416 19.0091 12.1416C18.2972 12.1416 17.5852 12.1416 16.8732 12.1416L16.8722 12.1426Z" fill="#00A6CA"/>
<path d="M18.324 13.5713C19.3137 13.5713 20.3023 13.5691 21.2919 13.5713C21.8377 13.5723 22.1787 13.8595 22.1679 14.3007C22.1572 14.7293 21.828 14.9975 21.2962 14.9985C19.318 15.0007 17.3397 15.0007 15.3615 14.9985C14.8136 14.9985 14.4769 14.7135 14.4865 14.2691C14.4962 13.8383 14.8232 13.5723 15.3572 13.5713C16.3468 13.5691 17.3354 13.5713 18.3251 13.5713H18.324Z" fill="#00A6CA"/>
<path d="M10.1227 30.7062C9.32607 30.7019 8.67737 30.0559 8.68166 29.2704C8.68595 28.485 9.34108 27.8474 10.1388 27.8516C10.9355 27.8558 11.5842 28.5019 11.5799 29.2863C11.5756 30.0696 10.9183 30.7093 10.1217 30.7051L10.1227 30.7062Z" fill="#00A6CA"/>
<path d="M32.7753 30.7052C31.9775 30.7125 31.3181 30.077 31.3106 29.2937C31.3031 28.5062 31.9464 27.859 32.7431 27.8516C33.5408 27.8442 34.2003 28.4798 34.2088 29.2631C34.2174 30.0475 33.5698 30.6978 32.7753 30.7062V30.7052Z" fill="#00A6CA"/>
</svg>
