<svg width="41" height="40" viewBox="0 0 41 40" fill="none" xmlns="http://www.w3.org/2000/svg">
<path d="M20.3161 37.144C19.1764 36.3978 18.0323 35.6572 16.8991 34.9022C16.6642 34.7456 16.4413 34.682 16.1536 34.7028C14.9151 34.7905 13.6744 34.8475 12.4347 34.9198C12.0142 34.945 11.7419 34.7598 11.5563 34.3873C10.9942 33.2587 10.4144 32.139 9.85008 31.0126C9.76004 30.834 9.64475 30.7135 9.46358 30.6226C8.34364 30.066 7.23357 29.4885 6.11034 28.9374C5.69639 28.7347 5.51193 28.4466 5.54268 27.9831C5.62393 26.7242 5.68212 25.4641 5.75678 24.2041C5.76886 24.0047 5.72604 23.8415 5.61405 23.6738C4.93769 22.6614 4.28878 21.6315 3.59485 20.6322C3.27204 20.1666 3.28631 19.7831 3.60583 19.324C4.30085 18.3248 4.95416 17.297 5.63161 16.2868C5.73702 16.129 5.77874 15.9778 5.76667 15.7883C5.68981 14.5513 5.6371 13.3132 5.54926 12.0772C5.51193 11.5623 5.6953 11.2391 6.16304 11.0134C7.26871 10.4787 8.35791 9.90892 9.45919 9.36327C9.65134 9.26795 9.77322 9.13976 9.86764 8.95021C10.4144 7.85234 10.9733 6.75887 11.5278 5.66429C11.8012 5.12522 11.9802 5.0288 12.5917 5.06496C13.8533 5.13947 15.116 5.2063 16.3776 5.28519C16.539 5.29505 16.6554 5.23369 16.7784 5.15261C17.8324 4.45686 18.8931 3.77097 19.9373 3.06207C20.3336 2.79254 20.6795 2.79144 21.0759 3.06098C22.1113 3.7633 23.1643 4.44152 24.2051 5.13508C24.372 5.24684 24.5312 5.28957 24.7355 5.27752C26.0201 5.19863 27.3048 5.13508 28.5894 5.06277C28.9957 5.03976 29.268 5.21288 29.4491 5.57335C30.019 6.70956 30.6009 7.84029 31.1686 8.97869C31.2586 9.15948 31.3794 9.27453 31.5584 9.36437C32.6783 9.92207 33.7939 10.4885 34.9094 11.055C35.3969 11.3026 35.499 11.5042 35.4661 12.0422C35.387 13.3121 35.3212 14.583 35.241 15.854C35.23 16.0271 35.2981 16.152 35.3848 16.2846C36.0678 17.3189 36.742 18.3587 37.4337 19.3876C37.7104 19.7995 37.7192 20.1753 37.4392 20.5895C36.7573 21.5975 36.0996 22.622 35.4167 23.6289C35.2685 23.848 35.2223 24.0584 35.2388 24.3148C35.3157 25.5408 35.3706 26.7669 35.4518 27.993C35.4815 28.4411 35.3157 28.7292 34.9116 28.9287C33.7796 29.4864 32.6585 30.066 31.5287 30.6291C31.3585 30.7135 31.2465 30.8242 31.162 30.994C30.5976 32.1214 30.0157 33.239 29.4579 34.3698C29.2515 34.7872 28.9506 34.9505 28.4906 34.9198C27.207 34.8332 25.9224 34.7686 24.6378 34.6908C24.5071 34.6831 24.4006 34.7105 24.293 34.7828C23.1039 35.5717 21.9126 36.3584 20.7223 37.1451H20.3194L20.3161 37.144ZM26.1804 33.3497C26.7942 33.3858 27.4102 33.411 28.0228 33.4603C28.249 33.4779 28.3577 33.4034 28.4576 33.2018C28.9649 32.1707 29.4952 31.1518 30.0058 30.1229C30.1518 29.8293 30.3528 29.6222 30.6503 29.4765C31.6627 28.9802 32.6607 28.452 33.6786 27.9667C33.9662 27.8297 34.0233 27.6664 34.0025 27.3761C33.9234 26.2399 33.8751 25.1026 33.8037 23.9664C33.784 23.6486 33.8663 23.3835 34.0442 23.1205C34.681 22.1771 35.2948 21.2173 35.9393 20.2783C36.0952 20.0526 36.0744 19.9069 35.9294 19.6943C35.3025 18.7707 34.6997 17.8306 34.0727 16.907C33.8751 16.6155 33.7818 16.3219 33.8048 15.968C33.8784 14.8537 33.9212 13.7383 34.0025 12.6251C34.0255 12.3172 33.9575 12.1507 33.6632 12.0104C32.6552 11.5294 31.6671 11.0079 30.6646 10.5159C30.3572 10.3647 30.1474 10.1511 29.997 9.84646C29.5084 8.85598 28.9902 7.88083 28.5147 6.88487C28.3698 6.58027 28.1974 6.50138 27.8735 6.52549C26.747 6.60876 25.6183 6.65478 24.4906 6.72709C24.1722 6.74791 23.9065 6.66026 23.6441 6.48385C22.6888 5.84179 21.7193 5.22164 20.7663 4.57629C20.5653 4.44043 20.4292 4.45138 20.2359 4.58177C19.2818 5.22493 18.3145 5.84836 17.3592 6.49043C17.0957 6.66683 16.8267 6.74572 16.5094 6.726C15.3367 6.65259 14.1641 6.5978 12.9914 6.52111C12.7685 6.50686 12.6576 6.57041 12.5577 6.77421C12.0449 7.81509 11.5091 8.84393 10.9942 9.88262C10.8525 10.1675 10.6549 10.3614 10.3694 10.5028C9.32743 11.0166 8.29643 11.5513 7.25444 12.0641C7.06448 12.1572 6.9997 12.2624 7.01288 12.4717C7.08644 13.6298 7.14134 14.7901 7.21601 15.9483C7.23797 16.2879 7.16221 16.575 6.97006 16.8598C6.32444 17.812 5.70408 18.7806 5.05737 19.7305C4.91902 19.9332 4.9322 20.0669 5.06395 20.2608C5.67224 21.1571 6.24758 22.0752 6.86904 22.9616C7.15781 23.3736 7.24236 23.7911 7.20393 24.2808C7.12048 25.3491 7.08205 26.4207 7.01288 27.49C6.99861 27.7103 7.05899 27.8242 7.26542 27.925C8.3096 28.4334 9.34171 28.967 10.3848 29.4776C10.6714 29.6178 10.8657 29.8161 11.0063 30.0999C11.5102 31.12 12.0384 32.128 12.5357 33.1514C12.6587 33.4056 12.8091 33.4702 13.076 33.4516C14.2365 33.3738 15.3993 33.3201 16.5599 33.2489C16.8421 33.2314 17.0814 33.3059 17.3153 33.4614C18.2727 34.1002 19.2401 34.7237 20.192 35.3701C20.416 35.5224 20.573 35.541 20.808 35.38C21.749 34.7368 22.7108 34.1243 23.6562 33.4888C23.9197 33.3113 24.1898 33.2292 24.506 33.2522C25.0638 33.2927 25.6226 33.3157 26.1815 33.3464L26.1804 33.3497Z" fill="#00A6CA"/>
<path d="M9.79883 19.9745C9.83945 14.0634 14.6344 9.29284 20.5152 9.31256C26.4399 9.33228 31.2634 14.1708 31.2019 20.0315C31.1393 25.9426 26.3565 30.688 20.4921 30.6617C14.5696 30.6354 9.83067 25.8846 9.79883 19.9745ZM29.7778 19.9767C29.7657 14.8808 25.5912 10.7249 20.4965 10.7369C15.3876 10.7479 11.2273 14.9092 11.2394 19.9953C11.2515 25.0979 15.415 29.245 20.5152 29.234C25.6252 29.2231 29.7899 25.0606 29.7778 19.9767Z" fill="#00A6CA"/>
<path d="M19.2571 23.3622C18.9277 23.3666 18.7378 23.2581 18.5764 23.0937C17.631 22.1274 16.6845 21.1632 15.7469 20.1913C15.401 19.833 15.3889 19.4167 15.6865 19.1219C15.9961 18.8152 16.4144 18.8436 16.7801 19.2151C17.5014 19.947 18.2228 20.6789 18.9277 21.4261C19.1133 21.6234 19.2132 21.6442 19.4207 21.4459C21.004 19.9349 22.6016 18.4382 24.1937 16.9361C24.3759 16.7641 24.5659 16.614 24.8338 16.6172C25.1149 16.6216 25.3279 16.7443 25.4629 16.9898C25.5925 17.2242 25.5826 17.4631 25.4366 17.6866C25.3707 17.7885 25.2851 17.8805 25.1961 17.9638C23.3998 19.6566 21.6024 21.3483 19.805 23.0401C19.6227 23.211 19.4361 23.3666 19.256 23.3633L19.2571 23.3622Z" fill="#00A6CA"/>
</svg>
