<svg width="25" height="24" viewBox="0 0 25 24" fill="none" xmlns="http://www.w3.org/2000/svg">
<path d="M24.4225 12C24.4225 18.3489 19.2485 23.5 12.8607 23.5C6.47282 23.5 1.29883 18.3489 1.29883 12C1.29883 5.65115 6.47282 0.5 12.8607 0.5C19.2485 0.5 24.4225 5.65115 24.4225 12Z" stroke="#00A6CA"/>
<path d="M14.1918 10C14.1918 9.264 13.5998 8.896 12.4158 8.896C11.9598 8.896 11.5638 9.016 11.2278 9.256C10.8998 9.496 10.6598 9.828 10.5078 10.252L9.19984 9.88C9.35984 9.12 9.73184 8.536 10.3158 8.128C10.8998 7.712 11.5918 7.504 12.3918 7.504C12.7998 7.504 13.1838 7.54 13.5438 7.612C13.9038 7.684 14.2518 7.8 14.5878 7.96C14.9238 8.12 15.1878 8.356 15.3798 8.668C15.5798 8.972 15.6798 9.336 15.6798 9.76C15.6798 10.304 15.5438 10.756 15.2718 11.116C15.0078 11.468 14.6158 11.76 14.0958 11.992C13.6958 12.184 13.4318 12.316 13.3038 12.388C13.1598 12.476 13.0558 12.56 12.9918 12.64C12.8958 12.76 12.8478 12.888 12.8478 13.024C12.8478 13.056 12.8558 13.128 12.8718 13.24C12.8878 13.352 12.8958 13.416 12.8958 13.432L11.5878 13.444C11.5318 13.268 11.5038 13.052 11.5038 12.796C11.5038 12.292 11.7558 11.88 12.2598 11.56C12.4998 11.416 12.8198 11.248 13.2198 11.056C13.4118 10.96 13.5638 10.876 13.6758 10.804C13.7878 10.732 13.8998 10.624 14.0118 10.48C14.1318 10.328 14.1918 10.168 14.1918 10ZM11.2158 15.124C11.2158 14.876 11.3158 14.668 11.5158 14.5C11.7158 14.332 11.9398 14.248 12.1878 14.248C12.4278 14.248 12.6478 14.336 12.8478 14.512C13.0478 14.68 13.1478 14.884 13.1478 15.124C13.1478 15.372 13.0518 15.584 12.8598 15.76C12.6678 15.936 12.4438 16.024 12.1878 16.024C11.9318 16.024 11.7038 15.94 11.5038 15.772C11.3118 15.596 11.2158 15.38 11.2158 15.124Z" fill="#00A6CA"/>
</svg>
