<svg width="50" height="50" viewBox="0 0 50 50" fill="none" xmlns="http://www.w3.org/2000/svg">
<g clip-path="url(#clip0_294_77481)">
<path d="M24.9991 49.9591C38.7841 49.9591 49.9591 38.7841 49.9591 24.9991C49.9591 11.214 38.7841 0.0390625 24.9991 0.0390625C11.214 0.0390625 0.0390625 11.214 0.0390625 24.9991C0.0390625 38.7841 11.214 49.9591 24.9991 49.9591Z" fill="#7B59E9"/>
<path d="M35.8255 13.7303C29.75 12.2629 23.6638 10.5465 17.4334 12.7272C13.3994 14.2399 13.3994 18.61 13.5675 22.3078C13.5675 23.3163 12.391 24.661 12.8951 25.8375C13.9036 29.1991 14.744 32.5607 18.2737 34.2415C18.778 34.5777 18.2737 35.25 18.6099 35.7542C18.4418 35.7542 18.1056 35.9223 18.1056 36.0904C18.1056 36.8961 18.4672 38.1284 18.227 38.9228L28.9526 49.6439C39.9789 47.8879 48.5967 38.9123 49.8092 27.7141L35.8255 13.7303Z" fill="#7B59E9"/>
<path d="M38.2021 17.5803L38.1939 17.5474C37.527 14.8512 34.5203 11.9582 31.7591 11.3563L31.728 11.3499C27.2619 10.4979 22.7335 10.4979 18.2684 11.3499L18.2363 11.3563C15.4761 11.9582 12.4693 14.8514 11.8015 17.5474L11.7941 17.5803C10.9697 21.3455 10.9697 25.164 11.7941 28.9292L11.8015 28.9621C12.4409 31.5431 15.2237 34.3034 17.8818 35.0624V38.072C17.8818 39.1614 19.2093 39.6964 19.9641 38.9102L23.0135 35.7406C23.6749 35.7776 24.3366 35.7982 24.9982 35.7982C27.2462 35.7982 29.4954 35.5856 31.7279 35.1597L31.759 35.1533C34.5202 34.5514 37.5269 31.6582 38.1938 28.9622L38.202 28.9293C39.0265 25.164 39.0265 21.3457 38.2021 17.5803ZM35.7889 28.3833C35.3436 30.1422 33.0607 32.329 31.2468 32.733C28.8722 33.1846 26.4787 33.3776 24.0876 33.3114C24.04 33.31 23.9943 33.3286 23.9613 33.3627C23.6219 33.7109 21.7348 35.6483 21.7348 35.6483L19.3668 38.0787C19.1936 38.2593 18.8894 38.1364 18.8894 37.8873V32.9015C18.8894 32.8191 18.8306 32.7492 18.7497 32.7332C18.7492 32.733 18.7488 32.733 18.7483 32.7329C16.9344 32.3289 14.6523 30.1422 14.2063 28.3832C13.4642 24.9798 13.4642 21.5297 14.2063 18.1263C14.6523 16.3674 16.9344 14.1806 18.7483 13.7766C22.8956 12.9878 27.1006 12.9878 31.2469 13.7766C33.0617 14.1806 35.3437 16.3674 35.789 18.1263C36.5318 21.5298 36.5318 24.9799 35.7889 28.3833Z" fill="white"/>
<path d="M28.9431 30.6831C28.6642 30.5984 28.3985 30.5415 28.1516 30.4393C25.594 29.3782 23.2404 28.0093 21.3761 25.911C20.3159 24.7178 19.4861 23.3706 18.7847 21.945C18.452 21.2689 18.1717 20.5664 17.8859 19.8683C17.6254 19.2318 18.0091 18.5743 18.4132 18.0946C18.7924 17.6444 19.2803 17.3001 19.8088 17.0461C20.2212 16.848 20.628 16.9622 20.9293 17.3118C21.5804 18.0676 22.1786 18.862 22.6628 19.7381C22.9607 20.277 22.879 20.9357 22.3391 21.3024C22.2079 21.3915 22.0883 21.4963 21.9662 21.5969C21.8589 21.6851 21.7581 21.7742 21.6846 21.8937C21.5503 22.1122 21.5439 22.3701 21.6303 22.6077C22.2959 24.4369 23.4179 25.8594 25.2591 26.6256C25.5538 26.7482 25.8496 26.8908 26.1891 26.8514C26.7575 26.785 26.9416 26.1613 27.34 25.8356C27.7293 25.5173 28.2269 25.5131 28.6463 25.7785C29.0658 26.0441 29.4724 26.3289 29.8766 26.6171C30.2735 26.8998 30.6684 27.1762 31.0344 27.4987C31.3863 27.8086 31.5075 28.2152 31.3093 28.6357C30.9466 29.406 30.4186 30.0467 29.6573 30.4558C29.4423 30.5711 29.1855 30.6084 28.9431 30.6831C29.1855 30.6084 28.6642 30.5984 28.9431 30.6831Z" fill="white"/>
<path d="M25.0052 16.1654C28.3503 16.2592 31.098 18.4792 31.6868 21.7864C31.7871 22.3499 31.8228 22.9259 31.8675 23.498C31.8863 23.7385 31.75 23.967 31.4904 23.9703C31.2223 23.9735 31.1017 23.749 31.0841 23.5087C31.0497 23.0327 31.0258 22.5545 30.9602 22.0826C30.614 19.5906 28.6269 17.5289 26.1465 17.0866C25.7732 17.02 25.3914 17.0025 25.0132 16.9628C24.7742 16.9378 24.4612 16.9233 24.4083 16.6262C24.3639 16.3771 24.5741 16.1787 24.8114 16.166C24.8756 16.1622 24.9405 16.1652 25.0052 16.1654C28.3505 16.2592 24.9405 16.1652 25.0052 16.1654Z" fill="white"/>
<path d="M30.088 22.7566C30.0824 22.7984 30.0796 22.8966 30.055 22.989C29.9663 23.3248 29.457 23.3668 29.3399 23.028C29.3051 22.9275 29.2999 22.813 29.2997 22.7048C29.2985 21.9964 29.1446 21.2885 28.7872 20.672C28.4199 20.0384 27.8587 19.5059 27.2007 19.1835C26.8027 18.9887 26.3724 18.8675 25.9362 18.7955C25.7456 18.7639 25.553 18.7448 25.3614 18.7181C25.1292 18.6859 25.0052 18.538 25.0163 18.3092C25.0266 18.0949 25.1832 17.9406 25.4168 17.9539C26.1845 17.9974 26.926 18.1636 27.6086 18.5249C28.9965 19.2599 29.7893 20.42 30.0208 21.9692C30.0312 22.0395 30.048 22.1089 30.0534 22.1793C30.0664 22.353 30.0747 22.5271 30.088 22.7566C30.0824 22.7982 30.0747 22.5271 30.088 22.7566Z" fill="white"/>
<path d="M28.0069 22.6751C27.7271 22.6802 27.5773 22.5252 27.5484 22.2688C27.5284 22.0899 27.5124 21.9086 27.4697 21.7345C27.3856 21.3916 27.2034 21.0739 26.915 20.8638C26.7789 20.7646 26.6246 20.6924 26.463 20.6456C26.2578 20.5862 26.0444 20.6026 25.8398 20.5525C25.6174 20.498 25.4943 20.3178 25.5293 20.1092C25.5611 19.9193 25.7458 19.7711 25.9534 19.7862C27.2503 19.8798 28.1772 20.5503 28.3096 22.0772C28.319 22.1849 28.3299 22.2987 28.306 22.4019C28.2649 22.5781 28.1342 22.6666 28.0069 22.6751C28.1342 22.6666 27.727 22.6801 28.0069 22.6751Z" fill="white"/>
<path d="M38.2052 17.5799L38.197 17.5469C37.8232 16.0356 36.7138 14.4625 35.3248 13.2656L33.4471 14.9298C34.5637 15.8194 35.5203 17.0519 35.7922 18.1258C36.5351 21.5292 36.5351 24.9793 35.7922 28.3828C35.3469 30.1418 33.0639 32.3285 31.2501 32.7326C28.8755 33.1842 26.482 33.3771 24.0909 33.3109C24.0433 33.3096 23.9976 33.3281 23.9645 33.3622C23.6251 33.7105 21.7381 35.6478 21.7381 35.6478L19.37 38.0783C19.1969 38.2589 18.8927 38.1361 18.8927 37.8868V32.9011C18.8927 32.8187 18.8339 32.7488 18.753 32.7328C18.7525 32.7328 18.7521 32.7326 18.7516 32.7326C17.7207 32.503 16.5391 31.6973 15.6289 30.722L13.7734 32.3662C14.9322 33.6267 16.4268 34.6458 17.8848 35.0621V38.0718C17.8848 39.1611 19.2123 39.6961 19.9671 38.91L23.0164 35.7403C23.6779 35.7773 24.3394 35.798 25.0011 35.798C27.2492 35.798 29.4983 35.5853 31.7309 35.1594L31.762 35.1531C34.5232 34.5512 37.5299 31.6582 38.1968 28.9621L38.205 28.9291C39.0295 25.1635 39.0295 21.3453 38.2052 17.5799Z" fill="white"/>
<path d="M28.9439 30.6848C28.665 30.6001 29.1863 30.6102 28.9439 30.6848V30.6848Z" fill="white"/>
<path d="M31.0362 27.5024C30.6703 27.1801 30.2751 26.9035 29.8785 26.6208C29.4742 26.3327 29.0676 26.0478 28.6481 25.7822C28.2288 25.5168 27.7312 25.521 27.3418 25.8393C26.9434 26.1651 26.7594 26.7887 26.1909 26.8551C25.8515 26.8945 25.5556 26.7518 25.2609 26.6293C24.1281 26.158 23.2685 25.4373 22.6189 24.5273L21.2383 25.751C21.2852 25.8053 21.3299 25.861 21.3776 25.9147C23.242 28.013 25.5958 29.3819 28.1531 30.443C28.3999 30.5453 28.6657 30.6023 28.9446 30.6868C28.6657 30.6021 29.1872 30.6122 28.9446 30.6868C29.1872 30.6122 29.4438 30.5747 29.659 30.4594C30.4206 30.0503 30.9483 29.4096 31.311 28.6393C31.5093 28.2189 31.3881 27.8123 31.0362 27.5024Z" fill="white"/>
<path d="M25.0039 16.168C25.0067 16.168 25.0095 16.1683 25.0123 16.1683C25.1979 16.1749 28.2173 16.2581 25.0039 16.168Z" fill="white"/>
<path d="M29.8035 18.1562L29.2148 18.678C30.1398 19.5779 30.7777 20.7706 30.96 22.0832C31.0255 22.5553 31.0496 23.0333 31.084 23.5093C31.1015 23.7498 31.222 23.9742 31.4903 23.971C31.7499 23.9678 31.8862 23.7394 31.8673 23.4988C31.8226 22.9268 31.787 22.3506 31.6867 21.7871C31.429 20.3395 30.7575 19.1001 29.8035 18.1562Z" fill="white"/>
<path d="M30.0212 21.9667C29.8526 20.8378 29.3843 19.9166 28.6065 19.2148L28.0195 19.735C28.323 20.0044 28.5856 20.3208 28.7878 20.6697C29.1452 21.2862 29.2991 21.9941 29.3003 22.7025C29.3005 22.8107 29.3057 22.9252 29.3405 23.0259C29.4578 23.3649 29.9669 23.3229 30.0556 22.9869C30.0802 22.8943 30.083 22.7961 30.0886 22.7545C30.0751 22.5251 30.083 22.7963 30.0886 22.7545C30.0751 22.5251 30.0669 22.3509 30.0538 22.177C30.0486 22.1063 30.0317 22.0369 30.0212 21.9667Z" fill="white"/>
<path d="M30.0933 22.7574C30.08 22.5279 30.0877 22.7991 30.0933 22.7574V22.7574Z" fill="white"/>
<path d="M28.0077 22.6748C28.012 22.6745 28.0161 22.6724 28.0202 22.6719C28.0086 22.6719 27.9909 22.6722 27.9727 22.6728C27.9845 22.6731 27.9953 22.6749 28.0077 22.6748Z" fill="white"/>
<path d="M28.0106 22.6778C27.9981 22.678 27.9869 22.6762 27.9749 22.6758C27.9143 22.6774 27.8518 22.6807 28.0106 22.6778Z" fill="white"/>
<path d="M28.0237 22.6719C28.0196 22.6723 28.0157 22.6744 28.0117 22.6747C28.0425 22.6726 28.0399 22.6719 28.0237 22.6719Z" fill="white"/>
<path d="M27.4178 20.2734L26.8203 20.8031C26.8533 20.823 26.8855 20.8439 26.9168 20.8666C27.2053 21.0767 27.3875 21.3944 27.4715 21.7373C27.5142 21.9114 27.53 22.0926 27.5502 22.2716C27.5778 22.5166 27.7169 22.6673 27.973 22.676C27.9916 22.6755 28.0099 22.6752 28.0215 22.6751C28.1448 22.6614 28.2683 22.575 28.3078 22.4046C28.3317 22.3015 28.3208 22.1876 28.3113 22.0798C28.237 21.2262 27.9143 20.6405 27.4178 20.2734Z" fill="white"/>
</g>
<defs>
<clipPath id="clip0_294_77481">
<rect width="49.92" height="49.92" fill="white" transform="translate(0.0390625 0.0390625)"/>
</clipPath>
</defs>
</svg>
