<svg width="70" height="70" viewBox="0 0 70 70" fill="none" xmlns="http://www.w3.org/2000/svg">
<rect width="70" height="70" fill="url(#paint0_linear_878_2151)"/>
<path d="M35.0023 57.1667C45.114 53.7166 52.3218 45.6964 53.4523 35.4846C53.766 31.0517 53.7395 26.6015 53.3729 22.1725C53.3245 21.4744 53.0149 20.8193 52.5045 20.335C51.9942 19.8508 51.3199 19.5722 50.6132 19.5537C46.0388 19.4143 40.7218 18.6594 36.6136 14.6537C36.1843 14.2348 35.6057 14 35.0029 14C34.4001 14 33.8215 14.2348 33.3922 14.6537C29.2829 18.6594 23.9659 19.4143 19.3926 19.5537C18.6859 19.5722 18.0116 19.8508 17.5013 20.335C16.991 20.8193 16.6814 21.4744 16.6329 22.1725C16.2659 26.6015 16.239 31.0516 16.5524 35.4846C17.6829 45.6964 24.8907 53.7166 35.0023 57.1667Z" stroke="white" stroke-width="1.5" stroke-linecap="round" stroke-linejoin="round"/>
<defs>
<linearGradient id="paint0_linear_878_2151" x1="35" y1="0" x2="35" y2="70" gradientUnits="userSpaceOnUse">
<stop stop-color="#00A6CA"/>
<stop offset="1" stop-color="#00D2FF"/>
</linearGradient>
</defs>
</svg>
