<svg width="12" height="12" viewBox="0 0 12 12" fill="none" xmlns="http://www.w3.org/2000/svg">
<path d="M11.4161 4.32735L7.94482 3.82286L6.39306 0.676958C6.35068 0.590825 6.28095 0.521099 6.19482 0.478716C5.97881 0.372075 5.71631 0.460943 5.6083 0.676958L4.05654 3.82286L0.585252 4.32735C0.489549 4.34102 0.402049 4.38614 0.335057 4.4545C0.254067 4.53774 0.209438 4.64973 0.210976 4.76586C0.212514 4.88199 0.260094 4.99276 0.34326 5.07383L2.85478 7.52247L2.26142 10.9801C2.24751 11.0605 2.25641 11.1432 2.28712 11.2189C2.31782 11.2945 2.36911 11.36 2.43515 11.408C2.5012 11.4559 2.57936 11.4845 2.66078 11.4903C2.7422 11.4961 2.82362 11.4789 2.8958 11.4408L6.00068 9.8084L9.10556 11.4408C9.19033 11.4859 9.28877 11.501 9.3831 11.4846C9.62099 11.4436 9.78095 11.218 9.73994 10.9801L9.14658 7.52247L11.6581 5.07383C11.7265 5.00684 11.7716 4.91934 11.7853 4.82364C11.8222 4.58438 11.6554 4.3629 11.4161 4.32735Z" fill="#FFCF00"/>
</svg>
