<svg width="174" height="50" viewBox="0 0 174 50" fill="none" xmlns="http://www.w3.org/2000/svg">
<path d="M15.8748 20.194C17.0018 19.0867 17.7002 17.5558 17.7002 15.8664C17.7002 13.5263 16.3636 11.4937 14.4009 10.4621C14.6947 10.2894 14.962 10.0835 15.2029 9.84692C15.947 9.11341 16.4094 8.10071 16.4094 6.98388C16.4094 3.59321 13.611 0.84375 10.1576 0.84375H0.0117188V21.9876H11.4701C13.192 21.9876 14.7477 21.3038 15.8748 20.194ZM4.20446 4.36694H9.72172C11.0727 4.36694 12.1661 5.44116 12.1661 6.76858C12.1661 7.43109 11.8915 8.03209 11.4508 8.46509C11.0077 8.90046 10.3984 9.1702 9.72172 9.1702H4.20446V4.36694ZM4.20446 18.4739V12.885H10.8608C12.431 12.885 13.7025 14.1367 13.7025 15.6795C13.7025 16.4508 13.3846 17.1488 12.8693 17.6552C12.3563 18.1615 11.6459 18.4739 10.8608 18.4739H4.20446Z" fill="url(#paint0_linear_878_2093)"/>
<path d="M15.7231 35.6221C17.1078 34.6212 18.006 33.0099 18.006 31.1927V30.9277C18.006 27.5346 15.2053 24.7852 11.7543 24.7852H0.0117188V48.9293H11.8554C15.8988 48.9293 19.1764 45.709 19.1764 41.7386V41.1541C19.1764 38.7383 17.7724 36.6466 15.7231 35.6221ZM5.92634 30.0711H10.3984C11.3569 30.0711 12.1348 30.8354 12.1348 31.7771C12.1348 32.248 11.9397 32.6763 11.6266 32.9838C11.3112 33.2938 10.8777 33.4831 10.3984 33.4831H5.92634V30.0711ZM12.72 42.6401C12.3226 43.0305 11.7735 43.2718 11.1667 43.2718H5.92634V38.9512H11.1667C12.3804 38.9512 13.3654 39.919 13.3654 41.1115C13.3654 41.7078 13.1197 42.2473 12.72 42.6401Z" fill="url(#paint1_linear_878_2093)"/>
<path d="M64.888 11.6962V11.1352C64.888 5.44968 60.1977 0.84375 54.4135 0.84375H46.3477V21.9876H54.4135C60.1977 21.9876 64.888 17.3793 64.888 11.6962ZM50.227 18.2963V4.53509H54.2071C58.0769 4.53509 61.2125 7.61591 61.2125 11.4157C61.2125 13.3156 60.428 15.0363 59.1613 16.2809C57.8946 17.5255 56.1432 18.2963 54.2071 18.2963H50.227Z" fill="url(#paint2_linear_878_2093)"/>
<path d="M31.8233 22.4856C38.0076 22.4856 43.0216 17.5593 43.0216 11.483C43.0216 5.4044 38.0076 0.480469 31.8233 0.480469C25.6389 0.480469 20.625 5.4044 20.625 11.483C20.625 17.5593 25.6389 22.4856 31.8233 22.4856ZM31.8233 4.36566C35.8234 4.36566 39.0649 7.55286 39.0649 11.483C39.0649 15.4108 35.8234 18.598 31.8233 18.598C27.8232 18.598 24.5793 15.4108 24.5793 11.483C24.5793 7.55286 27.8232 4.36566 31.8233 4.36566Z" fill="url(#paint3_linear_878_2093)"/>
<path d="M74.6673 22.2289H78.5469V13.5689L86.7494 0.84375H82.2171L76.6083 9.54169L70.9971 0.84375H66.4648L74.6673 13.5689V22.2289Z" fill="url(#paint4_linear_878_2093)"/>
<path d="M29.4724 24.5625L19.707 48.929H26.32L27.659 45.4153H35.912L37.251 48.929H44.1795L34.1998 24.5625H29.4724ZM29.7638 39.8904L31.9433 34.169L33.8072 39.8904H29.7638Z" fill="url(#paint5_linear_878_2093)"/>
<path d="M74.3264 24.5625L64.5586 48.929H71.1716L72.5106 45.4153H80.7636L82.1026 48.929H89.0311L79.0538 24.5625H74.3264ZM74.6154 39.8904L76.7972 34.169L78.6612 39.8904H74.6154Z" fill="url(#paint6_linear_878_2093)"/>
<path d="M52.5835 24.8047H46.3125V48.9298H62.7487V43.0902H52.5835V24.8047Z" fill="url(#paint7_linear_878_2093)"/>
<path d="M124.79 43.5979C120.984 43.5979 117.899 40.5663 117.899 36.8275C117.899 33.0887 120.984 30.057 124.79 30.057C127.841 30.057 130.428 32.0041 131.333 34.7036H137.416C136.39 28.7646 131.129 24.2422 124.79 24.2422C117.716 24.2422 111.98 29.8779 111.98 36.8275C111.98 43.7795 117.716 49.4128 124.79 49.4128C131.206 49.4128 136.519 44.7781 137.453 38.7291H131.403C130.569 41.5434 127.924 43.5979 124.79 43.5979Z" fill="url(#paint8_linear_878_2093)"/>
<path d="M103.742 36.8255L95.051 24.7227H90.4609V48.9282H96.5682V37.1875L104.93 48.9282H109.623V24.7227H103.742V36.8255Z" fill="url(#paint9_linear_878_2093)"/>
<path d="M140.004 48.9282H156.102V43.1881H145.805V39.6554H156.102V33.9153H145.805V30.4628H156.102V24.7227H140.004V48.9282Z" fill="url(#paint10_linear_878_2093)"/>
<path d="M169.573 34.2708V29.9219H164.489V34.2708H160.062V39.2657H164.489V43.6147H169.573V39.2657H173.999V34.2708H169.573Z" fill="url(#paint11_linear_878_2093)"/>
<path d="M135.878 9.16891C128.058 9.0719 111.841 8.85185 110.654 8.66966C110.189 8.59867 109.322 8.46617 109.322 8.46617C109.154 8.44015 108.34 8.31473 108.176 8.28871L107.974 8.24849C106.502 7.95744 105.091 7.42743 103.795 6.68447C102.977 6.17102 102.006 5.87524 100.963 5.87524C98.0446 5.87524 95.6797 8.20117 95.6797 11.0689C95.6797 13.9367 98.0446 16.2626 100.963 16.2626C102.006 16.2626 102.977 15.9668 103.795 15.4534C105.091 14.7104 106.502 14.1804 107.974 13.8894L108.176 13.8491C108.34 13.8231 109.154 13.6977 109.322 13.6717C109.322 13.6717 110.189 13.5392 110.654 13.4682C111.841 13.286 128.058 13.0659 135.878 12.9689V9.16891Z" fill="url(#paint12_linear_878_2093)"/>
<path d="M137.172 12.9552L138.923 12.9339V9.20489L137.172 9.18359V12.9552Z" fill="url(#paint13_linear_878_2093)"/>
<path d="M141.964 9.24394L140.211 9.22266V12.9186L141.964 12.8973V9.24394Z" fill="url(#paint14_linear_878_2093)"/>
<path d="M154.42 9.39031L143.258 9.25781V12.8827L154.42 12.7502C155.357 12.7384 156.108 11.9883 156.108 11.0703C156.108 10.1522 155.357 9.40216 154.42 9.39031Z" fill="url(#paint15_linear_878_2093)"/>
<defs>
<linearGradient id="paint0_linear_878_2093" x1="8.85596" y1="0.84375" x2="8.85596" y2="21.9876" gradientUnits="userSpaceOnUse">
<stop stop-color="#00A6CA"/>
<stop offset="1" stop-color="#00D2FF"/>
</linearGradient>
<linearGradient id="paint1_linear_878_2093" x1="9.59408" y1="24.7852" x2="9.59408" y2="48.9293" gradientUnits="userSpaceOnUse">
<stop stop-color="#00A6CA"/>
<stop offset="1" stop-color="#00D2FF"/>
</linearGradient>
<linearGradient id="paint2_linear_878_2093" x1="55.6178" y1="0.84375" x2="55.6178" y2="21.9876" gradientUnits="userSpaceOnUse">
<stop stop-color="#00A6CA"/>
<stop offset="1" stop-color="#00D2FF"/>
</linearGradient>
<linearGradient id="paint3_linear_878_2093" x1="31.8233" y1="0.480469" x2="31.8233" y2="22.4856" gradientUnits="userSpaceOnUse">
<stop stop-color="#00A6CA"/>
<stop offset="1" stop-color="#00D2FF"/>
</linearGradient>
<linearGradient id="paint4_linear_878_2093" x1="76.6071" y1="0.84375" x2="76.6071" y2="22.2289" gradientUnits="userSpaceOnUse">
<stop stop-color="#00A6CA"/>
<stop offset="1" stop-color="#00D2FF"/>
</linearGradient>
<linearGradient id="paint5_linear_878_2093" x1="31.9433" y1="24.5625" x2="31.9433" y2="48.929" gradientUnits="userSpaceOnUse">
<stop stop-color="#00A6CA"/>
<stop offset="1" stop-color="#00D2FF"/>
</linearGradient>
<linearGradient id="paint6_linear_878_2093" x1="76.7948" y1="24.5625" x2="76.7948" y2="48.929" gradientUnits="userSpaceOnUse">
<stop stop-color="#00A6CA"/>
<stop offset="1" stop-color="#00D2FF"/>
</linearGradient>
<linearGradient id="paint7_linear_878_2093" x1="54.5306" y1="24.8047" x2="54.5306" y2="48.9298" gradientUnits="userSpaceOnUse">
<stop stop-color="#00A6CA"/>
<stop offset="1" stop-color="#00D2FF"/>
</linearGradient>
<linearGradient id="paint8_linear_878_2093" x1="124.717" y1="24.2422" x2="124.717" y2="49.4128" gradientUnits="userSpaceOnUse">
<stop stop-color="#00A6CA"/>
<stop offset="1" stop-color="#00D2FF"/>
</linearGradient>
<linearGradient id="paint9_linear_878_2093" x1="100.042" y1="24.7227" x2="100.042" y2="48.9282" gradientUnits="userSpaceOnUse">
<stop stop-color="#00A6CA"/>
<stop offset="1" stop-color="#00D2FF"/>
</linearGradient>
<linearGradient id="paint10_linear_878_2093" x1="148.053" y1="24.7227" x2="148.053" y2="48.9282" gradientUnits="userSpaceOnUse">
<stop stop-color="#00A6CA"/>
<stop offset="1" stop-color="#00D2FF"/>
</linearGradient>
<linearGradient id="paint11_linear_878_2093" x1="167.031" y1="29.9219" x2="167.031" y2="43.6147" gradientUnits="userSpaceOnUse">
<stop stop-color="#00A6CA"/>
<stop offset="1" stop-color="#00D2FF"/>
</linearGradient>
<linearGradient id="paint12_linear_878_2093" x1="115.779" y1="5.87524" x2="115.779" y2="16.2626" gradientUnits="userSpaceOnUse">
<stop stop-color="#00A6CA"/>
<stop offset="1" stop-color="#00D2FF"/>
</linearGradient>
<linearGradient id="paint13_linear_878_2093" x1="138.047" y1="9.18359" x2="138.047" y2="12.9552" gradientUnits="userSpaceOnUse">
<stop stop-color="#00A6CA"/>
<stop offset="1" stop-color="#00D2FF"/>
</linearGradient>
<linearGradient id="paint14_linear_878_2093" x1="141.088" y1="9.22266" x2="141.088" y2="12.9186" gradientUnits="userSpaceOnUse">
<stop stop-color="#00A6CA"/>
<stop offset="1" stop-color="#00D2FF"/>
</linearGradient>
<linearGradient id="paint15_linear_878_2093" x1="149.683" y1="9.25781" x2="149.683" y2="12.8827" gradientUnits="userSpaceOnUse">
<stop stop-color="#00A6CA"/>
<stop offset="1" stop-color="#00D2FF"/>
</linearGradient>
</defs>
</svg>
