<svg width="24" height="24" viewBox="0 0 24 24" fill="none" xmlns="http://www.w3.org/2000/svg">
<path d="M13 11V16M3 6H19L17.42 20.22C17.3658 20.7094 17.1331 21.1616 16.7663 21.49C16.3994 21.8184 15.9244 22 15.432 22H6.568C6.07564 22 5.60056 21.8184 5.23375 21.49C4.86693 21.1616 4.63416 20.7094 4.58 20.22L3 6ZM6.345 3.147C6.50675 2.80397 6.76271 2.514 7.083 2.31091C7.4033 2.10782 7.77474 2 8.154 2H13.846C14.2254 1.99981 14.5971 2.10755 14.9176 2.31064C15.2381 2.51374 15.4942 2.80381 15.656 3.147L17 6H5L6.345 3.147V3.147ZM1 6H21H1ZM9 11V16V11Z" stroke="#8B8B8B" stroke-linecap="round" stroke-linejoin="round"/>
</svg>
