<svg width="40" height="40" viewBox="0 0 40 40" fill="none" xmlns="http://www.w3.org/2000/svg">
<path d="M1.42841 8.21486C1.56888 7.80947 1.71255 7.40726 2.031 7.09372C2.48134 6.65033 3.02174 6.42969 3.65864 6.42969C5.97893 6.43074 8.30029 6.42969 10.6206 6.42969C15.1164 6.42969 19.6122 6.42969 24.1091 6.42969C25.636 6.42969 26.5216 7.29852 26.5227 8.79443C26.5227 10.2703 26.5302 11.7461 26.5163 13.2209C26.5141 13.4944 26.5785 13.5788 26.8701 13.5767C28.7068 13.563 30.5446 13.5809 32.3813 13.5651C33.4396 13.5567 34.1666 14.0106 34.633 14.9396C35.8167 17.2927 37.0123 19.6406 38.2153 21.9842C38.4555 22.4519 38.582 22.9196 38.5691 23.4516C38.5412 24.6414 38.5595 25.8312 38.5605 27.022C38.5616 27.9531 38.1574 28.6446 37.3093 29.0679C37.1795 29.1323 37.1066 29.1935 37.1034 29.354C37.0841 30.378 36.7228 31.2806 36.0612 32.0671C36.1309 32.1854 36.2381 32.1326 36.3239 32.1336C36.8193 32.14 37.3157 32.1284 37.81 32.14C38.2475 32.1495 38.5584 32.4567 38.5563 32.8536C38.5541 33.2495 38.2432 33.543 37.8036 33.5641C37.7317 33.5673 37.6588 33.5652 37.5859 33.5652C25.8611 33.5652 14.1375 33.563 2.41271 33.5725C1.96774 33.5725 1.63964 33.4533 1.42627 33.0658V32.6372C1.63857 32.2487 1.96453 32.122 2.41164 32.1294C3.75192 32.1516 5.09327 32.1368 6.43355 32.1368H6.88174C6.19123 31.3144 5.82453 30.4403 5.78378 29.448C5.7752 29.2284 5.62188 29.2833 5.50286 29.2822C4.86274 29.278 4.22263 29.2864 3.58251 29.278C2.94561 29.2696 2.41486 29.0215 1.98061 28.5633C1.69218 28.2582 1.5603 27.8771 1.42627 27.4949V8.21486H1.42841ZM14.0142 7.85804C10.6313 7.85804 7.24736 7.85804 3.8645 7.85804C3.10215 7.85804 2.87913 8.07973 2.87913 8.84194C2.87913 11.6976 2.87913 14.5522 2.87913 17.4078C2.87913 18.871 2.88771 20.3342 2.87163 21.7974C2.86841 22.0845 2.95526 22.1563 3.23404 22.1458C3.80124 22.1246 4.36952 22.1363 4.9378 22.1405C5.50715 22.1447 5.77735 22.4118 5.77949 22.9776C5.78378 23.8465 5.78378 24.7142 5.77949 25.5831C5.77735 26.1489 5.50608 26.4192 4.93994 26.4234C4.34808 26.4276 3.75514 26.4329 3.16434 26.4202C2.9499 26.416 2.84375 26.4635 2.87806 26.6937C2.892 26.7866 2.8802 26.8837 2.8802 26.9787C2.88449 27.591 3.1429 27.8496 3.75943 27.8518C4.39954 27.8549 5.04073 27.8423 5.68085 27.857C5.92746 27.8623 6.0454 27.7937 6.16013 27.5572C6.94822 25.9283 8.27026 25.0225 10.1048 25.0109C11.9566 24.9993 13.2936 25.903 14.0956 27.5414C14.2168 27.7874 14.3369 27.8591 14.6007 27.8581C17.9599 27.8486 21.3192 27.8486 24.6785 27.8581C24.983 27.8581 25.0816 27.8064 25.0816 27.477C25.0698 21.2547 25.0731 15.0325 25.0731 8.81133C25.0731 8.08395 24.8393 7.85804 24.0931 7.85804C20.7338 7.85804 17.3745 7.85804 14.0152 7.85804H14.0142ZM33.7559 16.4271C33.5876 16.0903 33.4407 15.819 33.3131 15.5382C33.1405 15.1571 32.8606 14.9913 32.4296 14.9934C30.58 15.0051 28.7304 15.0072 26.8819 14.9903C26.5624 14.9871 26.5152 15.0916 26.5163 15.3724C26.527 17.8596 26.5227 20.3469 26.5227 22.8341C26.5227 24.3933 26.5313 25.9526 26.5152 27.5108C26.512 27.8021 26.6042 27.8697 26.8798 27.857C27.3623 27.8359 27.8469 27.838 28.3294 27.857C28.5696 27.8665 28.6757 27.7905 28.7808 27.5688C29.5324 25.9874 30.8052 25.0858 32.5754 25.013C34.395 24.9381 35.7449 25.771 36.6359 27.3334C36.6981 27.4422 36.6852 27.6691 36.8718 27.6258C37.0219 27.5899 37.068 27.3968 37.098 27.2437C37.1163 27.1518 37.1098 27.0537 37.1098 26.9586C37.1098 25.9473 37.097 24.9349 37.1184 23.9235C37.1248 23.6142 37.0251 23.5583 36.7335 23.5604C34.1709 23.572 31.6083 23.5667 29.0456 23.5667C28.1675 23.5667 27.9724 23.3777 27.9724 22.5279C27.9724 20.8378 27.9724 19.1476 27.9724 17.4585C27.9724 16.6224 28.1707 16.426 29.0167 16.426C30.5746 16.426 32.1336 16.426 33.7548 16.426L33.7559 16.4271ZM13.4051 32.1041H29.4885C28.8526 31.3619 28.4956 30.5512 28.4291 29.6369C28.4077 29.3413 28.3283 29.2738 28.0345 29.2738C23.6352 29.2843 19.2359 29.2812 14.8366 29.2812C14.7765 29.2812 14.7154 29.2854 14.6553 29.2812C14.5374 29.2738 14.4816 29.3149 14.4763 29.4406C14.4323 30.435 14.0721 31.3113 13.4041 32.1041H13.4051ZM36.6498 22.1405C36.5748 21.9832 36.5319 21.8871 36.4837 21.7932C35.8425 20.5284 35.1991 19.2648 34.5633 17.9979C34.485 17.8417 34.3639 17.8565 34.232 17.8565C32.7341 17.8565 31.2362 17.8628 29.7383 17.8512C29.4831 17.8491 29.4156 17.9188 29.4188 18.1679C29.4316 19.3809 29.4359 20.5949 29.4166 21.8079C29.4113 22.1099 29.5239 22.15 29.7876 22.1479C31.1644 22.1363 32.5422 22.1426 33.9189 22.1426C34.8121 22.1426 35.7052 22.1426 36.6509 22.1426L36.6498 22.1405ZM13.0309 29.3012C13.0406 27.7251 11.741 26.4297 10.1434 26.4255C8.55655 26.4202 7.24844 27.686 7.23128 29.2421C7.21413 30.8204 8.50615 32.1231 10.1005 32.1368C11.7024 32.1495 13.0213 30.8742 13.0309 29.3023V29.3012ZM29.8595 29.2685C29.8541 30.8446 31.1579 32.1347 32.7566 32.1347C34.3403 32.1347 35.6462 30.8636 35.6591 29.3076C35.673 27.7314 34.3757 26.4319 32.7791 26.4234C31.1762 26.415 29.8648 27.6924 29.8595 29.2674V29.2685ZM4.32985 24.2751C4.32985 23.8035 4.09503 23.5678 3.6254 23.5678H3.58894C3.11573 23.5678 2.87913 23.8021 2.87913 24.2709C2.87913 24.7544 3.12002 24.9961 3.60181 24.9961C4.08359 24.9961 4.32627 24.7558 4.32985 24.2751Z" fill="#00A6CA"/>
<path d="M16.8717 12.1426C15.3995 12.1426 13.9263 12.1405 12.4541 12.1447C12.2032 12.1447 11.9705 12.111 11.7926 11.922C11.5963 11.7151 11.5266 11.4723 11.6274 11.1988C11.7325 10.9149 11.9437 10.7502 12.2461 10.7227C12.4616 10.7027 12.6804 10.7143 12.8969 10.7143C15.6365 10.7143 18.3771 10.7143 21.1166 10.7143C21.2249 10.7143 21.3343 10.7101 21.4426 10.7164C21.8597 10.7417 22.161 11.0331 22.1685 11.4142C22.176 11.809 21.8672 12.131 21.4351 12.1374C20.6266 12.149 19.8181 12.1416 19.0086 12.1416C18.2967 12.1416 17.5847 12.1416 16.8728 12.1416L16.8717 12.1426Z" fill="#00A6CA"/>
<path d="M18.3235 13.5713C19.3132 13.5713 20.3018 13.5691 21.2914 13.5713C21.8372 13.5723 22.1782 13.8595 22.1674 14.3007C22.1567 14.7293 21.8275 14.9975 21.2957 14.9985C19.3175 15.0007 17.3392 15.0007 15.361 14.9985C14.8131 14.9985 14.4764 14.7135 14.486 14.2691C14.4957 13.8383 14.8227 13.5723 15.3567 13.5713C16.3463 13.5691 17.3349 13.5713 18.3246 13.5713H18.3235Z" fill="#00A6CA"/>
<path d="M10.1232 30.7062C9.32656 30.7019 8.67786 30.0559 8.68215 29.2704C8.68644 28.485 9.34157 27.8474 10.1393 27.8516C10.936 27.8558 11.5847 28.5019 11.5804 29.2863C11.5761 30.0696 10.9188 30.7093 10.1221 30.7051L10.1232 30.7062Z" fill="#00A6CA"/>
<path d="M32.7753 30.7052C31.9775 30.7125 31.3181 30.077 31.3106 29.2937C31.3031 28.5062 31.9464 27.859 32.7431 27.8516C33.5408 27.8442 34.2003 28.4798 34.2088 29.2631C34.2174 30.0475 33.5698 30.6978 32.7753 30.7062V30.7052Z" fill="#00A6CA"/>
</svg>
