<svg width="41" height="40" viewBox="0 0 41 40" fill="none" xmlns="http://www.w3.org/2000/svg">
<path d="M20.3156 37.144C19.1759 36.3978 18.0318 35.6572 16.8987 34.9022C16.6637 34.7456 16.4408 34.682 16.1531 34.7028C14.9146 34.7905 13.6739 34.8475 12.4342 34.9198C12.0137 34.945 11.7414 34.7598 11.5559 34.3873C10.9937 33.2587 10.414 32.139 9.84959 31.0126C9.75955 30.834 9.64426 30.7135 9.4631 30.6226C8.34315 30.066 7.23309 29.4885 6.10985 28.9374C5.69591 28.7347 5.51144 28.4466 5.54219 27.9831C5.62344 26.7242 5.68163 25.4641 5.7563 24.2041C5.76837 24.0047 5.72555 23.8415 5.61356 23.6738C4.9372 22.6614 4.28829 21.6315 3.59436 20.6322C3.27155 20.1666 3.28583 19.7831 3.60534 19.324C4.30037 18.3248 4.95367 17.297 5.63112 16.2868C5.73653 16.129 5.77825 15.9778 5.76618 15.7883C5.68932 14.5513 5.63661 13.3132 5.54878 12.0772C5.51144 11.5623 5.69481 11.2391 6.16255 11.0134C7.26822 10.4787 8.35742 9.90892 9.4587 9.36327C9.65085 9.26795 9.77273 9.13976 9.86716 8.95021C10.414 7.85234 10.9728 6.75887 11.5273 5.66429C11.8007 5.12522 11.9797 5.0288 12.5913 5.06496C13.8528 5.13947 15.1155 5.2063 16.3771 5.28519C16.5385 5.29505 16.6549 5.23369 16.7779 5.15261C17.8319 4.45686 18.8926 3.77097 19.9368 3.06207C20.3332 2.79254 20.679 2.79144 21.0754 3.06098C22.1108 3.7633 23.1638 4.44152 24.2047 5.13508C24.3716 5.24684 24.5308 5.28957 24.735 5.27752C26.0196 5.19863 27.3043 5.13508 28.5889 5.06277C28.9952 5.03976 29.2675 5.21288 29.4486 5.57335C30.0185 6.70956 30.6004 7.84029 31.1681 8.97869C31.2581 9.15948 31.3789 9.27453 31.5579 9.36437C32.6778 9.92207 33.7934 10.4885 34.9089 11.055C35.3964 11.3026 35.4985 11.5042 35.4656 12.0422C35.3865 13.3121 35.3207 14.583 35.2405 15.854C35.2295 16.0271 35.2976 16.152 35.3843 16.2846C36.0673 17.3189 36.7415 18.3587 37.4332 19.3876C37.7099 19.7995 37.7187 20.1753 37.4387 20.5895C36.7568 21.5975 36.0991 22.622 35.4162 23.6289C35.268 23.848 35.2218 24.0584 35.2383 24.3148C35.3152 25.5408 35.3701 26.7669 35.4513 27.993C35.481 28.4411 35.3152 28.7292 34.9111 28.9287C33.7791 29.4864 32.6581 30.066 31.5282 30.6291C31.358 30.7135 31.246 30.8242 31.1615 30.994C30.5971 32.1214 30.0152 33.239 29.4574 34.3698C29.251 34.7872 28.9502 34.9505 28.4901 34.9198C27.2066 34.8332 25.9219 34.7686 24.6373 34.6908C24.5066 34.6831 24.4001 34.7105 24.2925 34.7828C23.1034 35.5717 21.9121 36.3584 20.7218 37.1451H20.3189L20.3156 37.144ZM26.1799 33.3497C26.7937 33.3858 27.4097 33.411 28.0224 33.4603C28.2485 33.4779 28.3572 33.4034 28.4572 33.2018C28.9644 32.1707 29.4948 31.1518 30.0053 30.1229C30.1514 29.8293 30.3523 29.6222 30.6498 29.4765C31.6622 28.9802 32.6602 28.452 33.6781 27.9667C33.9658 27.8297 34.0229 27.6664 34.002 27.3761C33.9229 26.2399 33.8746 25.1026 33.8033 23.9664C33.7835 23.6486 33.8658 23.3835 34.0437 23.1205C34.6805 22.1771 35.2943 21.2173 35.9388 20.2783C36.0947 20.0526 36.0739 19.9069 35.929 19.6943C35.302 18.7707 34.6992 17.8306 34.0723 16.907C33.8746 16.6155 33.7813 16.3219 33.8043 15.968C33.8779 14.8537 33.9207 13.7383 34.002 12.6251C34.025 12.3172 33.957 12.1507 33.6627 12.0104C32.6548 11.5294 31.6666 11.0079 30.6641 10.5159C30.3567 10.3647 30.147 10.1511 29.9965 9.84646C29.5079 8.85598 28.9897 7.88083 28.5143 6.88487C28.3693 6.58027 28.1969 6.50138 27.873 6.52549C26.7465 6.60876 25.6178 6.65478 24.4901 6.72709C24.1717 6.74791 23.906 6.66026 23.6436 6.48385C22.6883 5.84179 21.7188 5.22164 20.7658 4.57629C20.5648 4.44043 20.4287 4.45138 20.2354 4.58177C19.2813 5.22493 18.314 5.84836 17.3587 6.49043C17.0952 6.66683 16.8262 6.74572 16.5089 6.726C15.3362 6.65259 14.1636 6.5978 12.9909 6.52111C12.768 6.50686 12.6571 6.57041 12.5572 6.77421C12.0445 7.81509 11.5086 8.84393 10.9937 9.88262C10.852 10.1675 10.6544 10.3614 10.3689 10.5028C9.32695 11.0166 8.29594 11.5513 7.25395 12.0641C7.064 12.1572 6.99922 12.2624 7.01239 12.4717C7.08596 13.6298 7.14086 14.7901 7.21552 15.9483C7.23748 16.2879 7.16172 16.575 6.96957 16.8598C6.32395 17.812 5.70359 18.7806 5.05688 19.7305C4.91853 19.9332 4.93171 20.0669 5.06347 20.2608C5.67175 21.1571 6.2471 22.0752 6.86856 22.9616C7.15733 23.3736 7.24187 23.7911 7.20344 24.2808C7.11999 25.3491 7.08156 26.4207 7.01239 27.49C6.99812 27.7103 7.05851 27.8242 7.26493 27.925C8.30911 28.4334 9.34122 28.967 10.3843 29.4776C10.6709 29.6178 10.8652 29.8161 11.0058 30.0999C11.5097 31.12 12.0379 32.128 12.5353 33.1514C12.6582 33.4056 12.8087 33.4702 13.0755 33.4516C14.236 33.3738 15.3988 33.3201 16.5594 33.2489C16.8416 33.2314 17.0809 33.3059 17.3148 33.4614C18.2722 34.1002 19.2396 34.7237 20.1915 35.3701C20.4155 35.5224 20.5725 35.541 20.8075 35.38C21.7485 34.7368 22.7103 34.1243 23.6557 33.4888C23.9192 33.3113 24.1893 33.2292 24.5055 33.2522C25.0633 33.2927 25.6222 33.3157 26.181 33.3464L26.1799 33.3497Z" fill="#00A6CA"/>
<path d="M9.79883 19.9745C9.83945 14.0634 14.6344 9.29284 20.5152 9.31256C26.4399 9.33228 31.2634 14.1708 31.2019 20.0315C31.1393 25.9426 26.3565 30.688 20.4921 30.6617C14.5696 30.6354 9.83067 25.8846 9.79883 19.9745ZM29.7778 19.9767C29.7657 14.8808 25.5912 10.7249 20.4965 10.7369C15.3876 10.7479 11.2273 14.9092 11.2394 19.9953C11.2515 25.0979 15.415 29.245 20.5152 29.234C25.6252 29.2231 29.7899 25.0606 29.7778 19.9767Z" fill="#00A6CA"/>
<path d="M19.2566 23.3622C18.9272 23.3666 18.7373 23.2581 18.5759 23.0937C17.6305 22.1274 16.684 21.1632 15.7464 20.1913C15.4005 19.833 15.3884 19.4167 15.686 19.1219C15.9956 18.8152 16.4139 18.8436 16.7796 19.2151C17.5009 19.947 18.2223 20.6789 18.9272 21.4261C19.1128 21.6234 19.2127 21.6442 19.4202 21.4459C21.0035 19.9349 22.6011 18.4382 24.1932 16.9361C24.3754 16.7641 24.5654 16.614 24.8333 16.6172C25.1144 16.6216 25.3274 16.7443 25.4624 16.9898C25.592 17.2242 25.5821 17.4631 25.4361 17.6866C25.3702 17.7885 25.2846 17.8805 25.1956 17.9638C23.3993 19.6566 21.6019 21.3483 19.8045 23.0401C19.6223 23.211 19.4356 23.3666 19.2555 23.3633L19.2566 23.3622Z" fill="#00A6CA"/>
</svg>
