<svg width="21" height="21" viewBox="0 0 21 21" fill="none" xmlns="http://www.w3.org/2000/svg">
<path d="M18.8359 0.582107C18.4453 0.191583 17.8122 0.191582 17.4216 0.582107L11.2071 6.79664C10.8166 7.18717 10.1834 7.18717 9.79289 6.79664L3.57836 0.582106C3.18783 0.191582 2.55467 0.191583 2.16414 0.582107L0.582107 2.16414C0.191583 2.55467 0.191582 3.18783 0.582107 3.57836L6.79664 9.79289C7.18717 10.1834 7.18717 10.8166 6.79664 11.2071L0.582106 17.4216C0.191582 17.8122 0.191583 18.4453 0.582107 18.8359L2.16414 20.4179C2.55467 20.8084 3.18783 20.8084 3.57836 20.4179L9.79289 14.2034C10.1834 13.8128 10.8166 13.8128 11.2071 14.2034L17.4216 20.4179C17.8122 20.8084 18.4453 20.8084 18.8359 20.4179L20.4179 18.8359C20.8084 18.4453 20.8084 17.8122 20.4179 17.4216L14.2034 11.2071C13.8128 10.8166 13.8128 10.1834 14.2034 9.79289L20.4179 3.57836C20.8084 3.18783 20.8084 2.55467 20.4179 2.16414L18.8359 0.582107Z" fill="#444444"/>
</svg>
