<svg width="16" height="15" viewBox="0 0 16 15" fill="none" xmlns="http://www.w3.org/2000/svg">
<path d="M14.9628 5.70938L10.4997 5.06075L8.5046 1.01602C8.45011 0.90528 8.36046 0.815632 8.24972 0.761139C7.97198 0.62403 7.63448 0.738288 7.49562 1.01602L5.5005 5.06075L1.03741 5.70938C0.914367 5.72696 0.801867 5.78497 0.715734 5.87286C0.611604 5.97989 0.554224 6.12387 0.556202 6.27319C0.558179 6.4225 0.619353 6.56492 0.726281 6.66915L3.95538 9.81739L3.19249 14.2629C3.1746 14.3663 3.18605 14.4727 3.22552 14.5699C3.265 14.6671 3.33094 14.7514 3.41585 14.813C3.50077 14.8747 3.60127 14.9114 3.70595 14.9188C3.81063 14.9263 3.91531 14.9043 4.00812 14.8553L8.00011 12.7565L11.9921 14.8553C12.1011 14.9133 12.2276 14.9326 12.3489 14.9115C12.6548 14.8588 12.8605 14.5688 12.8077 14.2629L12.0448 9.81739L15.2739 6.66915C15.3618 6.58301 15.4198 6.47051 15.4374 6.34747C15.4849 6.03985 15.2704 5.75508 14.9628 5.70938Z" fill="#CACACA"/>
</svg>
