<svg width="20" height="20" viewBox="0 0 20 20" fill="none" xmlns="http://www.w3.org/2000/svg">
<path d="M10.0003 18.3346C5.39795 18.3346 1.66699 14.6037 1.66699 10.0013C1.66699 5.39893 5.39795 1.66797 10.0003 1.66797C14.6027 1.66797 18.3337 5.39893 18.3337 10.0013C18.3286 14.6016 14.6006 18.3296 10.0003 18.3346ZM9.16699 14.168V15.8346H10.8337V14.168H9.16699ZM10.0003 5.83464C10.9208 5.83464 11.667 6.58083 11.667 7.5013C11.6699 7.94358 11.4924 8.36792 11.1753 8.6763L10.142 9.7263C9.51819 10.3527 9.16767 11.2006 9.16699 12.0846V12.5013H10.8337C10.7689 11.6055 11.1302 10.7315 11.8087 10.143L12.5587 9.3763C13.0571 8.8799 13.3361 8.20473 13.3337 7.5013C13.3337 5.66035 11.8413 4.16797 10.0003 4.16797C8.15938 4.16797 6.66699 5.66035 6.66699 7.5013H8.33366C8.33366 6.58083 9.07985 5.83464 10.0003 5.83464Z" fill="#EAEAEA"/>
</svg>
