<svg width="17" height="16" viewBox="0 0 17 16" fill="none" xmlns="http://www.w3.org/2000/svg">
<path fill-rule="evenodd" clip-rule="evenodd" d="M5.70687 6.88114C5.70127 7.20295 5.76847 12.4666 5.76847 12.4666C5.76847 12.4666 11.1221 14.1684 12.3989 14.0852C13.6771 14.0007 13.9963 13.7252 14.1559 13.0789C14.3155 12.4339 13.5175 11.9061 13.5175 11.9061C13.5175 11.9061 14.7957 12.157 15.0351 11.0675C15.2745 9.97795 13.8367 9.80886 13.8367 9.80886C15.1947 9.80886 15.4341 9.39023 15.4341 8.55159C15.4341 7.71295 13.9963 7.54523 13.9963 7.54523C13.9963 7.54523 14.8755 7.46204 14.9539 6.54023C15.0351 5.61704 13.8367 5.40023 13.5175 5.40023C13.2781 5.40023 12.7629 5.39886 12.4647 5.40023C10.5439 5.40704 10.7231 5.03068 10.7231 5.03068C10.7231 5.03068 11.6009 1.6775 10.8827 0.587953C10.1645 -0.502956 9.52467 0.22659 9.44487 0.394317C9.28527 0.897499 9.36367 1.40477 9.24187 1.92295C8.74207 4.05841 6.42647 6.29068 5.70687 6.88114Z" fill="#333333"/>
<path fill-rule="evenodd" clip-rule="evenodd" d="M4.39791 7.23793V12.207C4.39791 12.4893 4.18791 12.7184 3.93031 12.7184H2.96851C2.70951 12.7184 2.49951 12.4893 2.49951 12.207V7.23793C2.49951 6.95565 2.70951 6.72656 2.96851 6.72656H3.93031C4.18791 6.72656 4.39791 6.95565 4.39791 7.23793Z" fill="#333333"/>
</svg>
