<svg width="49" height="46" viewBox="0 0 49 46" fill="none" xmlns="http://www.w3.org/2000/svg">
<rect width="49" height="46" fill="url(#paint0_linear_1675_18395)"/>
<path d="M25.0003 30.3346C20.398 30.3346 16.667 26.6037 16.667 22.0013C16.667 17.3989 20.398 13.668 25.0003 13.668C29.6027 13.668 33.3337 17.3989 33.3337 22.0013C33.3286 26.6016 29.6006 30.3296 25.0003 30.3346ZM24.167 26.168V27.8346H25.8337V26.168H24.167ZM25.0003 17.8346C25.9208 17.8346 26.667 18.5808 26.667 19.5013C26.6699 19.9436 26.4924 20.3679 26.1753 20.6763L25.142 21.7263C24.5182 22.3527 24.1677 23.2006 24.167 24.0846V24.5013H25.8337C25.7689 23.6055 26.1302 22.7315 26.8087 22.143L27.5587 21.3763C28.0571 20.8799 28.3361 20.2047 28.3337 19.5013C28.3337 17.6604 26.8413 16.168 25.0003 16.168C23.1594 16.168 21.667 17.6604 21.667 19.5013H23.3337C23.3337 18.5808 24.0799 17.8346 25.0003 17.8346Z" fill="white"/>
<defs>
<linearGradient id="paint0_linear_1675_18395" x1="24.5" y1="0" x2="24.5" y2="46" gradientUnits="userSpaceOnUse">
<stop stop-color="#00A6CA"/>
<stop offset="0.453125" stop-color="#00BAE2"/>
<stop offset="1" stop-color="#00D2FF"/>
</linearGradient>
</defs>
</svg>
