<svg width="41" height="40" viewBox="0 0 41 40" fill="none" xmlns="http://www.w3.org/2000/svg">
<mask id="path-1-outside-1_543_86267" maskUnits="userSpaceOnUse" x="3.07129" y="2.57031" width="35" height="35" fill="black">
<rect fill="white" x="3.07129" y="2.57031" width="35" height="35"/>
<path d="M12.2356 32.8544C12.2356 32.3694 12.3574 31.838 12.2012 31.4119C12.044 30.9811 11.4916 30.8093 11.1299 30.4999C8.89807 28.5944 7.39811 26.2513 6.9564 23.2724C6.829 22.4145 6.80761 21.5509 6.92199 20.6893C6.95361 20.4492 6.91083 20.2983 6.66999 20.192C6.39473 20.0715 6.14365 19.8893 5.92326 19.6776C5.77633 19.5372 5.68241 19.5543 5.56245 19.7118C5.40622 19.9177 5.23605 20.1132 5.05657 20.2973C4.80271 20.5583 4.48281 20.5725 4.25033 20.3505C4.01599 20.1275 4.00948 19.8086 4.24382 19.5249C4.43074 19.299 4.61858 19.0722 4.82316 18.8634C4.97846 18.704 4.98311 18.573 4.87989 18.3709C4.30055 17.2302 4.22244 16.0402 4.64276 14.833C4.86315 14.2001 5.22861 13.6639 5.91117 13.476C6.79645 13.2321 7.74683 14.0198 7.82867 15.0399C7.87981 15.6852 7.70964 16.2822 7.45205 16.8591C7.21585 17.3887 6.92478 17.8869 6.58722 18.3538C6.45424 18.5389 6.43565 18.6508 6.63186 18.8112C7.15726 19.2402 7.14239 19.2478 7.36092 18.5986C8.3922 15.5391 10.4148 13.3479 13.1236 11.7612C13.849 11.336 14.6069 10.983 15.3964 10.7021C15.5851 10.6347 15.6381 10.574 15.5665 10.3529C14.5529 7.22405 16.3542 4.1702 19.5206 3.63212C22.2964 3.16047 25.0508 5.45228 25.1615 8.32203C25.1828 8.88193 25.1475 9.43614 24.9885 9.97327C24.9383 10.1422 24.9764 10.2029 25.1345 10.2447C26.5108 10.6072 27.8182 11.1434 29.0439 11.8798C29.202 11.9747 29.3303 11.9102 29.4716 11.8589C30.6164 11.4414 31.763 11.0295 32.9058 10.6043C33.1876 10.5 33.4498 10.4468 33.6721 10.7011C33.8925 10.9536 33.8162 11.2231 33.6916 11.4945C33.2648 12.4264 32.85 13.3631 32.4158 14.2912C32.32 14.4962 32.3469 14.6233 32.4957 14.7846C33.4563 15.8257 34.3109 16.9389 34.7062 18.3462C34.7443 18.4838 34.8373 18.5275 34.9526 18.5607C35.2641 18.6518 35.5784 18.7353 35.8853 18.8406C36.5353 19.0627 36.9156 19.5837 36.9222 20.2784C36.9305 21.2843 36.9305 22.2912 36.9222 23.2971C36.9166 24.0401 36.4591 24.6105 35.7514 24.769C35.3329 24.8629 34.9126 24.9531 34.4895 25.0224C34.3026 25.0527 34.2124 25.1305 34.1631 25.3175C33.5661 27.6159 32.293 29.4399 30.4146 30.8302C30.2407 30.9583 30.1923 31.1016 30.1942 31.3075C30.2035 32.0885 30.2035 32.8705 30.196 33.6515C30.183 35.1794 29.1992 36.1787 27.7001 36.1853C27.2835 36.1872 26.866 36.2128 26.4494 36.1493C25.3446 35.9813 24.5096 35.076 24.4556 33.9343C24.4408 33.6287 24.3738 33.5775 24.079 33.6344C22.1708 34.0036 20.2533 34.0302 18.3358 33.7104C18.0736 33.6667 18.0048 33.717 17.9983 33.9979C17.9648 35.428 16.9754 36.4121 15.5777 36.415C15.0923 36.4159 14.6041 36.4653 14.1205 36.3609C13.1032 36.1407 12.3481 35.2952 12.269 34.238C12.2346 33.7796 12.2635 33.3156 12.2635 32.8544H12.2346H12.2356ZM17.7239 13.0043C17.1251 12.6191 16.6611 12.2005 16.277 11.6938C16.1747 11.559 16.0613 11.6634 15.9618 11.6985C13.7978 12.4691 11.8933 13.6582 10.398 15.448C8.22109 18.0539 7.41113 21.0281 8.33175 24.3723C9.04407 26.9592 10.6696 28.8819 12.8279 30.3528C13.211 30.6138 13.3784 30.8985 13.3626 31.3683C13.3329 32.2309 13.344 33.0964 13.358 33.9599C13.3719 34.777 13.8843 35.2762 14.6822 35.2819C15.0188 35.2847 15.3554 35.2914 15.6911 35.279C16.3467 35.2553 16.8526 34.7486 16.8842 34.0833C16.8982 33.7882 16.8889 33.4911 16.8907 33.196C16.8945 32.5308 17.1455 32.3191 17.7881 32.4586C18.333 32.5773 18.8826 32.6646 19.4359 32.7196C21.2297 32.899 23.0012 32.768 24.7514 32.3267C25.2507 32.2015 25.5325 32.433 25.5483 32.9654C25.5567 33.2378 25.5436 33.5101 25.5539 33.7825C25.5818 34.5161 26.0718 35.02 26.7907 35.0494C27.092 35.0617 27.3942 35.0532 27.6955 35.0522C28.5817 35.0475 29.0755 34.5521 29.0811 33.6477C29.0876 32.7367 29.0894 31.8247 29.0792 30.9137C29.0755 30.5768 29.1796 30.332 29.4605 30.1355C31.4003 28.7832 32.6696 26.9526 33.196 24.6057C33.2806 24.2262 33.4963 24.0496 33.8581 23.9899C34.3612 23.9063 34.8587 23.7887 35.3608 23.7023C35.6761 23.6473 35.8193 23.4926 35.8118 23.1519C35.7951 22.4534 35.8118 21.755 35.8053 21.0565C35.7942 19.8589 35.9783 20.0164 34.814 19.7241C34.1398 19.5552 33.6591 19.2791 33.5856 18.517C33.58 18.4601 33.5484 18.406 33.5289 18.35C33.1095 17.1457 32.2967 16.2214 31.4589 15.3151C30.9911 14.8084 30.9828 14.759 31.2636 14.1365C31.5612 13.476 31.8578 12.8145 32.1796 12.099C32.0531 12.1351 31.988 12.1493 31.9266 12.1721C31.1306 12.4615 30.3309 12.7415 29.5395 13.0461C29.2066 13.1742 28.9267 13.1438 28.6217 12.9522C27.4091 12.1892 26.1007 11.6577 24.7188 11.3104C24.6109 11.2829 24.4845 11.206 24.4008 11.336C24.0446 11.8902 23.6076 12.3685 23.0301 12.7918C23.5527 12.8876 23.9944 12.9607 24.4333 13.0518C25.3316 13.2387 26.2067 13.5092 27.0566 13.8613C27.3914 13.9998 27.5253 14.3016 27.4119 14.6005C27.2956 14.9061 27.0083 15.0323 26.6689 14.9194C26.5256 14.872 26.3871 14.8122 26.2448 14.76C23.8893 13.8907 21.4687 13.6354 18.9868 13.9524C17.6226 14.127 16.3058 14.4838 15.0402 15.0342C14.8105 15.1339 14.5799 15.2155 14.3465 15.0551C14.1698 14.9346 14.0759 14.7619 14.0945 14.5427C14.1159 14.294 14.2609 14.1384 14.4804 14.0406C15.4921 13.5889 16.5411 13.2587 17.7212 13.0062L17.7239 13.0043ZM24.0502 8.62855C24.0483 6.4696 22.3457 4.732 20.2282 4.72535C18.0968 4.71871 16.3802 6.4677 16.3839 8.64089C16.3877 10.7951 18.0978 12.545 20.205 12.5507C22.3271 12.5564 24.0521 10.797 24.0493 8.62855H24.0502ZM5.74657 17.6079C6.18829 16.937 6.55747 16.3049 6.7016 15.5666C6.74624 15.337 6.75461 15.0959 6.63465 14.8758C6.43286 14.5056 6.09157 14.4734 5.87769 14.8349C5.36159 15.7071 5.39041 16.6171 5.74657 17.6079Z"/>
</mask>
<path d="M12.2356 32.8544C12.2356 32.3694 12.3574 31.838 12.2012 31.4119C12.044 30.9811 11.4916 30.8093 11.1299 30.4999C8.89807 28.5944 7.39811 26.2513 6.9564 23.2724C6.829 22.4145 6.80761 21.5509 6.92199 20.6893C6.95361 20.4492 6.91083 20.2983 6.66999 20.192C6.39473 20.0715 6.14365 19.8893 5.92326 19.6776C5.77633 19.5372 5.68241 19.5543 5.56245 19.7118C5.40622 19.9177 5.23605 20.1132 5.05657 20.2973C4.80271 20.5583 4.48281 20.5725 4.25033 20.3505C4.01599 20.1275 4.00948 19.8086 4.24382 19.5249C4.43074 19.299 4.61858 19.0722 4.82316 18.8634C4.97846 18.704 4.98311 18.573 4.87989 18.3709C4.30055 17.2302 4.22244 16.0402 4.64276 14.833C4.86315 14.2001 5.22861 13.6639 5.91117 13.476C6.79645 13.2321 7.74683 14.0198 7.82867 15.0399C7.87981 15.6852 7.70964 16.2822 7.45205 16.8591C7.21585 17.3887 6.92478 17.8869 6.58722 18.3538C6.45424 18.5389 6.43565 18.6508 6.63186 18.8112C7.15726 19.2402 7.14239 19.2478 7.36092 18.5986C8.3922 15.5391 10.4148 13.3479 13.1236 11.7612C13.849 11.336 14.6069 10.983 15.3964 10.7021C15.5851 10.6347 15.6381 10.574 15.5665 10.3529C14.5529 7.22405 16.3542 4.1702 19.5206 3.63212C22.2964 3.16047 25.0508 5.45228 25.1615 8.32203C25.1828 8.88193 25.1475 9.43614 24.9885 9.97327C24.9383 10.1422 24.9764 10.2029 25.1345 10.2447C26.5108 10.6072 27.8182 11.1434 29.0439 11.8798C29.202 11.9747 29.3303 11.9102 29.4716 11.8589C30.6164 11.4414 31.763 11.0295 32.9058 10.6043C33.1876 10.5 33.4498 10.4468 33.6721 10.7011C33.8925 10.9536 33.8162 11.2231 33.6916 11.4945C33.2648 12.4264 32.85 13.3631 32.4158 14.2912C32.32 14.4962 32.3469 14.6233 32.4957 14.7846C33.4563 15.8257 34.3109 16.9389 34.7062 18.3462C34.7443 18.4838 34.8373 18.5275 34.9526 18.5607C35.2641 18.6518 35.5784 18.7353 35.8853 18.8406C36.5353 19.0627 36.9156 19.5837 36.9222 20.2784C36.9305 21.2843 36.9305 22.2912 36.9222 23.2971C36.9166 24.0401 36.4591 24.6105 35.7514 24.769C35.3329 24.8629 34.9126 24.9531 34.4895 25.0224C34.3026 25.0527 34.2124 25.1305 34.1631 25.3175C33.5661 27.6159 32.293 29.4399 30.4146 30.8302C30.2407 30.9583 30.1923 31.1016 30.1942 31.3075C30.2035 32.0885 30.2035 32.8705 30.196 33.6515C30.183 35.1794 29.1992 36.1787 27.7001 36.1853C27.2835 36.1872 26.866 36.2128 26.4494 36.1493C25.3446 35.9813 24.5096 35.076 24.4556 33.9343C24.4408 33.6287 24.3738 33.5775 24.079 33.6344C22.1708 34.0036 20.2533 34.0302 18.3358 33.7104C18.0736 33.6667 18.0048 33.717 17.9983 33.9979C17.9648 35.428 16.9754 36.4121 15.5777 36.415C15.0923 36.4159 14.6041 36.4653 14.1205 36.3609C13.1032 36.1407 12.3481 35.2952 12.269 34.238C12.2346 33.7796 12.2635 33.3156 12.2635 32.8544H12.2346H12.2356ZM17.7239 13.0043C17.1251 12.6191 16.6611 12.2005 16.277 11.6938C16.1747 11.559 16.0613 11.6634 15.9618 11.6985C13.7978 12.4691 11.8933 13.6582 10.398 15.448C8.22109 18.0539 7.41113 21.0281 8.33175 24.3723C9.04407 26.9592 10.6696 28.8819 12.8279 30.3528C13.211 30.6138 13.3784 30.8985 13.3626 31.3683C13.3329 32.2309 13.344 33.0964 13.358 33.9599C13.3719 34.777 13.8843 35.2762 14.6822 35.2819C15.0188 35.2847 15.3554 35.2914 15.6911 35.279C16.3467 35.2553 16.8526 34.7486 16.8842 34.0833C16.8982 33.7882 16.8889 33.4911 16.8907 33.196C16.8945 32.5308 17.1455 32.3191 17.7881 32.4586C18.333 32.5773 18.8826 32.6646 19.4359 32.7196C21.2297 32.899 23.0012 32.768 24.7514 32.3267C25.2507 32.2015 25.5325 32.433 25.5483 32.9654C25.5567 33.2378 25.5436 33.5101 25.5539 33.7825C25.5818 34.5161 26.0718 35.02 26.7907 35.0494C27.092 35.0617 27.3942 35.0532 27.6955 35.0522C28.5817 35.0475 29.0755 34.5521 29.0811 33.6477C29.0876 32.7367 29.0894 31.8247 29.0792 30.9137C29.0755 30.5768 29.1796 30.332 29.4605 30.1355C31.4003 28.7832 32.6696 26.9526 33.196 24.6057C33.2806 24.2262 33.4963 24.0496 33.8581 23.9899C34.3612 23.9063 34.8587 23.7887 35.3608 23.7023C35.6761 23.6473 35.8193 23.4926 35.8118 23.1519C35.7951 22.4534 35.8118 21.755 35.8053 21.0565C35.7942 19.8589 35.9783 20.0164 34.814 19.7241C34.1398 19.5552 33.6591 19.2791 33.5856 18.517C33.58 18.4601 33.5484 18.406 33.5289 18.35C33.1095 17.1457 32.2967 16.2214 31.4589 15.3151C30.9911 14.8084 30.9828 14.759 31.2636 14.1365C31.5612 13.476 31.8578 12.8145 32.1796 12.099C32.0531 12.1351 31.988 12.1493 31.9266 12.1721C31.1306 12.4615 30.3309 12.7415 29.5395 13.0461C29.2066 13.1742 28.9267 13.1438 28.6217 12.9522C27.4091 12.1892 26.1007 11.6577 24.7188 11.3104C24.6109 11.2829 24.4845 11.206 24.4008 11.336C24.0446 11.8902 23.6076 12.3685 23.0301 12.7918C23.5527 12.8876 23.9944 12.9607 24.4333 13.0518C25.3316 13.2387 26.2067 13.5092 27.0566 13.8613C27.3914 13.9998 27.5253 14.3016 27.4119 14.6005C27.2956 14.9061 27.0083 15.0323 26.6689 14.9194C26.5256 14.872 26.3871 14.8122 26.2448 14.76C23.8893 13.8907 21.4687 13.6354 18.9868 13.9524C17.6226 14.127 16.3058 14.4838 15.0402 15.0342C14.8105 15.1339 14.5799 15.2155 14.3465 15.0551C14.1698 14.9346 14.0759 14.7619 14.0945 14.5427C14.1159 14.294 14.2609 14.1384 14.4804 14.0406C15.4921 13.5889 16.5411 13.2587 17.7212 13.0062L17.7239 13.0043ZM24.0502 8.62855C24.0483 6.4696 22.3457 4.732 20.2282 4.72535C18.0968 4.71871 16.3802 6.4677 16.3839 8.64089C16.3877 10.7951 18.0978 12.545 20.205 12.5507C22.3271 12.5564 24.0521 10.797 24.0493 8.62855H24.0502ZM5.74657 17.6079C6.18829 16.937 6.55747 16.3049 6.7016 15.5666C6.74624 15.337 6.75461 15.0959 6.63465 14.8758C6.43286 14.5056 6.09157 14.4734 5.87769 14.8349C5.36159 15.7071 5.39041 16.6171 5.74657 17.6079Z" fill="#00A6CA"/>
<path d="M12.2356 32.8544C12.2356 32.3694 12.3574 31.838 12.2012 31.4119C12.044 30.9811 11.4916 30.8093 11.1299 30.4999C8.89807 28.5944 7.39811 26.2513 6.9564 23.2724C6.829 22.4145 6.80761 21.5509 6.92199 20.6893C6.95361 20.4492 6.91083 20.2983 6.66999 20.192C6.39473 20.0715 6.14365 19.8893 5.92326 19.6776C5.77633 19.5372 5.68241 19.5543 5.56245 19.7118C5.40622 19.9177 5.23605 20.1132 5.05657 20.2973C4.80271 20.5583 4.48281 20.5725 4.25033 20.3505C4.01599 20.1275 4.00948 19.8086 4.24382 19.5249C4.43074 19.299 4.61858 19.0722 4.82316 18.8634C4.97846 18.704 4.98311 18.573 4.87989 18.3709C4.30055 17.2302 4.22244 16.0402 4.64276 14.833C4.86315 14.2001 5.22861 13.6639 5.91117 13.476C6.79645 13.2321 7.74683 14.0198 7.82867 15.0399C7.87981 15.6852 7.70964 16.2822 7.45205 16.8591C7.21585 17.3887 6.92478 17.8869 6.58722 18.3538C6.45424 18.5389 6.43565 18.6508 6.63186 18.8112C7.15726 19.2402 7.14239 19.2478 7.36092 18.5986C8.3922 15.5391 10.4148 13.3479 13.1236 11.7612C13.849 11.336 14.6069 10.983 15.3964 10.7021C15.5851 10.6347 15.6381 10.574 15.5665 10.3529C14.5529 7.22405 16.3542 4.1702 19.5206 3.63212C22.2964 3.16047 25.0508 5.45228 25.1615 8.32203C25.1828 8.88193 25.1475 9.43614 24.9885 9.97327C24.9383 10.1422 24.9764 10.2029 25.1345 10.2447C26.5108 10.6072 27.8182 11.1434 29.0439 11.8798C29.202 11.9747 29.3303 11.9102 29.4716 11.8589C30.6164 11.4414 31.763 11.0295 32.9058 10.6043C33.1876 10.5 33.4498 10.4468 33.6721 10.7011C33.8925 10.9536 33.8162 11.2231 33.6916 11.4945C33.2648 12.4264 32.85 13.3631 32.4158 14.2912C32.32 14.4962 32.3469 14.6233 32.4957 14.7846C33.4563 15.8257 34.3109 16.9389 34.7062 18.3462C34.7443 18.4838 34.8373 18.5275 34.9526 18.5607C35.2641 18.6518 35.5784 18.7353 35.8853 18.8406C36.5353 19.0627 36.9156 19.5837 36.9222 20.2784C36.9305 21.2843 36.9305 22.2912 36.9222 23.2971C36.9166 24.0401 36.4591 24.6105 35.7514 24.769C35.3329 24.8629 34.9126 24.9531 34.4895 25.0224C34.3026 25.0527 34.2124 25.1305 34.1631 25.3175C33.5661 27.6159 32.293 29.4399 30.4146 30.8302C30.2407 30.9583 30.1923 31.1016 30.1942 31.3075C30.2035 32.0885 30.2035 32.8705 30.196 33.6515C30.183 35.1794 29.1992 36.1787 27.7001 36.1853C27.2835 36.1872 26.866 36.2128 26.4494 36.1493C25.3446 35.9813 24.5096 35.076 24.4556 33.9343C24.4408 33.6287 24.3738 33.5775 24.079 33.6344C22.1708 34.0036 20.2533 34.0302 18.3358 33.7104C18.0736 33.6667 18.0048 33.717 17.9983 33.9979C17.9648 35.428 16.9754 36.4121 15.5777 36.415C15.0923 36.4159 14.6041 36.4653 14.1205 36.3609C13.1032 36.1407 12.3481 35.2952 12.269 34.238C12.2346 33.7796 12.2635 33.3156 12.2635 32.8544H12.2346H12.2356ZM17.7239 13.0043C17.1251 12.6191 16.6611 12.2005 16.277 11.6938C16.1747 11.559 16.0613 11.6634 15.9618 11.6985C13.7978 12.4691 11.8933 13.6582 10.398 15.448C8.22109 18.0539 7.41113 21.0281 8.33175 24.3723C9.04407 26.9592 10.6696 28.8819 12.8279 30.3528C13.211 30.6138 13.3784 30.8985 13.3626 31.3683C13.3329 32.2309 13.344 33.0964 13.358 33.9599C13.3719 34.777 13.8843 35.2762 14.6822 35.2819C15.0188 35.2847 15.3554 35.2914 15.6911 35.279C16.3467 35.2553 16.8526 34.7486 16.8842 34.0833C16.8982 33.7882 16.8889 33.4911 16.8907 33.196C16.8945 32.5308 17.1455 32.3191 17.7881 32.4586C18.333 32.5773 18.8826 32.6646 19.4359 32.7196C21.2297 32.899 23.0012 32.768 24.7514 32.3267C25.2507 32.2015 25.5325 32.433 25.5483 32.9654C25.5567 33.2378 25.5436 33.5101 25.5539 33.7825C25.5818 34.5161 26.0718 35.02 26.7907 35.0494C27.092 35.0617 27.3942 35.0532 27.6955 35.0522C28.5817 35.0475 29.0755 34.5521 29.0811 33.6477C29.0876 32.7367 29.0894 31.8247 29.0792 30.9137C29.0755 30.5768 29.1796 30.332 29.4605 30.1355C31.4003 28.7832 32.6696 26.9526 33.196 24.6057C33.2806 24.2262 33.4963 24.0496 33.8581 23.9899C34.3612 23.9063 34.8587 23.7887 35.3608 23.7023C35.6761 23.6473 35.8193 23.4926 35.8118 23.1519C35.7951 22.4534 35.8118 21.755 35.8053 21.0565C35.7942 19.8589 35.9783 20.0164 34.814 19.7241C34.1398 19.5552 33.6591 19.2791 33.5856 18.517C33.58 18.4601 33.5484 18.406 33.5289 18.35C33.1095 17.1457 32.2967 16.2214 31.4589 15.3151C30.9911 14.8084 30.9828 14.759 31.2636 14.1365C31.5612 13.476 31.8578 12.8145 32.1796 12.099C32.0531 12.1351 31.988 12.1493 31.9266 12.1721C31.1306 12.4615 30.3309 12.7415 29.5395 13.0461C29.2066 13.1742 28.9267 13.1438 28.6217 12.9522C27.4091 12.1892 26.1007 11.6577 24.7188 11.3104C24.6109 11.2829 24.4845 11.206 24.4008 11.336C24.0446 11.8902 23.6076 12.3685 23.0301 12.7918C23.5527 12.8876 23.9944 12.9607 24.4333 13.0518C25.3316 13.2387 26.2067 13.5092 27.0566 13.8613C27.3914 13.9998 27.5253 14.3016 27.4119 14.6005C27.2956 14.9061 27.0083 15.0323 26.6689 14.9194C26.5256 14.872 26.3871 14.8122 26.2448 14.76C23.8893 13.8907 21.4687 13.6354 18.9868 13.9524C17.6226 14.127 16.3058 14.4838 15.0402 15.0342C14.8105 15.1339 14.5799 15.2155 14.3465 15.0551C14.1698 14.9346 14.0759 14.7619 14.0945 14.5427C14.1159 14.294 14.2609 14.1384 14.4804 14.0406C15.4921 13.5889 16.5411 13.2587 17.7212 13.0062L17.7239 13.0043ZM24.0502 8.62855C24.0483 6.4696 22.3457 4.732 20.2282 4.72535C18.0968 4.71871 16.3802 6.4677 16.3839 8.64089C16.3877 10.7951 18.0978 12.545 20.205 12.5507C22.3271 12.5564 24.0521 10.797 24.0493 8.62855H24.0502ZM5.74657 17.6079C6.18829 16.937 6.55747 16.3049 6.7016 15.5666C6.74624 15.337 6.75461 15.0959 6.63465 14.8758C6.43286 14.5056 6.09157 14.4734 5.87769 14.8349C5.36159 15.7071 5.39041 16.6171 5.74657 17.6079Z" stroke="#00A6CA" stroke-width="0.428571" mask="url(#path-1-outside-1_543_86267)"/>
<path d="M32.0361 19.6397C32.0351 18.9952 31.5106 18.4686 30.8665 18.4632V18.4632C30.2218 18.4583 29.689 18.9792 29.6791 19.623L29.6791 19.6231C29.6702 20.2629 30.1914 20.8062 30.8311 20.8201L30.8312 20.8201C31.486 20.8339 32.0361 20.2956 32.0361 19.6398L32.0361 19.6397Z" fill="#00A6CA" stroke="#00A6CA" stroke-width="0.214286"/>
<path d="M19.5842 5.71891C19.5633 5.27791 19.7844 5.01527 20.1221 5.00057C20.4694 4.98587 20.7084 5.25831 20.7056 5.71303C20.7037 5.92177 20.7673 6.01389 20.9589 6.06877L19.5842 5.71891ZM19.5842 5.71891L19.4772 5.72393C19.4772 5.72395 19.4772 5.72396 19.4772 5.72397C19.4825 5.83796 19.4599 5.89717 19.4278 5.93829C19.3915 5.98482 19.3325 6.02281 19.2325 6.07445C18.945 6.22199 18.6969 6.41271 18.5225 6.66066C18.3471 6.91004 18.25 7.21187 18.2571 7.57321L18.2571 7.57322C18.2714 8.30247 18.7022 8.74815 19.2727 9.04686L19.2728 9.04691C19.5482 9.19073 19.8444 9.24236 20.1323 9.27121L20.1329 9.27127C20.158 9.27365 20.1832 9.27527 20.2068 9.27677L20.2105 9.277C20.2332 9.27844 20.2544 9.27978 20.2753 9.28162C20.3196 9.28552 20.3571 9.29127 20.39 9.30187L20.3911 9.30221C20.4749 9.32823 20.5433 9.3569 20.5927 9.3974C20.6379 9.43447 20.6704 9.48385 20.6787 9.56379L20.7853 9.55268M19.5842 5.71891L18.4418 10.6057M20.9589 11.0011C20.7654 11.0932 20.7037 11.1961 20.7065 11.4078C20.7122 11.8773 20.4997 12.1399 20.1487 12.1428C19.7977 12.1458 19.5814 11.888 19.5823 11.4176M20.9589 11.0011L20.4229 9.19988C20.5965 9.25378 20.7625 9.33414 20.7853 9.55268M20.9589 11.0011C21.5177 10.7336 21.9047 10.3063 21.9247 9.6301M20.9589 11.0011L18.4418 10.6057M19.5823 11.4176C19.5823 11.2236 19.5207 11.1383 19.3461 11.0874C19.0207 10.9913 18.7446 10.8051 18.5245 10.5376M19.5823 11.4176L19.4752 11.4174C19.4752 11.4175 19.4752 11.4175 19.4752 11.4175M19.5823 11.4176H19.4752C19.4752 11.4176 19.4752 11.4176 19.4752 11.4175M18.5245 10.5376C18.3025 10.2681 18.3035 9.93684 18.5169 9.71046C18.7446 9.47036 19.0757 9.4635 19.3366 9.7281C19.6762 10.0731 20.0595 10.1152 20.4788 9.9486M18.5245 10.5376L18.4418 10.6057C18.675 10.8891 18.969 11.0878 19.3158 11.1901L19.3161 11.1902C19.3926 11.2126 19.4253 11.2371 19.4426 11.2613C19.4607 11.2865 19.4752 11.3296 19.4752 11.4175M18.5245 10.5376L18.4418 10.6057M20.4788 9.9486C20.6439 9.88294 20.809 9.78298 20.7853 9.55268M20.4788 9.9486L20.4393 9.84903C20.4393 9.84904 20.4393 9.84904 20.4392 9.84905M20.4788 9.9486L20.4392 9.84905M20.7853 9.55268L20.6787 9.56366C20.6873 9.64727 20.6629 9.69896 20.6252 9.73855C20.5828 9.78313 20.5183 9.8176 20.4392 9.84905M20.4392 9.84905C20.2427 9.92714 20.0624 9.95324 19.896 9.9246C19.7307 9.89614 19.5695 9.81197 19.413 9.65293L19.4129 9.65288C19.266 9.50388 19.092 9.42454 18.9153 9.42288C18.7383 9.42122 18.571 9.49769 18.4392 9.63674L18.439 9.63696C18.1835 9.90791 18.1904 10.3004 18.4418 10.6057M21.9247 9.6301L22.0318 9.63331C22.0103 10.3603 21.5893 10.8181 21.0052 11.0978L21.0049 11.0979C20.9171 11.1397 20.8742 11.1771 20.8503 11.2159C20.8263 11.2548 20.8124 11.3099 20.8137 11.4064L20.8137 11.4065C20.8167 11.6559 20.7621 11.8656 20.6462 12.0157C20.5276 12.1693 20.3542 12.2483 20.1496 12.25C19.9452 12.2517 19.7705 12.1761 19.6497 12.0245C19.5317 11.8763 19.4747 11.6674 19.4752 11.4175M21.9247 9.6301L22.0318 9.63326M21.9247 9.6301L22.0318 9.63326M22.0318 9.63326C22.0593 8.71268 21.3476 7.98681 20.3834 7.8918C20.3833 7.89179 20.3832 7.89178 20.3831 7.89177L22.0318 9.63326ZM21.9745 7.31545C21.9648 7.33932 21.954 7.36238 21.9418 7.3846C21.8778 7.50129 21.7823 7.58733 21.6599 7.64912L21.6597 7.64921C21.5202 7.7193 21.3786 7.74334 21.2422 7.71627C21.1062 7.68926 20.9858 7.61351 20.8844 7.50211L20.8842 7.50194C20.7451 7.34837 20.5965 7.26551 20.4408 7.23219C20.2836 7.19855 20.1109 7.21371 19.9224 7.26998C19.8334 7.2968 19.7553 7.32743 19.6996 7.37169C19.6489 7.41193 19.6162 7.46333 19.6145 7.54482C19.6129 7.62753 19.6441 7.67731 19.693 7.71622C19.7481 7.76003 19.8261 7.78987 19.9157 7.81766L19.884 7.92L21.9745 7.31545ZM21.9745 7.31545L22.0125 7.39396L22.0312 7.05721C22.0324 7.04137 22.0333 7.0253 22.0338 7.009L21.9745 7.31545Z" fill="#00A6CA" stroke="#00A6CA" stroke-width="0.214286"/>
</svg>
