<svg width="17" height="16" viewBox="0 0 17 16" fill="none" xmlns="http://www.w3.org/2000/svg">
<path fill-rule="evenodd" clip-rule="evenodd" d="M2.92982 3.53855C1.70002 4.79435 3.22102 7.89485 6.06932 10.7445C8.91892 13.5928 12.0194 15.1138 13.2752 13.884C13.2778 13.8827 13.2791 13.8814 13.2817 13.8801L14.6636 12.4969C14.8638 12.298 14.8638 11.9756 14.6636 11.7754L12.7721 9.88255C12.5719 9.68495 12.2495 9.68495 12.0506 9.88385L10.969 10.9655C10.969 10.9655 9.19712 10.1452 7.93352 8.88155C6.66862 7.61665 5.84962 5.84475 5.84962 5.84475L6.93122 4.76315C7.13012 4.56425 7.13012 4.24185 6.93122 4.04295L5.03842 2.15015C4.83822 1.94995 4.51582 1.94995 4.31692 2.15015L2.93502 3.53205C2.93242 3.53465 2.93112 3.53725 2.92982 3.53855Z" fill="#333333"/>
</svg>
