<svg width="14" height="15" viewBox="0 0 14 15" fill="none" xmlns="http://www.w3.org/2000/svg">
<path d="M12.4161 5.32735L8.94482 4.82286L7.39306 1.67696C7.35068 1.59083 7.28095 1.5211 7.19482 1.47872C6.97881 1.37208 6.71631 1.46094 6.6083 1.67696L5.05654 4.82286L1.58525 5.32735C1.48955 5.34102 1.40205 5.38614 1.33506 5.4545C1.25407 5.53774 1.20944 5.64973 1.21098 5.76586C1.21251 5.88199 1.26009 5.99276 1.34326 6.07383L3.85478 8.52247L3.26142 11.9801C3.24751 12.0605 3.25641 12.1432 3.28712 12.2189C3.31782 12.2945 3.36911 12.36 3.43515 12.408C3.5012 12.4559 3.57936 12.4845 3.66078 12.4903C3.7422 12.4961 3.82362 12.4789 3.8958 12.4408L7.00068 10.8084L10.1056 12.4408C10.1903 12.4859 10.2888 12.501 10.3831 12.4846C10.621 12.4436 10.781 12.218 10.7399 11.9801L10.1466 8.52247L12.6581 6.07383C12.7265 6.00684 12.7716 5.91934 12.7853 5.82364C12.8222 5.58438 12.6554 5.3629 12.4161 5.32735V5.32735Z" fill="#777777"/>
</svg>
