<svg width="14" height="15" viewBox="0 0 14 15" fill="none" xmlns="http://www.w3.org/2000/svg">
<path d="M12.4239 5.87032L8.95263 5.36583L7.40088 2.21993C7.35849 2.13379 7.28877 2.06407 7.20263 2.02168C6.98662 1.91504 6.72412 2.00391 6.61611 2.21993L5.06435 5.36583L1.59306 5.87032C1.49736 5.88399 1.40986 5.92911 1.34287 5.99747C1.26188 6.08071 1.21725 6.1927 1.21879 6.30883C1.22033 6.42496 1.26791 6.53573 1.35107 6.6168L3.8626 9.06543L3.26924 12.5231C3.25532 12.6035 3.26422 12.6862 3.29493 12.7618C3.32563 12.8375 3.37692 12.903 3.44296 12.9509C3.50901 12.9989 3.58717 13.0274 3.66859 13.0332C3.75001 13.039 3.83143 13.0219 3.90361 12.9838L7.00849 11.3514L10.1134 12.9838C10.1981 13.0289 10.2966 13.044 10.3909 13.0275C10.6288 12.9865 10.7888 12.7609 10.7478 12.5231L10.1544 9.06543L12.6659 6.6168C12.7343 6.54981 12.7794 6.46231 12.7931 6.36661C12.83 6.12735 12.6632 5.90586 12.4239 5.87032V5.87032ZM9.09756 8.7209L9.59111 11.5961L7.00849 10.2398L4.42588 11.5975L4.91943 8.72227L2.83037 6.68516L5.71787 6.26543L7.00849 3.65001L8.29912 6.26543L11.1866 6.68516L9.09756 8.7209Z" fill="#777777"/>
</svg>
