<svg width="12" height="13" viewBox="0 0 12 13" fill="none" xmlns="http://www.w3.org/2000/svg">
<path d="M11.4239 4.87032L7.95263 4.36583L6.40088 1.21993C6.35849 1.13379 6.28877 1.06407 6.20263 1.02168C5.98662 0.915044 5.72412 1.00391 5.61611 1.21993L4.06435 4.36583L0.593065 4.87032C0.497361 4.88399 0.409861 4.92911 0.342869 4.99747C0.261879 5.08071 0.21725 5.1927 0.218788 5.30883C0.220327 5.42496 0.267906 5.53573 0.351072 5.6168L2.8626 8.06543L2.26924 11.5231C2.25532 11.6035 2.26422 11.6862 2.29493 11.7618C2.32563 11.8375 2.37692 11.903 2.44296 11.9509C2.50901 11.9989 2.58717 12.0274 2.66859 12.0332C2.75001 12.039 2.83143 12.0219 2.90361 11.9838L6.00849 10.3514L9.11338 11.9838C9.19814 12.0289 9.29658 12.044 9.39092 12.0275C9.62881 11.9865 9.78877 11.7609 9.74775 11.5231L9.15439 8.06543L11.6659 5.6168C11.7343 5.54981 11.7794 5.46231 11.7931 5.36661C11.83 5.12735 11.6632 4.90586 11.4239 4.87032ZM8.09756 7.7209L8.59111 10.5961L6.00849 9.23985L3.42588 10.5975L3.91943 7.72227L1.83037 5.68516L4.71787 5.26543L6.00849 2.65L7.29912 5.26543L10.1866 5.68516L8.09756 7.7209Z" fill="#FFCF00"/>
</svg>
