<svg width="52" height="52" viewBox="0 0 52 52" fill="none" xmlns="http://www.w3.org/2000/svg">
<path d="M0 0H52V52H0V0Z" fill="#7B59E9"/>
<g clip-path="url(#clip0_294_77479)">
<path d="M25.9991 50.9591C39.7841 50.9591 50.9591 39.7841 50.9591 25.9991C50.9591 12.214 39.7841 1.03906 25.9991 1.03906C12.214 1.03906 1.03906 12.214 1.03906 25.9991C1.03906 39.7841 12.214 50.9591 25.9991 50.9591Z" fill="#7B59E9"/>
<path d="M36.8255 14.7303C30.75 13.2629 24.6638 11.5465 18.4334 13.7272C14.3994 15.2399 14.3994 19.61 14.5675 23.3078C14.5675 24.3163 13.391 25.661 13.8951 26.8375C14.9036 30.1991 15.744 33.5607 19.2737 35.2415C19.778 35.5777 19.2737 36.25 19.6099 36.7542C19.4418 36.7542 19.1056 36.9223 19.1056 37.0904C19.1056 37.8961 19.4672 39.1284 19.227 39.9228L29.9526 50.6439C40.9789 48.8879 49.5967 39.9123 50.8092 28.7141L36.8255 14.7303Z" fill="#7B59E9"/>
<path d="M39.2021 18.5803L39.1939 18.5474C38.527 15.8512 35.5203 12.9582 32.7591 12.3563L32.728 12.3499C28.2619 11.4979 23.7335 11.4979 19.2684 12.3499L19.2363 12.3563C16.4761 12.9582 13.4693 15.8514 12.8015 18.5474L12.7941 18.5803C11.9697 22.3455 11.9697 26.164 12.7941 29.9292L12.8015 29.9621C13.4409 32.5431 16.2237 35.3034 18.8818 36.0624V39.072C18.8818 40.1614 20.2093 40.6964 20.9641 39.9102L24.0135 36.7406C24.6749 36.7776 25.3366 36.7982 25.9982 36.7982C28.2462 36.7982 30.4954 36.5856 32.7279 36.1597L32.759 36.1533C35.5202 35.5514 38.5269 32.6582 39.1938 29.9622L39.202 29.9293C40.0265 26.164 40.0265 22.3457 39.2021 18.5803ZM36.7889 29.3833C36.3436 31.1422 34.0607 33.329 32.2468 33.733C29.8722 34.1846 27.4787 34.3776 25.0876 34.3114C25.04 34.31 24.9943 34.3286 24.9613 34.3627C24.6219 34.7109 22.7348 36.6483 22.7348 36.6483L20.3668 39.0787C20.1936 39.2593 19.8894 39.1364 19.8894 38.8873V33.9015C19.8894 33.8191 19.8306 33.7492 19.7497 33.7332C19.7492 33.733 19.7488 33.733 19.7483 33.7329C17.9344 33.3289 15.6523 31.1422 15.2063 29.3832C14.4642 25.9798 14.4642 22.5297 15.2063 19.1263C15.6523 17.3674 17.9344 15.1806 19.7483 14.7766C23.8956 13.9878 28.1006 13.9878 32.2469 14.7766C34.0617 15.1806 36.3437 17.3674 36.789 19.1263C37.5318 22.5298 37.5318 25.9799 36.7889 29.3833Z" fill="white"/>
<path d="M29.9431 31.6831C29.6642 31.5984 29.3985 31.5415 29.1516 31.4393C26.594 30.3782 24.2404 29.0093 22.3761 26.911C21.3159 25.7178 20.4861 24.3706 19.7847 22.945C19.452 22.2689 19.1717 21.5664 18.8859 20.8683C18.6254 20.2318 19.0091 19.5743 19.4132 19.0946C19.7924 18.6444 20.2803 18.3001 20.8088 18.0461C21.2212 17.848 21.628 17.9622 21.9293 18.3118C22.5804 19.0676 23.1786 19.862 23.6628 20.7381C23.9607 21.277 23.879 21.9357 23.3391 22.3024C23.2079 22.3915 23.0883 22.4963 22.9662 22.5969C22.8589 22.6851 22.7581 22.7742 22.6846 22.8937C22.5503 23.1122 22.5439 23.3701 22.6303 23.6077C23.2959 25.4369 24.4179 26.8594 26.2591 27.6256C26.5538 27.7482 26.8496 27.8908 27.1891 27.8514C27.7575 27.785 27.9416 27.1613 28.34 26.8356C28.7293 26.5173 29.2269 26.5131 29.6463 26.7785C30.0658 27.0441 30.4724 27.3289 30.8766 27.6171C31.2735 27.8998 31.6684 28.1762 32.0344 28.4987C32.3863 28.8086 32.5075 29.2152 32.3093 29.6357C31.9466 30.406 31.4186 31.0467 30.6573 31.4558C30.4423 31.5711 30.1855 31.6084 29.9431 31.6831C30.1855 31.6084 29.6642 31.5984 29.9431 31.6831Z" fill="white"/>
<path d="M26.0052 17.1654C29.3503 17.2592 32.098 19.4792 32.6868 22.7864C32.7871 23.3499 32.8228 23.9259 32.8675 24.498C32.8863 24.7385 32.75 24.967 32.4904 24.9703C32.2223 24.9735 32.1017 24.749 32.0841 24.5087C32.0497 24.0327 32.0258 23.5545 31.9602 23.0826C31.614 20.5906 29.6269 18.5289 27.1465 18.0866C26.7732 18.02 26.3914 18.0025 26.0132 17.9628C25.7742 17.9378 25.4612 17.9233 25.4083 17.6262C25.3639 17.3771 25.5741 17.1787 25.8114 17.166C25.8756 17.1622 25.9405 17.1652 26.0052 17.1654C29.3505 17.2592 25.9405 17.1652 26.0052 17.1654Z" fill="white"/>
<path d="M31.088 23.7566C31.0824 23.7984 31.0796 23.8966 31.055 23.989C30.9663 24.3248 30.457 24.3668 30.3399 24.028C30.3051 23.9275 30.2999 23.813 30.2997 23.7048C30.2985 22.9964 30.1446 22.2885 29.7872 21.672C29.4199 21.0384 28.8587 20.5059 28.2007 20.1835C27.8027 19.9887 27.3724 19.8675 26.9362 19.7955C26.7456 19.7639 26.553 19.7448 26.3614 19.7181C26.1292 19.6859 26.0052 19.538 26.0163 19.3092C26.0266 19.0949 26.1832 18.9406 26.4168 18.9539C27.1845 18.9974 27.926 19.1636 28.6086 19.5249C29.9965 20.2599 30.7893 21.42 31.0208 22.9692C31.0312 23.0395 31.048 23.1089 31.0534 23.1793C31.0664 23.353 31.0747 23.5271 31.088 23.7566C31.0824 23.7982 31.0747 23.5271 31.088 23.7566Z" fill="white"/>
<path d="M29.0069 23.6751C28.7271 23.6802 28.5773 23.5252 28.5484 23.2688C28.5284 23.0899 28.5124 22.9086 28.4697 22.7345C28.3856 22.3916 28.2034 22.0739 27.915 21.8638C27.7789 21.7646 27.6246 21.6924 27.463 21.6456C27.2578 21.5862 27.0444 21.6026 26.8398 21.5525C26.6174 21.498 26.4943 21.3178 26.5293 21.1092C26.5611 20.9193 26.7458 20.7711 26.9534 20.7862C28.2503 20.8798 29.1772 21.5503 29.3096 23.0772C29.319 23.1849 29.3299 23.2987 29.306 23.4019C29.2649 23.5781 29.1342 23.6666 29.0069 23.6751C29.1342 23.6666 28.727 23.6801 29.0069 23.6751Z" fill="white"/>
<path d="M39.2052 18.5799L39.197 18.5469C38.8232 17.0356 37.7138 15.4625 36.3248 14.2656L34.4471 15.9298C35.5637 16.8194 36.5203 18.0519 36.7922 19.1258C37.5351 22.5292 37.5351 25.9793 36.7922 29.3828C36.3469 31.1418 34.0639 33.3285 32.2501 33.7326C29.8755 34.1842 27.482 34.3771 25.0909 34.3109C25.0433 34.3096 24.9976 34.3281 24.9645 34.3622C24.6251 34.7105 22.7381 36.6478 22.7381 36.6478L20.37 39.0783C20.1969 39.2589 19.8927 39.1361 19.8927 38.8868V33.9011C19.8927 33.8187 19.8339 33.7488 19.753 33.7328C19.7525 33.7328 19.7521 33.7326 19.7516 33.7326C18.7207 33.503 17.5391 32.6973 16.6289 31.722L14.7734 33.3662C15.9322 34.6267 17.4268 35.6458 18.8848 36.0621V39.0718C18.8848 40.1611 20.2123 40.6961 20.9671 39.91L24.0164 36.7403C24.6779 36.7773 25.3394 36.798 26.0011 36.798C28.2492 36.798 30.4983 36.5853 32.7309 36.1594L32.762 36.1531C35.5232 35.5512 38.5299 32.6582 39.1968 29.9621L39.205 29.9291C40.0295 26.1635 40.0295 22.3453 39.2052 18.5799Z" fill="white"/>
<path d="M29.9439 31.6848C29.665 31.6001 30.1863 31.6102 29.9439 31.6848V31.6848Z" fill="white"/>
<path d="M32.0362 28.5024C31.6703 28.1801 31.2751 27.9035 30.8785 27.6208C30.4742 27.3327 30.0676 27.0478 29.6481 26.7822C29.2288 26.5168 28.7312 26.521 28.3418 26.8393C27.9434 27.1651 27.7594 27.7887 27.1909 27.8551C26.8515 27.8945 26.5556 27.7518 26.2609 27.6293C25.1281 27.158 24.2685 26.4373 23.6189 25.5273L22.2383 26.751C22.2852 26.8053 22.3299 26.861 22.3776 26.9147C24.242 29.013 26.5958 30.3819 29.1531 31.443C29.3999 31.5453 29.6657 31.6023 29.9446 31.6868C29.6657 31.6021 30.1872 31.6122 29.9446 31.6868C30.1872 31.6122 30.4438 31.5747 30.659 31.4594C31.4206 31.0503 31.9483 30.4096 32.311 29.6393C32.5093 29.2189 32.3881 28.8123 32.0362 28.5024Z" fill="white"/>
<path d="M26.0039 17.168C26.0067 17.168 26.0095 17.1683 26.0123 17.1683C26.1979 17.1749 29.2173 17.2581 26.0039 17.168Z" fill="white"/>
<path d="M30.8035 19.1562L30.2148 19.678C31.1398 20.5779 31.7777 21.7706 31.96 23.0832C32.0255 23.5553 32.0496 24.0333 32.084 24.5093C32.1015 24.7498 32.222 24.9742 32.4903 24.971C32.7499 24.9678 32.8862 24.7394 32.8673 24.4988C32.8226 23.9268 32.787 23.3506 32.6867 22.7871C32.429 21.3395 31.7575 20.1001 30.8035 19.1562Z" fill="white"/>
<path d="M31.0212 22.9667C30.8526 21.8378 30.3843 20.9166 29.6065 20.2148L29.0195 20.735C29.323 21.0044 29.5856 21.3208 29.7878 21.6697C30.1452 22.2862 30.2991 22.9941 30.3003 23.7025C30.3005 23.8107 30.3057 23.9252 30.3405 24.0259C30.4578 24.3649 30.9669 24.3229 31.0556 23.9869C31.0802 23.8943 31.083 23.7961 31.0886 23.7545C31.0751 23.5251 31.083 23.7963 31.0886 23.7545C31.0751 23.5251 31.0669 23.3509 31.0538 23.177C31.0486 23.1063 31.0317 23.0369 31.0212 22.9667Z" fill="white"/>
<path d="M31.0933 23.7574C31.08 23.5279 31.0877 23.7991 31.0933 23.7574V23.7574Z" fill="white"/>
<path d="M29.0077 23.6748C29.012 23.6745 29.0161 23.6724 29.0202 23.6719C29.0086 23.6719 28.9909 23.6722 28.9727 23.6728C28.9845 23.6731 28.9953 23.6749 29.0077 23.6748Z" fill="white"/>
<path d="M29.0106 23.6778C28.9981 23.678 28.9869 23.6762 28.9749 23.6758C28.9143 23.6774 28.8518 23.6807 29.0106 23.6778Z" fill="white"/>
<path d="M29.0237 23.6719C29.0196 23.6723 29.0157 23.6744 29.0117 23.6747C29.0425 23.6726 29.0399 23.6719 29.0237 23.6719Z" fill="white"/>
<path d="M28.4178 21.2734L27.8203 21.8031C27.8533 21.823 27.8855 21.8439 27.9168 21.8666C28.2053 22.0767 28.3875 22.3944 28.4715 22.7373C28.5142 22.9114 28.53 23.0926 28.5502 23.2716C28.5778 23.5166 28.7169 23.6673 28.973 23.676C28.9916 23.6755 29.0099 23.6752 29.0215 23.6751C29.1448 23.6614 29.2683 23.575 29.3078 23.4046C29.3317 23.3015 29.3208 23.1876 29.3113 23.0798C29.237 22.2262 28.9143 21.6405 28.4178 21.2734Z" fill="white"/>
</g>
<defs>
<clipPath id="clip0_294_77479">
<rect width="49.92" height="49.92" fill="white" transform="translate(1.03906 1.03906)"/>
</clipPath>
</defs>
</svg>
