<svg width="48" height="48" viewBox="0 0 48 48" fill="none" xmlns="http://www.w3.org/2000/svg">
<g clip-path="url(#clip0_294_77475)">
<circle cx="23.9999" cy="25.8202" r="18.1913" fill="white"/>
<path d="M24.0002 0.351562C10.9414 0.351562 0.351562 10.9414 0.351562 24.0002C0.351562 37.059 10.9414 47.6489 24.0002 47.6489C37.059 47.6489 47.6489 37.059 47.6489 24.0002C47.6489 10.9414 37.059 0.351562 24.0002 0.351562ZM24.5014 37.7692C24.5011 37.7692 24.5018 37.7692 24.5014 37.7692H24.4957C22.1267 37.7681 19.7988 37.1741 17.7315 36.0468L10.2284 38.0145L12.2365 30.6821C10.9977 28.5365 10.346 26.1022 10.3471 23.6083C10.3503 15.8068 16.6999 9.45977 24.5014 9.45977C28.2875 9.46121 31.8415 10.9349 34.5136 13.6092C37.186 16.2838 38.6568 19.8389 38.6554 23.6195C38.6522 31.4214 32.3019 37.7692 24.5014 37.7692Z" fill="#34C456"/>
<path d="M24.5078 11.8516C18.0186 11.8516 12.7412 17.1268 12.7383 23.6113C12.7376 25.8334 13.3597 27.9974 14.5371 29.8699L14.8168 30.3148L13.6281 34.6547L18.0807 33.487L18.5104 33.7418C20.3165 34.8135 22.3871 35.3804 24.498 35.3811H24.5027C30.9868 35.3811 36.2643 30.1055 36.2672 23.6207C36.2682 20.478 35.0457 17.5234 32.8247 15.3006C30.6036 13.0777 27.6497 11.8526 24.5078 11.8516ZM31.4274 28.6675C31.1326 29.4931 29.7199 30.247 29.0404 30.3487C28.4309 30.4397 27.6602 30.4775 26.8129 30.2087C26.299 30.0456 25.6405 29.828 24.7965 29.4639C21.2489 27.9325 18.9319 24.3615 18.7551 24.1255C18.5783 23.8895 17.311 22.2083 17.311 20.4679C17.311 18.7279 18.2246 17.8723 18.5487 17.5187C18.8731 17.1647 19.2563 17.0763 19.492 17.0763C19.7276 17.0763 19.9636 17.0785 20.1696 17.0886C20.3869 17.0994 20.6784 17.0059 20.9653 17.6955C21.2601 18.4035 21.9674 20.1435 22.0558 20.3203C22.1442 20.4975 22.203 20.7039 22.0854 20.9399C21.9674 21.1759 21.5755 21.6851 21.2013 22.1491C21.0443 22.3436 20.8397 22.5168 21.0461 22.8708C21.2522 23.2245 21.9623 24.3824 23.0135 25.3199C24.3645 26.5244 25.5041 26.8976 25.8577 27.0747C26.211 27.2515 26.4174 27.222 26.6238 26.9863C26.8298 26.7503 27.5079 25.9539 27.7435 25.5999C27.9792 25.2459 28.2152 25.3051 28.5392 25.4231C28.8636 25.5408 30.6022 26.3963 30.9558 26.5731C31.3094 26.7503 31.5451 26.8387 31.6335 26.9863C31.7223 27.1339 31.7223 27.8415 31.4274 28.6675Z" fill="#34C456"/>
</g>
<defs>
<clipPath id="clip0_294_77475">
<rect width="47.2973" height="47.2973" fill="white" transform="translate(0.351562 0.351562)"/>
</clipPath>
</defs>
</svg>
